<!-- Generated by IcoMoon.io -->
<svg version="1.1" xmlns="http://www.w3.org/2000/svg" width="98" height="32" viewBox="0 0 98 32">
<title>alipay</title>
<path fill="#00a1e9" d="M5.572 0c-3.081 0-5.572 2.295-5.572 5.126v21.747c0 2.831 2.492 5.126 5.572 5.126h23.639c3.078 0 5.568-2.295 5.568-5.126v-0.222c-0.102-0.041-9.037-3.469-13.581-5.478-3.061 3.469-7.014 5.574-11.119 5.574-6.94 0-9.295-5.589-6.010-9.265 0.717-0.802 1.937-1.568 3.827-1.997 2.959-0.67 7.667 0.416 12.081 1.758 0.794-1.346 1.461-2.829 1.958-4.405h-13.598v-1.267h7.012v-2.274h-8.497v-1.267h8.495v-3.243s0-0.544 0.602-0.544h3.428v3.787h8.397v1.267h-8.397v2.274h6.854c-0.683 2.56-1.677 4.804-2.961 6.846l0.060-0.102c2.080 0.693 3.947 1.35 5.34 1.779 4.64 1.429 5.943 1.604 6.11 1.621v-16.589c0-2.831-2.492-5.126-5.57-5.126h-23.637zM9.387 17.338c-0.299 0.004-0.597 0.019-0.9 0.045-0.868 0.081-2.498 0.433-3.392 1.161-2.673 2.144-1.073 6.065 4.339 6.065 3.145 0 6.287-1.85 8.755-4.813-3.183-1.427-5.924-2.487-8.802-2.458z"></path>
<path fill="#6a6a6a" d="M94.43 20.427l-1.57 3.153-1.591-3.153h-1.557l2.423 4.358v3.040h1.429v-3.040l0.009-0.017 2.411-4.341h-1.553zM82.94 22.334l1.107 3.070h-2.255l1.146-3.070zM84.388 26.336l0.533 1.489h1.493l-2.944-7.398h-1.143l-2.938 7.398h1.5l0.555-1.489h2.944zM73.222 23.964h-1.589v-2.53h1.589c0.798 0 1.276 0.646 1.276 1.269 0 0.612-0.448 1.261-1.276 1.261zM73.303 20.427h-3.108v7.398h1.438v-2.844h1.67c1.551 0 2.635-0.939 2.635-2.278s-1.084-2.276-2.635-2.276zM62.923 27.825h1.44v-7.398h-1.44v7.398zM52.804 20.427v7.401h4.843v-1.009h-3.405v-6.391h-1.438zM44.608 22.334l1.107 3.070h-2.253l1.146-3.070zM46.057 26.336l0.533 1.489h1.493l-2.944-7.398h-1.143l-2.935 7.398h1.495l0.557-1.489h2.944zM56.183 5.963h-6.172v-2.046h7.157v-1.271h-7.157v-2.594h-3.189c-0.004-0-0.008-0-0.013-0-0.337 0-0.611 0.27-0.619 0.605v1.987h-7.108v1.274h7.108v2.048h-5.999v1.271h11.947s-0.663 2.389-3.94 4.96c-2.935-2.054-3.917-3.691-3.917-3.691h-3.204c1.297 2.076 3.138 3.742 5.122 5.062-1.822 1.094-4.186 2.15-7.241 2.995v1.525s4.715-0.823 9.271-3.307c4.563 2.464 9.146 3.307 9.146 3.307v-1.444c-2.933-0.988-5.257-2.074-7.083-3.121 2.645-1.813 4.96-4.271 5.888-7.561zM76.226 0.307h-3.213v3.104h-7.917v1.25h7.917v11.164c-0.034 0.261-0.252 0.462-0.518 0.469l-0.001 0h-1.632v1.291h4.162c0.645-0.007 1.169-0.516 1.201-1.153l0-0.003v-11.767h1.303v-1.248h-1.301v-3.106zM69.453 6.769c-0.126-0.227-0.363-0.378-0.637-0.378-0 0-0.001 0-0.001 0h-2.675l2.084 6.074h3.168l-1.939-5.696zM61.549 0.16l-3.684 8.062h2.827v9.591h3.091v-12.723h-1.12l2.325-4.93h-3.439zM97.391 17.376l-1.129-3.531c-0.083-0.227-0.297-0.386-0.548-0.386-0.003 0-0.006 0-0.009 0h-2.993l0.868 2.709h-3.52v-5.25h6.912v-1.25h-6.912v-2.47h6.912v-1.25h-17.244v1.25h6.908v2.47h-6.908v1.25h6.908v5.248h-6.908v1.25h17.664l-0.015-0.043h0.013zM83.322 2.965h10.063v1.843h3.595v-2.193c-0.014-0.498-0.421-0.896-0.921-0.896-0.004 0-0.008 0-0.012 0h-5.817v-1.719h-3.761v1.719h-6.741v3.093h3.595v-1.847z"></path>
</svg>
