<!-- Generated by IcoMoon.io -->
<svg version="1.1" xmlns="http://www.w3.org/2000/svg" width="27" height="32" viewBox="0 0 27 32">
<title>driver</title>
<path d="M10.069 17.261c-2.561-2.955-3.268-6.429-3.757-9.987-0.079-0.402-0.244-0.755-0.475-1.055l0.004 0.006c-1.292-1.809-1.166-3.311 0.791-4.391 1.398-0.753 3.022-1.319 4.739-1.609l0.093-0.013c0.711-0.135 1.529-0.212 2.365-0.212 2.136 0 4.155 0.504 5.944 1.398l-0.077-0.035c2.296 1.11 3.22 3.184 1.359 5.054-0.435 0.434-0.344 1.399-0.477 2.122-0.562 3.124-1.287 6.182-3.624 8.709 2.102 0.832 3.992 1.616 5.913 2.322 1.54 0.567 2.681 1.61 2.953 3.166 0.477 2.75 0.719 5.548 0.954 8.335 0 0.278-0.658 0.88-1.015 0.88-8.148 0.048-16.308 0.030-24.449 0.048-0.852 0-1.208-0.356-1.142-1.17 0.266-2.539 0.447-5.090 0.87-7.605 0.149-0.916 0.546-1.72 1.12-2.365l-0.004 0.005c0.578-0.649 1.328-1.134 2.179-1.383l0.033-0.008c1.848-0.633 3.648-1.405 5.702-2.214zM1.070 30.752h24.927c-0.356-2.527-0.604-4.915-1.081-7.237-0.195-0.956-0.717-1.766-1.441-2.327l-0.009-0.007c-1.23-0.697-2.684-1.373-4.192-1.937l-0.217-0.071-5.291 10.855-0.532-0.060-5.436-10.657-2.561 0.965c-1.504 0.603-2.881 1.339-3.165 3.106-0.375 2.394-0.659 4.812-1.002 7.369zM13.512 7.919c2.102-0.639 4.18-1.061 6.040-1.906s1.812-2.267 0.103-3.432c-2.779-1.906-9.483-1.906-12.316 0-1.685 1.128-1.745 2.611 0.097 3.437s3.98 1.26 6.076 1.9zM8.178 11.273c0.55 2.183 1.341 4.143 3.117 5.536 0.606 0.496 1.388 0.797 2.241 0.797s1.635-0.301 2.247-0.802l-0.006 0.005c1.776-1.399 2.488-3.389 3.093-5.494-1.581 0.346-3.398 0.545-5.26 0.545-1.924 0-3.798-0.212-5.601-0.613l0.171 0.032v-0.006zM7.484 7.43c0.139 1.924 1.208 3.112 3.020 3.19 2.005 0.085 4.022 0.085 6.040 0 1.812-0.072 2.851-1.206 3.056-3.226-1.807 0.744-3.905 1.176-6.104 1.176-2.164 0-4.231-0.419-6.123-1.179l0.11 0.039zM18.145 18.545h-3.575c-0.743 0-1.559 0.175-2.211-0.073-1.299-0.501-2.296 0-3.473 0.603l2.416 4.771 0.471-0.073c0.030-0.603 0.109-1.206 0.085-1.767-0.060-2.219 0.024-2.334 1.703-2.334s1.721 0.181 1.594 2.376c-0.006 0.515 0.016 1.031 0.066 1.544l0.441 0.036 2.483-5.084zM13.494 22.923c-1.667 2.37-1.637 3.124 0.103 4.782 1.558-2.497 1.558-2.665-0.103-4.782z"></path>
<path d="M18.855 21.512c0.539-0.211 1.164-0.333 1.817-0.333 0.597 0 1.171 0.102 1.704 0.29l-0.036-0.011v0.671h-3.467l-0.018-0.617z"></path>
</svg>
