<!-- Generated by IcoMoon.io -->
<svg version="1.1" xmlns="http://www.w3.org/2000/svg" width="42" height="32" viewBox="0 0 42 32">
<title>envelope</title>
<path d="M38.169 0.062h-34.491c-2.026 0-3.678 1.652-3.678 3.68v24.517c0 2.021 1.644 3.68 3.678 3.68h34.491c2.018 0 3.678-1.647 3.678-3.68v-24.517c0-2.021-1.644-3.68-3.678-3.68zM37.659 2.513l-16.657 16.662-16.805-16.662h33.465zM2.452 27.751v-23.515l11.808 11.707-11.808 11.808zM4.185 29.487l11.815-11.815 4.143 4.103c0.221 0.219 0.526 0.354 0.862 0.354 0.338 0 0.645-0.137 0.866-0.359l4.037-4.037 11.754 11.756h-33.477zM39.394 27.751l-11.751-11.751 11.751-11.751v23.503z"></path>
</svg>
