<!-- Generated by IcoMoon.io -->
<svg version="1.1" xmlns="http://www.w3.org/2000/svg" width="33" height="32" viewBox="0 0 33 32">
<title>like</title>
<path d="M33.225 19.116c0-0.001 0-0.002 0-0.004 0-0.85-0.345-1.619-0.902-2.176v0c0.559-0.609 0.901-1.425 0.901-2.32 0-0.114-0.005-0.226-0.016-0.337l0.001 0.014c-0.162-1.76-1.748-3.139-3.611-3.139h-8.552c0.423-1.286 1.102-3.644 1.102-5.538 0-3.003-2.552-5.538-4.154-5.538-1.437 0-2.466 0.81-2.509 0.843-0.159 0.128-0.26 0.323-0.26 0.541 0 0 0 0 0 0v0 4.695l-3.989 8.638-0.165 0.085v-0.265c0-0.382-0.31-0.692-0.692-0.692h-6.924c-1.911 0.002-3.46 1.55-3.462 3.461v11.077c0.002 1.911 1.55 3.46 3.461 3.462h4.154c1.491-0.002 2.761-0.944 3.25-2.265l0.008-0.024c1.152 0.593 2.703 0.905 3.665 0.905h12.71c1.508 0 2.827-1.017 3.137-2.417 0.049-0.207 0.077-0.446 0.077-0.69 0-0.507-0.121-0.985-0.335-1.409l0.008 0.018c1.023-0.522 1.711-1.567 1.711-2.773 0-0.503-0.12-0.978-0.332-1.399l0.008 0.018c1.021-0.522 1.708-1.566 1.708-2.77v-0zM30.305 20.824c-0.271 0.033-0.492 0.217-0.577 0.465l-0.001 0.005c-0.085 0.256-0.014 0.537 0.182 0.722 0.352 0.331 0.548 0.777 0.548 1.253-0.003 0.883-0.669 1.61-1.527 1.708l-0.008 0.001c-0.271 0.033-0.492 0.217-0.577 0.465l-0.001 0.005c-0.085 0.256-0.014 0.537 0.183 0.722 0.455 0.43 0.638 1.031 0.501 1.652-0.17 0.773-0.921 1.332-1.785 1.332h-12.71c-1.124 0-3.010-0.527-3.663-1.183-0.125-0.126-0.299-0.204-0.49-0.204-0.382 0-0.692 0.31-0.692 0.692 0 0.001 0 0.001 0 0.002v-0c-0.002 1.146-0.931 2.075-2.077 2.077h-4.154c-1.146-0.002-2.075-0.931-2.077-2.077v-11.077c0.002-1.146 0.931-2.075 2.077-2.077h6.231v0.692c0 0.24 0.125 0.462 0.329 0.59 0.104 0.063 0.229 0.1 0.363 0.1 0.113 0 0.219-0.026 0.314-0.073l-0.004 0.002 1.385-0.692c0.14-0.070 0.252-0.186 0.318-0.329l4.154-9c0.042-0.091 0.064-0.191 0.064-0.29v-4.471c0.288-0.159 0.788-0.375 1.385-0.375 0.759 0 2.769 1.886 2.769 4.154 0 2.437-1.326 5.95-1.339 5.984-0.080 0.212-0.052 0.452 0.076 0.64 0.13 0.187 0.343 0.299 0.57 0.299h9.527c1.155 0 2.135 0.826 2.232 1.882 0.006 0.057 0.009 0.124 0.009 0.191 0 0.745-0.394 1.399-0.986 1.763l-0.009 0.005c-0.198 0.125-0.327 0.342-0.327 0.59 0 0.266 0.15 0.498 0.37 0.615l0.004 0.002c0.566 0.287 0.948 0.864 0.949 1.53v0c-0.004 0.883-0.67 1.61-1.527 1.708l-0.008 0.001z"></path>
</svg>
