<!-- Generated by IcoMoon.io -->
<svg version="1.1" xmlns="http://www.w3.org/2000/svg" width="30" height="32" viewBox="0 0 30 32">
<title>little-kid</title>
<path d="M9.906 20.333c1.026 0 1.858-0.896 1.858-2s-0.832-2-1.858-2c-1.026 0-1.856 0.896-1.856 2s0.83 2 1.856 2z"></path>
<path d="M27.588 14.95c0.142-1.312 0.27-2.807 0.27-3.833 0.002-7.369-7.97-10.117-12.999-10.117-3.262 0-5.614 1.883-6.407 2.615-2.475 0.155-6.594 1.851-6.594 7.502 0 1.042 0.13 2.53 0.27 3.835-1.255 0.551-2.126 1.858-2.126 3.383 0 1.925 1.39 3.49 3.143 3.637 1.678 5.243 6.29 9.029 11.714 9.029s10.034-3.783 11.714-9.029c1.753-0.146 3.143-1.714 3.143-3.639 0-1.522-0.871-2.83-2.128-3.383zM24.983 20.769l-0.005 0.007v0.005c-1.271 4.741-5.321 8.219-10.119 8.219-5.232 0-9.573-4.137-10.389-9.534l1.234-4.656c1.104-0.377 3.575-1.445 4.658-3.701 1.664 1.696 5.394 3.776 13.701 3.886l1.186 4.464c-0.069 0.443-0.155 0.882-0.27 1.31z"></path>
<path d="M19.813 20.333c1.026 0 1.856-0.896 1.856-2s-0.83-2-1.856-2c-1.026 0-1.858 0.896-1.858 2s0.832 2 1.858 2zM17.31 23.279c-0.616 0.65-1.486 1.055-2.45 1.055s-1.834-0.405-2.449-1.053l-0.001-0.002c-0.162-0.172-0.391-0.279-0.645-0.279-0.267 0-0.506 0.118-0.669 0.305l-0.001 0.001c-0.162 0.185-0.261 0.428-0.261 0.695 0 0.279 0.108 0.532 0.284 0.721l-0.001-0.001c0.943 0.99 2.27 1.606 3.741 1.607h0c1.353 0 2.709-0.535 3.739-1.607 0.176-0.188 0.284-0.442 0.284-0.721 0-0.267-0.099-0.511-0.262-0.697l0.001 0.001c-0.163-0.187-0.401-0.304-0.667-0.304-0.254 0-0.483 0.107-0.644 0.278l-0 0z"></path>
</svg>
