<!-- Generated by IcoMoon.io -->
<svg version="1.1" xmlns="http://www.w3.org/2000/svg" width="18" height="32" viewBox="0 0 18 32">
<title>luggage</title>
<path d="M15.478 8.533h-3.2v-5.867h1.067c0.295 0 0.533-0.239 0.533-0.533v-1.6c0-0.295-0.239-0.533-0.533-0.533h-8.533c-0.295 0-0.533 0.239-0.533 0.533v1.6c0 0.295 0.239 0.533 0.533 0.533h1.067v5.867h-3.2c-1.472 0.002-2.665 1.195-2.667 2.667v16.533c0.002 1.472 1.195 2.665 2.667 2.667v1.067c0 0.295 0.239 0.533 0.533 0.533h2.133c0.295 0 0.533-0.239 0.533-0.533v-1.067h6.4v1.067c0 0.295 0.239 0.533 0.533 0.533h2.133c0.295 0 0.533-0.239 0.533-0.533v-1.067c1.472-0.002 2.665-1.195 2.667-2.667v-16.533c-0.002-1.472-1.195-2.665-2.667-2.667zM5.345 1.067h7.467v0.533h-7.467zM6.945 2.667h4.267v5.867h-4.267zM4.811 30.933h-1.067v-0.533h1.067zM14.411 30.933h-1.067v-0.533h1.067zM17.078 27.733c0 0.884-0.716 1.6-1.6 1.6h-12.8c-0.884 0-1.6-0.716-1.6-1.6v-16.533c0-0.884 0.716-1.6 1.6-1.6h12.8c0.884 0 1.6 0.716 1.6 1.6z"></path>
<path d="M9.078 10.667c-0.295 0-0.533 0.239-0.533 0.533v16.533c0 0.295 0.239 0.533 0.533 0.533s0.533-0.239 0.533-0.533v-16.533c0-0.295-0.239-0.533-0.533-0.533z"></path>
<path d="M13.345 11.733c-0.295 0-0.533 0.239-0.533 0.533v14.4c0 0.295 0.239 0.533 0.533 0.533s0.533-0.239 0.533-0.533v-14.4c0-0.295-0.239-0.533-0.533-0.533z"></path>
<path d="M4.812 11.733c-0.295 0-0.533 0.239-0.533 0.533v14.4c0 0.295 0.239 0.533 0.533 0.533s0.533-0.239 0.533-0.533v-14.4c0-0.295-0.239-0.533-0.533-0.533z"></path>
</svg>
