<!-- Generated by IcoMoon.io -->
<svg version="1.1" xmlns="http://www.w3.org/2000/svg" width="32" height="32" viewBox="0 0 32 32">
<title>mic</title>
<path d="M27.564 13.227h-0.080v-1.941c0-6.233-5.053-11.286-11.286-11.286s-11.286 5.053-11.286 11.286v0 1.941h-0.475c-1.744 0-3.090 1.546-3.090 3.328v4.95c-0.001 0.023-0.001 0.050-0.001 0.077 0 1.714 1.378 3.106 3.087 3.129l0.002 0h2.931c0.4-0.019 0.718-0.348 0.718-0.751 0-0.028-0.002-0.057-0.005-0.084l0 0.003v-9.701c0-0.475-0.277-0.95-0.714-0.95h-0.87v-1.942c0-5.359 4.344-9.703 9.703-9.703s9.703 4.344 9.703 9.703v0 1.941h-0.872c-0.435 0-0.714 0.475-0.714 0.95v9.704c-0.003 0.024-0.004 0.052-0.004 0.081 0 0.403 0.318 0.733 0.716 0.751l0.002 0h0.912l-0.080 0.118c-1.154 1.523-2.963 2.496-5 2.496-0.011 0-0.021-0-0.032-0h0.002c-0.376-1.804-1.953-3.14-3.842-3.14-2.155 0-3.904 1.739-3.92 3.891v0.002c0.023 2.17 1.787 3.92 3.96 3.92 0 0 0 0 0 0h-0c1.119-0.019 2.125-0.485 2.85-1.226l0.001-0.001c0.507-0.52 0.84-1.184 0.95-1.902 0.009 0 0.020 0 0.032 0 2.553 0 4.82-1.22 6.252-3.109l0.014-0.020 0.752-1.109c1.702-0.118 2.773-1.189 2.773-2.733v-4.95c0-1.702-1.267-3.723-3.088-3.723zM6.496 23.128h-2.059c-0.837-0.020-1.508-0.704-1.508-1.544 0-0.028 0.001-0.055 0.002-0.083l-0 0.004v-4.952c0-0.91 0.634-1.742 1.504-1.742h2.061v8.317zM18.732 29.664c-0.425 0.46-1.030 0.748-1.702 0.752h-0.001c-1.29-0.021-2.332-1.050-2.376-2.332l-0-0.004c0-0 0-0.001 0-0.002 0-1.29 1.046-2.336 2.336-2.336s2.335 1.045 2.336 2.334v0.003c0.034 0.587-0.182 1.162-0.592 1.584zM29.068 21.901c0 1.069-1.029 1.227-1.504 1.227h-1.664v-8.317h1.664c0.872 0 1.504 1.229 1.504 2.139v4.95z"></path>
</svg>
