<!-- Generated by IcoMoon.io -->
<svg version="1.1" xmlns="http://www.w3.org/2000/svg" width="31" height="32" viewBox="0 0 31 32">
<title>routes</title>
<path d="M8.055 6.754c-4.44 0-8.053 3.721-8.053 8.296 0 2.181 0.99 5.366 2.52 8.113 1.745 3.128 3.761 4.923 5.532 4.923s3.786-1.795 5.531-4.924c1.531-2.746 2.52-5.931 2.52-8.113 0-4.574-3.612-8.296-8.052-8.296zM8.055 26.902c-2.5 0-6.903-6.852-6.903-11.851 0-3.921 3.096-7.112 6.903-7.112s6.902 3.191 6.902 7.112c0 5-4.403 11.851-6.902 11.851z"></path>
<path d="M8.054 10.902c-2.219 0-4.026 1.861-4.026 4.148s1.807 4.149 4.026 4.149c2.22 0 4.026-1.861 4.026-4.149s-1.807-4.148-4.026-4.148zM8.054 18.014c-1.586 0-2.875-1.33-2.875-2.964s1.289-2.963 2.875-2.963 2.876 1.33 2.876 2.963c0 1.634-1.29 2.964-2.876 2.964zM25.309 0.829c-3.172 0-5.752 2.658-5.752 5.926 0 2.984 3.496 8.888 5.752 8.888s5.752-5.905 5.752-8.888c0-3.268-2.581-5.927-5.752-5.927zM25.309 14.457c-1.208 0-4.602-4.862-4.602-7.703 0-2.615 2.065-4.741 4.602-4.741s4.6 2.127 4.6 4.741c0 2.84-3.393 7.704-4.601 7.704z"></path>
<path d="M25.31 3.792c-1.586 0-2.876 1.329-2.876 2.963s1.289 2.963 2.876 2.963c1.585 0 2.875-1.329 2.875-2.963s-1.289-2.963-2.875-2.963zM25.31 8.532c-0.952 0-1.726-0.797-1.726-1.778s0.775-1.778 1.726-1.778c0.951 0 1.725 0.797 1.725 1.778s-0.775 1.778-1.725 1.778zM21.077 22.892c-0.694-0.595-1.013-1.222-0.977-1.917 0.078-1.55 1.942-3.162 2.653-3.654 0.155-0.111 0.255-0.29 0.255-0.493 0-0.122-0.036-0.236-0.098-0.331l0.001 0.002c-0.102-0.159-0.277-0.263-0.477-0.263-0.12 0-0.23 0.037-0.322 0.101l0.002-0.001c-0.123 0.085-3.035 2.112-3.162 4.574-0.056 1.080 0.41 2.053 1.387 2.892 2.134 1.832 3.316 3.685 3.014 4.723-0.259 0.885-1.616 1.219-2.708 1.344-4.951 0.568-8.873-1.124-8.913-1.141-0.067-0.030-0.145-0.047-0.227-0.047-0.238 0-0.442 0.147-0.526 0.355l-0.001 0.004c-0.125 0.301 0.009 0.649 0.301 0.777 0.146 0.065 3.125 1.355 7.272 1.355 0.005 0 0.010 0 0.016 0 0.777 0 1.543-0.045 2.296-0.134l-0.091 0.009c2.090-0.24 3.329-0.973 3.682-2.182 0.624-2.139-1.848-4.661-3.377-5.974z"></path>
</svg>
