<!-- Generated by IcoMoon.io -->
<svg version="1.1" xmlns="http://www.w3.org/2000/svg" width="32" height="32" viewBox="0 0 32 32">
<title>smoking</title>
<path d="M22.449 15.513h-2.447v0.007c-1.632 0-2.961-1.568-2.961-3.2s1.329-2.799 2.961-2.799v-2.4c-2.911 0.064-5.246 2.439-5.246 5.36s2.335 5.296 5.24 5.36l0.006 0v-0.010h2.447c1.674 0 3.151 1.184 3.151 3.289v2.080h2.402v-2.634c0-2.88-2.56-5.054-5.553-5.054zM27.997 24.8h-2.398v4.8h2.4v-4.8zM24 24.8h-24v4.8h24v-4.8z"></path>
<path d="M26.959 11.569c0.985-0.97 1.6-2.321 1.6-3.808-0.003-2.959-2.4-5.357-5.358-5.361h-0v2.4c1.572 0.081 2.816 1.375 2.816 2.96s-1.244 2.879-2.809 2.96l-0.007 0v2.4c3.591 0 6.4 2.919 6.4 6.513v3.569h2.4v-3.582c0-0.012 0-0.025 0-0.039 0-3.51-2.035-6.545-4.989-7.99l-0.052-0.023zM32 24.8h-2.4v4.8h2.4v-4.8z"></path>
</svg>
