<!-- Generated by IcoMoon.io -->
<svg version="1.1" xmlns="http://www.w3.org/2000/svg" width="32" height="32" viewBox="0 0 32 32">
<title>suitecase</title>
<path d="M28.308 30.215h-11.646c-0.025 0.185-0.075 0.353-0.147 0.509l0.005-0.011c-0.293 0.43-0.617 0.834-0.932 1.246-0.315-0.409-0.635-0.812-0.94-1.227-0.196-0.258-0.304-0.647-0.558-0.786-0.787-0.392-1.319-1.191-1.319-2.114 0-0.042 0.001-0.083 0.003-0.125l-0 0.006v-17.552c0-1.669 0.805-2.407 2.5-2.411 4.782-0.018 9.563-0.018 14.343 0 1.653 0 2.498 0.8 2.498 2.418 0.018 5.849 0.018 11.698 0 17.55 0.028 0.494-0.112 0.983-0.395 1.39-0.699 0.752-1.543 1.296-1.748 2.492-0.107 0.606-1.189 0.498-1.468-0.176-0.104-0.357-0.174-0.77-0.195-1.196l-0-0.012zM18.394 19.008v-7.342c0-0.661-0.050-1.344-0.889-1.344s-0.999 0.613-0.999 1.28v14.681c0 0.654 0.091 1.342 0.949 1.316 0.859-0.023 0.939-0.697 0.939-1.374v-7.218zM28.385 18.914v-7.097c0-0.724 0.043-1.54-1.001-1.495s-0.873 0.843-0.873 1.493v14.293c0 0.679 0 1.451 0.928 1.456 0.93 0.005 0.944-0.747 0.944-1.445v-7.205zM3.987 30.112c0.011 0.407-0.044 0.812-0.165 1.2-0.171 0.284-0.555 0.649-0.805 0.619-0.249-0.030-0.864-0.418-0.869-0.658 0-0.887-0.583-1.211-1.157-1.705-0.455-0.437-0.75-1.037-0.789-1.707l-0-0.007c-0.030-1.74-0.047-3.792-0.047-5.849s0.017-4.109 0.051-6.158l-0.004 0.309c-0.005-0.054-0.008-0.117-0.008-0.181 0-0.835 0.514-1.549 1.243-1.845l0.013-0.005c0.265-0.107 0.549-0.155 0.836-0.142 2.821-0.053 5.648 0 8.644 0v12.599c0 1.138 0.165 2.272 0.267 3.559l-7.209-0.030zM5.764 22.139v-4.356c0-0.663-0.121-1.401-0.949-1.257-0.467 0.227-0.799 0.666-0.874 1.188l-0.001 0.008c-0.037 1.279-0.057 2.784-0.057 4.293s0.021 3.015 0.062 4.514l-0.005-0.221c0 0.423 0.56 0.836 0.859 1.255 0.32-0.398 0.88-0.777 0.914-1.195 0.124-1.387 0.052-2.802 0.052-4.213v-0.018zM26.527 5.808h-1.89v-2.836c0-0.688-0.284-0.997-0.958-0.997h-0.124c-3.2-0.19-3.2-0.19-3.291 2.99 0 0.244-0.046 0.498-0.076 0.793h-1.822c0.32-1.746-0.734-3.714 1.044-5.189 0.825-0.683 4.996-0.786 5.92-0.119 1.961 1.44 0.917 3.499 1.198 5.358zM11.162 8.269l-0.34 1.79c-1.499-0.315-2.311 0.229-1.867 1.948h-1.719c-0.775-2.681 0.668-4.107 3.925-3.739z"></path>
</svg>
