<!-- Generated by IcoMoon.io -->
<svg version="1.1" xmlns="http://www.w3.org/2000/svg" width="44" height="32" viewBox="0 0 44 32">
<title>youtube</title>
<path d="M42.269 4.704c-1.19-1.963-2.485-2.325-5.12-2.462-2.633-0.166-9.252-0.235-14.989-0.235-5.745 0-12.369 0.068-14.997 0.233-2.63 0.139-3.925 0.497-5.131 2.464-1.229 1.963-1.86 5.34-1.86 11.287v0.021c0 5.922 0.631 9.327 1.86 11.268 1.203 1.963 2.496 2.319 5.126 2.485 2.633 0.141 9.257 0.226 15.002 0.226 5.737 0 12.356-0.085 14.991-0.224 2.635-0.166 3.93-0.523 5.12-2.485 1.242-1.941 1.869-5.346 1.869-11.268v-0.019c0-5.952-0.627-9.329-1.869-11.292zM16.661 23.631v-15.264l13.741 7.633-13.739 7.631z"></path>
</svg>
