<!-- Generated by IcoMoon.io -->
<svg version="1.1" xmlns="http://www.w3.org/2000/svg" width="132" height="32" viewBox="0 0 132 32">
<title>arrow-long</title>
<path d="M129.416 17.416c0.363-0.362 0.588-0.863 0.588-1.416s-0.225-1.054-0.588-1.416l-12.728-12.728c-0.362-0.362-0.862-0.585-1.414-0.585-1.105 0-2.001 0.896-2.001 2.001 0 0.553 0.224 1.054 0.587 1.416l11.312 11.312-11.312 11.312c-0.363 0.362-0.587 0.863-0.587 1.416 0 1.105 0.896 2.001 2.001 2.001 0.552 0 1.052-0.224 1.414-0.585l12.728-12.728zM0 18h128v-4h-128v4z"></path>
</svg>
