<svg xmlns="http://www.w3.org/2000/svg" width="16" height="32" viewBox="0 0 16 32"><path d="M9.549.014H6.451a2.58 2.58 0 00-2.577 2.577v3.054h1.908V2.592c0-.369.3-.668.668-.668h3.098c.368 0 .668.3.668.668v3.053h1.909V2.592A2.58 2.58 0 009.547.015zm4.368 7.538H2.083c-.994.001-1.8.807-1.801 1.801v16.542c0 .993.808 1.801 1.801 1.801h11.834a1.803 1.803 0 001.8-1.801V9.353a1.803 1.803 0 00-1.8-1.801zM2.083 29.605c-.072 0-.144-.003-.214-.007v1.462a.955.955 0 001.908.002v-1.457H2.083zm11.833 0h-1.694v1.455a.955.955 0 001.908.002v-1.464a3.792 3.792 0 01-.214.007z"/></svg>