<!-- Generated by IcoMoon.io -->
<svg version="1.1" xmlns="http://www.w3.org/2000/svg" width="15" height="32" viewBox="0 0 15 32">
<title>bottle</title>
<path d="M14.245 15.502c0-1.115-0.618-2.079-1.522-2.596 0.872-0.212 1.511-0.981 1.522-1.901v-0.001c0-0.001 0-0.002 0-0.004 0-0.318-0.080-0.618-0.222-0.879l0.005 0.010c-0.511-1.758-1.637-3.197-3.125-4.103l-0.031-0.018h-7.243c-1.518 0.923-2.645 2.363-3.144 4.071l-0.012 0.050c-0.136 0.253-0.216 0.554-0.217 0.873v0c0 0.929 0.658 1.679 1.522 1.9-0.904 0.517-1.522 1.482-1.522 2.596 0 1.117 0.618 2.077 1.522 2.596-0.873 0.209-1.513 0.979-1.522 1.899v9.993c0 1.103 0.895 1.999 1.999 1.999h9.992c1.103 0 1.999-0.895 1.999-1.999v-9.99c-0.008-0.923-0.648-1.694-1.509-1.9l-0.013-0.003c0.904-0.515 1.522-1.477 1.522-2.596zM10.247 0.013h-5.997c-0.548 0-0.996 0.448-0.996 0.998v1.999c0 0.553 0.448 1.001 0.998 1.001h5.997c0.551 0 0.998-0.448 0.998-1.001v-1.999c-0.002-0.551-0.45-0.998-1.001-0.998z"></path>
</svg>
