<svg xmlns="http://www.w3.org/2000/svg" width="37" height="32" viewBox="0 0 37 32"><path d="M33.815 9.538h-19.52a3.233 3.233 0 00-3.232 3.229v10.771a3.232 3.232 0 003.229 3.227h16.925l3.989 3.995a1.076 1.076 0 001.84-.761V12.764a3.235 3.235 0 00-3.232-3.229zM28.433 21.38h-8.757l-.054.001a1.077 1.077 0 11.056-2.153h-.003 8.757l.054-.001a1.077 1.077 0 110 2.154l-.056-.001h.003zm2.152-4.306H17.521l-.054.001a1.077 1.077 0 11.056-2.153h-.003 13.064a1.076 1.076 0 010 2.152z"/><path d="M.961 22.375a1.074 1.074 0 001.173-.235l3.992-3.989H8.91v-5.387a5.388 5.388 0 015.381-5.384h11.987V4.153A3.226 3.226 0 0023.051.924H3.526A3.228 3.228 0 00.297 4.153V21.38c0 .435.261.827.664.995z"/></svg>