<svg version="1.1" id="Capa_1" xmlns="http://www.w3.org/2000/svg" xmlns:xlink="http://www.w3.org/1999/xlink" x="0" y="0" viewBox="0 0 27.855 27.855" xml:space="preserve"><path d="M27.604 6.751L14.176 20.18a.868.868 0 01-1.223 0l-.27-.27-.293-.293-1.268-1.268-.018-.027-5.807-5.852a.866.866 0 010-1.221l1.83-1.828a.86.86 0 011.221 0l5.223 5.262L24.551 3.7a.864.864 0 011.221 0l1.832 1.832a.865.865 0 010 1.219z"/><path d="M21.795 22.613a1.77 1.77 0 01-1.768 1.766H3.535a1.77 1.77 0 01-1.768-1.766V5.241a1.77 1.77 0 011.768-1.766h16.492a1.77 1.77 0 011.768 1.766l1.256-1.162c.203-1.43-1.242-2.369-3.024-2.369H3.535A3.532 3.532 0 000 5.241v17.372a3.534 3.534 0 003.535 3.533h16.492a3.534 3.534 0 003.535-3.533V12.257l-1.768 1.924.001 8.432z"/></svg>