<!-- Generated by IcoMoon.io -->
<svg version="1.1" xmlns="http://www.w3.org/2000/svg" width="41" height="32" viewBox="0 0 41 32">
<title>check</title>
<path d="M40.803 0.638c-0.366-0.393-0.887-0.638-1.464-0.638s-1.098 0.245-1.463 0.637l-0.001 0.001-24.806 26.103-9.536-10.033c-0.366-0.393-0.887-0.638-1.464-0.638s-1.098 0.245-1.463 0.637l-0.001 0.001c-0.376 0.402-0.607 0.945-0.607 1.541s0.231 1.138 0.608 1.542l-0.001-0.001 11 11.573c0.809 0.851 2.12 0.851 2.927 0l26.272-27.642c0.376-0.402 0.607-0.945 0.607-1.541s-0.231-1.138-0.608-1.542l0.001 0.001z"></path>
</svg>
