<!-- Generated by IcoMoon.io -->
<svg version="1.1" xmlns="http://www.w3.org/2000/svg" width="32" height="32" viewBox="0 0 32 32">
<title>close-small</title>
<path d="M17.768 16l13.867-13.867c0.241-0.228 0.392-0.551 0.392-0.909 0-0.691-0.56-1.251-1.251-1.251-0.358 0-0.681 0.15-0.909 0.391l-0.001 0.001-13.867 13.867-13.867-13.867c-0.228-0.241-0.551-0.392-0.909-0.392-0.691 0-1.251 0.56-1.251 1.251 0 0.358 0.15 0.681 0.391 0.909l0.001 0.001 13.867 13.867-13.867 13.867c-0.241 0.229-0.392 0.551-0.392 0.909 0 0.691 0.56 1.251 1.251 1.251 0.358 0 0.681-0.15 0.909-0.391l0.001-0.001 13.867-13.867 13.867 13.867c0.226 0.227 0.538 0.368 0.884 0.368s0.658-0.141 0.884-0.368l0-0c0.226-0.226 0.366-0.539 0.366-0.884s-0.14-0.658-0.366-0.884l-13.867-13.867z"></path>
</svg>
