<!-- Generated by IcoMoon.io -->
<svg version="1.1" xmlns="http://www.w3.org/2000/svg" width="25" height="32" viewBox="0 0 25 32">
<title>driver-2</title>
<path d="M20.625 4.687c0-2.668-3.628-4.687-8.441-4.687s-8.436 2.016-8.436 4.687c0 0.517 0.421 0.938 0.938 0.938h15.001c0.517 0 0.935-0.418 0.935-0.935zM10.144 26.538l0.758-1.009-1.098-0.906 0.34 1.915zM13.278 32l0.507-2.934-1.595-2.129-1.6 2.129 0.512 2.934h2.178zM14.572 24.623l-1.095 0.906 0.756 1.009 0.34-1.915zM7.215 20.751l-0.502 0.084c-3.826 0.62-6.712 3.899-6.713 7.852v3.313h9.194l-1.979-11.249zM24.377 28.689c0-0 0-0 0-0.001 0-3.955-2.888-7.235-6.669-7.848l-0.046-0.006-0.502-0.084-1.979 11.249h9.196v-3.311zM15.294 20.539c-0.399 0.081-0.805 0.148-1.231 0.148h-3.749c-0.426 0-0.832-0.066-1.231-0.148l0.217 1.236 2.887 2.385 2.887-2.388 0.222-1.231zM10.314 18.814h3.749c2.585 0 4.687-2.105 4.687-4.689v-2.457c-0.536 0.324-1.183 0.518-1.875 0.522h-9.375c-0.687 0-1.322-0.197-1.876-0.522v2.462c0 2.585 2.102 4.687 4.687 4.687zM7.5 10.314h9.374c1.036 0 1.876-0.842 1.876-1.876v-0.938h-13.125v0.935c0 1.036 0.839 1.876 1.876 1.876z"></path>
</svg>
