<!-- Generated by IcoMoon.io -->
<svg version="1.1" xmlns="http://www.w3.org/2000/svg" width="32" height="32" viewBox="0 0 32 32">
<title>edit</title>
<path d="M19.763 5.376l-17.61 17.606c-0.086 0.086-0.149 0.194-0.181 0.315l-0.001 0.005-1.952 7.837c-0.012 0.048-0.019 0.103-0.019 0.16 0 0.385 0.312 0.698 0.698 0.698 0.058 0 0.114-0.007 0.167-0.020l-0.005 0.001 7.834-1.952c0.126-0.033 0.234-0.096 0.32-0.182l17.61-17.606-6.861-6.861zM30.986 2.976l-1.958-1.965c-0.636-0.607-1.5-0.981-2.451-0.981s-1.815 0.374-2.453 0.983l0.001-0.001-2.4 2.4 6.861 6.861 2.4-2.4c0.656-0.656 1.018-1.526 1.018-2.451 0-0.928-0.362-1.795-1.018-2.451z"></path>
</svg>
