<!-- Generated by IcoMoon.io -->
<svg version="1.1" xmlns="http://www.w3.org/2000/svg" width="32" height="32" viewBox="0 0 32 32">
<title>emoji</title>
<path d="M0.237 16.014c0.015 8.496 7.097 15.403 15.778 15.389 8.681-0.014 15.765-6.937 15.749-15.417-0.015-8.48-7.095-15.403-15.776-15.389-8.685 0.014-15.767 6.937-15.75 15.417zM15.993 29.733c-3.84-0.029-7.313-1.575-9.854-4.068l0.002 0.002c-2.506-2.459-4.061-5.879-4.069-9.663v-0.001c0-3.619 1.463-7.093 4.069-9.663 2.539-2.491 6.012-4.038 9.846-4.066l0.006-0c7.759 0 14.078 6.166 14.057 13.73-0.018 7.594-6.306 13.735-14.058 13.726l0.001 0.003z"></path>
<path d="M22.406 23.010l1.312-1c-3.747-4.841-11.52-5.038-15.437 0l1.314 0.999c1.68-1.962 3.785-3.045 6.405-3.037 2.619 0.009 4.722 1.072 6.406 3.038zM19.561 12.553c-0 0.007-0 0.015-0 0.023 0 0.453 0.185 0.862 0.485 1.157l0 0c0.307 0.306 0.73 0.496 1.198 0.497h0c0.337 0.005 0.669-0.089 0.951-0.27 0.283-0.179 0.505-0.438 0.638-0.741 0.088-0.194 0.139-0.42 0.139-0.658 0-0.456-0.187-0.868-0.488-1.164l-0-0c-0.314-0.308-0.744-0.498-1.219-0.498-0.229 0-0.448 0.044-0.649 0.125l0.012-0.004c-0.318 0.127-0.58 0.337-0.768 0.603l-0.004 0.005c-0.19 0.273-0.293 0.594-0.295 0.926zM10.749 14.226c0.946-0.035 1.706-0.809 1.669-1.698-0.040-0.92-0.837-1.666-1.744-1.63-0.453 0.010-0.881 0.194-1.193 0.514-0.312 0.319-0.482 0.746-0.472 1.187s0.199 0.861 0.526 1.166c0.307 0.286 0.72 0.461 1.174 0.461 0.014 0 0.029-0 0.043-0.001l-0.002 0z"></path>
</svg>
