<svg xmlns="http://www.w3.org/2000/svg" width="32" height="32" viewBox="0 0 32 32"><path d="M.237 16.014c.015 8.496 7.097 15.403 15.778 15.389 8.681-.014 15.765-6.937 15.749-15.417C31.749 7.506 24.669.583 15.988.597 7.303.611.221 7.534.238 16.014zm15.756 13.719a14.176 14.176 0 01-9.854-4.068l.002.002a13.535 13.535 0 01-4.069-9.663v-.001c0-3.619 1.463-7.093 4.069-9.663a14.167 14.167 0 019.846-4.066h.006c7.759 0 14.078 6.166 14.057 13.73-.018 7.594-6.306 13.735-14.058 13.726l.001.003z"/><path d="M22.406 23.01l1.312-1c-3.747-4.841-11.52-5.038-15.437 0l1.314.999c1.68-1.962 3.785-3.045 6.405-3.037 2.619.009 4.722 1.072 6.406 3.038zm-2.845-10.457v.023c0 .453.185.862.485 1.157.307.306.73.496 1.198.497a1.716 1.716 0 001.589-1.011 1.627 1.627 0 00-.349-1.822 1.735 1.735 0 00-1.868-.373l.012-.004c-.318.127-.58.337-.768.603l-.004.005c-.19.273-.293.594-.295.926zm-8.812 1.673c.946-.035 1.706-.809 1.669-1.698-.04-.92-.837-1.666-1.744-1.63-.453.01-.881.194-1.193.514-.312.319-.482.746-.472 1.187s.199.861.526 1.166c.307.286.72.461 1.174.461l.043-.001h-.002z"/></svg>