<!-- Generated by IcoMoon.io -->
<svg version="1.1" xmlns="http://www.w3.org/2000/svg" width="32" height="32" viewBox="0 0 32 32">
<title>employees</title>
<path d="M19.501 22.606h-1.738c-0.256 0-0.464 0.21-0.464 0.469s0.208 0.469 0.464 0.469h1.738c0.256 0 0.464-0.21 0.464-0.469s-0.208-0.469-0.465-0.469z"></path>
<path d="M29.727 17.587l-2.528-0.985-1.289-1.302c-0.077-0.078-0.181-0.128-0.297-0.136l-0.001-0v-1.036c0.605-0.651 1.035-1.472 1.21-2.385l0.005-0.030c0.108 0.005 0.218-0.004 0.326-0.026 0.618-0.128 1.066-0.706 1.066-1.376v-0.342c0-0.001 0-0.002 0-0.003 0-0.388-0.156-0.739-0.409-0.994l0 0c0.41-2.251 0.072-4.086-0.981-5.314-1.019-1.188-2.66-1.756-4.746-1.642-1.927 0.105-3.171 1.001-3.566 1.328-0.358 0.045-0.681 0.161-0.966 0.334l0.011-0.006c-0.516 0.313-1.13 0.969-1.13 2.321 0 1.18 0.187 2.164 0.322 2.723-0.453 0.223-0.756 0.706-0.756 1.258v0.336c0 0.67 0.448 1.248 1.066 1.376 0.108 0.022 0.217 0.031 0.326 0.026 0.179 0.943 0.609 1.765 1.217 2.418l-0.003-0.003v1.035c-0.109 0.007-0.216 0.052-0.298 0.136l-1.289 1.302-2.528 0.985c-0.237 0.093-0.442 0.204-0.631 0.335l0.010-0.007c-0.124 0.086-0.203 0.228-0.203 0.388 0 0.098 0.030 0.189 0.081 0.265l-0.001-0.002c0.084 0.124 0.225 0.205 0.384 0.205 0.097 0 0.188-0.030 0.262-0.082l-0.002 0.001c0.135-0.092 0.281-0.17 0.433-0.229l2.346-0.914 1.794 2.717c0.241 0.363 0.647 0.599 1.109 0.599 0.001 0 0.001 0 0.002 0h-0c0.231 0 0.455-0.062 0.653-0.175l-0.385 8.817c-0 0.007-0.001 0.014-0.001 0.022 0 0.257 0.208 0.466 0.464 0.467h0c0.247 0 0.452-0.197 0.463-0.448l0.357-8.184h0.964l0.357 8.184c0.010 0.25 0.215 0.448 0.466 0.448 0.007 0 0.013-0 0.020-0l-0.001 0c0.248-0.013 0.444-0.217 0.444-0.466 0-0.008-0-0.016-0.001-0.024l0 0.001-0.385-8.817c0.188 0.11 0.414 0.175 0.655 0.175 0.046 0 0.092-0.002 0.137-0.007l-0.006 0c0.41-0.042 0.761-0.265 0.974-0.588l0.003-0.005 1.794-2.717 2.346 0.914c0.332 0.132 0.612 0.332 0.833 0.585l0.002 0.003-1.605 1.62c-0.556 0.559-0.899 1.33-0.899 2.181 0 0.004 0 0.008 0 0.012v-0.001 6.665c0 0.259 0.208 0.469 0.464 0.469s0.464-0.21 0.464-0.469v-6.665c0-0.578 0.223-1.121 0.628-1.529l1.408-1.422c0.057 0.21 0.083 0.43 0.074 0.655l-0.359 8.942c-0 0.006-0 0.014-0 0.021 0 0.257 0.208 0.466 0.464 0.467h0c0.248 0 0.454-0.198 0.464-0.45l0.36-8.942c0.053-1.327-0.736-2.539-1.963-3.017zM18.297 11.521c-0.082-0.45-0.495-0.777-0.94-0.744-0.035 0.002-0.071 0-0.108-0.007-0.185-0.038-0.324-0.235-0.324-0.457v-0.337c0-0.218 0.144-0.414 0.327-0.446 0.155-0.027 0.304 0.030 0.398 0.154 0.085 0.112 0.199 0.192 0.329 0.232 0.19 0.058 0.4 0.024 0.561-0.091 0.295-0.212 0.546-0.46 0.755-0.742l0.006-0.009c0.057-0.077 0.092-0.174 0.092-0.28 0-0.153-0.073-0.289-0.186-0.375l-0.001-0.001c-0.076-0.058-0.173-0.093-0.277-0.093-0.152 0-0.288 0.074-0.372 0.188l-0.001 0.001c-0.109 0.147-0.228 0.276-0.359 0.392l-0.003 0.002c-0.14-0.122-0.309-0.215-0.494-0.269l-0.009-0.002c-0.209-0.792-0.33-1.703-0.332-2.641v-0.001c0-0.718 0.219-1.222 0.652-1.499 0.337-0.216 0.694-0.225 0.694-0.225 0.119 0 0.234-0.047 0.32-0.129 0.011-0.011 1.153-1.080 3.107-1.187 1.789-0.098 3.17 0.358 3.994 1.319 0.83 0.968 1.107 2.454 0.807 4.315-0.018-0.001-0.039-0.001-0.060-0.001-0.119 0-0.235 0.010-0.348 0.030l0.012-0.002-0.436-1.058c-0.071-0.171-0.236-0.288-0.429-0.288-0.042 0-0.082 0.005-0.12 0.016l0.003-0.001c-0.043 0.011-4.33 1.109-6.128-1.151-0.085-0.107-0.216-0.175-0.362-0.175-0.111 0-0.212 0.039-0.291 0.104l0.001-0.001c-0.106 0.087-0.174 0.219-0.174 0.366 0 0.111 0.039 0.214 0.103 0.294l-0.001-0.001c1.836 2.308 5.478 1.806 6.69 1.561l0.337 0.818c0.116 0.282 0.388 0.477 0.706 0.477 0.062 0 0.123-0.007 0.181-0.022l-0.005 0.001c0.15-0.036 0.294-0.037 0.348-0.026 0.188 0.038 0.329 0.227 0.329 0.44v0.342c0 0.223-0.139 0.419-0.324 0.458-0.024 0.005-0.052 0.008-0.080 0.008-0.010 0-0.019-0-0.029-0.001l0.001 0c-0.446-0.033-0.858 0.294-0.94 0.744-0.338 1.856-1.94 3.204-3.81 3.204s-3.473-1.348-3.81-3.204zM20.356 19.807c-0.072 0.074-0.173 0.12-0.284 0.12-0.015 0-0.029-0.001-0.044-0.002l0.002 0c-0.125-0.012-0.231-0.080-0.296-0.178l-0.001-0.002-1.807-2.737 0.727-0.734 2.774 2.451-1.071 1.082zM21.666 20.426l0.028-0.644 0.413-0.417 0.413 0.417 0.028 0.644h-0.882zM22.107 18.079l-2.576-2.276v-0.897c0.727 0.474 1.617 0.756 2.573 0.756 0.001 0 0.002 0 0.003 0h-0c0.001 0 0.002 0 0.002 0 0.956 0 1.846-0.282 2.592-0.768l-0.018 0.011v0.897l-2.576 2.276zM24.48 19.745c-0.092 0.14-0.226 0.173-0.297 0.18-0.012 0.001-0.027 0.002-0.042 0.002-0.111 0-0.212-0.046-0.284-0.12l-0-0-1.072-1.082 2.774-2.451 0.727 0.734-1.807 2.737z"></path>
<path d="M14.722 20.044l-2.267-0.999-1.239-1.251c-0.077-0.078-0.181-0.128-0.297-0.136l-0.001-0v-0.738c1.071-0.718 1.832-1.829 2.078-3.121l0.005-0.030c0.017 0.001 0.037 0.001 0.057 0.001 0.11 0 0.216-0.013 0.318-0.039l-0.009 0.002c0.594-0.142 1.025-0.717 1.025-1.367v-0.342c0-0.002 0-0.004 0-0.007 0-0.472-0.233-0.889-0.591-1.143l-0.004-0.003c0.106-0.425 0.161-0.861 0.161-1.298 0-1.942-1.039-3.653-2.607-4.635-0.017-1.621-1.387-2.934-3.069-2.934s-3.053 1.314-3.070 2.934c-1.567 0.982-2.607 2.693-2.607 4.635 0 0.437 0.054 0.871 0.16 1.295-0.362 0.249-0.594 0.678-0.594 1.162v0.337c0 0.65 0.431 1.225 1.025 1.367 0.122 0.029 0.245 0.041 0.366 0.035 0.252 1.323 1.012 2.433 2.066 3.141l0.017 0.011v0.738c-0.109 0.007-0.215 0.052-0.298 0.136l-1.239 1.251-2.267 0.999c-1.153 0.508-1.892 1.703-1.839 2.972l0.274 6.531c0.010 0.25 0.215 0.449 0.466 0.449 0.006 0 0.012-0 0.018-0l-0.001 0c0.248-0.012 0.445-0.216 0.445-0.467 0-0.007-0-0.015-0.001-0.022l0 0.001-0.274-6.531c-0.001-0.026-0.002-0.055-0.002-0.086 0-0.404 0.11-0.781 0.301-1.105l-0.006 0.010 1.218 1.477c0.372 0.449 0.597 1.031 0.597 1.665v0 4.59c0 0.259 0.208 0.469 0.465 0.469s0.464-0.21 0.464-0.469v-4.59c0-0.826-0.288-1.631-0.812-2.266l-1.295-1.569c0.11-0.077 0.227-0.145 0.352-0.2l1.975-0.871 1.396 2.288c0.16 0.26 0.443 0.431 0.765 0.431h0c0.223-0 0.427-0.082 0.584-0.218l-0.001 0.001 0.885-0.762v7.755c0 0.259 0.208 0.469 0.465 0.469s0.464-0.21 0.464-0.469v-7.755l0.885 0.762c0.155 0.135 0.36 0.217 0.583 0.217 0.049 0 0.098-0.004 0.145-0.012l-0.005 0.001c0.266-0.044 0.49-0.2 0.623-0.416l0.002-0.004 1.396-2.288 1.976 0.871c0.125 0.055 0.242 0.123 0.352 0.199l-1.295 1.57c-0.505 0.611-0.812 1.402-0.812 2.265v4.59c0 0.259 0.208 0.469 0.464 0.469s0.464-0.21 0.464-0.469v-4.59c0-0.634 0.226-1.216 0.601-1.67l-0.004 0.004 1.218-1.476c0.186 0.314 0.296 0.692 0.296 1.096 0 0.030-0.001 0.060-0.002 0.089l0-0.004-0.274 6.531c-0 0.006-0.001 0.014-0.001 0.022 0 0.257 0.208 0.466 0.464 0.467h0c0.247 0 0.453-0.197 0.464-0.449l0.274-6.531c0.054-1.27-0.686-2.464-1.839-2.972zM8.282 2.942c0.988 0 1.821 0.636 2.067 1.498-0.611-0.24-1.319-0.378-2.060-0.378-0.003 0-0.005 0-0.008 0h0c-0.729 0-1.426 0.134-2.067 0.378 0.246-0.862 1.080-1.498 2.067-1.498zM4.472 13.575c-0.082-0.45-0.495-0.777-0.94-0.744-0.039 0.003-0.080-0.001-0.121-0.010-0.177-0.042-0.311-0.238-0.311-0.454v-0.337c0-0.218 0.144-0.413 0.328-0.446 0.155-0.028 0.303 0.030 0.397 0.154 0.086 0.112 0.199 0.192 0.329 0.232 0.19 0.058 0.4 0.024 0.561-0.091 0.286-0.204 0.538-0.452 0.751-0.738 0.154-0.207 0.112-0.501-0.092-0.656-0.077-0.059-0.174-0.094-0.279-0.094-0.152 0-0.286 0.073-0.37 0.186l-0.001 0.001c-0.106 0.142-0.224 0.27-0.354 0.385-0.19-0.165-0.43-0.277-0.694-0.311l-0.007-0.001c-0.085-0.323-0.134-0.694-0.134-1.077v-0c0-2.522 2.13-4.574 4.748-4.574s4.748 2.052 4.748 4.574c0 0.362-0.045 0.723-0.134 1.075-0.122 0.010-0.246 0.030-0.361 0.060l-0.349-0.29c-0.153-0.128-0.351-0.206-0.568-0.206-0.018 0-0.036 0.001-0.054 0.002l0.002-0c-0.682 0.041-4.177 0.134-5.97-2.033-0.085-0.103-0.213-0.168-0.356-0.168-0.114 0-0.218 0.041-0.298 0.11l0.001-0.001c-0.197 0.166-0.223 0.462-0.058 0.66 0.884 1.069 2.182 1.791 3.855 2.148 1.282 0.273 2.421 0.246 2.867 0.221l0.545 0.452c0.15 0.124 0.36 0.142 0.528 0.043 0.079-0.043 0.342-0.085 0.458-0.062 0.188 0.038 0.329 0.227 0.329 0.44v0.342c0 0.217-0.134 0.412-0.311 0.454-0.028 0.007-0.061 0.011-0.094 0.011-0.009 0-0.019-0-0.028-0.001l0.001 0c-0.445-0.033-0.858 0.294-0.94 0.744-0.338 1.856-1.94 3.204-3.81 3.204s-3.473-1.348-3.81-3.204zM6.357 21.798l-1.396-2.288 0.715-0.722 1.922 1.941-1.241 1.070zM8.282 20.093l-1.708-1.724v-0.97c0.507 0.201 1.094 0.318 1.708 0.318s1.201-0.117 1.74-0.329l-0.032 0.011v0.97l-1.708 1.724zM10.207 21.798l-1.241-1.069 1.922-1.941 0.715 0.722-1.396 2.288z"></path>
<path d="M6.545 24.673h-1.303c-0.256 0-0.464 0.21-0.464 0.469s0.208 0.469 0.465 0.469h1.303c0.256 0 0.464-0.21 0.464-0.469s-0.208-0.469-0.465-0.469z"></path>
</svg>
