<!-- Generated by IcoMoon.io -->
<svg version="1.1" xmlns="http://www.w3.org/2000/svg" width="32" height="32" viewBox="0 0 32 32">
<title>eye</title>
<path d="M16 6.463c6.115 0 11.658 3.346 15.75 8.778 0.156 0.208 0.25 0.471 0.25 0.756s-0.094 0.547-0.252 0.759l0.002-0.003c-4.092 5.44-9.635 8.785-15.75 8.785s-11.658-3.346-15.75-8.778c-0.156-0.208-0.25-0.471-0.25-0.756s0.094-0.547 0.252-0.759l-0.002 0.003c4.094-5.44 9.635-8.785 15.75-8.785zM15.561 22.716c0.13 0.009 0.282 0.014 0.435 0.014 3.719 0 6.734-3.015 6.734-6.734 0-0.153-0.005-0.305-0.015-0.456l0.001 0.020c-0.234-3.368-2.909-6.042-6.256-6.274l-0.021-0.001c-0.13-0.009-0.282-0.014-0.435-0.014-3.719 0-6.734 3.015-6.734 6.734 0 0.153 0.005 0.304 0.015 0.454l-0.001-0.020c0.243 3.364 2.913 6.033 6.255 6.274l0.022 0.001zM15.764 19.614c0.072 0.005 0.156 0.008 0.241 0.008 1.998 0 3.618-1.62 3.618-3.618 0-0.084-0.003-0.168-0.009-0.25l0.001 0.011c-0.127-1.816-1.569-3.258-3.373-3.384l-0.011-0.001c-0.072-0.005-0.155-0.008-0.239-0.008-1.998 0-3.618 1.62-3.618 3.618 0 0.084 0.003 0.168 0.009 0.25l-0.001-0.011c0.127 1.816 1.568 3.257 3.371 3.384l0.012 0.001z"></path>
</svg>
