<!-- Generated by IcoMoon.io -->
<svg version="1.1" xmlns="http://www.w3.org/2000/svg" width="37" height="32" viewBox="0 0 37 32">
<title>icn-arrows</title>
<path fill="#dc3178" d="M5.079 7.486l3.358-3.34c0.384-0.384 0.773-0.761 1.154-1.157 0.475-0.48 0.505-1.118 0.079-1.558-0.423-0.441-1.093-0.433-1.585 0.059l-6.25 6.252c-0.497 0.502-0.5 1.115 0 1.615 2.080 2.090 4.165 4.175 6.252 6.257 0.492 0.49 1.147 0.51 1.583 0.059 0.436-0.448 0.394-1.086-0.103-1.585-1.393-1.398-2.789-2.794-4.185-4.187-0.074-0.062-0.156-0.118-0.243-0.166l-0.008-0.004 0.057-0.091c0.106 0 0.209-0.020 0.315-0.020l28.64-0.005c0.165 0.007 0.332 0 0.497-0.027 0.478-0.111 0.828-0.533 0.828-1.037 0-0.574-0.454-1.041-1.023-1.063l-0.002-0c-0.49-0.020-0.985 0-1.477 0h-27.889z"></path>
<path fill="#f6b22e" d="M31.742 22.378h-28.913c-0.866 0-1.366 0.394-1.366 1.071 0 0.679 0.502 1.063 1.378 1.063h29.026c-0.798 0.788-1.516 1.494-2.228 2.206-0.763 0.758-1.521 1.519-2.277 2.277-0.492 0.497-0.517 1.15-0.074 1.59 0.443 0.438 1.088 0.404 1.585-0.094 2.068-2.068 4.13-4.135 6.196-6.208 0.544-0.544 0.542-1.145-0.007-1.694l-6.171-6.178c-0.517-0.514-1.164-0.554-1.612-0.098-0.45 0.458-0.401 1.095 0.118 1.617l4.16 4.16c0.079 0.066 0.16 0.123 0.246 0.177l-0.062 0.108z"></path>
</svg>
