<svg xmlns="http://www.w3.org/2000/svg" width="32" height="32" viewBox="0 0 32 32"><path d="M31.219 9.699c-.072-1.624-.336-2.742-.712-3.71a7.497 7.497 0 00-1.767-2.711l-.001-.001a7.548 7.548 0 00-2.657-1.746l-.051-.017c-.973-.376-2.085-.64-3.712-.712-1.637-.077-2.157-.096-6.31-.096s-4.672.019-6.304.091c-1.627.07-2.744.334-3.712.71a7.51 7.51 0 00-2.714 1.768l-.001.001A7.55 7.55 0 001.532 5.93l-.018.051c-.376.976-.64 2.086-.712 3.712C.725 11.33.706 11.85.706 16.002c0 4.154.019 4.672.091 6.304.07 1.626.334 2.744.71 3.712a7.543 7.543 0 001.77 2.712 7.535 7.535 0 002.656 1.746l.051.017c.974.376 2.086.64 3.712.71 1.632.072 2.15.09 6.304.09 4.155 0 4.675-.016 6.306-.09 1.626-.07 2.744-.334 3.712-.71a7.868 7.868 0 004.458-4.422l.018-.053c.376-.976.64-2.086.71-3.712.072-1.632.09-2.15.09-6.304 0-4.152-.006-4.672-.077-6.304zm-2.755 12.49c-.066 1.493-.317 2.301-.526 2.838a5.103 5.103 0 01-2.87 2.892l-.034.012c-.539.208-1.352.459-2.84.525-1.613.072-2.096.09-6.179.09-4.082 0-4.573-.016-6.179-.09-1.494-.064-2.302-.317-2.84-.525A4.746 4.746 0 015.24 26.79l-.001-.001a4.76 4.76 0 01-1.13-1.723l-.011-.033c-.21-.539-.461-1.352-.526-2.838-.072-1.614-.09-2.098-.09-6.179s.018-4.571.09-6.179c.066-1.493.317-2.301.526-2.838a4.676 4.676 0 011.147-1.757 4.759 4.759 0 011.757-1.141c.538-.208 1.35-.461 2.838-.526 1.614-.07 2.098-.09 6.181-.09 4.088 0 4.571.019 6.179.09 1.494.066 2.301.317 2.838.526.69.257 1.277.646 1.757 1.14l.001.001a4.767 4.767 0 011.141 1.757c.208.538.461 1.35.526 2.838.072 1.614.09 2.098.09 6.179 0 4.08-.018 4.56-.09 6.173z"/><path d="M16.01 8.149a7.86 7.86 0 00-7.859 7.857 7.862 7.862 0 0015.718.008v-.008a7.86 7.86 0 00-7.859-7.858zm0 12.955a5.098 5.098 0 010-10.196 5.098 5.098 0 010 10.196zm10-13.269a1.835 1.835 0 01-3.67-.001v-.001a1.835 1.835 0 113.67 0z"/></svg>