<svg xmlns="http://www.w3.org/2000/svg" width="33" height="32" viewBox="0 0 33 32"><path d="M33.225 19.116v-.004c0-.85-.345-1.619-.902-2.176a3.422 3.422 0 00.885-2.657l.001.014c-.162-1.76-1.748-3.139-3.611-3.139h-8.552c.423-1.286 1.102-3.644 1.102-5.538 0-3.003-2.552-5.538-4.154-5.538-1.437 0-2.466.81-2.509.843a.693.693 0 00-.26.541v4.695l-3.989 8.638-.165.085v-.265a.692.692 0 00-.692-.692H3.455a3.465 3.465 0 00-3.462 3.461v11.077a3.465 3.465 0 003.461 3.462h4.154a3.47 3.47 0 003.25-2.265l.008-.024c1.152.593 2.703.905 3.665.905h12.71c1.508 0 2.827-1.017 3.137-2.417a3.117 3.117 0 00-.258-2.099l.008.018a3.108 3.108 0 001.379-4.172l.008.018a3.107 3.107 0 001.708-2.77zm-2.92 1.708a.697.697 0 00-.577.465l-.001.005a.692.692 0 00.182.722c.352.331.548.777.548 1.253a1.725 1.725 0 01-1.527 1.708l-.008.001a.697.697 0 00-.577.465l-.001.005a.69.69 0 00.183.722c.455.43.638 1.031.501 1.652-.17.773-.921 1.332-1.785 1.332h-12.71c-1.124 0-3.01-.527-3.663-1.183a.692.692 0 00-1.182.488v.002a2.081 2.081 0 01-2.077 2.077H3.457a2.081 2.081 0 01-2.077-2.077V17.384a2.081 2.081 0 012.077-2.077h6.231v.692c0 .24.125.462.329.59a.7.7 0 00.677.027l-.004.002 1.385-.692a.69.69 0 00.318-.329l4.154-9a.696.696 0 00.064-.29V1.836a2.923 2.923 0 011.385-.375c.759 0 2.769 1.886 2.769 4.154 0 2.437-1.326 5.95-1.339 5.984a.7.7 0 00.076.64c.13.187.343.299.57.299h9.527c1.155 0 2.135.826 2.232 1.882a2.067 2.067 0 01-.977 1.954l-.009.005a.695.695 0 00.043 1.205l.004.002c.566.287.948.864.949 1.53a1.727 1.727 0 01-1.527 1.708l-.008.001z"/></svg>