<svg width="16" height="33" viewBox="0 0 16 33" fill="none" xmlns="http://www.w3.org/2000/svg"><path d="M12.276 25.96c-2.868-.234-5.113-2.69-5.113-5.606V7.048C7.163 3.612 4.403.826 1 .826V14.26c.003.681.247 10.718 11.277 11.7z" fill="url(#paint0_radial)"/><path d="M12.276 25.96C1.246 24.977 1.002 14.94 1 14.257v5.945c0 2.947 1.024 5.822 2.967 8.022a11.663 11.663 0 007.865 3.939c.08.006.16.01.238.01 1.638 0 3.017-1.309 3.078-3.006.055-1.658-1.23-3.076-2.87-3.209z" fill="url(#paint1_linear)"/><path d="M.999 16.246v3.958c0 2.947 1.024 5.822 2.967 8.022a11.663 11.663 0 007.865 3.94c.08.006.16.009.238.009 1.638 0 3.017-1.308 3.078-3.006C3.174 29.17 1.25 20.33.999 16.246z" fill="url(#paint2_radial)"/><path d="M4.059 22.229V7a7.128 7.128 0 00-1.766-4.7L1 .825v13.432c.002.437.103 4.699 3.06 7.97z" fill="url(#paint3_linear)"/><path d="M.999 7.999v6.222h7.983c3.405 0 6.165-2.785 6.165-6.222H.999z" fill="url(#paint4_radial)"/><path d="M13.685 9.306l1.462-1.307H.999v3.089h8.03a6.986 6.986 0 004.656-1.782z" fill="url(#paint5_linear)"/><defs><radialGradient id="paint0_radial" cx="0" cy="0" r="1" gradientUnits="userSpaceOnUse" gradientTransform="matrix(18.0641 0 0 18.2342 4.985 5.203)"><stop offset=".073" stop-color="#43C8EF"/><stop offset=".201" stop-color="#3EBAE3"/><stop offset=".443" stop-color="#2F94C4"/><stop offset=".773" stop-color="#195992"/><stop offset=".958" stop-color="#0B3474"/></radialGradient><radialGradient id="paint2_radial" cx="0" cy="0" r="1" gradientUnits="userSpaceOnUse" gradientTransform="matrix(17.5005 0 0 17.6652 13.92 31.837)"><stop stop-color="#fff" stop-opacity=".4"/><stop offset=".048" stop-color="#FCEAE8" stop-opacity=".442"/><stop offset=".16" stop-color="#F7BCB9" stop-opacity=".54"/><stop offset=".272" stop-color="#F29791" stop-opacity=".638"/><stop offset=".382" stop-color="#EF7A73" stop-opacity=".735"/><stop offset=".488" stop-color="#EC655D" stop-opacity=".828"/><stop offset=".591" stop-color="#EB584F" stop-opacity=".918"/><stop offset=".684" stop-color="#EA544B"/><stop offset="1" stop-color="#EA544B" stop-opacity=".2"/></radialGradient><radialGradient id="paint4_radial" cx="0" cy="0" r="1" gradientUnits="userSpaceOnUse" gradientTransform="matrix(11.3511 0 0 11.458 11.79 10.74)"><stop stop-color="#16C940"/><stop offset=".34" stop-color="#0D9733"/><stop offset=".756" stop-color="#045F24"/><stop offset=".958" stop-color="#00491E"/></radialGradient><linearGradient id="paint1_linear" x1=".999" y1="23.217" x2="15.146" y2="23.217" gradientUnits="userSpaceOnUse"><stop stop-color="#6F010E"/><stop offset=".007" stop-color="#740310"/><stop offset=".077" stop-color="#A21321"/><stop offset=".143" stop-color="#C7202E"/><stop offset=".205" stop-color="#E12938"/><stop offset=".261" stop-color="#F02F3E"/><stop offset=".304" stop-color="#F63140"/><stop offset=".342" stop-color="#F73E43"/><stop offset=".497" stop-color="#F96C4E"/><stop offset=".644" stop-color="#FB9057"/><stop offset=".781" stop-color="#FCAB5E"/><stop offset=".904" stop-color="#FDBA62"/><stop offset="1" stop-color="#FDC063"/></linearGradient><linearGradient id="paint3_linear" x1="2.529" y1=".788" x2="2.529" y2="22.227" gradientUnits="userSpaceOnUse"><stop stop-color="#fff" stop-opacity=".8"/><stop offset=".116" stop-color="#fff" stop-opacity=".713"/><stop offset="1" stop-color="#fff" stop-opacity=".05"/></linearGradient><linearGradient id="paint5_linear" x1=".999" y1="9.543" x2="15.146" y2="9.543" gradientUnits="userSpaceOnUse"><stop stop-color="#fff" stop-opacity=".1"/><stop offset="1" stop-color="#fff" stop-opacity=".6"/></linearGradient></defs></svg>