<svg xmlns="http://www.w3.org/2000/svg" width="18" height="32" viewBox="0 0 18 32"><path d="M15.478 8.533h-3.2V2.666h1.067a.533.533 0 00.533-.533v-1.6A.533.533 0 0013.345 0H4.812a.533.533 0 00-.533.533v1.6c0 .295.239.533.533.533h1.067v5.867h-3.2A2.67 2.67 0 00.012 11.2v16.533A2.67 2.67 0 002.679 30.4v1.067c0 .295.239.533.533.533h2.133a.533.533 0 00.533-.533V30.4h6.4v1.067c0 .295.239.533.533.533h2.133a.533.533 0 00.533-.533V30.4a2.67 2.67 0 002.667-2.667V11.2a2.67 2.67 0 00-2.667-2.667zM5.345 1.067h7.467V1.6H5.345zm1.6 1.6h4.267v5.867H6.945zM4.811 30.933H3.744V30.4h1.067zm9.6 0h-1.067V30.4h1.067zm2.667-3.2a1.6 1.6 0 01-1.6 1.6h-12.8a1.6 1.6 0 01-1.6-1.6V11.2a1.6 1.6 0 011.6-1.6h12.8a1.6 1.6 0 011.6 1.6z"/><path d="M9.078 10.667a.533.533 0 00-.533.533v16.533a.533.533 0 101.066 0V11.2a.533.533 0 00-.533-.533zm4.267 1.066a.533.533 0 00-.533.533v14.4a.533.533 0 101.066 0v-14.4a.533.533 0 00-.533-.533zm-8.533 0a.533.533 0 00-.533.533v14.4a.533.533 0 101.066 0v-14.4a.533.533 0 00-.533-.533z"/></svg>