<!-- Generated by IcoMoon.io -->
<svg version="1.1" xmlns="http://www.w3.org/2000/svg" width="55" height="32" viewBox="0 0 55 32">
<title>maestro</title>
<path fill="#eb2230" d="M37.768 31.447l0.812-0.017 0.812-0.065 0.779-0.097 0.78-0.129 0.779-0.178 0.745-0.211 0.745-0.242 0.713-0.275 0.711-0.308 0.679-0.339 0.664-0.372 0.646-0.404 0.614-0.437 0.597-0.453 0.581-0.5 0.548-0.503 0.53-0.55 0.497-0.55 0.48-0.582 0.431-0.615 0.414-0.631 0.383-0.647 0.346-0.664 0.315-0.679 0.282-0.711 0.265-0.711 0.199-0.745 0.181-0.743 0.149-0.761 0.083-0.775 0.065-0.794 0.033-0.793-0.033-0.792-0.065-0.776-0.083-0.776-0.149-0.761-0.181-0.744-0.199-0.727-0.265-0.711-0.282-0.696-0.315-0.68-0.346-0.679-0.383-0.647-0.415-0.614-0.43-0.615-0.48-0.582-0.498-0.551-0.529-0.55-0.548-0.501-0.581-0.486-0.597-0.467-0.614-0.422-0.646-0.404-0.664-0.371-0.678-0.341-0.712-0.307-0.713-0.275-0.745-0.242-0.745-0.21-0.779-0.178-0.78-0.13-0.779-0.097-0.811-0.064-0.812-0.017-0.83 0.017-0.794 0.065-0.796 0.096-0.78 0.13-0.762 0.178-0.762 0.211-0.729 0.242-0.73 0.275-0.697 0.308-0.679 0.34-0.663 0.371-0.646 0.404-0.614 0.422-0.596 0.468-0.581 0.486-0.545 0.5-0.532 0.55-0.495 0.551-0.465 0.582-0.448 0.615-0.397 0.614-0.383 0.647-0.346 0.679-0.316 0.68-0.282 0.695-0.265 0.711-0.199 0.728-0.18 0.744-0.134 0.761-0.1 0.776-0.066 0.776-0.015 0.792 0.015 0.794 0.066 0.793 0.1 0.775 0.133 0.761 0.181 0.743 0.2 0.744 0.264 0.711 0.282 0.712 0.316 0.68 0.346 0.664 0.383 0.646 0.397 0.631 0.448 0.615 0.465 0.582 0.495 0.55 0.531 0.55 0.548 0.503 0.581 0.5 0.595 0.453 0.614 0.437 0.646 0.404 0.664 0.372 0.678 0.34 0.697 0.307 0.73 0.275 0.729 0.242 0.762 0.211 0.762 0.178 0.78 0.13 0.796 0.095 0.794 0.066 0.83 0.017z"></path>
<path fill="#0b84c4" d="M16.766 31.447l0.811-0.017 0.813-0.065 0.78-0.097 0.779-0.129 0.779-0.178 0.747-0.211 0.744-0.242 0.713-0.275 0.696-0.308 0.679-0.339 0.664-0.372 0.646-0.404 0.629-0.437 0.599-0.453 0.563-0.5 0.563-0.503 0.513-0.55 0.498-0.55 0.463-0.582 0.448-0.615 0.415-0.631 0.379-0.647 0.35-0.664 0.315-0.679 0.282-0.711 0.249-0.711 0.198-0.745 0.183-0.743 0.148-0.761 0.1-0.775 0.050-0.794 0.034-0.793-0.034-0.792-0.050-0.776-0.1-0.776-0.148-0.761-0.183-0.744-0.199-0.727-0.249-0.711-0.281-0.696-0.315-0.68-0.348-0.679-0.38-0.647-0.415-0.614-0.448-0.615-0.463-0.582-0.498-0.551-0.513-0.55-0.563-0.501-0.563-0.486-0.599-0.467-0.629-0.422-0.646-0.404-0.664-0.371-0.679-0.341-0.696-0.307-0.713-0.275-0.745-0.242-0.747-0.21-0.777-0.178-0.779-0.13-0.78-0.097-0.813-0.065-0.811-0.017-0.83 0.017-0.794 0.065-0.796 0.096-0.777 0.13-0.763 0.178-0.763 0.211-0.729 0.242-0.729 0.275-0.697 0.308-0.679 0.34-0.679 0.371-0.631 0.404-0.628 0.422-0.599 0.468-0.581 0.486-0.545 0.5-0.514 0.55-0.514 0.551-0.463 0.582-0.447 0.615-0.415 0.614-0.382 0.647-0.347 0.679-0.315 0.68-0.281 0.695-0.249 0.711-0.216 0.728-0.184 0.744-0.132 0.761-0.1 0.776-0.066 0.776-0.017 0.792 0.017 0.794 0.066 0.793 0.1 0.775 0.132 0.761 0.184 0.743 0.216 0.744 0.249 0.711 0.281 0.712 0.315 0.68 0.347 0.664 0.382 0.646 0.415 0.631 0.447 0.615 0.462 0.582 0.516 0.55 0.514 0.55 0.545 0.503 0.581 0.5 0.597 0.453 0.629 0.437 0.631 0.404 0.679 0.372 0.679 0.34 0.697 0.307 0.729 0.275 0.729 0.242 0.763 0.211 0.763 0.178 0.777 0.13 0.796 0.095 0.794 0.066 0.83 0.017z"></path>
<path fill="#eb2230" d="M25.321 6.425h8.021v-0.858h-7.26l-0.761 0.858zM24.062 8.252h9.28v-0.856h-8.734l-0.546 0.857zM23.114 10.112h10.226v-0.857h-9.794l-0.433 0.857zM22.501 11.939h10.84v-0.857h-10.574l-0.265 0.857zM22.090 13.784h11.253v-0.875h-11.087l-0.166 0.873zM22.005 17.326h11.337v-0.857h-11.403l0.065 0.857zM22.284 19.267h11.054v-0.873h-11.221l0.166 0.873zM22.821 20.836h10.523v-0.875h-10.79l0.267 0.873zM23.613 22.744h9.729v-0.873h-10.145l0.415 0.872zM24.758 24.669h8.584v-0.857h-9.18l0.596 0.857zM26.166 26.529h7.092v-0.858h-7.872l0.78 0.858zM51.006 25.462l0.051-0.146 0.083-0.13 0.101-0.111 0.114-0.083 0.116-0.081 0.149-0.032 0.151-0.017 0.149 0.017 0.148 0.032 0.132 0.082 0.119 0.082 0.098 0.113 0.065 0.129 0.051 0.146h-0.166l-0.033-0.097-0.047-0.114-0.087-0.097-0.081-0.065-0.098-0.047-0.119-0.049h-0.249l-0.134 0.047-0.098 0.049-0.101 0.065-0.065 0.097-0.051 0.114-0.032 0.097h-0.166z"></path>
<path fill="#eb2230" d="M51.509 25.461v-0.193h0.296l0.066 0.017h0.050l0.051 0.015 0.050 0.017 0.031 0.031 0.017 0.034 0.015 0.031v0.049h-0.13v-0.032l-0.018-0.017-0.015-0.017-0.018-0.014-0.018-0.017h-0.030l-0.018-0.018h-0.199v0.114h-0.13zM51.006 25.59v-0.129h0.169l-0.018 0.015v0.114h-0.152z"></path>
<path fill="#eb2230" d="M51.509 25.59v-0.129h0.13v0.097h0.247l0.036-0.017h0.015l0.018-0.032v-0.049h0.13v0.081l-0.015 0.032-0.017 0.017h-0.544zM52.386 25.589l-0.018-0.113v-0.015h0.168l0.018 0.129h-0.168zM51.007 25.591l-0.015 0.015 0.015 0.162 0.051 0.145 0.083 0.114 0.101 0.113 0.114 0.083 0.116 0.063 0.152 0.049 0.148 0.017 0.149-0.017 0.149-0.047 0.13-0.065 0.119-0.082 0.098-0.113 0.066-0.114 0.050-0.145 0.018-0.162v-0.015h-0.166v0.015l-0.018 0.146-0.033 0.114-0.047 0.113-0.087 0.081-0.081 0.081-0.098 0.049-0.119 0.049h-0.248l-0.133-0.047-0.1-0.050-0.101-0.081-0.065-0.081-0.051-0.113-0.050-0.114v-0.161h-0.149z"></path>
<path fill="#eb2230" d="M51.509 25.591v0.306h0.13v-0.257h0.134l0.164 0.257h0.133l-0.198-0.257h0.101l0.032-0.017 0.033-0.032h-0.529z"></path>
<path fill="#fff" d="M34.334 14.673l-0.1-0.017h-0.116l-0.083-0.017-0.098-0.015-0.101-0.017-0.083-0.017-0.1-0.015-0.115-0.017h-0.1l-0.116-0.017-0.133-0.015h-0.465l-0.199 0.015-0.199 0.017-0.149 0.017-0.149 0.032-0.133 0.049-0.116 0.047-0.098 0.050-0.1 0.064-0.068 0.065-0.065 0.064-0.050 0.097-0.034 0.081-0.015 0.082v0.096l0.033 0.097 0.032 0.098 0.050 0.097 0.083 0.097 0.151 0.129 0.166 0.095 0.215 0.098 0.216 0.081 0.249 0.065 0.232 0.081 0.498 0.194 0.213 0.113 0.216 0.147 0.183 0.194 0.166 0.225 0.116 0.275 0.083 0.325 0.017 0.388-0.017 0.453-0.068 0.339-0.081 0.308-0.134 0.275-0.149 0.243-0.166 0.21-0.198 0.178-0.216 0.161-0.231 0.146-0.232 0.114-0.249 0.081-0.249 0.082-0.264 0.047-0.249 0.050-0.249 0.015-0.481 0.032h-0.314l-0.3-0.015h-0.513l-0.414-0.032h-0.183l-0.166-0.033-0.166-0.017-0.148-0.032-0.134-0.015-0.13-0.033-0.119-0.049-0.132-0.032-0.133-0.049-0.133-0.032 0.332-1.602 0.065 0.017 0.101 0.032 0.098 0.018 0.134 0.031 0.13 0.032 0.149 0.033 0.184 0.033 0.166 0.031 0.199 0.018 0.181 0.032 0.629 0.049h0.664l0.216-0.049 0.166-0.050 0.133-0.081 0.1-0.097 0.082-0.097 0.050-0.113 0.050-0.114 0.034-0.113 0.015-0.113v-0.114l-0.033-0.097-0.032-0.081-0.068-0.081-0.065-0.065-0.083-0.064-0.1-0.066-0.117-0.047-0.116-0.064-0.132-0.050-0.133-0.047-0.132-0.050-0.151-0.064-0.149-0.047-0.149-0.066-0.148-0.064-0.149-0.065-0.133-0.081-0.149-0.081-0.13-0.081-0.134-0.097-0.116-0.114-0.1-0.113-0.1-0.13-0.1-0.146-0.066-0.161-0.065-0.162-0.036-0.193-0.031-0.194v-0.226l0.017-0.243 0.031-0.292 0.019-0.129 0.032-0.129 0.033-0.13 0.033-0.128 0.050-0.113 0.050-0.13 0.049-0.097 0.068-0.114 0.066-0.095 0.065-0.098 0.083-0.082 0.084-0.095 0.083-0.083 0.1-0.064 0.1-0.081 0.115-0.065 0.116-0.064 0.133-0.049 0.132-0.065 0.134-0.049 0.148-0.032 0.149-0.049 0.166-0.032 0.183-0.032 0.166-0.017 0.198-0.033 0.199-0.015h0.2l0.215-0.017h0.745l0.232 0.017h0.199l0.183 0.015 0.166 0.017 0.148 0.017h0.134l0.116 0.017 0.115 0.015 0.1 0.017 0.082 0.015h0.068l0.066 0.017 0.065 0.017h0.051l-0.365 1.649zM36.044 11.277h2.088l-0.315 1.765h1.275l-0.281 1.632-1.326-0.032-0.679 4.044-0.017 0.081v0.081l0.017 0.065 0.017 0.064 0.032 0.050 0.034 0.047 0.050 0.049 0.050 0.033 0.065 0.032 0.066 0.017 0.068 0.017 0.065 0.014 0.083 0.017h0.083l0.1 0.018h0.249l0.149-0.018 0.132-0.017 0.117-0.031 0.083-0.017 0.065-0.032 0.050-0.015h0.018l-0.216 1.375-0.050 0.032-0.068 0.032-0.050 0.017-0.065 0.032-0.050 0.017-0.066 0.015-0.066 0.032-0.133 0.033-0.083 0.015-0.083 0.017-0.199 0.033-0.098 0.015-0.134 0.017-0.116 0.015h-0.563l-0.297-0.032-0.265-0.015-0.233-0.050-0.198-0.047-0.183-0.065-0.132-0.081-0.133-0.082-0.1-0.096-0.133-0.228-0.033-0.129-0.015-0.146-0.019-0.145 0.019-0.162 0.015-0.161 0.017-0.178 1.393-7.944zM20.429 19.219l-0.3 1.618h-1.873l0.018-0.162 0.032-0.146 0.017-0.145 0.018-0.114 0.015-0.113 0.017-0.097 0.033-0.065 0.018-0.032-0.101 0.113-0.132 0.114-0.133 0.113-0.332 0.194-0.181 0.097-0.199 0.081-0.216 0.065-0.216 0.064-0.215 0.065-0.433 0.064-0.43 0.033-0.216-0.017-0.199-0.031-0.264-0.066-0.231-0.081-0.217-0.097-0.183-0.113-0.166-0.114-0.148-0.129-0.117-0.146-0.115-0.145-0.083-0.146-0.065-0.162-0.068-0.162-0.050-0.161-0.017-0.178-0.033-0.161v-0.162l-0.017-0.161 0.034-0.275 0.032-0.275 0.066-0.26 0.1-0.242 0.132-0.226 0.134-0.212 0.166-0.21 0.166-0.178 0.199-0.161 0.199-0.162 0.215-0.13 0.231-0.111 0.233-0.114 0.248-0.081 0.249-0.047 0.249-0.049h0.050l0.065-0.017h0.066l0.199-0.033 0.116-0.015h0.116l0.132-0.017 0.116-0.017h0.134l0.132-0.015 0.117-0.018h0.977l0.083 0.018h0.265l0.017-0.049 0.049-0.114 0.019-0.146v-0.226l-0.019-0.081-0.031-0.081-0.036-0.081-0.049-0.065-0.050-0.064-0.050-0.065-0.066-0.064-0.065-0.049-0.066-0.033-0.083-0.049-0.068-0.032-0.083-0.032-0.1-0.018-0.083-0.014-0.082-0.017h-0.448l-0.231 0.017-0.232 0.014-0.249 0.017-0.231 0.017-0.249 0.032-0.232 0.017-0.216 0.033-0.216 0.032-0.199 0.032-0.181 0.047-0.151 0.033-0.148 0.047-0.1 0.034-0.083 0.047 0.53-1.73 0.167-0.065 0.166-0.065 0.165-0.047 0.183-0.047 0.183-0.050 0.181-0.017 0.2-0.032 0.198-0.017 0.215-0.015h0.217l0.216-0.017h0.696l0.265 0.017h0.249l0.216 0.015 0.23 0.033 0.233 0.049 0.463 0.161 0.232 0.097 0.216 0.13 0.215 0.145 0.184 0.162 0.181 0.178 0.149 0.193 0.1 0.226 0.083 0.226 0.050 0.26 0.017 0.275-0.050 0.308-0.779 3.816z"></path>
<path fill="#0b84c4" d="M18.641 17.293v-0.031l-0.034-0.032-0.050-0.017-0.065-0.015-0.101-0.017h-0.429l-0.134 0.017-0.116 0.015-0.115 0.017-0.117 0.032-0.116 0.017-0.082 0.015-0.083 0.033-0.050 0.015-0.066 0.017-0.066 0.032-0.1 0.032-0.083 0.033-0.101 0.047-0.098 0.050-0.1 0.064-0.1 0.065-0.083 0.081-0.1 0.081-0.065 0.081-0.083 0.097-0.051 0.113-0.031 0.115-0.036 0.129-0.015 0.242 0.051 0.194 0.047 0.146 0.101 0.113 0.115 0.081 0.117 0.049 0.13 0.032h0.351l0.215-0.015 0.184-0.047 0.166-0.033 0.166-0.065 0.13-0.047 0.134-0.082 0.1-0.065 0.1-0.081 0.1-0.096 0.065-0.083 0.066-0.079 0.050-0.081 0.033-0.081 0.033-0.082 0.033-0.081 0.017-0.114 0.033-0.113 0.017-0.129 0.033-0.13 0.018-0.113 0.017-0.113 0.032-0.114 0.018-0.097z"></path>
<path fill="#fff" d="M4.736 20.836h-2.039l1.707-9.56h3.547l0.348 5.677 2.404-5.677h3.679l-1.723 9.56h-2.022l1.276-7.166h-0.083l-3.019 7.166h-2.285l-0.017-0.308-0.050-0.792-0.066-1.132-0.083-1.294-0.066-1.31-0.066-1.15-0.050-0.825-0.017-0.356h-0.083l-1.292 7.166zM38.729 20.835h2.106l0.729-4.141 0.033-0.161 0.033-0.146 0.050-0.162 0.050-0.145 0.049-0.146 0.083-0.146 0.083-0.13 0.101-0.128 0.115-0.114 0.133-0.097 0.166-0.097 0.183-0.081 0.199-0.064 0.231-0.050 0.265-0.032 0.297-0.015h0.050l0.051 0.015h0.1l0.032 0.017 0.017-0.032 0.017-0.097 0.018-0.13 0.049-0.161 0.1-0.389 0.083-0.21 0.066-0.194 0.066-0.145 0.198-0.389 0.069-0.113 0.050-0.081 0.031-0.066 0.018-0.015h-0.018l-0.015-0.017h-0.034l-0.065-0.015h-0.050l-0.050-0.017h-0.116l-0.232 0.017-0.199 0.015-0.198 0.049-0.184 0.050-0.166 0.047-0.148 0.082-0.148 0.081-0.117 0.081-0.13 0.097-0.134 0.097-0.1 0.113-0.116 0.129-0.116 0.13-0.098 0.128-0.116 0.146-0.1 0.147 0.249-1.31-2.121-0.017-1.394 7.81zM50.713 13.897l0.13 0.13 0.116 0.128 0.116 0.146c0.994 1.358 0.946 3.365 0.098 4.788-0.78 1.31-2.369 1.989-3.892 1.972-2.836-0.015-4.294-2.894-3.383-5.594l0.083-0.196c1.076-2.443 4.606-3.204 6.731-1.375zM50.993 20.448h0.61v0.065h-0.231v0.498h-0.13v-0.498h-0.249v-0.065zM51.691 20.448h0.183l0.213 0.436 0.218-0.436h0.199v0.565h-0.149v-0.436l-0.199 0.436h-0.116l-0.217-0.436v0.436h-0.13v-0.565z"></path>
<path fill="#eb2230" d="M48.922 17.876c0.347-0.761 0.595-1.99 0.098-2.733-0.382-0.567-1.144-0.616-1.723-0.276-0.845 0.503-1.193 1.65-1.111 2.637 0.149 1.908 2.121 1.746 2.735 0.372z"></path>
<path fill="#fff" d="M28.186 17.326c0.248-1.278 0.83-4.416-2.968-4.416-3.579 0-4.044 3.493-4.044 3.947-0.116 0.469-0.116 3.947 3.68 3.947 0.96 0 2.27-0.113 2.849-0.34l0.365-1.633c-0.365 0.113-1.541 0.242-2.503 0.242-0.827 0-2.253 0-2.020-1.746h4.64z"></path>
<path fill="#0b84c4" d="M23.545 15.823h2.734c0.315-2.104-2.304-1.7-2.734 0z"></path>
</svg>
