<svg xmlns="http://www.w3.org/2000/svg" width="32" height="32" viewBox="0 0 32 32"><path d="M27.564 13.227h-.08v-1.941C27.484 5.053 22.431 0 16.198 0S4.912 5.053 4.912 11.286v1.941h-.475c-1.744 0-3.09 1.546-3.09 3.328v4.95l-.001.077a3.13 3.13 0 003.087 3.129h2.933a.753.753 0 00.713-.835v.003-9.701c0-.475-.277-.95-.714-.95h-.87v-1.942c0-5.359 4.344-9.703 9.703-9.703s9.703 4.344 9.703 9.703v1.941h-.872c-.435 0-.714.475-.714.95v9.704a.752.752 0 00.712.832h.914l-.08.118a6.253 6.253 0 01-5 2.496h-.032.002a3.927 3.927 0 00-3.842-3.14 3.92 3.92 0 00-3.92 3.891v.002a3.96 3.96 0 003.96 3.92 4.07 4.07 0 002.85-1.226l.001-.001a3.48 3.48 0 00.95-1.902h.032c2.553 0 4.82-1.22 6.252-3.109l.014-.02.752-1.109c1.702-.118 2.773-1.189 2.773-2.733v-4.95c0-1.702-1.267-3.723-3.088-3.723zM6.496 23.128H4.437a1.545 1.545 0 01-1.508-1.544l.002-.083v.004-4.952c0-.91.634-1.742 1.504-1.742h2.061v8.317zm12.236 6.536c-.425.46-1.03.748-1.702.752h-.001a2.416 2.416 0 01-2.376-2.332v-.006a2.336 2.336 0 014.672-.002v.003a2.101 2.101 0 01-.592 1.584zm10.336-7.763c0 1.069-1.029 1.227-1.504 1.227H25.9v-8.317h1.664c.872 0 1.504 1.229 1.504 2.139v4.95z"/></svg>