<!-- Generated by IcoMoon.io -->
<svg version="1.1" xmlns="http://www.w3.org/2000/svg" width="38" height="32" viewBox="0 0 38 32">
<title>money</title>
<path d="M33.691 5.92c1.762 0.39 2.938 1.318 3.409 2.914 0.090 0.312 0.141 0.67 0.141 1.041 0 0.017-0 0.034-0 0.051l0-0.003c0.006 6.038 0.006 12.080 0 18.118 0 0.010 0 0.023 0 0.035 0 0.539-0.117 1.050-0.328 1.509l0.009-0.023c-0.213 0.48-0.531 0.918-0.93 1.291-0.402 0.366-0.879 0.66-1.405 0.855-0.479 0.184-1.033 0.291-1.612 0.291-0.016 0-0.032-0-0.047-0l0.002 0h-28.277c-2.554 0-4.4-1.696-4.4-4.043v-20.81c-0.001-0.043-0.001-0.094-0.001-0.146 0-1.259 0.262-2.458 0.735-3.543l-0.022 0.057c0.909-2.041 2.587-3.229 4.952-3.406 2.032-0.15 4.091-0.099 6.128-0.105 5.72-0.006 11.44-0.006 17.161 0 2.647 0 4.475 1.675 4.481 4.097v1.819zM30.843 5.863v-1.678c0-1.080-0.534-1.567-1.705-1.567h-18.226c-1.351 0-2.698-0.018-4.046 0.012-2.191 0.045-3.661 1.393-3.571 3.232h27.551zM29.087 16.328c-0.010-0-0.023-0-0.035-0-0.646 0-1.251 0.18-1.766 0.492l0.015-0.009c-0.519 0.311-0.928 0.759-1.184 1.293l-0.008 0.018c-0.159 0.335-0.252 0.729-0.252 1.143 0 0.197 0.021 0.388 0.061 0.573l-0.003-0.018c0.12 0.57 0.42 1.098 0.87 1.513 0.444 0.411 1.011 0.696 1.633 0.81 0.621 0.12 1.267 0.060 1.855-0.156 0.585-0.222 1.086-0.597 1.441-1.080 0.337-0.45 0.541-1.015 0.546-1.628v-0.001c-0.003-0.822-0.358-1.561-0.922-2.075l-0.002-0.002c-0.592-0.539-1.383-0.87-2.251-0.87h-0z"></path>
</svg>
