<!-- Generated by IcoMoon.io -->
<svg version="1.1" xmlns="http://www.w3.org/2000/svg" width="32" height="32" viewBox="0 0 32 32">
<title>phone</title>
<path d="M23 32c-1.099-0.002-2.15-0.202-3.122-0.566l0.061 0.020c-4.628-1.72-8.58-4.291-11.844-7.55l0 0c-3.259-3.264-5.83-7.216-7.476-11.619l-0.074-0.225c-0.346-0.91-0.546-1.962-0.546-3.062 0-0.455 0.034-0.901 0.1-1.337l-0.006 0.049c0.441-2.889 2.193-5.293 4.619-6.62l0.047-0.024c1.222-0.671 2.678-1.066 4.226-1.066 0.014 0 0.028 0 0.042 0h-0.002c0 0 0 0 0 0 0.478 0 0.877 0.335 0.976 0.783l0.001 0.007 1.57 7.326c0.014 0.063 0.022 0.134 0.022 0.208 0 0.277-0.112 0.527-0.294 0.708l-2.68 2.68c2.587 5.062 6.603 9.080 11.516 11.599l0.148 0.069 2.682-2.682c0.181-0.182 0.431-0.294 0.708-0.294 0.074 0 0.145 0.008 0.215 0.023l-0.007-0.001 7.326 1.57c0.455 0.1 0.79 0.5 0.79 0.978 0 0 0 0 0 0v-0c0 1.516-0.36 2.952-1.066 4.266-1.355 2.469-3.757 4.219-6.593 4.659l-0.051 0.007c-0.387 0.060-0.834 0.094-1.288 0.094-0.001 0-0.003 0-0.004 0h0zM8.226 2.044c-2 0.22-3.776 1.268-4.954 2.95-0.798 1.11-1.276 2.496-1.276 3.994 0 0.858 0.157 1.68 0.443 2.437l-0.016-0.047c3.134 8.488 9.709 15.062 17.986 18.128l0.21 0.068c0.71 0.271 1.532 0.428 2.39 0.428 1.498 0 2.884-0.478 4.015-1.29l-0.021 0.014c1.616-1.127 2.721-2.892 2.947-4.923l0.003-0.031-5.96-1.276-2.8 2.8c-0.181 0.182-0.432 0.294-0.708 0.294-0.154 0-0.299-0.035-0.43-0.097l0.006 0.003c-5.984-2.862-10.698-7.576-13.486-13.39l-0.074-0.17c-0.059-0.124-0.094-0.27-0.094-0.424 0-0.277 0.112-0.527 0.294-0.708l2.8-2.8-1.276-5.96z"></path>
</svg>
