<!-- Generated by IcoMoon.io -->
<svg version="1.1" xmlns="http://www.w3.org/2000/svg" width="24" height="32" viewBox="0 0 24 32">
<title>pointer</title>
<path d="M11.748-0c-6.388 0-11.588 5.199-11.588 11.589 0 7.931 10.372 19.573 10.812 20.065 0.415 0.462 1.139 0.46 1.553 0 0.442-0.492 10.813-12.134 10.813-20.065-0.001-6.391-5.201-11.589-11.591-11.589zM11.748 17.419c-3.219-0.004-5.827-2.612-5.83-5.831v-0c0.004-3.219 2.612-5.827 5.831-5.83h0c3.219 0.004 5.828 2.612 5.831 5.831v0c-0.004 3.219-2.612 5.828-5.831 5.831h-0z"></path>
</svg>
