<svg xmlns="http://www.w3.org/2000/svg" width="36" height="32" viewBox="0 0 36 32"><path d="M20.587.329C11.949.329 4.924 7.363 4.924 16v.051l-3.102-4.672A1.001 1.001 0 00.16 12.49l-.003-.005 4.501 6.773c.16.235.412.397.703.435l.005.001c.045.009.081.009.128.009h.001a.973.973 0 00.665-.261l-.001.001 6.255-5.632a1 1 0 00.072-1.416l.001.001a1 1 0 00-1.414-.074l.001-.001-4.154 3.755v-.075c.005-7.546 6.119-13.663 13.663-13.673h.001C28.133 2.335 34.25 8.452 34.259 16v.001c-.005 7.547-6.12 13.664-13.665 13.673h-.001a13.56 13.56 0 01-9.66-4.004.994.994 0 00-1.414-.001c-.181.18-.293.43-.293.706s.112.526.293.706a15.506 15.506 0 0011.034 4.591h.04-.002c8.636 0 15.665-7.025 15.665-15.671S29.225.33 20.585.33z"/></svg>