<!-- Generated by IcoMoon.io -->
<svg version="1.1" xmlns="http://www.w3.org/2000/svg" width="25" height="32" viewBox="0 0 25 32">
<title>shield</title>
<path d="M24.38 6.561l-11.923-6.352c-0.081-0.044-0.177-0.070-0.28-0.070-0.104 0-0.203 0.027-0.288 0.074l0.003-0.002-11.593 6.353c-0.185 0.103-0.308 0.297-0.308 0.52 0 0 0 0 0 0v-0 8.299c0.007 6.992 4.191 13.006 10.19 15.682l0.109 0.044 1.609 0.702c0.15 0.065 0.322 0.066 0.472 0l1.813-0.783c6.225-2.664 10.508-8.736 10.508-15.809v-8.135c0-0.219-0.121-0.421-0.314-0.524zM23.508 15.22c-0.002 6.585-3.99 12.238-9.682 14.678l-0.104 0.040-0.004 0.002-1.579 0.682-1.371-0.598c-5.686-2.531-9.58-8.129-9.587-14.636v-7.948l11.003-6.030 11.325 6.035v7.778z"></path>
<path d="M7.803 14.999c-0.11-0.128-0.271-0.208-0.451-0.208-0.328 0-0.594 0.266-0.594 0.594 0 0.147 0.054 0.282 0.143 0.386l-0.001-0.001 3.135 3.672c0.11 0.128 0.271 0.208 0.451 0.208 0.142 0 0.273-0.050 0.375-0.134l-0.001 0.001 7.302-5.941c0.134-0.11 0.219-0.275 0.219-0.46 0-0.328-0.266-0.594-0.594-0.594-0.143 0-0.273 0.050-0.376 0.134l0.001-0.001-6.852 5.575-2.759-3.231z"></path>
</svg>
