<svg xmlns="http://www.w3.org/2000/svg" width="25" height="32" viewBox="0 0 25 32"><path d="M24.38 6.561L12.457.209a.587.587 0 00-.568.004l.003-.002L.299 6.564a.594.594 0 00-.308.52v8.299c.007 6.992 4.191 13.006 10.19 15.682l.109.044 1.609.702c.15.065.322.066.472 0l1.813-.783c6.225-2.664 10.508-8.736 10.508-15.809V7.084a.595.595 0 00-.314-.524zm-.872 8.659c-.002 6.585-3.99 12.238-9.682 14.678l-.104.04-.004.002-1.579.682-1.371-.598c-5.686-2.531-9.58-8.129-9.587-14.636V7.44l11.003-6.03 11.325 6.035v7.778z"/><path d="M7.803 14.999a.592.592 0 00-1.045.386c0 .147.054.282.143.386L6.9 15.77l3.135 3.672a.592.592 0 00.826.074l-.001.001 7.302-5.941a.593.593 0 10-.751-.92l.001-.001-6.852 5.575-2.759-3.231z"/></svg>