<svg xmlns="http://www.w3.org/2000/svg" width="41" height="32" viewBox="0 0 41 32"><path d="M.334 30.835c.137-2.718.032-5.328.455-7.861.542-3.246 3.063-5.216 6.386-5.28 4.402-.08 8.809-.098 13.216 0 3.915.094 6.537 2.912 6.574 6.821v6.315l-26.629.005zM7.205 7.676a6.602 6.602 0 014.132-5.98l.044-.016a6.456 6.456 0 012.404-.455 6.55 6.55 0 014.728 2.008l.002.002a6.592 6.592 0 01-4.745 11.168h-.075.004a6.614 6.614 0 01-6.492-6.611l.001-.121v.006zm20.526 10.089c2.489 0 4.631-.183 6.704.043 3.211.343 5.463 2.736 5.783 6.139.21 2.251.037 4.533.037 6.903h-9.867c-.466-4.389.965-9.079-2.656-13.086zM33.55 7.578a6.604 6.604 0 01-3.238 5.876l-.031.017a6.504 6.504 0 01-3.317.897 6.553 6.553 0 01-3.441-.97l.029.016c-.747-.425-1.145-.83-.69-1.833.543-1.127.86-2.451.86-3.849s-.317-2.722-.884-3.904l.023.054c-.375-.843-.119-1.248.542-1.623a6.276 6.276 0 013.581-1.11c1.125 0 2.182.294 3.098.808l-.032-.016c2.088 1.045 3.497 3.167 3.497 5.619v.018-.001z"/></svg>