<!-- Generated by IcoMoon.io -->
<svg version="1.1" xmlns="http://www.w3.org/2000/svg" width="29" height="32" viewBox="0 0 29 32">
<title>user</title>
<path d="M14.502-0c-4.571 0-8.309 3.737-8.309 8.309s3.737 8.309 8.309 8.309c4.571 0 8.309-3.737 8.309-8.309s-3.737-8.309-8.309-8.309zM28.763 23.257c-0.242-0.583-0.522-1.085-0.853-1.548l0.016 0.024c-1.613-2.396-4.151-4.063-7.092-4.492l-0.056-0.007c-0.058-0.008-0.125-0.012-0.193-0.012-0.32 0-0.618 0.099-0.864 0.267l0.005-0.003c-1.433 1.068-3.238 1.71-5.193 1.71-0.012 0-0.024-0-0.036-0h0.002c-1.886 0-3.701-0.581-5.225-1.705-0.225-0.171-0.51-0.274-0.819-0.274-0.082 0-0.163 0.007-0.241 0.021l0.008-0.001c-2.999 0.425-5.541 2.095-7.124 4.461l-0.023 0.037c-0.327 0.471-0.617 1.015-0.834 1.525-0.040 0.091-0.064 0.196-0.064 0.307 0 0.14 0.037 0.271 0.102 0.384l-0.002-0.004c0.29 0.507 0.654 1.017 0.981 1.451 0.507 0.69 1.051 1.305 1.669 1.886 0.507 0.51 1.088 0.981 1.669 1.451 2.707 2.038 6.125 3.264 9.83 3.264 0.014 0 0.028-0 0.042-0h-0.002c0.010 0 0.023 0 0.035 0 3.707 0 7.127-1.227 9.877-3.297l-0.042 0.030c0.581-0.434 1.161-0.942 1.669-1.451 1.001-0.975 1.877-2.070 2.607-3.264l0.042-0.073c0.181-0.217 0.217-0.471 0.107-0.69z"></path>
</svg>
