<svg xmlns="http://www.w3.org/2000/svg" width="31" height="32" viewBox="0 0 31 32"><path d="M15.504.706h-.005C7.065.706.206 7.565.206 16c0 3.344 1.078 6.445 2.912 8.963l-1.907 5.682 5.878-1.878a15.024 15.024 0 008.383 2.528h.032-.002c8.432 0 15.291-6.862 15.291-15.296 0-8.432-6.858-15.293-15.291-15.293zm8.899 21.596c-.368 1.042-1.834 1.906-3.002 2.158-.798.17-1.842.306-5.357-1.152-4.494-1.861-7.389-6.429-7.614-6.725-.216-.296-1.816-2.418-1.816-4.613s1.115-3.264 1.565-3.722c.368-.378.978-.549 1.563-.549.189 0 .36.01.512.016.45.019.675.046.971.755.368.89 1.267 3.085 1.376 3.31.107.224.218.531.064.827-.144.306-.27.442-.496.702-.224.259-.438.458-.664.736-.208.243-.44.504-.181.954.261.44 1.158 1.906 2.482 3.083 1.707 1.52 3.091 2.005 3.587 2.211.368.154.808.117 1.078-.17.342-.368.765-.981 1.195-1.584.304-.432.691-.485 1.096-.331.413.144 2.598 1.224 3.048 1.446.448.226.746.333.854.523.107.189.107 1.078-.262 2.122z"/></svg>