<svg width="46" height="15" viewBox="0 0 46 15" fill="none" xmlns="http://www.w3.org/2000/svg"><path d="M2.612 0C1.168 0 0 1.076 0 2.403v10.194C0 13.924 1.168 15 2.612 15h11.081c1.443 0 2.61-1.076 2.61-2.403v-.104c-.048-.019-4.236-1.626-6.366-2.568-1.435 1.626-3.288 2.613-5.212 2.613-3.253 0-4.357-2.62-2.817-4.343.336-.376.908-.735 1.794-.936 1.387-.314 3.594.195 5.663.824a9.992 9.992 0 00.918-2.065H3.909v-.594h3.287V4.358H3.213v-.594h3.982v-1.52s0-.255.282-.255h1.607v1.775h3.936v.594H9.084v1.066h3.213a11.55 11.55 0 01-1.36 3.161c.975.325 1.85.633 2.503.834 2.175.67 2.786.752 2.864.76V2.403C16.304 1.076 15.136 0 13.693 0H2.613zM4.4 8.127a6.02 6.02 0 00-.422.021c-.407.038-1.171.203-1.59.544-1.253 1.005-.503 2.843 2.034 2.843 1.474 0 2.947-.867 4.104-2.256C7.034 8.61 5.749 8.113 4.4 8.127z" fill="#00A1E9"/><path d="M44.264 9.575l-.736 1.478-.746-1.478h-.73l1.136 2.043v1.425h.67v-1.425l.004-.008 1.13-2.035h-.728zm-5.386.894l.519 1.439H38.34l.537-1.439zm.679 1.876l.25.698h.7l-1.38-3.468h-.536l-1.377 3.468h.703l.26-.698h1.38zm-5.234-1.112h-.745v-1.186h.745c.374 0 .598.303.598.595 0 .287-.21.591-.598.591zm.038-1.658h-1.457v3.468h.674V11.71h.783c.727 0 1.235-.44 1.235-1.068 0-.628-.508-1.067-1.235-1.067zm-4.866 3.468h.675V9.575h-.675v3.468zm-4.743-3.468v3.469h2.27v-.473h-1.596V9.575h-.674zm-3.842.894l.519 1.439h-1.056l.537-1.439zm.679 1.876l.25.698h.7l-1.38-3.468h-.536l-1.376 3.468h.701l.261-.698h1.38zm4.747-9.55h-2.893v-.959h3.355V1.24h-3.355V.024h-1.495a.29.29 0 00-.296.284v.931H18.32v.597h3.332v.96H18.84v.596h5.6s-.311 1.12-1.847 2.325c-1.376-.963-1.836-1.73-1.836-1.73h-1.502c.608.973 1.471 1.754 2.401 2.373-.854.513-1.962 1.008-3.394 1.404v.715s2.21-.386 4.346-1.55a16.373 16.373 0 004.287 1.55v-.677c-1.375-.463-2.464-.972-3.32-1.463 1.24-.85 2.325-2.002 2.76-3.544zM35.731.144h-1.506v1.455h-3.711v.586h3.711v5.233a.252.252 0 01-.243.22h-.765v.605h1.951a.57.57 0 00.563-.542V2.185h.611V1.6h-.61V.144zm-3.175 3.029a.34.34 0 00-.299-.177h-1.254l.977 2.847h1.485l-.909-2.67zM28.851.075l-1.727 3.779h1.325V8.35h1.449V2.386h-.525l1.09-2.311h-1.612zm16.801 8.07l-.529-1.655a.273.273 0 00-.261-.181h-1.403l.407 1.27h-1.65V5.118h3.24v-.586h-3.24V3.374h3.24v-.586h-8.083v.586h3.238v1.158h-3.238v.586h3.238v2.46h-3.238v.586h8.28l-.007-.02h.006zM39.057 1.39h4.717v.864h1.685V1.226a.432.432 0 00-.437-.42h-2.727V0h-1.763v.806h-3.16v1.45h1.685V1.39z" fill="#6A6A6A"/></svg>