<svg width="75" height="43" viewBox="0 0 75 43" fill="none" xmlns="http://www.w3.org/2000/svg"><path fill-rule="evenodd" clip-rule="evenodd" d="M69.375 0H3.75C1.874 0 0 1.72 0 3.44v34.4C0 41.28 1.874 43 5.625 43h63.75C73.125 43 75 41.28 75 37.84V5.16C75 1.72 73.126 0 69.375 0z" fill="#F8F8F8"/><path fill-rule="evenodd" clip-rule="evenodd" d="M12.679 18.775l-1.097-2.56-1.09 2.56h2.187zm24.162-1.02c-.22.129-.48.133-.792.133h-1.947v-1.426h1.973c.28 0 .57.012.759.116.209.094.338.293.338.567 0 .281-.123.507-.331.61.208-.103 0 0 0 0zm13.888 1.02l-1.11-2.56-1.102 2.56h2.212zm-25.889 2.77h-1.642l-.006-5.028-2.323 5.028h-1.407l-2.33-5.032v5.032h-3.258l-.617-1.432H9.92l-.62 1.432H7.56l2.87-6.42h2.38l2.725 6.078v-6.078h2.616l2.097 4.355 1.927-4.355h2.666v6.42zm6.549 0h-5.354v-6.42h5.354v1.337h-3.75v1.157h3.66v1.316h-3.66v1.282h3.75v1.328zm7.547-4.69a1.81 1.81 0 01-1.13 1.71c.352.128.652.354.794.54.227.32.266.605.266 1.179v1.26H37.25l-.005-.809c0-.386.037-.942-.253-1.25-.235-.226-.593-.275-1.169-.275h-1.72v2.335H32.5v-6.42h3.685c.82 0 1.424.021 1.941.308.508.287.811.705.811 1.421 0-.716 0 0 0 0zm2.564 4.69h-1.633v-6.42H41.5v6.42zm18.97 0H58.2l-3.038-4.818v4.818h-3.264l-.624-1.432h-3.328l-.605 1.432h-1.876c-.779 0-1.764-.165-2.323-.71-.563-.545-.857-1.284-.857-2.451 0-.952.175-1.822.864-2.51.519-.512 1.33-.749 2.434-.749h1.552v1.376h-1.52c-.584 0-.914.083-1.232.38-.273.27-.46.781-.46 1.454 0 .688.142 1.184.44 1.508.247.254.694.33 1.117.33h.72l2.258-5.047h2.401l2.713 6.071v-6.071h2.44l2.816 4.47v-4.47h1.642v6.419zm-52.93 1.26h2.738l.617-1.425h1.382l.616 1.425h5.388v-1.09l.48 1.095h2.797l.48-1.11v1.105h13.389l-.007-2.34h.258c.183.006.235.022.235.309v2.031h6.924v-.544c.558.286 1.428.544 2.57.544h2.914l.624-1.425h1.38l.611 1.425h5.613v-1.354l.85 1.354h4.5v-8.953h-4.452v1.058l-.623-1.058h-4.569v1.058l-.573-1.058h-6.17c-1.033 0-1.94.139-2.675.523v-.523H38.58v.523c-.465-.396-1.102-.523-1.809-.523H21.214l-1.045 2.313-1.072-2.313h-4.9v1.058l-.539-1.058H9.48L7.54 18.11v4.696zm57 4.728h-2.923c-.29 0-.484.01-.648.116-.17.104-.233.258-.233.461 0 .243.142.407.35.479.17.056.35.073.618.073l.868.022c.877.02 1.461.165 1.819.517.063.049.102.104.148.159v-1.827zm0 4.233c-.391.545-1.15.82-2.177.82H59.27V31.21h3.083c.305 0 .519-.038.648-.159a.56.56 0 00.19-.419.519.519 0 00-.197-.424c-.116-.098-.285-.143-.564-.143-1.505-.049-3.382.045-3.382-1.987 0-.931.618-1.912 2.3-1.912h3.19V24.89h-2.964c-.896 0-1.545.205-2.006.524v-.524H55.18c-.7 0-1.524.166-1.915.524v-.524h-7.833v.524c-.623-.43-1.674-.524-2.16-.524h-5.167v.524c-.492-.457-1.59-.524-2.258-.524h-5.784l-1.322 1.371-1.24-1.371h-8.638v8.959h8.476l1.363-1.393 1.285 1.393 5.225.005v-2.108h.512c.694.01 1.512-.017 2.233-.315v2.418h4.309v-2.335h.207c.266 0 .292.01.292.264v2.07h13.09c.832 0 1.7-.203 2.181-.573v.574h4.153c.863 0 1.707-.116 2.35-.413v-1.67zM58.145 29.2c.313.309.48.7.48 1.36 0 1.381-.901 2.026-2.517 2.026h-3.123V31.21h3.11c.303 0 .519-.038.654-.159.111-.1.19-.243.19-.419a.538.538 0 00-.196-.424c-.123-.098-.29-.143-.57-.143-1.5-.049-3.375.045-3.375-1.987 0-.931.61-1.912 2.29-1.912h3.213v1.367h-2.94c-.291 0-.48.01-.642.116-.175.104-.24.258-.24.462 0 .242.148.407.35.478.169.056.35.073.624.073l.862.022c.87.02 1.467.165 1.83.517-.363-.352 0 0 0 0zm-14.46-.397c-.214.122-.478.132-.79.132h-1.947v-1.442h1.973c.286 0 .571.006.764.116.209.104.333.303.333.578 0 .275-.124.496-.333.616.209-.12 0 0 0 0zm.968.8c.357.125.648.351.785.538.227.314.26.606.266 1.172v1.273h-1.61v-.803c0-.387.04-.959-.257-1.257-.235-.23-.593-.285-1.177-.285h-1.712v2.345h-1.61v-6.42h3.699c.811 0 1.402.033 1.928.302.506.293.824.694.824 1.426a1.8 1.8 0 01-1.136 1.708c.423-.16 0 0 0 0zm2.025-3.438h5.348v1.328h-3.753v1.167h3.661v1.31h-3.66v1.278l3.752.006v1.332h-5.348v-6.42zm-10.81 2.965h-2.072v-1.635h2.09c.577 0 .98.226.98.787 0 .556-.383.848-.998.848zM32.2 32.003l-2.46-2.616 2.46-2.532v5.148zm-6.354-.754h-3.939V29.97h3.518v-1.31h-3.518v-1.167h4.017l1.753 1.871-1.831 1.884zm12.74-2.968c0 1.784-1.39 2.152-2.79 2.152h-2v2.154h-3.114L28.71 30.46l-2.052 2.126h-6.346v-6.42h6.444l1.972 2.104 2.038-2.105h5.12c1.272 0 2.702.337 2.702 2.115 0-1.778 0 0 0 0z" fill="#357DE9"/></svg>