<svg width="44" height="20" viewBox="0 0 44 20" fill="none" xmlns="http://www.w3.org/2000/svg"><path d="M8.816 2.55c.54-.659.927-1.536.81-2.413C8.816.173 7.85.648 7.27 1.27c-.502.548-.965 1.462-.85 2.303.927.11 1.815-.366 2.396-1.024zm.81 1.242c-1.312-.073-2.433.695-3.05.695-.62 0-1.585-.658-2.627-.658-1.352.036-2.588.73-3.282 1.9-1.39 2.303-.387 5.703 1.003 7.567.656.914 1.468 1.938 2.51 1.901 1.006-.036 1.392-.621 2.588-.621 1.198 0 1.546.621 2.627.585 1.08-.037 1.777-.914 2.432-1.865.773-1.06 1.083-2.083 1.083-2.12-.039-.037-2.125-.768-2.125-3.034-.039-1.9 1.623-2.815 1.7-2.851-.889-1.316-2.356-1.462-2.86-1.499zm10.387-1.504c2.582 0 4.36 1.818 4.36 4.42 0 2.636-1.813 4.454-4.43 4.454h-2.825v4.597h-2.057V2.29h4.952zm-2.895 7.128h2.338c1.778 0 2.79-.998 2.79-2.673 0-1.71-1.012-2.673-2.79-2.673h-2.372v5.346h.034zm7.778 3.599c0-1.71 1.29-2.78 3.593-2.922l2.65-.143v-.748c0-1.105-.732-1.746-1.918-1.746-1.15 0-1.849.57-2.023 1.425h-1.884c.106-1.782 1.605-3.1 3.977-3.1 2.337 0 3.836 1.247 3.836 3.243v6.77h-1.883v-1.603h-.034c-.56 1.105-1.78 1.782-3.036 1.782-1.953 0-3.278-1.212-3.278-2.958zm6.242-.89v-.785l-2.37.143c-1.186.07-1.85.605-1.85 1.46 0 .856.699 1.426 1.744 1.426 1.396 0 2.477-.962 2.477-2.245zm3.734 7.305v-1.64c.139.036.488.036.627.036.906 0 1.394-.392 1.709-1.39 0-.035.175-.606.175-.606l-3.489-9.836h2.128l2.441 8.019h.035l2.441-8.019h2.093L39.44 16.365c-.837 2.388-1.78 3.136-3.769 3.136-.139-.036-.626-.036-.8-.071z" fill="#000"/></svg>