<svg width="36" height="36" viewBox="0 0 36 36" fill="none" xmlns="http://www.w3.org/2000/svg"><g clip-path="url(#clip0)" fill="#EC824A"><path d="M19.743 0h-3.485a2.902 2.902 0 00-2.899 2.899v3.435h2.147V2.899c0-.415.338-.752.752-.752h3.485c.414 0 .751.337.751.752v3.435h2.148V2.899c0-1.599-1.3-2.899-2.9-2.899zm4.914 8.48H11.344a2.028 2.028 0 00-2.026 2.026v18.61c0 1.117.909 2.026 2.026 2.026h13.313a2.028 2.028 0 002.025-2.026v-18.61a2.028 2.028 0 00-2.025-2.026zM11.343 33.29c-.081 0-.162-.003-.241-.008v1.645a1.074 1.074 0 002.147 0V33.29h-1.906zm13.313 0H22.75v1.637a1.074 1.074 0 002.147 0v-1.645c-.08.005-.16.008-.241.008z"/></g><defs><clipPath id="clip0"><path fill="#fff" d="M0 0h36v36H0z"/></clipPath></defs></svg>