<svg width="7" height="15" viewBox="0 0 7 15" fill="none" xmlns="http://www.w3.org/2000/svg"><path d="M6.25 6.92c0-.498-.276-.929-.68-1.16a.884.884 0 00.68-.85.826.826 0 00-.097-.39 3.155 3.155 0 00-1.41-1.841H1.507A3.156 3.156 0 00.097 4.52.841.841 0 000 4.91c0 .415.294.75.68.849-.404.231-.68.662-.68 1.16 0 .499.276.928.68 1.16a.88.88 0 00-.68.849v4.464c0 .493.4.893.893.893h4.464c.493 0 .893-.4.893-.893V8.929a.88.88 0 00-.68-.85c.404-.23.68-.66.68-1.16zM4.464 0H1.785C1.54 0 1.34.2 1.34.446v.893c0 .247.2.447.446.447h2.679c.246 0 .446-.2.446-.447V.446A.448.448 0 004.464 0z" fill="#EC824A"/></svg>