<svg width="17" height="17" viewBox="0 0 17 17" fill="none" xmlns="http://www.w3.org/2000/svg"><g clip-path="url(#clip0)" fill="#D2D2D2"><path d="M15.332 1.893V3.95a1.68 1.68 0 01-1.683 1.678h-1.062c-.93 0-1.694-.749-1.694-1.678V1.886H6.107V3.95c0 .929-.764 1.678-1.693 1.678H3.35A1.68 1.68 0 011.668 3.95V1.893a1.53 1.53 0 00-1.48 1.523v12.051C.188 16.31.871 17 1.712 17h13.576c.84 0 1.524-.692 1.524-1.533V3.416a1.53 1.53 0 00-1.48-1.523zm-.493 12.824a.659.659 0 01-.659.659H2.791a.659.659 0 01-.659-.659V8.492a.66.66 0 01.66-.66H14.18a.66.66 0 01.659.66v6.225z"/><path d="M3.348 4.525h1.05a.577.577 0 00.578-.577V.578A.577.577 0 004.398 0h-1.05a.577.577 0 00-.577.577v3.371c0 .32.258.577.577.577zm9.225 0h1.05a.577.577 0 00.578-.577V.578A.577.577 0 0013.624 0h-1.05a.577.577 0 00-.578.577v3.371c0 .32.259.577.577.577z"/></g><defs><clipPath id="clip0"><path fill="#fff" d="M0 0h17v17H0z"/></clipPath></defs></svg>