<svg width="16" height="16" viewBox="0 0 16 16" fill="none" xmlns="http://www.w3.org/2000/svg">
<path d="M3.75 7.375C3.42861 7.375 3.11443 7.4703 2.8472 7.64886C2.57997 7.82742 2.37169 8.08121 2.2487 8.37814C2.1257 8.67507 2.09352 9.0018 2.15622 9.31702C2.21893 9.63224 2.37369 9.92179 2.60095 10.1491C2.82821 10.3763 3.11776 10.5311 3.43298 10.5938C3.7482 10.6565 4.07493 10.6243 4.37186 10.5013C4.66879 10.3783 4.92258 10.17 5.10114 9.9028C5.2797 9.63557 5.375 9.3214 5.375 9C5.37451 8.56917 5.20315 8.15613 4.89851 7.85149C4.59387 7.54685 4.18083 7.37549 3.75 7.375ZM3.75 9.75C3.60166 9.75 3.45666 9.70601 3.33332 9.6236C3.20999 9.54119 3.11386 9.42406 3.05709 9.28701C3.00033 9.14997 2.98547 8.99917 3.01441 8.85368C3.04335 8.7082 3.11478 8.57456 3.21967 8.46967C3.32456 8.36478 3.4582 8.29335 3.60368 8.26441C3.74917 8.23547 3.89997 8.25033 4.03701 8.30709C4.17406 8.36386 4.29119 8.45999 4.3736 8.58332C4.45601 8.70666 4.5 8.85166 4.5 9C4.5 9.19891 4.42098 9.38968 4.28033 9.53033C4.13968 9.67098 3.94891 9.75 3.75 9.75Z" fill="#EC824A"/>
<path d="M12.75 7.375C12.4286 7.375 12.1144 7.4703 11.8472 7.64886C11.58 7.82742 11.3717 8.08121 11.2487 8.37814C11.1257 8.67507 11.0935 9.0018 11.1562 9.31702C11.2189 9.63224 11.3737 9.92179 11.601 10.1491C11.8282 10.3763 12.1178 10.5311 12.433 10.5938C12.7482 10.6565 13.0749 10.6243 13.3719 10.5013C13.6688 10.3783 13.9226 10.17 14.1011 9.9028C14.2797 9.63557 14.375 9.3214 14.375 9C14.3745 8.56917 14.2032 8.15613 13.8985 7.85149C13.5939 7.54685 13.1808 7.37549 12.75 7.375ZM12.75 9.75C12.6017 9.75 12.4567 9.70601 12.3333 9.6236C12.21 9.54119 12.1139 9.42406 12.0571 9.28701C12.0003 9.14997 11.9855 8.99917 12.0144 8.85368C12.0434 8.7082 12.1148 8.57456 12.2197 8.46967C12.3246 8.36478 12.4582 8.29335 12.6037 8.26441C12.7492 8.23547 12.9 8.25033 13.037 8.30709C13.1741 8.36386 13.2912 8.45999 13.3736 8.58332C13.456 8.70666 13.5 8.85166 13.5 9C13.5 9.19891 13.421 9.38968 13.2803 9.53033C13.1397 9.67098 12.9489 9.75 12.75 9.75Z" fill="#EC824A"/>
<path d="M14.9187 6.0325L12 5.5L9.51516 3.43829C9.26889 3.23599 8.96014 3.12529 8.64144 3.125H4.98063C4.77433 3.12452 4.57059 3.17068 4.38465 3.26005C4.19872 3.34941 4.0354 3.47967 3.90691 3.64107L2.31975 5.5H1.25C0.951733 5.50033 0.665777 5.61897 0.45487 5.82987C0.243964 6.04078 0.125331 6.32674 0.125 6.625V8C0.125405 8.36455 0.270401 8.71405 0.528176 8.97183C0.785951 9.2296 1.13545 9.3746 1.5 9.375H1.78578C1.73031 9.08571 1.73943 8.78774 1.81248 8.50238C1.88553 8.21702 2.02072 7.95132 2.20837 7.72426C2.39602 7.49721 2.63151 7.31441 2.89801 7.18893C3.16451 7.06345 3.45544 6.99838 3.75 6.99838C4.04456 6.99838 4.33549 7.06345 4.60199 7.18893C4.86849 7.31441 5.10398 7.49721 5.29163 7.72426C5.47928 7.95132 5.61447 8.21702 5.68752 8.50238C5.76057 8.78774 5.76969 9.08571 5.71422 9.375H10.7858C10.7303 9.08571 10.7394 8.78774 10.8125 8.50238C10.8855 8.21702 11.0207 7.95132 11.2084 7.72426C11.396 7.49721 11.6315 7.31441 11.898 7.18893C12.1645 7.06345 12.4554 6.99838 12.75 6.99838C13.0446 6.99838 13.3355 7.06345 13.602 7.18893C13.8685 7.31441 14.104 7.49721 14.2916 7.72426C14.4793 7.95132 14.6145 8.21702 14.6875 8.50238C14.7606 8.78774 14.7697 9.08571 14.7142 9.375H14.75C15.0483 9.37467 15.3342 9.25604 15.5451 9.04513C15.756 8.83423 15.8747 8.54827 15.875 8.25V7.14475C15.8764 6.87526 15.7804 6.61434 15.6047 6.40999C15.429 6.20563 15.1854 6.07159 14.9187 6.0325ZM5.625 5.125C5.625 5.22446 5.58549 5.31984 5.51516 5.39017C5.44484 5.46049 5.34946 5.5 5.25 5.5H3.60141C3.56556 5.50002 3.53045 5.48977 3.50025 5.47044C3.47005 5.45112 3.44602 5.42355 3.43102 5.39099C3.41601 5.35843 3.41065 5.32225 3.41558 5.28674C3.42051 5.25123 3.43551 5.21787 3.45881 5.19063L4.54994 3.9125C4.58517 3.87132 4.6289 3.83826 4.67814 3.8156C4.72737 3.79294 4.78093 3.78122 4.83512 3.78125H5.25C5.34946 3.78125 5.44484 3.82076 5.51516 3.89109C5.58549 3.96141 5.625 4.0568 5.625 4.15625V5.125ZM7.5 6.875H7C6.90054 6.875 6.80516 6.83549 6.73484 6.76517C6.66451 6.69484 6.625 6.59946 6.625 6.5C6.625 6.40055 6.66451 6.30517 6.73484 6.23484C6.80516 6.16451 6.90054 6.125 7 6.125H7.5C7.59946 6.125 7.69484 6.16451 7.76516 6.23484C7.83549 6.30517 7.875 6.40055 7.875 6.5C7.875 6.59946 7.83549 6.69484 7.76516 6.76517C7.69484 6.83549 7.59946 6.875 7.5 6.875ZM10.4525 5.50919L6.87413 5.50088C6.77482 5.50065 6.67966 5.46104 6.60953 5.39074C6.53939 5.32043 6.5 5.22518 6.5 5.12588V4.15625C6.5 4.0568 6.53951 3.96141 6.60984 3.89109C6.68016 3.82076 6.77554 3.78125 6.875 3.78125H8.67338C8.75766 3.78126 8.83949 3.80966 8.90566 3.86188L10.569 5.17438C10.5997 5.19852 10.6221 5.23163 10.633 5.26909C10.644 5.30654 10.6429 5.34648 10.6301 5.38334C10.6173 5.4202 10.5933 5.45213 10.5614 5.47469C10.5296 5.49725 10.4915 5.50931 10.4525 5.50919Z" fill="#EC824A"/>
</svg>
