<svg width="16" height="16" viewBox="0 0 16 16" fill="none" xmlns="http://www.w3.org/2000/svg"><path d="M3.75 7.375a1.625 1.625 0 100 3.25 1.625 1.625 0 000-3.25zm0 2.375a.75.75 0 110-1.5.75.75 0 010 1.5zm9-2.375a1.625 1.625 0 100 3.25 1.625 1.625 0 000-3.25zm0 2.375a.75.75 0 110-1.5.75.75 0 010 1.5z" fill="#EC824A"/><path d="M14.919 6.032L12 5.5 9.515 3.438a1.378 1.378 0 00-.874-.313h-3.66a1.368 1.368 0 00-1.074.516L2.32 5.5H1.25A1.126 1.126 0 00.125 6.625V8A1.377 1.377 0 001.5 9.375h.286a2 2 0 113.928 0h5.072a1.999 1.999 0 113.928 0h.036a1.126 1.126 0 001.125-1.125V7.145a1.118 1.118 0 00-.956-1.112zm-9.294-.907a.375.375 0 01-.375.375H3.601a.187.187 0 01-.142-.31l1.09-1.278a.375.375 0 01.286-.13h.415a.375.375 0 01.375.374v.969zM7.5 6.875H7a.375.375 0 110-.75h.5a.375.375 0 110 .75zm2.953-1.366l-3.579-.008a.375.375 0 01-.374-.375v-.97a.375.375 0 01.375-.375h1.798c.085 0 .166.029.233.08l1.663 1.313a.187.187 0 01-.117.335z" fill="#EC824A"/></svg>