<svg width="36" height="36" viewBox="0 0 36 36" fill="none" xmlns="http://www.w3.org/2000/svg"><path d="M34.8 6.6h-1.2V4.8a.6.6 0 00-.6-.6h-3.6a.6.6 0 00-.6.6v1.8h-1.2a.6.6 0 00-.6.6v9.6h-.6V15a.6.6 0 00-.6-.6h-.6v-.6a.6.6 0 00-1.2 0v.6h-.6a.6.6 0 00-.6.6v1.8H21v-12a.6.6 0 00-.6-.6h-1.8V.6A.6.6 0 0018 0h-7.2a.6.6 0 00-.6.6v3.6H8.4a.6.6 0 00-.6.6v15.6H6.6v-1.8A.6.6 0 006 18H2.4a.6.6 0 00-.6.6v1.8h-.6a.6.6 0 00-.6.6v14.4a.6.6 0 00.6.6h33.6a.6.6 0 00.6-.6V7.2a.6.6 0 00-.6-.6zm-17.4.6a.6.6 0 011.2 0v9.6h-1.2V7.2zM15 3a.6.6 0 011.2 0v1.8a.6.6 0 01-1.2 0V3zm0 4.2a.6.6 0 011.2 0v9.6H15V7.2zM12.6 3a.6.6 0 011.2 0v1.8a.6.6 0 01-1.2 0V3zm-2.4 4.2a.6.6 0 011.2 0v13.2h-1.2V7.2zm2.4 26.4h-1.8a.6.6 0 010-1.2h1.8v1.2zm0-2.4h-1.8a.6.6 0 010-1.2h1.8v1.2zm0-2.4h-1.8a.6.6 0 010-1.2h1.8v1.2zm0-2.4h-1.8a.6.6 0 010-1.2h1.8v1.2zm0-3.6H8.4a.6.6 0 00-.6.6v11.4h-6V21.6h10.8v1.2zm0-5.4V7.2a.6.6 0 011.2 0v9.6h-.6a.6.6 0 00-.6.6zM27 34.8h-1.2v-15a.6.6 0 00-1.2 0v15h-1.2v-15a.6.6 0 00-1.2 0v15H21v-15a.6.6 0 00-1.2 0v15h-1.2v-15a.6.6 0 00-1.2 0v15h-1.2v-15a.6.6 0 00-1.2 0v15h-1.2V18H27v16.8zm3.6-2.283a.6.6 0 01-1.2 0v-1.2a.6.6 0 011.2 0v1.2zm0-3.6a.6.6 0 01-1.2 0v-1.2a.6.6 0 011.2 0v1.2zm0-3.6a.6.6 0 01-1.2 0v-1.2a.6.6 0 011.2 0v1.2zm0-3.6a.6.6 0 01-1.2 0v-1.2a.6.6 0 011.2 0v1.2zm0-3.6a.6.6 0 01-1.2 0v-1.2a.6.6 0 011.2 0v1.2zm0-3.6a.6.6 0 01-1.2 0v-1.2a.6.6 0 011.2 0v1.2zm0-3.6a.6.6 0 01-1.2 0v-1.2a.6.6 0 011.2 0v1.2zm2.4 21.6a.6.6 0 01-1.2 0v-1.2a.6.6 0 011.2 0v1.2zm0-3.6a.6.6 0 01-1.2 0v-1.2a.6.6 0 011.2 0v1.2zm0-3.6a.6.6 0 01-1.2 0v-1.2a.6.6 0 011.2 0v1.2zm0-3.6a.6.6 0 01-1.2 0v-1.2a.6.6 0 011.2 0v1.2zm0-3.6a.6.6 0 01-1.2 0v-1.2a.6.6 0 011.2 0v1.2zm0-3.6a.6.6 0 01-1.2 0v-1.2a.6.6 0 011.2 0v1.2zm0-3.6a.6.6 0 01-1.2 0v-1.2a.6.6 0 011.2 0v1.2z" fill="#EC824A"/></svg>