<svg width="8" height="8" viewBox="0 0 8 8" fill="none" xmlns="http://www.w3.org/2000/svg">
<path d="M4.73293 4.00584L7.84798 0.890702C8.0507 0.688075 8.0507 0.360456 7.84798 0.157829C7.64535 -0.0447973 7.31773 -0.0447973 7.11511 0.157829L3.99996 3.27297L0.884916 0.157829C0.682194 -0.0447973 0.354669 -0.0447973 0.152042 0.157829C-0.0506805 0.360456 -0.0506805 0.688075 0.152042 0.890702L3.26709 4.00584L0.152042 7.12097C-0.0506805 7.3236 -0.0506805 7.65122 0.152042 7.85385C0.253023 7.95492 0.385798 8.0057 0.518479 8.0057C0.651159 8.0057 0.78384 7.95492 0.884916 7.85385L3.99996 4.73871L7.11511 7.85385C7.21618 7.95492 7.34886 8.0057 7.48154 8.0057C7.61422 8.0057 7.7469 7.95492 7.84798 7.85385C8.0507 7.65122 8.0507 7.3236 7.84798 7.12097L4.73293 4.00584Z" fill="#B9B9B9"/>
</svg>
