<svg width="14" height="14" viewBox="0 0 14 14" fill="none" xmlns="http://www.w3.org/2000/svg"><path d="M6.412 2.76a1.38 1.38 0 100-2.76 1.38 1.38 0 000 2.76zm2.132 7.817a3.054 3.054 0 01-2.93 2.208 3.054 3.054 0 01-3.05-3.05 3.05 3.05 0 011.823-2.79V5.65a4.272 4.272 0 00-3.038 4.083A4.27 4.27 0 005.614 14a4.268 4.268 0 003.87-2.48l-.482-.947-.458.004z" fill="#EC824A"/><path d="M12.564 12.215l-1.848-3.633a.809.809 0 00-.722-.443H7.627v-.54h2.037a.597.597 0 00.485-.26.593.593 0 00.123-.348.608.608 0 00-.608-.607H7.627v-1.83c0-.504-.373-1.216-1.215-1.216-.67 0-1.215.544-1.215 1.215V8.52c0 .685.555 1.24 1.24 1.24h3.06l1.623 3.19a.81.81 0 101.444-.734z" fill="#EC824A"/></svg>