<svg width="82" height="98" viewBox="0 0 82 98" fill="none" xmlns="http://www.w3.org/2000/svg"><path d="M30.836 52.861c-7.843-9.05-10.007-19.688-11.505-30.585a7.622 7.622 0 00-1.443-3.213c-3.958-5.541-3.57-10.14 2.423-13.446A48.588 48.588 0 0135.11.649a40.75 40.75 0 0125.212 3.527c7.03 3.399 9.86 9.752 4.162 15.478-1.332 1.33-1.054 4.284-1.461 6.5-1.72 9.568-3.94 18.932-11.099 26.67 6.437 2.549 12.227 4.95 18.11 7.11 4.716 1.737 8.212 4.932 9.044 9.697C80.54 78.053 81.28 86.623 82 95.156c0 .85-2.016 2.696-3.108 2.696C53.94 98 28.95 97.945 4.016 98c-2.608 0-3.7-1.09-3.496-3.583.814-7.776 1.369-15.588 2.664-23.29A14.268 14.268 0 016.6 63.9a14.3 14.3 0 016.774-4.26c5.66-1.94 11.172-4.304 17.461-6.779zM3.276 94.177h76.338c-1.091-7.739-1.85-15.053-3.311-22.163a11.984 11.984 0 00-4.44-7.148 96.26 96.26 0 00-13.503-6.15L42.157 91.96l-1.628-.184L23.88 59.14l-7.843 2.955c-4.606 1.847-8.823 4.1-9.692 9.512-1.147 7.332-2.017 14.738-3.07 22.569zM41.38 24.252c6.437-1.957 12.8-3.25 18.497-5.836 5.697-2.586 5.55-6.944.315-10.509-8.51-5.836-29.041-5.836-37.717 0-5.16 3.454-5.345 7.997.296 10.527 5.642 2.53 12.19 3.86 18.609 5.818zm-16.334 10.27c1.684 6.685 4.107 12.688 9.545 16.954a10.868 10.868 0 0013.725 0c5.438-4.285 7.621-10.38 9.471-16.825a78.64 78.64 0 01-32.74-.111v-.019zM22.92 22.755c.426 5.892 3.7 9.53 9.25 9.77 6.14.26 12.318.26 18.497 0 5.549-.221 8.73-3.693 9.36-9.88a50.31 50.31 0 01-37.107.11zm32.648 34.04h-10.95c-2.275 0-4.773.535-6.77-.222-3.977-1.533-7.03 0-10.636 1.846l7.399 14.61 1.443-.222c.092-1.847.333-3.694.259-5.412-.185-6.796.074-7.147 5.216-7.147s5.272.554 4.883 7.277c-.017 1.578.05 3.157.203 4.728l1.35.11 7.603-15.569zM41.324 70.203c-5.105 7.258-5.012 9.567.315 14.646 4.772-7.646 4.772-8.163-.315-14.646z" fill="#fff" fill-opacity=".4"/><path d="M57.742 65.882a15.68 15.68 0 0110.673-.165v2.055H57.797l-.055-1.89z" fill="#fff" fill-opacity=".4"/></svg>