<svg width="10" height="13" viewBox="0 0 10 13" fill="none" xmlns="http://www.w3.org/2000/svg"><path d="M8.379 1.904C8.379.82 6.905 0 4.95 0S1.523.819 1.523 1.904c0 .21.171.381.381.381h6.094c.21 0 .38-.17.38-.38zm-4.258 8.877l.308-.41-.446-.368.138.778zM5.394 13l.206-1.192-.648-.865-.65.865L4.51 13h.885zm.526-2.997l-.445.368.307.41.138-.778zM2.931 8.43l-.204.034A3.23 3.23 0 000 11.654V13h3.735l-.804-4.57zm6.972 3.225a3.23 3.23 0 00-2.728-3.191l-.204-.034L6.167 13h3.736v-1.345zm-3.69-3.311c-.162.033-.327.06-.5.06H4.19c-.173 0-.338-.027-.5-.06l.088.502 1.173.969 1.173-.97.09-.5zM4.19 7.643h1.523c1.05 0 1.904-.855 1.904-1.905V4.74a1.506 1.506 0 01-.762.212H3.047c-.279 0-.537-.08-.762-.212v1c0 1.05.854 1.904 1.904 1.904zM3.047 4.19h3.808a.762.762 0 00.762-.762v-.381H2.285v.38c0 .421.341.762.762.762z" fill="#EC824A"/></svg>