<svg width="32" height="28" viewBox="0 0 32 28" fill="none" xmlns="http://www.w3.org/2000/svg"><path d="M2.474 13.647c.013 7.434 6.21 13.478 13.806 13.465 7.596-.012 13.794-6.07 13.78-13.49C30.047 6.202 23.852.144 16.256.157 8.657.169 2.46 6.227 2.475 13.647zm13.787 12.004a12.439 12.439 0 01-8.62-3.558 11.875 11.875 0 01-3.56-8.456c0-3.167 1.28-6.206 3.56-8.455a12.439 12.439 0 018.62-3.558c6.789 0 12.318 5.395 12.3 12.014-.016 6.645-5.518 12.018-12.301 12.01l.001.003z" fill="#fff"/><path d="M21.872 19.768l1.148-.875c-3.279-4.236-10.08-4.408-13.507 0l1.15.874c1.47-1.717 3.312-2.664 5.604-2.657 2.292.008 4.132.938 5.605 2.658zm-2.489-9.15a1.42 1.42 0 00.424 1.032 1.486 1.486 0 001.048.435c.295.004.585-.078.832-.236.248-.157.442-.383.558-.648a1.427 1.427 0 00-.306-1.594 1.524 1.524 0 00-1.624-.33 1.485 1.485 0 00-.675.532c-.166.239-.256.52-.258.81zm-7.711 1.464c.828-.031 1.493-.708 1.46-1.486-.035-.805-.732-1.458-1.526-1.426-.396.009-.771.17-1.044.45a1.438 1.438 0 00-.413 1.039c.009.386.174.753.46 1.02a1.51 1.51 0 001.063.403z" fill="#fff"/></svg>