<svg width="103" height="104" viewBox="0 0 103 104" fill="none" xmlns="http://www.w3.org/2000/svg"><g opacity=".5" clip-path="url(#clip0)" fill="#fff"><path d="M63.379 73.468h-5.647c-.833 0-1.508.682-1.508 1.523 0 .842.675 1.524 1.508 1.524h5.647c.833 0 1.509-.682 1.509-1.524 0-.841-.676-1.523-1.51-1.523z"/><path d="M96.612 57.158l-8.216-3.2-4.189-4.23a1.495 1.495 0 00-.97-.441v-3.366a15.766 15.766 0 003.947-7.849c.352.016.708-.013 1.059-.085 2.007-.415 3.464-2.296 3.464-4.471v-1.111a4.588 4.588 0 00-1.329-3.24c1.333-7.317.235-13.28-3.187-17.27-3.311-3.86-8.645-5.706-15.425-5.335-6.263.342-10.307 3.252-11.588 4.316a7.898 7.898 0 00-3.105 1.065c-1.676 1.016-3.673 3.148-3.673 7.542 0 3.834.607 7.034 1.046 8.85-1.473.724-2.458 2.294-2.458 4.089v1.093c0 2.176 1.457 4.057 3.465 4.472.35.072.706.1 1.058.085a15.768 15.768 0 003.947 7.85v3.365c-.354.023-.701.17-.97.441l-4.189 4.23-8.216 3.2a9.95 9.95 0 00-2.018 1.066 1.533 1.533 0 00-.4 2.117 1.503 1.503 0 002.096.404c.438-.3.912-.551 1.408-.744l7.625-2.97 5.83 8.83a4.31 4.31 0 003.61 1.948c.75 0 1.478-.2 2.123-.568l-1.251 28.655a1.518 1.518 0 001.508 1.59c.803 0 1.47-.639 1.506-1.456l1.161-26.598h3.133l1.16 26.598a1.515 1.515 0 001.575 1.455 1.518 1.518 0 001.44-1.59l-1.25-28.654a4.274 4.274 0 002.555.546 4.31 4.31 0 003.177-1.926l5.83-8.83L95.526 60a6.943 6.943 0 012.714 1.91l-5.217 5.266a10.059 10.059 0 00-2.922 7.125v21.661c0 .842.675 1.524 1.509 1.524.833 0 1.508-.682 1.508-1.524v-21.66c0-1.877.724-3.643 2.04-4.97l4.577-4.623c.184.681.27 1.397.241 2.13L98.808 95.9a1.518 1.518 0 001.508 1.586c.805 0 1.474-.642 1.507-1.462l1.169-29.063c.171-4.312-2.393-8.251-6.38-9.804zM59.465 37.444c-.267-1.463-1.608-2.526-3.056-2.418-.114.008-.232 0-.35-.024-.6-.124-1.053-.763-1.053-1.486v-1.094c0-.707.468-1.344 1.064-1.45.504-.089.987.098 1.292.5a2.11 2.11 0 001.068.753c.618.189 1.3.078 1.823-.295a11.001 11.001 0 002.475-2.442 1.533 1.533 0 00-.31-2.132 1.5 1.5 0 00-2.112.314 8.054 8.054 0 01-1.175 1.281 4.302 4.302 0 00-1.636-.882 35.36 35.36 0 01-1.078-8.586c0-2.333.713-3.973 2.118-4.873 1.096-.702 2.256-.73 2.255-.73.386 0 .761-.153 1.041-.42.037-.036 3.746-3.511 10.098-3.858 5.814-.317 10.303 1.165 12.98 4.287 2.699 3.146 3.597 7.977 2.622 14.023a6.483 6.483 0 00-1.287.09l-1.417-3.437a1.507 1.507 0 00-1.775-.888c-.14.037-14.073 3.603-19.916-3.741a1.499 1.499 0 00-2.12-.234 1.533 1.533 0 00-.232 2.142c5.966 7.5 17.804 5.868 21.744 5.073l1.096 2.657a2.475 2.475 0 002.866 1.484c.488-.116.954-.119 1.13-.084.61.123 1.07.738 1.07 1.43v1.111c0 .724-.453 1.363-1.053 1.487a1.267 1.267 0 01-.351.024c-1.448-.107-2.79.955-3.055 2.418-1.098 6.033-6.306 10.413-12.383 10.413-6.078 0-11.286-4.38-12.383-10.413zm6.693 26.93a1.288 1.288 0 01-1.059.382 1.293 1.293 0 01-.964-.585l-5.873-8.895 2.362-2.385 9.016 7.966-3.482 3.516zm4.256 2.012l.092-2.094 1.341-1.355 1.342 1.355.091 2.094h-2.866zm1.434-7.628l-8.373-7.396v-2.916a15.459 15.459 0 008.373 2.458 15.46 15.46 0 008.372-2.458v2.916l-8.372 7.396zm7.713 5.413c-.3.455-.734.561-.965.584a1.288 1.288 0 01-1.058-.382l-3.483-3.516 9.017-7.966 2.362 2.385-5.873 8.895z"/><path d="M47.848 65.142l-7.367-3.247-4.028-4.066a1.493 1.493 0 00-.97-.442V54.99a15.742 15.742 0 006.77-10.243 4.3 4.3 0 001.191-.115c1.93-.461 3.332-2.33 3.332-4.442v-1.11a4.555 4.555 0 00-1.934-3.747c.346-1.382.522-2.797.522-4.22 0-6.312-3.378-11.871-8.472-15.063-.054-5.268-4.507-9.537-9.975-9.537-5.469 0-9.922 4.27-9.976 9.537-5.093 3.192-8.472 8.751-8.472 15.063 0 1.42.175 2.83.519 4.208-1.175.81-1.93 2.205-1.93 3.775v1.094c0 2.113 1.4 3.98 3.331 4.442.395.094.795.133 1.191.115a15.742 15.742 0 006.77 10.243v2.397a1.5 1.5 0 00-.97.442l-4.027 4.066-7.367 3.247c-3.748 1.652-6.15 5.535-5.977 9.66l.89 21.226a1.516 1.516 0 001.572 1.457A1.518 1.518 0 003.915 95.9l-.891-21.226a7.068 7.068 0 01.956-3.837l3.96 4.799a8.52 8.52 0 011.94 5.412v14.916c0 .842.676 1.524 1.51 1.524.833 0 1.508-.682 1.508-1.524V81.047c0-2.685-.937-5.3-2.64-7.363l-4.21-5.1c.358-.25.739-.47 1.145-.65l6.42-2.83 4.538 7.437a2.916 2.916 0 002.488 1.402 2.9 2.9 0 001.894-.706l2.875-2.477v25.203c0 .842.676 1.524 1.51 1.524.832 0 1.508-.682 1.508-1.524V70.76l2.875 2.477a2.9 2.9 0 002.35.67 2.916 2.916 0 002.032-1.366l4.537-7.436 6.421 2.83c.406.179.787.4 1.145.648l-4.21 5.102a11.59 11.59 0 00-2.64 7.362v14.917c0 .841.675 1.523 1.509 1.523.833 0 1.508-.682 1.508-1.523V81.047a8.52 8.52 0 011.941-5.412l3.96-4.798a7.068 7.068 0 01.957 3.837l-.891 21.225a1.518 1.518 0 001.508 1.588c.804 0 1.472-.64 1.507-1.459l.89-21.225c.174-4.126-2.229-8.009-5.977-9.66zM26.917 9.56c3.21 0 5.918 2.067 6.719 4.869a18.835 18.835 0 00-6.719-1.23c-2.37 0-4.636.436-6.719 1.23.8-2.802 3.509-4.87 6.719-4.87zM14.534 44.119c-.266-1.463-1.61-2.526-3.055-2.418-.128.01-.26-.002-.394-.034-.576-.137-1.01-.772-1.01-1.477v-1.094c0-.707.468-1.343 1.065-1.449.504-.09.986.098 1.29.5.278.364.647.625 1.07.754.617.188 1.3.077 1.823-.296.929-.662 1.75-1.47 2.442-2.4.5-.672.365-1.627-.3-2.132a1.5 1.5 0 00-2.113.303c-.343.46-.728.879-1.152 1.25a4.304 4.304 0 00-2.276-1.012 14.322 14.322 0 01-.437-3.501c0-8.198 6.922-14.867 15.43-14.867s15.43 6.669 15.43 14.867a14.31 14.31 0 01-.435 3.494c-.397.032-.8.098-1.174.196l-1.134-.942a2.879 2.879 0 00-2.014-.666c-2.218.132-13.575.435-19.403-6.607a1.499 1.499 0 00-2.125-.192c-.64.54-.724 1.5-.19 2.146 2.874 3.473 7.09 5.821 12.528 6.98 4.165.887 7.867.8 9.317.717l1.77 1.47c.487.404 1.17.46 1.715.14.256-.14 1.113-.275 1.487-.2.61.123 1.07.738 1.07 1.43v1.111c0 .705-.434 1.34-1.01 1.477a1.28 1.28 0 01-.393.034c-1.445-.106-2.79.955-3.056 2.418-1.097 6.033-6.305 10.413-12.383 10.413-6.078 0-11.286-4.38-12.383-10.413zm6.127 26.726l-4.538-7.437 2.325-2.348 6.247 6.309-4.034 3.476zm6.256-5.542l-5.55-5.603v-3.152a15.44 15.44 0 0011.1 0V59.7l-5.55 5.603zm6.256 5.542L29.14 67.37l6.248-6.309 2.324 2.348-4.538 7.437z"/><path d="M21.27 80.187h-4.234c-.833 0-1.509.682-1.509 1.523 0 .842.676 1.524 1.51 1.524h4.234c.833 0 1.509-.682 1.509-1.523 0-.842-.676-1.524-1.51-1.524z"/></g><defs><clipPath id="clip0"><path fill="#fff" d="M0 0h103v104H0z"/></clipPath></defs></svg>