<svg width="44" height="19" viewBox="0 0 44 19" fill="none" xmlns="http://www.w3.org/2000/svg"><path fill-rule="evenodd" clip-rule="evenodd" d="M43.781 6.03l-5.364 12.567h-1.625l2.004-4.374-3.522-8.139h1.735l2.547 6.257h.053l2.494-6.257h1.68V6.03h-.002zM20.912 9.572v5.149h-1.625V1.987h4.227a3.99 3.99 0 012.764 1.108c.758.664 1.137 1.66 1.137 2.713 0 1.052-.379 1.993-1.137 2.713-.76.72-1.68 1.107-2.764 1.107l-2.602-.055zm0-6.035v4.429h2.71c.596 0 1.193-.221 1.572-.664a2.154 2.154 0 00.053-3.046l-.053-.055c-.433-.443-.976-.72-1.572-.664h-2.71zm10.242 2.214c1.194 0 2.114.332 2.819.997.705.664 1.03 1.55 1.03 2.657v5.316h-1.518v-1.218h-.053c-.65.996-1.573 1.495-2.657 1.495-.92 0-1.732-.277-2.383-.831-.598-.554-.977-1.329-.977-2.16 0-.885.326-1.605.977-2.159.65-.553 1.57-.775 2.655-.775.975 0 1.734.166 2.33.554V9.24c0-.553-.217-1.107-.65-1.44a2.332 2.332 0 00-1.573-.608c-.92 0-1.625.387-2.111 1.163l-1.41-.886c.867-1.163 2.005-1.717 3.523-1.717h-.002zm-2.059 6.312c0 .443.217.83.543 1.052.38.277.813.443 1.247.443.65 0 1.299-.277 1.787-.775.543-.499.813-1.108.813-1.772-.487-.387-1.192-.61-2.114-.61-.65 0-1.192.167-1.625.5-.434.276-.65.664-.65 1.162z" fill="#5F6368"/><path fill-rule="evenodd" clip-rule="evenodd" d="M14.466 8.466c0-.499-.055-.997-.11-1.495H7.584v2.823h3.846c-.162.886-.65 1.717-1.408 2.215v1.827h2.33c1.354-1.273 2.114-3.156 2.114-5.37z" fill="#4285F4"/><path fill-rule="evenodd" clip-rule="evenodd" d="M7.583 15.608c1.952 0 3.577-.665 4.77-1.772l-2.33-1.827c-.65.443-1.463.72-2.44.72-1.842 0-3.467-1.274-4.01-3.045H1.189v1.882c1.247 2.492 3.685 4.042 6.394 4.042z" fill="#34A853"/><path fill-rule="evenodd" clip-rule="evenodd" d="M3.571 9.683c-.324-.886-.324-1.882 0-2.823V4.977H1.188c-1.03 2.049-1.03 4.485 0 6.589l2.383-1.883z" fill="#FBBC04"/><path fill-rule="evenodd" clip-rule="evenodd" d="M7.581 3.87c1.03 0 2.006.387 2.764 1.107l2.061-2.104C11.105 1.655 9.37.935 7.636.99A7.09 7.09 0 001.24 5.032l2.385 1.883c.489-1.772 2.114-3.046 3.956-3.046z" fill="#EA4335"/></svg>