<svg width="15" height="13" viewBox="0 0 15 13" fill="none" xmlns="http://www.w3.org/2000/svg"><path d="M2.234 2.59l1.364-1.357c.156-.156.314-.309.469-.47.193-.195.205-.454.032-.633-.172-.179-.444-.176-.644.024L.916 2.694c-.202.204-.203.453 0 .656.845.849 1.692 1.696 2.54 2.542.2.199.466.207.643.024.177-.182.16-.441-.042-.644a908.863 908.863 0 00-1.7-1.701.624.624 0 00-.102-.069l.023-.037c.043 0 .085-.008.128-.008l11.635-.002c.067.003.135 0 .202-.011a.432.432 0 00-.08-.853c-.199-.008-.4 0-.6 0H2.233z" fill="#DC3178"/><path d="M13.066 8.64H1.32c-.352 0-.555.16-.555.435 0 .276.204.432.56.432h11.792c-.324.32-.616.607-.905.896-.31.308-.618.617-.925.925-.2.202-.21.467-.03.646.18.178.442.164.644-.038.84-.84 1.678-1.68 2.517-2.522.221-.221.22-.465-.003-.688l-2.507-2.51c-.21-.209-.473-.225-.655-.04-.183.186-.163.445.048.657l1.69 1.69c.032.027.065.05.1.072l-.025.044z" fill="#F6B22E"/></svg>