<svg width="13" height="14" viewBox="0 0 13 14" fill="none" xmlns="http://www.w3.org/2000/svg"><g clip-path="url(#clip0)" fill="#EC824A"><path d="M4.333 8.75c.449 0 .813-.392.813-.875S4.782 7 4.333 7c-.449 0-.812.392-.812.875s.363.875.812.875z"/><path d="M12.069 6.395c.062-.574.118-1.228.118-1.677C12.188 1.494 8.7.292 6.5.292c-1.427 0-2.456.824-2.803 1.144-1.083.068-2.885.81-2.885 3.282 0 .456.057 1.107.118 1.678-.549.241-.93.813-.93 1.48 0 .842.608 1.527 1.375 1.591.734 2.294 2.752 3.95 5.125 3.95s4.39-1.655 5.125-3.95C12.392 9.403 13 8.717 13 7.875c0-.666-.381-1.238-.931-1.48zm-1.14 2.546l-.002.003v.002c-.556 2.074-2.328 3.596-4.427 3.596-2.289 0-4.188-1.81-4.545-4.171l.54-2.037c.483-.165 1.564-.632 2.038-1.619.728.742 2.36 1.652 5.994 1.7l.519 1.953c-.03.194-.068.386-.118.573z"/><path d="M8.667 8.75c.449 0 .812-.392.812-.875S9.116 7 8.667 7c-.449 0-.813.392-.813.875s.364.875.813.875zm-1.095 1.289a1.476 1.476 0 01-2.144 0 .387.387 0 00-.575.012.462.462 0 00.01.619 2.262 2.262 0 001.637.703c.592 0 1.185-.234 1.636-.703a.463.463 0 00.01-.62.387.387 0 00-.574-.011z"/></g><defs><clipPath id="clip0"><path fill="#fff" d="M0 0h13v14H0z"/></clipPath></defs></svg>