<svg width="46" height="27" viewBox="0 0 46 27" fill="none" xmlns="http://www.w3.org/2000/svg">
<path fill-rule="evenodd" clip-rule="evenodd" d="M31.6539 26.7426L32.3389 26.7287L33.0241 26.6736L33.6812 26.5924L34.3388 26.4832L34.9961 26.3334L35.625 26.1552L36.2538 25.9511L36.8556 25.7187L37.4569 25.4597L38.0295 25.1733L38.5894 24.859L39.1343 24.5176L39.6516 24.1493L40.1561 23.767L40.6457 23.3445L41.1076 22.921L41.5547 22.4567L41.974 21.9931L42.3785 21.5017L42.7425 20.9833L43.0916 20.4508L43.4152 19.9051L43.7068 19.3457L43.9729 18.7722L44.2113 18.1717L44.4348 17.5712L44.603 16.9434L44.7562 16.3161L44.8818 15.6742L44.9521 15.0196L45.0074 14.3501L45.0351 13.6814L45.0074 13.0127L44.9521 12.3581L44.8818 11.7025L44.7562 11.061L44.603 10.4333L44.4348 9.81978L44.2113 9.21924L43.9729 8.63262L43.7068 8.05916L43.4152 7.48555L43.0916 6.94011L42.7425 6.42159L42.3785 5.90309L41.974 5.41166L41.5547 4.94704L41.1076 4.4827L40.6457 4.0603L40.1561 3.65091L39.6516 3.25559L39.1343 2.90022L38.5894 2.55893L38.0295 2.24566L37.4569 1.95841L36.8556 1.69913L36.2538 1.46697L35.625 1.2628L34.9961 1.08558L34.3388 0.935437L33.6812 0.825413L33.0241 0.744138L32.3389 0.689365L31.6539 0.675293L30.9542 0.689365L30.2836 0.744138L29.6118 0.825413L28.9542 0.935437L28.3112 1.08558L27.6681 1.2628L27.0527 1.46697L26.4375 1.69913L25.8495 1.95841L25.2765 2.24566L24.7173 2.55893L24.1719 2.90022L23.654 3.25559L23.1512 3.65091L22.6618 4.0603L22.2003 4.4827L21.7524 4.94704L21.3337 5.41166L20.9418 5.90309L20.5635 6.42159L20.2291 6.94011L19.9062 7.48555L19.6137 8.05916L19.347 8.63262L19.109 9.21924L18.8855 9.81978L18.7173 10.4333L18.5645 11.061L18.4519 11.7025L18.3676 12.3581L18.3122 13.0127L18.2988 13.6814L18.3122 14.3501L18.3676 15.0196L18.4519 15.6742L18.5645 16.3161L18.7173 16.9434L18.8855 17.5712L19.109 18.1717L19.347 18.7722L19.6137 19.3457L19.9062 19.9051L20.2291 20.4508L20.5635 20.9833L20.9418 21.5017L21.3337 21.9931L21.7524 22.4567L22.2003 22.921L22.6618 23.3445L23.1512 23.767L23.654 24.1493L24.1719 24.5176L24.7173 24.859L25.2765 25.1733L25.8495 25.4597L26.4375 25.7187L27.0527 25.9511L27.6681 26.1552L28.3112 26.3334L28.9542 26.4832L29.6118 26.5924L30.2836 26.6736L30.9542 26.7287L31.6539 26.7426Z" fill="#EB2230"/>
<path fill-rule="evenodd" clip-rule="evenodd" d="M13.9344 26.7426L14.6183 26.7287L15.3044 26.6736L15.9617 26.5924L16.6193 26.4832L17.2758 26.3334L17.9054 26.1552L18.5343 25.9511L19.136 25.7187L19.7227 25.4597L20.2962 25.1733L20.8563 24.859L21.4008 24.5176L21.9321 24.1493L22.4366 23.767L22.9117 23.3445L23.3866 22.921L23.8203 22.4567L24.2398 21.9931L24.6313 21.5017L25.0091 20.9833L25.3587 20.4508L25.6797 19.9051L25.9743 19.3457L26.2397 18.7722L26.4779 18.1717L26.6872 17.5712L26.8552 16.9434L27.009 16.3161L27.1342 15.6742L27.2181 15.0196L27.2602 14.3501L27.289 13.6814L27.2602 13.0127L27.2181 12.3581L27.1342 11.7025L27.009 11.061L26.8552 10.4333L26.6872 9.81978L26.4779 9.21924L26.2397 8.63262L25.9743 8.05916L25.6797 7.48555L25.3587 6.94011L25.0091 6.42159L24.6313 5.90309L24.2398 5.41166L23.8203 4.94704L23.3866 4.4827L22.9117 4.0603L22.4366 3.65091L21.9321 3.25559L21.4008 2.90022L20.8563 2.55893L20.2962 2.24566L19.7227 1.95841L19.136 1.69913L18.5343 1.46697L17.9054 1.2628L17.2758 1.08558L16.6193 0.935437L15.9617 0.825413L15.3044 0.744138L14.6183 0.689365L13.9344 0.675293L13.2347 0.689365L12.5641 0.744138L11.8923 0.825413L11.2358 0.935437L10.5917 1.08558L9.94772 1.2628L9.33317 1.46697L8.71797 1.69913L8.13024 1.95841L7.55698 2.24566L6.98371 2.55893L6.45239 2.90022L5.92106 3.25559L5.41742 3.65091L4.92739 4.0603L4.46653 4.4827L4.03291 4.94704L3.59865 5.41166L3.20803 5.90309L2.83063 6.42159L2.48109 6.94011L2.15922 7.48555L1.86568 8.05916L1.60002 8.63262L1.36288 9.21924L1.15278 9.81978L0.971195 10.4333L0.81644 11.061L0.704691 11.7025L0.621448 12.3581L0.565047 13.0127L0.550781 13.6814L0.565047 14.3501L0.621448 15.0196L0.704691 15.6742L0.81644 16.3161L0.971195 16.9434L1.15278 17.5712L1.36288 18.1717L1.60002 18.7722L1.86568 19.3457L2.15922 19.9051L2.48109 20.4508L2.83063 20.9833L3.20803 21.5017L3.59865 21.9931L4.03291 22.4567L4.46653 22.921L4.92739 23.3445L5.41742 23.767L5.92106 24.1493L6.45239 24.5176L6.98371 24.859L7.55698 25.1733L8.13024 25.4597L8.71797 25.7187L9.33317 25.9511L9.94772 26.1552L10.5917 26.3334L11.2358 26.4832L11.8923 26.5924L12.5641 26.6736L13.2347 26.7287L13.9344 26.7426Z" fill="#0B84C4"/>
<path fill-rule="evenodd" clip-rule="evenodd" d="M21.1523 5.62983H27.9197V4.90625H21.7944L21.1523 5.62983Z" fill="#EB2230"/>
<path fill-rule="evenodd" clip-rule="evenodd" d="M20.0898 7.17246H27.9207V6.44873H20.5513L20.0898 7.17246Z" fill="#EB2230"/>
<path fill-rule="evenodd" clip-rule="evenodd" d="M19.2891 8.74132H27.9177V8.01758H19.6541L19.2891 8.74132Z" fill="#EB2230"/>
<path fill-rule="evenodd" clip-rule="evenodd" d="M18.7734 10.2827H27.9192V9.56006H18.9969L18.7734 10.2827Z" fill="#EB2230"/>
<path fill-rule="evenodd" clip-rule="evenodd" d="M18.4258 11.8391H27.9211V11.1016H18.5661L18.4258 11.8391Z" fill="#EB2230"/>
<path fill-rule="evenodd" clip-rule="evenodd" d="M18.3542 14.8283H27.9195V14.1045H18.2988L18.3542 14.8283Z" fill="#EB2230"/>
<path fill-rule="evenodd" clip-rule="evenodd" d="M18.5897 16.4662H27.917V15.7295H18.4492L18.5897 16.4662Z" fill="#EB2230"/>
<path fill-rule="evenodd" clip-rule="evenodd" d="M19.0431 17.7891H27.922V17.0522H18.8184L19.0431 17.7891Z" fill="#EB2230"/>
<path fill-rule="evenodd" clip-rule="evenodd" d="M19.7113 19.3995H27.9195V18.6626H19.3613L19.7113 19.3995Z" fill="#EB2230"/>
<path fill-rule="evenodd" clip-rule="evenodd" d="M20.677 21.0244H27.9204V20.3008H20.1738L20.677 21.0244Z" fill="#EB2230"/>
<path fill-rule="evenodd" clip-rule="evenodd" d="M21.8646 22.5929H27.8492V21.8691H21.207L21.8646 22.5929Z" fill="#EB2230"/>
<path fill-rule="evenodd" clip-rule="evenodd" d="M42.8242 21.6928L42.8668 21.5698L42.937 21.4606L43.0222 21.3656L43.118 21.2966L43.2159 21.2284L43.3415 21.2014L43.4692 21.1875L43.5948 21.2014L43.7204 21.2284L43.8311 21.2966L43.9311 21.3656L44.0141 21.4606L44.0695 21.5698L44.112 21.6928H43.9715L43.9438 21.6109L43.9034 21.5147L43.8311 21.4334L43.7629 21.3785L43.6799 21.3374L43.5799 21.2966H43.4692H43.3713L43.2584 21.3374L43.1754 21.3785L43.0903 21.4334L43.0349 21.5147L42.9924 21.6109L42.9647 21.6928H42.8242Z" fill="#EB2230"/>
<path fill-rule="evenodd" clip-rule="evenodd" d="M43.248 21.6923V21.5288H43.4985L43.5537 21.5427H43.5961L43.6386 21.5559L43.681 21.5698L43.7065 21.5965L43.7214 21.6246L43.7341 21.6513V21.6923H43.6237V21.6654L43.6089 21.6513L43.5961 21.6375L43.5813 21.6246L43.5664 21.6108H43.5409L43.5261 21.5965H43.4985H43.3584V21.6923H43.248Z" fill="#EB2230"/>
<path fill-rule="evenodd" clip-rule="evenodd" d="M42.8242 21.8011V21.6924H42.9673L42.9521 21.7054V21.8011H42.8242Z" fill="#EB2230"/>
<path fill-rule="evenodd" clip-rule="evenodd" d="M43.248 21.801V21.6924H43.3584V21.7741H43.4709H43.5112H43.5409H43.5664L43.5961 21.76H43.6089L43.6237 21.7331V21.7195V21.6924H43.7341V21.7331V21.76L43.7214 21.7872L43.7065 21.801H43.248Z" fill="#EB2230"/>
<path fill-rule="evenodd" clip-rule="evenodd" d="M43.9877 21.8006L43.9727 21.7054V21.6924H44.1148L44.1299 21.8006H43.9877Z" fill="#EB2230"/>
<path fill-rule="evenodd" clip-rule="evenodd" d="M42.8253 21.8018L42.8125 21.8151L42.8253 21.952L42.8678 22.0739L42.9381 22.1701L43.0232 22.2651L43.119 22.3343L43.217 22.3884L43.3447 22.4293L43.4703 22.4434L43.5959 22.4293L43.7215 22.3884L43.8322 22.3343L43.9322 22.2651L44.0152 22.1701L44.0706 22.0739L44.1131 21.952L44.1281 21.8151V21.8018H43.9876V21.8151L43.9726 21.9379L43.945 22.0339L43.9045 22.1291L43.8322 22.1971L43.764 22.2651L43.681 22.3062L43.581 22.3472H43.4703H43.3724L43.2595 22.3062L43.1765 22.2651L43.0913 22.1971L43.036 22.1291L42.9934 22.0339L42.9509 21.9379V21.8151V21.8018H42.8253Z" fill="#EB2230"/>
<path fill-rule="evenodd" clip-rule="evenodd" d="M43.248 21.8018V22.06H43.3584V21.8425H43.4709L43.6088 22.06H43.7213L43.5537 21.8425H43.5961H43.6386L43.6661 21.8287L43.6937 21.8018H43.7065H43.248Z" fill="#EB2230"/>
<path fill-rule="evenodd" clip-rule="evenodd" d="M28.7567 12.5891L28.6726 12.576H28.5751L28.5055 12.5619L28.422 12.549L28.3373 12.535L28.2677 12.5209L28.1834 12.5078L28.0859 12.4939H28.0016L27.9045 12.48L27.7917 12.4669H27.6806H27.5403H27.4007L27.2327 12.48L27.0654 12.4939L26.9392 12.5078L26.8131 12.535L26.7014 12.576L26.6028 12.6169L26.5196 12.6581L26.4357 12.7121L26.3793 12.7672L26.324 12.8211L26.2818 12.9034L26.2531 12.9714L26.2397 13.0395V13.1214L26.2676 13.2035L26.2952 13.2856L26.3372 13.3678L26.4078 13.4499L26.5341 13.559L26.6735 13.6399L26.8551 13.7222L27.0367 13.7901L27.247 13.8452L27.4428 13.9134L27.6521 13.9953L27.8622 14.0774L28.0437 14.1724L28.2251 14.2957L28.3792 14.4599L28.5197 14.6501L28.6172 14.8821L28.6868 15.1556L28.7013 15.4828L28.6868 15.8651L28.6304 16.1515L28.5617 16.4107L28.4491 16.6429L28.3226 16.8478L28.1834 17.0254L28.0163 17.1752L27.8336 17.3114L27.6389 17.4344L27.4428 17.5296L27.2327 17.5976L27.0232 17.6666L26.7997 17.707L26.5894 17.7487L26.3793 17.7618L26.1701 17.7758L25.9742 17.7891H25.7086L25.4561 17.7758H25.2326H25.0233L24.842 17.7618L24.6736 17.7487H24.5197L24.3802 17.7209L24.2398 17.707L24.1146 17.6799L24.002 17.6666L23.8911 17.6388L23.7923 17.5976L23.6808 17.5708L23.5688 17.5296L23.457 17.5026L23.737 16.1515L23.7923 16.1654L23.8766 16.1924L23.9598 16.2066L24.0727 16.2334L24.1836 16.2604L24.3094 16.2885L24.4645 16.3157L24.604 16.3423L24.7719 16.3567L24.925 16.3835L25.1063 16.3976L25.2747 16.4107L25.4561 16.4246H25.653H25.8344H26.0162L26.1977 16.3835L26.3372 16.3423L26.45 16.2743L26.5341 16.1924L26.6028 16.1103L26.645 16.0151L26.6871 15.9191L26.7156 15.8241L26.7288 15.7289V15.6329L26.7014 15.5508L26.6735 15.4828L26.6171 15.4146L26.5618 15.3597L26.4919 15.3057L26.4078 15.2504L26.3095 15.2105L26.2109 15.1556L26.1 15.1144L25.9883 15.0733L25.8765 15.0323L25.7505 14.9781L25.6243 14.9371L25.4982 14.8821L25.3733 14.828L25.2468 14.7731L25.1351 14.705L25.0091 14.637L24.8982 14.569L24.7856 14.4869L24.6881 14.3909L24.604 14.2957L24.5197 14.1865L24.4358 14.0635L24.3802 13.9271L24.3249 13.7901L24.2959 13.627L24.2687 13.463V13.2715L24.2828 13.0674L24.2959 12.9443L24.3094 12.8211L24.3249 12.7121L24.3515 12.603L24.3802 12.4939L24.4079 12.3848L24.4499 12.2896L24.492 12.1804L24.5333 12.0985L24.5897 12.0025L24.6459 11.9212L24.7015 11.8391L24.7719 11.7702L24.842 11.6891L24.9116 11.6201L24.9959 11.5661L25.0797 11.4979L25.1772 11.4429L25.2747 11.3888L25.3873 11.3477L25.4982 11.2927L25.6111 11.2519L25.736 11.2248L25.8623 11.1836L26.0027 11.1567L26.1556 11.1296L26.2952 11.1157L26.4632 11.0884L26.6314 11.0746H26.7997L26.9813 11.0605H27.1763H27.4007H27.6099L27.806 11.0746H27.9741L28.1278 11.0884L28.2677 11.1016L28.3935 11.1157H28.5055L28.6038 11.1296L28.7013 11.1427L28.7854 11.1567L28.8539 11.1704H28.9106L28.967 11.1836L29.0223 11.1977H29.0645L28.7567 12.5891Z" fill="white"/>
<path fill-rule="evenodd" clip-rule="evenodd" d="M30.1998 9.72412H31.962L31.6963 11.2126H32.7724L32.5352 12.5899L31.4164 12.5627L30.8429 15.975L30.8286 16.0432V16.1112L30.8429 16.1663L30.8574 16.2203L30.884 16.2615L30.9129 16.3024L30.9547 16.3434L30.9968 16.3706L31.0522 16.3984L31.1083 16.4115L31.165 16.4255L31.2203 16.4383L31.2901 16.4523H31.3598L31.4438 16.4666H31.5139H31.6544L31.7802 16.4523L31.8911 16.4383L31.9896 16.4115L32.0592 16.3984L32.1154 16.3706L32.1567 16.3575H32.1723L31.9896 17.5174L31.9475 17.5446L31.8911 17.5716L31.8491 17.5856L31.7936 17.6126L31.7516 17.6265L31.6963 17.6396L31.6397 17.6675L31.5843 17.6808L31.5279 17.6947L31.4575 17.7078L31.3887 17.7217L31.3044 17.7358L31.2203 17.7496L31.1365 17.7627L31.0245 17.7766L30.9261 17.7899H30.4512L30.1998 17.7627L29.9763 17.7496L29.7794 17.7078L29.6123 17.6675L29.4584 17.6126L29.3466 17.5446L29.2349 17.4764L29.1506 17.3945L29.0952 17.2993L29.0388 17.2033L29.011 17.0942L28.9978 16.9711L28.9824 16.8487L28.9978 16.7117L29.011 16.5755L29.0246 16.4255L30.1998 9.72412Z" fill="white"/>
<path fill-rule="evenodd" clip-rule="evenodd" d="M17.0247 16.4252L16.7724 17.7896H15.1919L15.2074 17.6534L15.234 17.5302L15.2483 17.408L15.2628 17.3119L15.276 17.2169L15.2902 17.135L15.3183 17.0797L15.3326 17.0527L15.2483 17.1479L15.1365 17.2439L15.0246 17.3391L14.8851 17.421L14.7449 17.5032L14.5918 17.5853L14.4236 17.6534L14.2421 17.7075L14.0605 17.7624L13.8789 17.8174L13.6956 17.8445L13.5139 17.8715L13.3325 17.8854L13.1511 17.8987L12.9693 17.8854L12.8012 17.8586L12.5777 17.8035L12.3827 17.7355L12.2002 17.6534L12.0463 17.5582L11.9069 17.4622L11.7807 17.3531L11.6823 17.2302L11.5848 17.1078L11.515 16.9847L11.4597 16.8484L11.4035 16.7114L11.3613 16.5752L11.3471 16.4252L11.3192 16.289V16.152L11.3047 16.0157L11.3336 15.7835L11.3613 15.5515L11.4175 15.333L11.5007 15.1289L11.6123 14.9377L11.7253 14.7595L11.8648 14.5824L12.0044 14.4324L12.1726 14.2962L12.3409 14.1592L12.5221 14.0499L12.7169 13.9549L12.914 13.8589L13.123 13.7907L13.3325 13.7506L13.5428 13.7096H13.556H13.5847L13.6401 13.6957H13.6956L13.7795 13.6815L13.8638 13.6684L13.9621 13.6547H14.0605L14.1714 13.6406L14.2689 13.6275H14.3817L14.4935 13.6136L14.5918 13.5994H14.675H14.7591H14.8289H14.9128H14.9835H15.0527H15.1365H15.2074H15.276H15.3466H15.4167L15.4863 13.6136H15.5416H15.584H15.6402H15.6679H15.6964H15.7098L15.7245 13.5726L15.7654 13.4774L15.7807 13.3544V13.2454V13.1631L15.7654 13.0949L15.7387 13.027L15.7098 12.9588L15.6679 12.9039L15.6259 12.8497L15.584 12.7948L15.5284 12.7405L15.4731 12.6996L15.4167 12.6717L15.3466 12.6306L15.2902 12.6036L15.2206 12.5765L15.1365 12.5624L15.0669 12.5495L14.9971 12.5356H14.8155H14.6186L14.4236 12.5495L14.2278 12.5624L14.0186 12.5765L13.8227 12.5896L13.6124 12.6175L13.4168 12.6306L13.235 12.6586L13.0534 12.6857L12.8855 12.7127L12.7315 12.7538L12.6053 12.7807L12.4802 12.8218L12.3959 12.8497L12.3262 12.89L12.7735 11.4304L12.914 11.3753L13.0534 11.3204L13.1928 11.2803L13.347 11.2394L13.5007 11.1982L13.6543 11.1842L13.8227 11.1572L13.99 11.1433L14.1714 11.1301H14.354L14.5356 11.1162H14.7317H14.9275H15.1231L15.3466 11.1301H15.557L15.7387 11.1433L15.9335 11.171L16.1302 11.2123L16.3254 11.2803L16.5213 11.3482L16.7169 11.4304L16.8987 11.5395L17.08 11.6617L17.2348 11.7988L17.3878 11.949L17.5139 12.1122L17.5979 12.3034L17.6678 12.4944L17.7099 12.7127L17.7242 12.9449L17.682 13.2041L17.0247 16.4252Z" fill="white"/>
<path fill-rule="evenodd" clip-rule="evenodd" d="M15.5158 14.8008V14.7737L15.4871 14.7467L15.4449 14.7328L15.3896 14.7197L15.3053 14.7056H15.2348H15.1373H15.0401H14.9426L14.8297 14.7197L14.7325 14.7328L14.6348 14.7467L14.5364 14.7737L14.4379 14.7879L14.3691 14.8008L14.2982 14.8286L14.2565 14.8417L14.2011 14.8559L14.1447 14.8827L14.0613 14.9099L13.9908 14.9378L13.9065 14.9787L13.8235 15.0199L13.7386 15.0739L13.6551 15.129L13.5855 15.197L13.5014 15.2651L13.4461 15.3331L13.3754 15.4152L13.3333 15.5104L13.3067 15.6065L13.2779 15.7156L13.2637 15.9197L13.3067 16.0837L13.3478 16.2072L13.4318 16.3022L13.5293 16.3704L13.6277 16.4113L13.7386 16.4383H13.838H14.033L14.2143 16.4252L14.3691 16.3843L14.5085 16.3573L14.6482 16.3022L14.7599 16.2612L14.8717 16.1931L14.9558 16.138L15.0401 16.07L15.1239 15.9889L15.1793 15.9197L15.2348 15.8517L15.2768 15.7836L15.3053 15.7156L15.3334 15.6474L15.3611 15.5794L15.3753 15.4834L15.403 15.3882L15.4175 15.2791L15.4449 15.1691L15.4596 15.0739L15.4739 14.9787L15.5013 14.8827L15.5158 14.8008Z" fill="#0B84C4"/>
<path fill-rule="evenodd" clip-rule="evenodd" d="M3.78445 17.7899H2.06445L3.50452 9.72412H6.49705L6.79145 14.5146L8.81925 9.72412H11.9227L10.4686 17.7899H8.76305L9.83975 11.7441H9.76929L7.22442 17.7899H5.29518L5.28114 17.5305L5.23877 16.8618L5.18258 15.907L5.11339 14.8149L5.0572 13.7099L5.00078 12.7408L4.95884 12.0445L4.94523 11.7441H4.93033H4.9167H4.90329H4.87477H4.86136H4.84687H4.87477L3.78445 17.7899Z" fill="white"/>
<path fill-rule="evenodd" clip-rule="evenodd" d="M32.4648 17.7889H34.2423L34.8567 14.2955L34.8845 14.1585L34.9131 14.0361L34.955 13.8991L34.9971 13.7769L35.0382 13.654L35.1081 13.5307L35.1787 13.4216L35.2628 13.3125L35.3603 13.2173L35.4721 13.1354L35.6115 13.0533L35.7656 12.9851L35.9338 12.9313L36.1285 12.8893L36.3531 12.862L36.6043 12.8489H36.6188H36.6462L36.6886 12.862H36.7161H36.744H36.7727L36.8004 12.8762L36.8144 12.8489L36.828 12.767L36.8434 12.6579L36.8845 12.5207L36.9262 12.3575L36.9685 12.1933L37.0384 12.0162L37.0937 11.852L37.1501 11.7301L37.2065 11.6199L37.2619 11.5108L37.3174 11.4017L37.3747 11.3066L37.4166 11.2387L37.4432 11.1834L37.4579 11.1702H37.4432L37.43 11.1565H37.4013L37.3457 11.1426H37.304L37.2619 11.1294H37.2065H37.1644L36.9685 11.1426L36.8004 11.1565L36.633 11.1975L36.4783 11.2387L36.3387 11.2795L36.2126 11.3475L36.0877 11.4157L35.9891 11.4837L35.8782 11.5659L35.7656 11.6479L35.6815 11.7431L35.5838 11.852L35.4863 11.9611L35.4025 12.0703L35.305 12.1933L35.2207 12.3166L35.4301 11.2116L33.6403 11.1975L32.4648 17.7889Z" fill="white"/>
<path fill-rule="evenodd" clip-rule="evenodd" d="M42.5766 11.9348L42.6873 12.0441L42.7852 12.153L42.8832 12.2761C43.7219 13.4223 43.6814 15.1149 42.9662 16.316C42.3084 17.421 40.9673 17.9945 39.6816 17.9803C37.2891 17.9674 36.059 15.5379 36.8276 13.2591L36.8981 13.0949C37.8058 11.0339 40.7843 10.3924 42.5766 11.9348Z" fill="white"/>
<path fill-rule="evenodd" clip-rule="evenodd" d="M42.8125 17.4619H43.3283V17.5165H43.133V17.9371H43.0226V17.5165H42.8125V17.4619Z" fill="white"/>
<path fill-rule="evenodd" clip-rule="evenodd" d="M43.4023 17.4619H43.5556L43.7365 17.83L43.9196 17.4619H44.0878V17.9392H43.9622V17.571L43.794 17.9392H43.6961L43.513 17.571V17.9392H43.4023V17.4619Z" fill="white"/>
<path fill-rule="evenodd" clip-rule="evenodd" d="M41.0656 15.2916C41.3594 14.6501 41.568 13.6131 41.1487 12.9855C40.8272 12.5081 40.1844 12.4669 39.6948 12.7534C38.9817 13.1768 38.6879 14.1454 38.7582 14.9781C38.8838 16.5887 40.5484 16.4515 41.0656 15.2916Z" fill="#EB2230"/>
<path fill-rule="evenodd" clip-rule="evenodd" d="M23.5695 14.828C23.7789 13.75 24.2692 11.1016 21.0661 11.1016C18.0453 11.1016 17.6538 14.0493 17.6538 14.4318C17.5561 14.828 17.5561 17.7618 20.7592 17.7618C21.5696 17.7618 22.6741 17.6666 23.1633 17.4755L23.4709 16.0972C23.1633 16.1924 22.1705 16.3015 21.3593 16.3015C20.6608 16.3015 19.4577 16.3015 19.6546 14.8282H23.5695V14.828Z" fill="white"/>
<path fill-rule="evenodd" clip-rule="evenodd" d="M19.6543 13.5595H21.9609C22.2266 11.7847 20.0172 12.1261 19.6543 13.5595Z" fill="#0B84C4"/>
</svg>
