<svg width="35" height="35" viewBox="0 0 35 35" fill="none" xmlns="http://www.w3.org/2000/svg"><path d="M17.5 34.453a.547.547 0 01-.386-.16l-5.469-5.468a2.094 2.094 0 112.96-2.961l.708.707v-6.883H8.43l.707.707a2.093 2.093 0 11-2.96 2.96l-5.47-5.468a.547.547 0 010-.773l5.47-5.469a2.094 2.094 0 012.96 2.96l-.707.708h6.883V8.43l-.707.707a2.094 2.094 0 01-2.961-2.96l5.469-5.47a.547.547 0 01.773 0l5.469 5.47a2.094 2.094 0 01-2.961 2.96l-.707-.707v6.883h6.883l-.707-.707a2.094 2.094 0 012.96-2.961l5.47 5.469a.547.547 0 010 .773l-5.47 5.469a2.094 2.094 0 11-2.96-2.961l.707-.707h-6.883v6.883l.707-.707a2.094 2.094 0 112.96 2.96l-5.468 5.47a.547.547 0 01-.387.16zm-4.375-8.109a1 1 0 00-.707 1.707l5.082 5.082 5.082-5.082a1 1 0 00-1.414-1.414l-1.64 1.64a.546.546 0 01-.934-.386v-8.75a.547.547 0 01.547-.547h8.75a.547.547 0 01.387.934l-1.641 1.64a1 1 0 001.414 1.415l5.082-5.083-5.082-5.082a1 1 0 00-1.414 1.415l1.64 1.64a.547.547 0 01-.386.934h-8.75a.547.547 0 01-.547-.547V7.11a.547.547 0 01.934-.387l1.64 1.64a1 1 0 001.415-1.413L17.5 1.867 12.418 6.95a1 1 0 001.415 1.414l1.64-1.64a.547.547 0 01.934.386v8.75a.547.547 0 01-.547.547H7.11a.547.547 0 01-.387-.934l1.64-1.64a1 1 0 00-1.413-1.415L1.867 17.5l5.083 5.082a1 1 0 001.414-1.414l-1.64-1.64a.547.547 0 01.386-.934h8.75a.547.547 0 01.547.547v8.75a.547.547 0 01-.934.387l-1.64-1.641a.998.998 0 00-.708-.293z" fill="#fff"/></svg>