<svg width="20" height="20" viewBox="0 0 20 20" fill="none" xmlns="http://www.w3.org/2000/svg"><path d="M17.228 8.267h-.05V7.054a7.054 7.054 0 00-14.108 0v1.213h-.297c-1.09 0-1.931.966-1.931 2.08v3.094a1.956 1.956 0 001.93 2.004h1.832a.47.47 0 00.446-.52V8.862c0-.297-.173-.594-.446-.594H4.06V7.054a6.064 6.064 0 0112.129 0v1.213h-.545c-.272 0-.446.297-.446.594v6.065a.47.47 0 00.446.52h.57l-.05.074a3.91 3.91 0 01-3.144 1.56 2.45 2.45 0 00-4.851.47A2.475 2.475 0 0010.644 20a2.55 2.55 0 001.782-.767c.317-.325.525-.74.594-1.189a4.9 4.9 0 003.936-1.955l.47-.693c1.064-.074 1.733-.743 1.733-1.708v-3.094c0-1.064-.792-2.327-1.93-2.327zM4.06 14.455H2.773a.965.965 0 01-.941-1.014v-3.095c0-.569.396-1.089.94-1.089H4.06v5.198zm7.648 4.085a1.46 1.46 0 01-1.064.47 1.51 1.51 0 01-1.485-1.46 1.46 1.46 0 112.92-.002v.002c.021.367-.114.726-.37.99zm6.46-4.852c0 .668-.643.767-.94.767h-1.04V9.257h1.04c.545 0 .94.768.94 1.337v3.094z" fill="#000" fill-opacity=".4"/></svg>