<svg width="16" height="13" viewBox="0 0 16 13" fill="none" xmlns="http://www.w3.org/2000/svg"><path d="M12.8 2.923c.587.13.979.439 1.136.971a1.3 1.3 0 01.047.363c.002 2.012.002 4.025 0 6.037a1.21 1.21 0 01-.106.507c-.071.16-.177.306-.31.43-.134.122-.293.22-.468.285a1.534 1.534 0 01-.552.097H3.125c-.851 0-1.466-.565-1.466-1.347V3.332a2.96 2.96 0 01.237-1.21c.303-.68.862-1.076 1.65-1.135.677-.05 1.363-.033 2.042-.035C7.494.95 9.4.95 11.306.952c.882 0 1.491.558 1.493 1.365v.606zm-.949-.019v-.559c0-.36-.178-.522-.568-.522H5.21c-.45 0-.899-.006-1.348.004-.73.015-1.22.464-1.19 1.077h9.18zm-.585 3.487a1.137 1.137 0 00-.595.161 1.004 1.004 0 00-.397.437.905.905 0 00-.065.566c.04.19.14.366.29.504.148.137.337.232.544.27.207.04.422.02.618-.052.195-.074.362-.199.48-.36a.924.924 0 00.182-.543.94.94 0 00-.308-.692 1.116 1.116 0 00-.75-.29z" fill="#C4C4C4"/></svg>