<svg width="13" height="13" viewBox="0 0 13 13" fill="none" xmlns="http://www.w3.org/2000/svg"><g clip-path="url(#clip0)" fill="#EC824A"><path d="M9.614 7.389C8.739 6.333 7.634 5.75 6.5 5.75c-1.132 0-2.238.582-3.113 1.638-.786.949-1.255 2.145-1.255 3.2 0 .512.156.902.465 1.16.305.254.708.34 1.157.34.477 0 1.008-.098 1.53-.194.455-.083.885-.162 1.216-.162.287 0 .69.075 1.117.154.999.186 2.13.396 2.784-.148.31-.258.468-.645.468-1.15 0-1.055-.47-2.251-1.255-3.2zm.089-5.735c-.32-.472-.778-.742-1.257-.742-.48 0-.938.27-1.258.742-.294.433-.456 1.003-.456 1.603 0 .6.162 1.17.456 1.603.32.471.779.742 1.258.742s.937-.27 1.257-.742c.294-.434.456-1.003.456-1.603 0-.6-.162-1.17-.456-1.603zm-3.891 0c-.32-.472-.778-.742-1.257-.742-.48 0-.937.27-1.257.742-.294.433-.456 1.003-.456 1.603 0 .6.162 1.17.456 1.603.32.471.778.742 1.257.742.479 0 .937-.27 1.257-.742.294-.434.456-1.003.456-1.603 0-.6-.162-1.17-.456-1.603zm7.112 3.682c-.129-.44-.405-.758-.778-.898-.3-.113-.64-.094-.955.054-.434.203-.789.623-.974 1.151-.15.432-.17.888-.053 1.285.13.44.406.758.78.898.128.049.264.073.403.073a1.3 1.3 0 00.55-.127c.435-.203.79-.623.974-1.151.151-.432.17-.888.053-1.285zm-10.142.306c-.184-.528-.54-.948-.973-1.15a1.224 1.224 0 00-.955-.055c-.373.14-.65.46-.778.898-.117.397-.098.854.053 1.286.184.528.54.948.973 1.15a1.3 1.3 0 00.551.127c.138 0 .275-.024.404-.072.373-.14.65-.46.778-.898a2.124 2.124 0 00-.053-1.286z"/></g><defs><clipPath id="clip0"><path fill="#fff" d="M0 0h13v13H0z"/></clipPath></defs></svg>