<svg width="16" height="16" viewBox="0 0 16 16" fill="none" xmlns="http://www.w3.org/2000/svg"><path d="M11.5 16a4.459 4.459 0 01-1.53-.273 16.308 16.308 0 01-5.922-3.775A16.308 16.308 0 01.273 6.03a4.426 4.426 0 01-.226-2.175A4.53 4.53 0 012.38.533 4.455 4.455 0 014.513 0a.5.5 0 01.489.395l.785 3.663a.5.5 0 01-.136.458l-1.34 1.34a13.162 13.162 0 005.832 5.834l1.341-1.341a.5.5 0 01.458-.136l3.663.785a.5.5 0 01.395.489 4.46 4.46 0 01-.533 2.133 4.547 4.547 0 01-3.322 2.333 4.437 4.437 0 01-.646.047zM4.113 1.022c-1 .11-1.888.634-2.477 1.475a3.445 3.445 0 00-.424 3.192 15.165 15.165 0 009.098 9.098 3.445 3.445 0 003.192-.424 3.463 3.463 0 001.475-2.477l-2.98-.638-1.4 1.4a.5.5 0 01-.566.1 14.158 14.158 0 01-6.78-6.78.5.5 0 01.1-.566l1.4-1.4-.638-2.98z" fill="#000" fill-opacity=".4"/></svg>