<svg width="17" height="15" viewBox="0 0 17 15" fill="none" xmlns="http://www.w3.org/2000/svg"><path d="M9.654.154C5.605.154 2.312 3.451 2.312 7.5v.024L.858 5.334a.469.469 0 00-.78.518l2.11 3.175a.47.47 0 00.332.204c.021.004.038.004.06.004a.459.459 0 00.312-.122l2.932-2.64a.47.47 0 00.034-.663.47.47 0 00-.662-.035l-1.947 1.76V7.5a6.413 6.413 0 016.405-6.409 6.416 6.416 0 016.41 6.409 6.413 6.413 0 01-6.406 6.409c-1.71 0-3.32-.666-4.528-1.877a.467.467 0 00-.663 0 .467.467 0 000 .662 7.291 7.291 0 005.19 2.152C13.705 14.846 17 11.553 17 7.5S13.704.154 9.654.154z" fill="#EC824A"/></svg>