<svg width="40" height="8" viewBox="0 0 40 8" fill="none" xmlns="http://www.w3.org/2000/svg"><path d="M10 4.724V0h1.674v4.665c0 1.096.629 1.85 1.826 1.85 1.198 0 1.814-.754 1.814-1.85V0H17v4.713C17 6.669 15.86 8 13.5 8 11.14 8 10 6.657 10 4.724zm11 2.045l.981-1.254c.6.57 1.53 1.045 2.704 1.045.995 0 1.479-.418 1.479-.86 0-1.37-4.897-.429-4.897-3.343C21.267 1.068 22.492 0 24.493 0c1.353 0 2.474.371 3.316 1.08L26.8 2.287c-.687-.58-1.606-.847-2.473-.847-.778 0-1.211.313-1.211.778 0 1.23 4.883.406 4.883 3.297C28 6.932 26.89 8 24.596 8 22.964 8 21.791 7.5 21 6.769zM32 4c0-2.33 1.687-4 3.995-4C38.313 0 40 1.67 40 4s-1.687 4-4.005 4C33.687 8 32 6.33 32 4zm6.324 0c0-1.449-.918-2.539-2.33-2.539-1.411 0-2.318 1.09-2.318 2.54 0 1.437.907 2.538 2.319 2.538 1.411 0 2.329-1.1 2.329-2.539zm-33.991.953c.8-.204 1.623-.96 1.623-2.375C5.956 1.091 5.01 0 3.466 0H0v1.499h3.234c.633 0 1.11.407 1.11 1.08 0 .67-.478 1.079-1.11 1.079H0v4.341h1.577V5.157h1.156L4.19 8H6L4.333 4.953z" fill="#2D2D2D"/></svg>