<svg width="13" height="13" viewBox="0 0 13 13" fill="none" xmlns="http://www.w3.org/2000/svg"><path d="M9.12 6.302h-.994v.003c-.663 0-1.203-.637-1.203-1.3s.54-1.137 1.203-1.137v-.975a2.178 2.178 0 000 4.355v-.004h.994c.68 0 1.28.481 1.28 1.336v.845h.976v-1.07c0-1.17-1.04-2.053-2.256-2.053zm2.254 3.773H10.4v1.95h.975v-1.95zm-1.624 0H0v1.95h9.75v-1.95z" fill="#EC824A"/><path d="M10.952 4.7c.4-.394.65-.943.65-1.547A2.18 2.18 0 009.425.975v.975a1.204 1.204 0 010 2.405v.975c1.459 0 2.6 1.186 2.6 2.646v1.45H13V7.971A3.611 3.611 0 0010.952 4.7zM13 10.075h-.975v1.95H13v-1.95z" fill="#EC824A"/></svg>