<svg width="18" height="14" viewBox="0 0 18 14" fill="none" xmlns="http://www.w3.org/2000/svg">
<path d="M0.162109 13.8355C0.222024 12.6464 0.175726 11.5037 0.360918 10.3964C0.597854 8.97547 1.70083 8.11365 3.15513 8.08638C5.08058 8.05092 7.00875 8.04274 8.93692 8.08638C10.6499 8.12729 11.7965 9.36001 11.8128 11.07C11.8128 11.9755 11.8128 12.8809 11.8128 13.8327L0.162109 13.8355Z" fill="#EC824A"/>
<path d="M3.1683 3.70334C3.18018 3.13428 3.36002 2.58148 3.68514 2.11461C4.01026 1.64775 4.46612 1.28771 4.99525 1.07989C5.52438 0.872065 6.10311 0.825757 6.65849 0.9468C7.21386 1.06784 7.72103 1.35082 8.11605 1.76006C8.51108 2.1693 8.77629 2.6865 8.87825 3.24644C8.98022 3.80639 8.91437 4.38404 8.68901 4.90657C8.46365 5.4291 8.08887 5.87313 7.61191 6.18269C7.13494 6.49225 6.57714 6.65349 6.00882 6.64607C5.2429 6.63173 4.51388 6.31396 3.98146 5.76239C3.44904 5.21081 3.15664 4.4704 3.1683 3.70334Z" fill="#EC824A"/>
<path d="M12.1475 8.11654C13.2368 8.11654 14.1737 8.03745 15.0806 8.13563C16.4858 8.28563 17.4717 9.3329 17.6106 10.822C17.7032 11.8065 17.627 12.8047 17.627 13.8411H13.3104C13.1061 11.9211 13.7325 9.87017 12.1475 8.11654Z" fill="#EC824A"/>
<path d="M14.6939 3.65992C14.7092 4.17865 14.5845 4.69193 14.333 5.14567C14.0815 5.5994 13.7124 5.97681 13.2647 6.23813C12.8169 6.49945 12.3071 6.635 11.7889 6.63052C11.2707 6.62603 10.7633 6.48167 10.3201 6.21264C9.99329 6.02719 9.819 5.84992 10.0178 5.41083C10.2656 4.88408 10.3941 4.309 10.3941 3.72673C10.3941 3.14447 10.2656 2.56939 10.0178 2.04264C9.8544 1.67446 9.96606 1.49719 10.2547 1.33355C10.679 1.04252 11.1757 0.87538 11.6893 0.850817C12.203 0.826254 12.7133 0.945236 13.1633 1.19446C13.6232 1.42095 14.0104 1.77204 14.2809 2.20786C14.5515 2.64368 14.6945 3.14675 14.6939 3.65992Z" fill="#EC824A"/>
</svg>
