<svg width="18" height="14" viewBox="0 0 18 14" fill="none" xmlns="http://www.w3.org/2000/svg"><path d="M.162 13.835c.06-1.189.014-2.331.199-3.439.237-1.42 1.34-2.282 2.794-2.31 1.926-.035 3.854-.043 5.782 0 1.713.041 2.86 1.274 2.876 2.984v2.763l-11.65.002zM3.168 3.703A2.886 2.886 0 014.995 1.08a2.875 2.875 0 013.121.68 2.884 2.884 0 01-2.107 4.886 2.893 2.893 0 01-2.84-2.943zm8.98 4.414c1.089 0 2.026-.08 2.933.019 1.405.15 2.39 1.197 2.53 2.686.092.985.016 1.983.016 3.02H13.31c-.204-1.92.422-3.972-1.162-5.725zm2.546-4.457a2.89 2.89 0 01-1.43 2.578 2.879 2.879 0 01-2.944-.025c-.327-.186-.501-.363-.302-.802a3.956 3.956 0 000-3.368c-.164-.369-.052-.546.237-.71a2.77 2.77 0 012.908-.139 2.74 2.74 0 011.53 2.466z" fill="#EC824A"/></svg>