<svg width="75" height="43" viewBox="0 0 75 43" fill="none" xmlns="http://www.w3.org/2000/svg"><path fill-rule="evenodd" clip-rule="evenodd" d="M75 40.712C75 41.979 73.887 43 72.506 43H2.495C1.113 43 0 41.979 0 40.712V2.288C0 1.021 1.113 0 2.495 0h70.011C73.886 0 75 1.021 75 2.288v38.424z" fill="#F8F8F8"/><path fill-rule="evenodd" clip-rule="evenodd" d="M34.517 27.965h-3.664l2.298-12.916h3.664l-2.297 12.916zm-6.752-12.916l-3.481 8.883-.423-1.914-1.227-5.805s-.154-1.164-1.747-1.164h-5.764l-.07.22s1.761.336 3.833 1.474l3.185 11.222h3.82l5.82-12.916h-3.946zm28.819 12.916h3.368L57.02 15.049h-2.946c-1.367 0-1.69.97-1.69.97l-5.469 11.946h3.82l.761-1.926h4.664l.423 1.926zm-4.031-4.563l1.93-4.836 1.086 4.836h-3.016zm-5.337-5.25l.521-2.767s-1.62-.569-3.297-.569c-1.818 0-6.144.737-6.144 4.28 0 3.336 5.073 3.375 5.073 5.133 0 1.745-4.552 1.434-6.046.323l-.55 2.91s1.636.724 4.144.724c2.494 0 6.27-1.19 6.27-4.423 0-3.348-5.115-3.671-5.115-5.133 0-1.448 3.566-1.267 5.144-.478z" fill="#434C9E"/><path fill-rule="evenodd" clip-rule="evenodd" d="M23.86 22.018l-1.226-5.805s-.154-1.164-1.747-1.164h-5.764l-.07.22s2.776.53 5.44 2.508c2.537 1.888 3.368 4.241 3.368 4.241z" fill="#FAA634"/></svg>