<svg width="20" height="20" viewBox="0 0 20 20" fill="none" xmlns="http://www.w3.org/2000/svg"><path d="M9.973.765H9.97C4.699.765.412 5.052.412 10.324c0 2.09.674 4.028 1.82 5.602L1.04 19.477l3.674-1.174a9.476 9.476 0 005.258 1.58c5.27 0 9.557-4.289 9.557-9.56 0-5.27-4.286-9.558-9.557-9.558zm5.562 13.498c-.23.651-1.146 1.191-1.876 1.349-.499.106-1.151.191-3.348-.72-2.809-1.163-4.618-4.018-4.759-4.203-.135-.185-1.135-1.511-1.135-2.883s.697-2.04.978-2.326c.23-.236.611-.343.977-.343.118 0 .225.006.32.01.281.012.422.029.607.472.23.556.792 1.928.86 2.069.067.14.136.332.04.517-.09.191-.169.276-.31.439-.14.162-.274.286-.415.46-.13.152-.275.315-.113.596.163.275.724 1.191 1.551 1.927 1.067.95 1.932 1.253 2.242 1.382.23.096.505.073.674-.106.214-.23.478-.613.747-.99.19-.27.432-.303.685-.207.258.09 1.624.765 1.905.904.28.141.466.208.534.327.067.118.067.674-.164 1.326z" fill="#fff"/></svg>