<svg width="21" height="15" viewBox="0 0 21 15" fill="none" xmlns="http://www.w3.org/2000/svg"><path d="M19.74 2.255c-.558-.92-1.165-1.09-2.4-1.154-1.234-.078-4.337-.11-7.026-.11-2.693 0-5.798.032-7.03.109-1.233.065-1.84.233-2.405 1.155-.576.92-.872 2.503-.872 5.291v.01c0 2.776.296 4.372.872 5.282.564.92 1.17 1.087 2.403 1.165 1.234.066 4.339.106 7.032.106 2.689 0 5.792-.04 7.027-.105 1.235-.078 1.842-.245 2.4-1.165.582-.91.876-2.506.876-5.282v-.009c0-2.79-.294-4.373-.876-5.293zM7.736 11.127V3.972l6.441 3.578-6.44 3.577z" fill="#fff"/></svg>