<svg width="10" height="6" viewBox="0 0 10 6" fill="none" xmlns="http://www.w3.org/2000/svg">
<path d="M5.00211 3.98378L1.26098 0.163078C1.15821 0.0578742 1.02081 4.3218e-07 0.874309 4.38589e-07C0.727723 4.45002e-07 0.590406 0.0578742 0.487479 0.163078L0.159837 0.497869C0.0567477 0.602906 -2.29592e-07 0.743316 -2.23057e-07 0.892942C-2.16522e-07 1.04257 0.0567478 1.18281 0.159837 1.28793L4.61398 5.83709C4.71724 5.94262 4.8552 6.00041 5.00187 6C5.14919 6.00041 5.28699 5.9427 5.39033 5.83709L9.84016 1.29217C9.94325 1.18705 10 1.0468 10 0.897093C10 0.747467 9.94325 0.607224 9.84016 0.50202L9.51252 0.167312C9.29927 -0.0504846 8.95211 -0.0504846 8.73894 0.167312L5.00211 3.98378Z" fill="#B9B9B9"/>
</svg>
