<svg width="13" height="13" viewBox="0 0 13 13" fill="none" xmlns="http://www.w3.org/2000/svg">
<path d="M9.12025 6.30182H8.12575V6.30508C7.46275 6.30508 6.92324 5.66807 6.92324 5.00507C6.92324 4.34207 7.46275 3.86758 8.12575 3.86758V2.89258C6.9265 2.89258 5.94824 3.86758 5.94824 5.07009C5.94824 6.2726 6.92324 7.2476 8.12575 7.2476V7.24434H9.12025C9.79949 7.24434 10.4008 7.72535 10.4008 8.58009V9.42508H11.3758V8.3558C11.3757 7.18581 10.3357 6.30182 9.12025 6.30182Z" fill="#EC824A"/>
<path d="M11.3744 10.0752H10.3994V12.0252H11.3744V10.0752Z" fill="#EC824A"/>
<path d="M9.74999 10.0752H0V12.0252H9.74999V10.0752Z" fill="#EC824A"/>
<path d="M10.9523 4.69959C11.3521 4.30633 11.6023 3.7571 11.6023 3.15261C11.6023 1.9501 10.6241 0.975098 9.4248 0.975098V1.9501C10.0878 1.9501 10.6273 2.48961 10.6273 3.15261C10.6273 3.8156 10.0878 4.35511 9.4248 4.35511V5.33011C10.884 5.33011 12.0248 6.51635 12.0248 7.97562V9.42511H12.9998V7.97236C12.9998 6.5261 12.1678 5.2781 10.9523 4.69959Z" fill="#EC824A"/>
<path d="M13.0004 10.0752H12.0254V12.0252H13.0004V10.0752Z" fill="#EC824A"/>
</svg>
