<svg width="14" height="12" viewBox="0 0 14 12" fill="none" xmlns="http://www.w3.org/2000/svg"><path d="M12.788 3.23h-7.32c-.669 0-1.212.543-1.212 1.211V8.48c0 .667.543 1.21 1.211 1.21h6.347l1.496 1.498A.404.404 0 0014 10.9V4.44c0-.668-.544-1.211-1.212-1.211zM10.77 7.671H7.486a.404.404 0 110-.807h3.284a.404.404 0 110 .807zm.807-1.615H6.678a.404.404 0 110-.807h4.899a.403.403 0 110 .807z" fill="#EC824A"/><path d="M.468 8.044a.404.404 0 00.44-.088L2.405 6.46h1.044V4.44a2.02 2.02 0 012.018-2.019h4.495v-1.21A1.21 1.21 0 008.752 0H1.43A1.21 1.21 0 00.219 1.211v6.46c0 .163.098.31.249.373z" fill="#EC824A"/></svg>