<svg width="20" height="20" viewBox="0 0 20 20" fill="none" xmlns="http://www.w3.org/2000/svg"><path d="M19.834 6.385c-.045-1.015-.21-1.714-.445-2.319a4.665 4.665 0 00-1.105-1.695 4.705 4.705 0 00-1.693-1.102c-.608-.235-1.303-.4-2.32-.445-1.023-.048-1.348-.06-3.944-.06s-2.92.012-3.94.057c-1.017.044-1.715.209-2.32.444A4.666 4.666 0 002.37 2.371a4.707 4.707 0 00-1.102 1.691c-.235.61-.4 1.304-.445 2.32-.048 1.023-.06 1.348-.06 3.943 0 2.596.012 2.92.057 3.94.044 1.016.209 1.715.444 2.32.243.642.62 1.217 1.106 1.695a4.705 4.705 0 001.692 1.102c.609.235 1.304.4 2.32.444 1.02.045 1.344.056 3.94.056 2.597 0 2.922-.01 3.941-.056 1.016-.044 1.715-.209 2.32-.444a4.89 4.89 0 002.798-2.797c.235-.61.4-1.304.444-2.32.045-1.02.056-1.344.056-3.94 0-2.595-.004-2.92-.048-3.94zm-1.722 7.806c-.041.933-.198 1.438-.329 1.774a3.171 3.171 0 01-1.815 1.815c-.337.13-.845.287-1.775.328-1.008.045-1.31.056-3.862.056-2.551 0-2.858-.01-3.862-.056-.934-.04-1.439-.198-1.775-.328a2.942 2.942 0 01-1.098-.714 2.972 2.972 0 01-.713-1.097c-.131-.337-.288-.845-.329-1.774-.045-1.009-.056-1.311-.056-3.862s.011-2.857.056-3.862c.041-.933.198-1.438.329-1.774.153-.414.396-.791.717-1.098a2.97 2.97 0 011.098-.713c.336-.13.844-.288 1.774-.329 1.009-.044 1.311-.056 3.863-.056 2.555 0 2.857.012 3.862.056.934.041 1.438.198 1.774.329a2.94 2.94 0 011.099.713c.317.31.56.684.713 1.098.13.336.288.844.329 1.774.045 1.009.056 1.311.056 3.862 0 2.55-.011 2.85-.056 3.858z" fill="#fff"/><path d="M10.328 5.416a4.913 4.913 0 00-4.912 4.911 4.913 4.913 0 009.824 0c0-2.711-2.2-4.911-4.912-4.911zm0 8.097a3.186 3.186 0 110-6.373 3.186 3.186 0 010 6.373zm6.25-8.293a1.147 1.147 0 11-2.294-.001 1.147 1.147 0 012.294 0z" fill="#fff"/></svg>