<svg width="97" height="97" viewBox="0 0 97 97" fill="none" xmlns="http://www.w3.org/2000/svg"><g opacity=".5" fill="#fff"><path d="M67.9 25.867h-9.7V8.083h3.233c.893 0 1.617-.724 1.617-1.616v-4.85C63.05.724 62.326 0 61.433 0H35.567c-.893 0-1.617.724-1.617 1.617v4.85c0 .892.724 1.616 1.617 1.616H38.8v17.784h-9.7a8.093 8.093 0 00-8.083 8.083v50.117A8.093 8.093 0 0029.1 92.15v3.233c0 .893.724 1.617 1.617 1.617h6.466c.893 0 1.617-.724 1.617-1.617V92.15h19.4v3.233c0 .893.724 1.617 1.617 1.617h6.466c.893 0 1.617-.724 1.617-1.617V92.15a8.093 8.093 0 008.083-8.083V33.95a8.093 8.093 0 00-8.083-8.083zM37.183 3.233h22.634V4.85H37.183V3.233zm4.85 4.85h12.934v17.784H42.033V8.083zm-6.466 85.684h-3.234V92.15h3.234v1.617zm29.1 0h-3.234V92.15h3.234v1.617zm8.083-9.7a4.85 4.85 0 01-4.85 4.85H29.1a4.85 4.85 0 01-4.85-4.85V33.95a4.85 4.85 0 014.85-4.85h38.8a4.85 4.85 0 014.85 4.85v50.117z"/><path d="M48.5 32.334c-.893 0-1.617.723-1.617 1.616v50.117a1.617 1.617 0 003.234 0V33.95c0-.893-.724-1.617-1.617-1.617zm12.934 3.233c-.893 0-1.617.724-1.617 1.617v43.65a1.617 1.617 0 003.233 0v-43.65c0-.893-.724-1.617-1.616-1.617zm-25.867 0c-.893 0-1.617.724-1.617 1.617v43.65a1.617 1.617 0 003.233 0v-43.65c0-.893-.723-1.617-1.616-1.617z"/></g></svg>