<svg width="46" height="27" viewBox="0 0 46 27" fill="none" xmlns="http://www.w3.org/2000/svg"><path fill-rule="evenodd" clip-rule="evenodd" d="M31.654 26.743l.685-.014.685-.055.657-.082.658-.109.657-.15.629-.178.629-.204.602-.232.6-.26.573-.286.56-.314.545-.341.518-.369.504-.382.49-.422.462-.424.447-.464.419-.464.405-.491.364-.519.349-.532.323-.546.292-.56.266-.573.238-.6.224-.6.168-.629.153-.627.126-.642.07-.654.055-.67.028-.669-.028-.668-.055-.655-.07-.655-.126-.642-.153-.628-.168-.613-.224-.6-.238-.587-.266-.574-.292-.573-.323-.546-.35-.518-.363-.519-.405-.491-.42-.465-.446-.464-.462-.423-.49-.41-.504-.394-.518-.356-.545-.341-.56-.313-.572-.288-.601-.259-.602-.232-.629-.204-.629-.177-.657-.15-.658-.11-.657-.082L32.34.69l-.685-.014-.7.014-.67.055-.672.081-.658.11-.643.15-.643.178-.615.204-.616.232-.588.26-.573.287-.559.313-.545.341-.518.356-.503.395-.49.41-.46.422-.449.464-.418.465-.392.491-.378.519-.335.518-.323.546-.292.573-.267.574-.238.586-.224.6-.168.614-.152.628-.113.642-.084.655-.056.655-.013.668.013.67.056.669.084.654.112.642.153.627.169.628.223.6.238.601.267.574.292.56.323.545.335.532.378.519.392.491.418.464.448.464.462.424.49.422.502.382.518.369.545.341.56.314.572.287.588.259.616.232.615.204.643.178.643.15.658.11.672.08.67.056.7.014z" fill="#EB2230"/><path fill-rule="evenodd" clip-rule="evenodd" d="M13.934 26.743l.684-.014.686-.055.658-.082.657-.109.657-.15.63-.178.628-.204.602-.232.587-.26.573-.286.56-.314.545-.341.531-.369.505-.382.475-.422.475-.424.433-.464.42-.464.391-.491.378-.519.35-.532.32-.546.295-.56.266-.573.238-.6.21-.6.167-.629.154-.627.125-.642.084-.654.042-.67.029-.669-.029-.668-.042-.655-.084-.655-.125-.642-.154-.628-.168-.613-.21-.6-.237-.587-.266-.574-.294-.573-.321-.546-.35-.518-.378-.519-.391-.491-.42-.465-.433-.464-.475-.423-.475-.41-.505-.394-.531-.356-.545-.341-.56-.313-.573-.288-.587-.259-.602-.232-.629-.204-.63-.177-.656-.15-.657-.11-.658-.082-.686-.055-.684-.014-.7.014-.67.055-.672.081-.656.11-.644.15-.644.178-.615.204-.615.232-.588.26-.573.287-.573.313-.532.341-.53.356-.505.395-.49.41-.46.422-.434.464-.434.465-.391.491-.377.519-.35.518-.322.546-.293.573-.266.574-.237.586-.21.6-.182.614-.155.628-.111.642-.084.655-.056.655-.014.668.014.67.056.669.084.654.111.642.155.627.182.628.21.6.237.601.266.574.293.56.322.545.35.532.377.519.39.491.435.464.434.464.46.424.49.422.504.382.531.369.532.341.573.314.573.287.588.259.615.232.615.204.644.178.644.15.656.11.672.08.67.056.7.014z" fill="#0B84C4"/><path fill-rule="evenodd" clip-rule="evenodd" d="M21.152 5.63h6.768v-.724h-6.126l-.642.724zM20.09 7.172h7.83V6.45h-7.369l-.461.723zm-.8 1.569h8.628v-.723h-8.264l-.365.723zm-.517 1.542h9.146V9.56h-8.922l-.224.723zm-.347 1.557h9.495v-.738h-9.355l-.14.737zm-.072 2.988h9.566v-.723h-9.621l.055.723zm.236 1.638h9.327v-.737h-9.468l.14.737zm.453 1.324h8.879v-.738h-9.104l.225.737zm.668 1.61h8.209v-.737h-8.56l.35.736zm.966 1.624h7.243v-.723h-7.746l.503.723zm1.188 1.569h5.984v-.724h-6.642l.658.724zm20.959-.9l.043-.123.07-.11.085-.094.096-.07.098-.068.126-.027.127-.014.126.014.125.027.111.069.1.069.083.095.055.109.043.123h-.14l-.028-.082-.04-.096-.073-.082-.068-.055-.083-.04-.1-.041h-.21l-.113.04-.083.041-.085.055-.055.082-.043.096-.027.082h-.14z" fill="#EB2230"/><path fill-rule="evenodd" clip-rule="evenodd" d="M43.248 21.692v-.163h.25l.056.014h.042l.043.013.042.014.026.026.014.029.013.026v.041h-.11v-.027l-.015-.014-.013-.014-.015-.012-.015-.014h-.025l-.015-.015h-.168v.096h-.11zm-.424.109v-.109h.143l-.015.013v.096h-.128z" fill="#EB2230"/><path fill-rule="evenodd" clip-rule="evenodd" d="M43.248 21.801v-.109h.11v.082h.208l.03-.014h.013l.015-.027v-.041h.11v.068l-.013.027-.014.014h-.459zm.74-.001l-.015-.095v-.013h.142l.015.109h-.142zm-1.163.002l-.013.013.013.137.043.122.07.096.085.095.096.07.098.053.128.041.125.014.126-.014.126-.04.11-.055.1-.069.083-.095.056-.096.042-.122.015-.137v-.013h-.14v.013l-.015.123-.028.096-.04.095-.073.068-.068.068-.083.041-.1.041h-.209l-.112-.04-.084-.042-.085-.068-.055-.068-.043-.095-.042-.096v-.136h-.126z" fill="#EB2230"/><path fill-rule="evenodd" clip-rule="evenodd" d="M43.248 21.802v.258h.11v-.217h.113l.138.217h.112l-.167-.217h.085l.027-.014.028-.027h.012-.458z" fill="#EB2230"/><path fill-rule="evenodd" clip-rule="evenodd" d="M28.757 12.59l-.084-.014h-.098l-.07-.014-.083-.013-.085-.014-.07-.014-.084-.013-.097-.014h-.084l-.098-.014-.112-.013H27.4l-.168.013-.168.014-.126.014-.126.027-.112.041-.098.04-.083.042-.084.054-.057.055-.055.054-.042.082-.029.068-.013.069v.081l.028.082.027.083.042.082.07.082.127.109.14.08.181.083.182.068.21.055.196.068.21.082.21.082.18.095.182.124.154.164.14.19.098.232.07.274.014.327-.014.382-.057.286-.068.26-.113.232-.126.205-.14.177-.167.15-.182.136-.195.123-.196.096-.21.068-.21.069-.223.04-.21.042-.21.013-.21.014-.196.013h-.265l-.253-.013h-.433l-.181-.014-.168-.013h-.154l-.14-.028-.14-.014-.125-.027-.113-.013-.11-.028-.1-.041-.111-.027-.112-.041-.112-.027.28-1.352.055.014.085.027.083.015.113.026.11.027.126.028.155.028.14.026.168.015.153.027.181.014.169.013.181.014h.56l.182-.041.14-.042.112-.068.084-.082.069-.082.042-.095.042-.096.029-.095.013-.095v-.096l-.028-.082-.027-.068-.057-.068-.055-.055-.07-.054-.084-.056-.099-.04-.098-.054-.111-.042-.112-.04-.111-.042-.127-.054-.126-.04-.126-.056-.125-.054-.126-.055-.112-.068-.126-.068-.11-.068-.113-.082-.098-.096-.084-.095-.084-.11-.084-.123-.056-.136-.055-.137-.03-.163-.026-.164v-.191l.014-.205.013-.123.013-.123.016-.109.027-.109.028-.11.028-.108.042-.095.042-.11.041-.082.057-.096.056-.08.055-.083.07-.069.071-.08.07-.07.084-.054.084-.068.097-.055.098-.054.112-.041.111-.055.113-.041.125-.027.126-.041.14-.027.154-.027.14-.014.167-.028.168-.013h.169l.181-.014h.629l.196.014h.168l.154.013.14.014.125.014h.113l.098.014.097.013.084.014.069.013h.057l.056.014.055.014h.043l-.308 1.391zM30.2 9.724h1.762l-.266 1.489h1.076l-.237 1.377-1.119-.027-.573 3.412-.014.068v.068l.014.055.014.054.027.042.029.04.042.041.042.028.055.027.056.014.057.014.055.012.07.014h.07l.084.015h.21l.126-.015.111-.014.099-.026.07-.014.055-.027.042-.013h.015l-.182 1.16-.042.027-.057.027-.042.014-.055.027-.042.014-.056.013-.056.027-.056.014-.056.014-.07.013-.07.014-.084.014-.084.014-.083.013-.113.014-.098.013h-.475l-.251-.027-.224-.013-.197-.042-.167-.04-.154-.055-.111-.068-.112-.069-.084-.081-.056-.096-.056-.096-.028-.109-.013-.123-.016-.122.016-.137.013-.136.014-.15L30.2 9.723zm-13.175 6.701l-.253 1.365h-1.58l.015-.137.027-.123.014-.122.015-.096.013-.095.014-.082.028-.055.015-.027-.085.095-.111.096-.112.095-.14.082-.14.082-.153.082-.168.068-.182.055-.182.054-.181.055-.183.027-.182.027-.181.014-.182.014-.182-.014-.168-.026-.223-.056-.195-.068-.183-.082-.154-.095-.14-.096-.125-.109-.099-.123-.097-.122-.07-.123-.055-.137-.057-.137-.042-.136-.014-.15-.028-.136v-.137l-.014-.136.029-.232.027-.232.056-.219.084-.204.111-.191.113-.179.14-.177.14-.15.168-.136.168-.137.181-.11.195-.094.197-.096.209-.068.21-.04.21-.041h.042l.055-.014h.056l.084-.014.084-.014.098-.013h.098l.111-.014.098-.014h.113l.111-.013.099-.015h.824l.07.015h.224l.014-.041.041-.096.016-.123v-.191l-.016-.068-.026-.068-.03-.068-.041-.055-.042-.054-.042-.055-.056-.054-.055-.041-.056-.028-.07-.041-.057-.027-.07-.027-.084-.015-.07-.012-.069-.014h-.378l-.195.014-.196.012-.21.014-.195.014-.21.027-.196.014-.182.028-.182.027-.168.027-.153.04-.127.028-.125.04-.084.029-.07.04.447-1.46.141-.055.14-.055.139-.04.154-.04.154-.042.153-.014.169-.027.167-.014.181-.013h.183l.182-.014h.587l.224.014h.21l.182.013.194.028.197.041.195.068.196.068.196.082.182.11.181.122.155.137.153.15.126.163.084.191.07.191.042.219.014.232-.042.26-.657 3.22z" fill="#fff"/><path fill-rule="evenodd" clip-rule="evenodd" d="M15.516 14.8v-.026l-.029-.027-.042-.014-.055-.013-.085-.014h-.362l-.113.014-.098.013-.097.014-.099.027-.098.014-.069.013-.07.028-.042.013-.056.014-.056.027-.084.027-.07.028-.085.04-.083.042-.084.054-.084.055-.07.068-.084.068-.055.068-.07.082-.043.095-.026.097-.03.109-.013.204.043.164.04.123.085.095.097.068.099.041.11.027h.296l.181-.013.155-.04.14-.028.14-.055.11-.04.113-.069.084-.055.084-.068.084-.081.055-.07.056-.067.042-.068.028-.068.028-.069.028-.068.014-.096.028-.095.014-.109.028-.11.015-.095.014-.095.027-.096.015-.082z" fill="#0B84C4"/><path fill-rule="evenodd" clip-rule="evenodd" d="M3.784 17.79h-1.72l1.44-8.066h2.993l.294 4.79 2.028-4.79h3.104l-1.454 8.066H8.763l1.077-6.046h-.07L7.223 17.79H5.295l-.014-.26-.042-.668-.056-.955-.07-1.092-.056-1.105-.056-.97-.042-.696-.014-.3h-.098.028l-1.09 6.046zm28.681-.001h1.777l.615-3.494.028-.136.028-.123.042-.137.042-.122.041-.123.07-.123.07-.11.085-.108.097-.096.112-.082.14-.082.154-.068.168-.054.195-.042.224-.027.251-.013h.042l.043.013h.084l.027.014.014-.027.014-.082.015-.11.041-.136.042-.164.042-.164.07-.177.056-.164.056-.122.056-.11.056-.11.055-.108.058-.095.042-.068.026-.056.015-.013h-.015l-.013-.014h-.029l-.055-.013h-.042l-.042-.014h-.098l-.196.014-.168.013-.167.041-.155.042-.14.04-.125.069-.125.068-.099.068-.11.082-.113.082-.084.095-.098.109-.098.11-.083.108-.098.123-.084.124.21-1.105-1.79-.014-1.176 6.59zm10.112-5.854l.11.11.098.108.098.123c.839 1.146.798 2.839.083 4.04-.658 1.105-1.999 1.678-3.284 1.664-2.393-.013-3.623-2.442-2.854-4.72l.07-.165c.908-2.061 3.886-2.703 5.679-1.16zm.236 5.527h.515v.055h-.195v.42h-.11v-.42h-.21v-.055zm.589 0h.154l.18.368.184-.368h.168v.477h-.126v-.368l-.168.368h-.098l-.183-.368v.368h-.11v-.477z" fill="#fff"/><path fill-rule="evenodd" clip-rule="evenodd" d="M41.066 15.292c.293-.642.502-1.679.083-2.306-.322-.478-.965-.52-1.454-.233-.713.424-1.007 1.392-.937 2.225.126 1.61 1.79 1.473 2.308.314z" fill="#EB2230"/><path fill-rule="evenodd" clip-rule="evenodd" d="M23.57 14.828c.209-1.078.7-3.726-2.504-3.726-3.02 0-3.412 2.947-3.412 3.33-.098.396-.098 3.33 3.105 3.33.81 0 1.915-.095 2.404-.287l.308-1.378c-.308.095-1.3.204-2.112.204-.698 0-1.901 0-1.704-1.473h3.915z" fill="#fff"/><path fill-rule="evenodd" clip-rule="evenodd" d="M19.654 13.56h2.307c.266-1.775-1.944-1.434-2.307 0z" fill="#0B84C4"/></svg>