<svg width="76" height="44" viewBox="0 0 76 44" fill="none" xmlns="http://www.w3.org/2000/svg"><path fill-rule="evenodd" clip-rule="evenodd" d="M75.234 40.787c0 1.266-1.127 2.3-2.508 2.3H2.743c-1.381 0-2.509-1.034-2.509-2.3V2.388c0-1.266 1.128-2.3 2.509-2.3h69.983c1.381 0 2.508 1.034 2.508 2.3v38.399z" fill="#F8F8F8"/><path fill-rule="evenodd" clip-rule="evenodd" d="M46.73 33.924l.691-.013.691-.039.676-.09.662-.104.649-.142.648-.154.62-.208.62-.219.59-.246.578-.272.564-.297.55-.323.535-.348.508-.363.478-.387.479-.415.437-.426.424-.452.408-.466.38-.477.338-.505.339-.516.281-.53.282-.556.24-.556.212-.581.183-.582.154-.595.113-.62.085-.607.056-.634.013-.633-.013-.634-.056-.633-.085-.608-.113-.606-.154-.596-.183-.58-.212-.583-.24-.555-.282-.543-.281-.53-.339-.517-.338-.504-.38-.478-.408-.465-.424-.453-.437-.426-.479-.401-.478-.388-.508-.374-.535-.337-.55-.323-.564-.297-.577-.272-.591-.245-.62-.22-.62-.193-.648-.168-.649-.142-.662-.104-.676-.078-.691-.052-.69-.012-.69.012-.676.052-.677.078-.662.104-.649.142-.647.168-.621.194-.606.219-.592.245-.577.272-.564.297-.55.323-.52.337-.509.374-.492.388-.464.4-.452.428-.408.452-.41.465-.365.478-.353.504-.323.517-.297.53-.267.543-.24.555-.21.582-.184.581-.156.596-.111.606-.085.608-.057.633-.014.634.014.633.057.634.085.607.111.62.156.595.183.582.211.58.24.557.267.556.297.53.323.516.353.505.366.477.409.466.408.452.452.427.464.414.492.387.509.363.52.348.55.323.564.297.577.272.592.246.606.219.62.208.648.154.65.142.66.104.678.09.675.04.69.012z" fill="#FBB230"/><path fill-rule="evenodd" clip-rule="evenodd" d="M28.737 33.924l.69-.013.676-.039.677-.09.662-.104.649-.142.648-.154.62-.208.605-.219.592-.246.578-.272.563-.297.55-.323.52-.348.51-.363.492-.387.464-.415.452-.426.409-.452.408-.466.366-.477.352-.505.324-.516.296-.53.268-.556.24-.556.21-.581.184-.582.155-.595.112-.62.085-.607.057-.634.014-.633-.014-.634-.057-.633-.085-.608-.112-.606-.155-.596-.184-.58-.21-.583-.24-.555-.268-.543-.296-.53-.324-.517-.352-.504-.366-.478-.408-.465-.41-.453-.451-.426-.464-.401-.493-.388-.508-.374-.521-.337-.55-.323-.563-.297-.578-.272-.592-.245-.605-.22-.62-.193-.648-.168-.65-.142-.66-.104-.678-.078-.675-.052-.69-.012-.69.012-.692.052-.676.078-.662.104-.647.142-.65.168-.62.194-.62.219-.59.245-.578.272-.564.297-.55.323-.535.337-.508.374-.478.388-.479.4-.437.428-.424.452-.408.465-.38.478-.338.504-.339.517-.28.53-.283.543-.24.555-.21.582-.185.581-.14.596-.127.606-.084.608-.057.633-.013.634.013.633.057.634.084.607.127.62.14.595.184.582.211.58.24.557.282.556.281.53.339.516.338.505.38.477.408.466.424.452.437.427.479.414.478.387.508.363.536.348.549.323.564.297.577.272.592.246.62.219.62.208.649.154.647.142.662.104.676.09.691.04.69.012z" fill="#EB2230"/><path fill-rule="evenodd" clip-rule="evenodd" d="M36.164 13.981h7.144v-.672h-6.524l-.62.672zm-1.074 1.487h8.215v-.673h-7.792l-.423.673zm-.799 1.486h9.018v-.672h-8.694l-.324.672zm-.553 1.486h9.568v-.658h-9.342l-.226.659zm.326 7.211h9.272v-.671H33.84l.224.671zm.676 1.487h8.595v-.672h-8.933l.338.672zm.971 1.487h7.623v-.672h-8.088l.465.672zm1.324 1.486h6.298v-.672h-6.946l.648.672zm-3.621-10.185h9.891v-.66h-9.75l-.14.66zm6.033 4.24h3.777v-.672h-3.635l-.142.672zm.295-1.486h3.48v-.673h-3.338l-.142.672zm-6.582-.673h.986v.672h-.929l-.057-.672zm25.759 6.514c.352 0 .634.271.634.581 0 .324-.282.582-.634.582-.353 0-.634-.258-.634-.582 0-.31.281-.58.634-.58zm0 .104c.296 0 .535.22.535.477 0 .273-.239.492-.535.492-.282 0-.522-.22-.522-.492 0-.257.24-.477.522-.477z" fill="#FBB230"/><path d="M58.68 29.36v-.49h.224c.056 0 .098 0 .127.014a.191.191 0 01.055.038c.014.026.028.052.028.077 0 .039-.014.077-.028.09a.286.286 0 01-.113.051c.029.014.043.027.058.04.013.012.042.038.055.076l.07.103h-.125l-.086-.116c-.015-.038-.041-.05-.056-.064 0-.012-.014-.012-.028-.025h-.07v.205h-.111zm.111-.284h.071c.055 0 .084 0 .098-.012.013 0 .029 0 .029-.013.013-.013.013-.026.013-.039 0-.013 0-.026-.013-.038-.016-.014-.029-.014-.043-.026h-.156v.128z" fill="#FBB230"/><path fill-rule="evenodd" clip-rule="evenodd" d="M58.776 23.662c.352 0 .633.259.633.582 0 .323-.28.581-.633.581-.352 0-.633-.258-.633-.58 0-.324.28-.583.633-.583zm0 .103c.296 0 .535.22.535.479 0 .271-.238.49-.535.49-.296 0-.535-.219-.535-.49 0-.259.238-.479.535-.479z" fill="#fff"/><path d="M58.535 24.488v-.477h.225a.33.33 0 01.127.013c.014 0 .04.026.055.039a.166.166 0 01.028.077.108.108 0 01-.042.09c-.014.025-.056.038-.098.052.014.012.042.025.057.038.014.012.027.038.055.077l.071.09h-.127l-.084-.103c-.028-.038-.042-.064-.057-.064-.013-.013-.013-.026-.027-.026h-.084v.193h-.099zm.099-.27h.084c.056 0 .084 0 .098-.014.014 0 .028-.013.028-.013.015-.012.015-.025.015-.039 0-.012-.015-.038-.015-.038-.014-.012-.028-.026-.042-.026h-.168v.13z" fill="#fff"/><path fill-rule="evenodd" clip-rule="evenodd" d="M49.717 24.58l.915-4.394h1.141l.142.452c.21-.195.563-.453 1.268-.453l-.353 1.164c-.31 0-.79-.052-1.183.8-.295.647-.437 1.72-.592 2.43h-1.338zm-17.273-5.493h1.267l-.282 1.163h.705l-.211.904h-.634l-.352 1.745c-.07.324 0 .647.704.517l-.14.97c-.76.53-2.284.142-2.044-1.163l.987-4.136zm5.648 3.553c.14-.71.493-2.454-1.775-2.454-2.113 0-2.395 1.938-2.395 2.196-.07.259-.07 2.197 2.184 2.197.563 0 1.353-.064 1.705-.193l.21-.905c-.21.065-.93.13-1.492.13-.493 0-1.339 0-1.198-.97h2.761zm-15.37 1.94l1.127-5.3h-2.198l-1.55 3.232-.282-3.232h-2.043l-1.128 5.3h1.268l.847-3.813.352 3.812h1.198l1.83-3.748-.774 3.748h1.353zm1.478-4.266l-.211.97c.352 0 1.197-.13 1.62-.13.423 0 .986-.064.775.582-.352 0-2.677-.323-3.03 1.55-.196 1.241 1.41 1.694 2.396 1.1l.141.257h1.197l.494-2.39c.52-2.159-1.747-2.198-3.382-1.94zm20.98.388c-.325-.18-.522-.18-.93-.18-.395 0-1.325.361-1.452 1.33-.198 1.215.662 1.759 1.916 1.396l.339 1.035c-2.142.982-4.186-.544-3.51-2.922.55-1.796 3.143-2.881 4.44-1.395l-.803.736z" fill="#fff"/><path fill-rule="evenodd" clip-rule="evenodd" d="M56.355 20.702c-3.452-2.378-4.791 3.877-2.114 3.877.423 0 .847-.193 1.128-.323l.14.323h1.41l1.127-5.558h-1.339l-.352 1.681zm-10.161-.388l-.21.97c.35 0 1.197-.13 1.619-.13.423 0 .916-.064.776.582-.352 0-2.678-.323-3.03 1.55-.142.905.705 1.357 1.34 1.357.633 0 .844-.129 1.055-.258l.14.258h1.2l.492-2.39c.536-2.159-1.733-2.198-3.382-1.94z" fill="#fff"/><path fill-rule="evenodd" clip-rule="evenodd" d="M35.334 21.8h1.62c.183-1.176-1.352-.943-1.62 0zm-9.159.84c-.212 0-.705-.128-1.128.13-.422.258-.564.71-.07.84.422.129.986-.13 1.127-.517l.071-.453z" fill="#EB2230"/><path fill-rule="evenodd" clip-rule="evenodd" d="M55.721 21.413c-.422-.518-1.338-.129-1.62.84-.21.646.212 1.099.634 1.099.888 0 1.423-1.331.986-1.939zM48.24 22.64c-.21 0-.704-.128-1.127.13-.422.258-.563.71-.07.84.422.129 1.057-.13 1.127-.517l.07-.453z" fill="#FBB230"/><path fill-rule="evenodd" clip-rule="evenodd" d="M38.094 24.644l.071-.452.845-3.942h1.127l.14.452c.212-.194.565-.452 1.27-.452l-.353 1.163c-.268 0-.832-.052-1.255.982-.24.595-.38 1.603-.507 2.249h-1.338zm-6.817-3.334h-.112l-.056-.013-.057-.012h-.056l-.056-.014a4.437 4.437 0 00-.719-.025c-.648.05-.93.425-.38.71.436.233.775.194 1.07.453.634.542.31 1.59-.395 1.99l-.126.052-.14.052-.155.037-.14.04c-.678.103-1.593.077-2.256-.13l.183-.866c.535.103 1.41.323 1.818.066.465-.285.042-.621-.297-.763l-.168-.052-.168-.064c-1.34-.557-1.029-2.043.238-2.353.508-.103 1.015-.103 1.537-.064h.098c.127.012.24.025.352.05h.056l.043.014h.042l.028.013h.042l-.226.88z" fill="#fff"/></svg>