<svg width="33" height="34" viewBox="0 0 33 34" fill="none" xmlns="http://www.w3.org/2000/svg"><path d="M8.556 7.176C3.838 7.176 0 11.13 0 15.99c0 2.317 1.052 5.701 2.678 8.62 1.854 3.324 3.996 5.231 5.878 5.231 1.881 0 4.023-1.907 5.877-5.232 1.627-2.918 2.678-6.302 2.678-8.62 0-4.86-3.838-8.814-8.555-8.814zm0 21.407c-2.656 0-7.334-7.28-7.334-12.592 0-4.166 3.29-7.556 7.334-7.556 4.043 0 7.333 3.39 7.333 7.556 0 5.312-4.678 12.592-7.333 12.592z" fill="#fff"/><path d="M8.555 11.583c-2.358 0-4.278 1.977-4.278 4.407 0 2.43 1.92 4.408 4.278 4.408 2.359 0 4.278-1.977 4.278-4.408 0-2.43-1.92-4.407-4.278-4.407zm0 7.556c-1.685 0-3.055-1.413-3.055-3.149 0-1.735 1.37-3.148 3.055-3.148s3.056 1.413 3.056 3.148c0 1.736-1.371 3.149-3.056 3.149zM26.889.88c-3.37 0-6.112 2.824-6.112 6.296 0 3.17 3.714 9.444 6.111 9.444 2.398 0 6.112-6.274 6.112-9.444C33 3.704 30.258.879 26.889.879zm0 14.48c-1.284 0-4.89-5.166-4.89-8.184 0-2.778 2.194-5.037 4.89-5.037 2.695 0 4.888 2.26 4.888 5.037 0 3.018-3.605 8.185-4.889 8.185z" fill="#fff"/><path d="M26.89 4.028c-1.685 0-3.056 1.412-3.056 3.148 0 1.736 1.37 3.148 3.056 3.148 1.684 0 3.055-1.412 3.055-3.148 0-1.736-1.37-3.148-3.055-3.148zm0 5.037c-1.011 0-1.834-.847-1.834-1.889s.823-1.889 1.834-1.889c1.01 0 1.833.847 1.833 1.889S27.9 9.065 26.89 9.065zm-4.498 15.257c-.737-.632-1.076-1.298-1.038-2.037.083-1.647 2.063-3.36 2.819-3.882a.642.642 0 00.168-.873.6.6 0 00-.847-.174c-.131.09-3.225 2.244-3.36 4.86-.06 1.147.436 2.181 1.474 3.073 2.267 1.946 3.523 3.915 3.202 5.018-.275.94-1.717 1.295-2.877 1.428-5.26.603-9.428-1.194-9.47-1.212a.603.603 0 00-.802.331c-.133.32.01.69.32.826.155.069 3.32 1.44 7.727 1.44a20.7 20.7 0 002.36-.133c2.221-.255 3.537-1.034 3.912-2.318.663-2.273-1.964-4.952-3.588-6.347z" fill="#fff"/></svg>