<svg width="19" height="18" viewBox="0 0 19 18" fill="none" xmlns="http://www.w3.org/2000/svg"><path d="M16.071 16.996H9.52a1.006 1.006 0 01-.08.28c-.165.242-.347.469-.524.701-.177-.23-.357-.457-.529-.69-.11-.145-.171-.364-.314-.442a1.324 1.324 0 01-.74-1.256V5.716c0-.939.453-1.354 1.406-1.356 2.69-.01 5.379-.01 8.068 0 .93 0 1.405.45 1.405 1.36.01 3.29.01 6.58 0 9.872.016.278-.063.553-.222.782-.393.423-.868.729-.983 1.402-.06.341-.669.28-.826-.099a3.04 3.04 0 01-.11-.68zm-5.577-6.304v-4.13c0-.372-.028-.756-.5-.756s-.562.345-.562.72v8.258c0 .368.051.755.534.74.483-.013.528-.392.528-.773v-4.06zm5.62-.053V6.647c0-.407.024-.866-.563-.841-.587.025-.491.474-.491.84v8.04c0 .382 0 .816.522.819.523.003.531-.42.531-.813v-4.053zM2.39 16.938c.006.229-.025.457-.093.675-.096.16-.312.365-.453.348-.14-.017-.486-.235-.489-.37 0-.499-.328-.681-.651-.959a1.448 1.448 0 01-.444-.964 205.43 205.43 0 010-6.58 1.119 1.119 0 01.702-1.142c.149-.06.309-.087.47-.08 1.587-.03 3.177 0 4.862 0v7.087c0 .64.093 1.278.15 2.002l-4.055-.017zm1-4.485v-2.45c0-.373-.068-.788-.534-.707a.879.879 0 00-.492.673 90.266 90.266 0 000 4.83c0 .238.315.47.483.706.18-.224.495-.437.514-.672.07-.78.029-1.576.029-2.37v-.01zm11.679-9.186h-1.063V1.672c0-.387-.16-.561-.539-.561h-.07c-1.8-.107-1.8-.107-1.851 1.682 0 .137-.026.28-.043.446h-1.025c.18-.982-.413-2.089.587-2.919.464-.384 2.81-.442 3.33-.067 1.103.81.516 1.968.674 3.014zM6.426 4.651l-.191 1.007c-.843-.177-1.3.129-1.05 1.096h-.967c-.436-1.508.376-2.31 2.208-2.103z" fill="#EC824A"/></svg>