<svg width="14" height="14" viewBox="0 0 14 14" fill="none" xmlns="http://www.w3.org/2000/svg"><path d="M7.001 0c-2 0-3.635 1.635-3.635 3.635 0 2 1.635 3.635 3.635 3.635 2 0 3.635-1.635 3.635-3.635 0-2-1.635-3.635-3.635-3.635zm6.239 10.175a3.39 3.39 0 00-.366-.667A4.518 4.518 0 009.747 7.54a.669.669 0 00-.46.11A3.824 3.824 0 017 8.398a3.827 3.827 0 01-2.286-.746.596.596 0 00-.46-.111 4.485 4.485 0 00-3.127 1.968c-.143.206-.27.444-.365.667a.338.338 0 00.016.301c.127.222.286.445.429.635.222.302.46.571.73.825.222.223.476.429.73.635A7.19 7.19 0 006.985 14a7.192 7.192 0 004.318-1.429c.254-.19.508-.412.73-.635a7.323 7.323 0 001.159-1.46c.079-.095.095-.206.047-.302z" fill="#fff" fill-opacity=".7"/></svg>