<svg width="36" height="36" viewBox="0 0 36 36" fill="none" xmlns="http://www.w3.org/2000/svg">
<g clip-path="url(#clip0)">
<path d="M19.7428 0H16.2581C14.6597 0 13.3594 1.30036 13.3594 2.8987V6.33375H15.5064V2.8987C15.5064 2.48421 15.8436 2.14713 16.258 2.14713H19.7427C20.1572 2.14713 20.4943 2.48428 20.4943 2.8987V6.33375H22.6415V2.8987C22.6415 1.30036 21.3411 0 19.7428 0Z" fill="#EC824A"/>
<path d="M24.6567 8.48047H11.3437C10.2269 8.48047 9.31836 9.38905 9.31836 10.5058V29.1165C9.31836 30.2333 10.2269 31.1418 11.3437 31.1418H24.6567C25.7735 31.1418 26.682 30.2333 26.682 29.1165V10.5059C26.682 9.38905 25.7735 8.48047 24.6567 8.48047Z" fill="#EC824A"/>
<path d="M11.3428 33.2897C11.2618 33.2897 11.1815 33.2868 11.1016 33.2822V34.9268C11.1016 35.5196 11.5822 36.0003 12.1751 36.0003C12.768 36.0003 13.2486 35.5196 13.2486 34.9268V33.2897H11.3428Z" fill="#EC824A"/>
<path d="M24.6559 33.2897H22.75V34.9268C22.75 35.5196 23.2307 36.0003 23.8235 36.0003C24.4164 36.0003 24.8971 35.5196 24.8971 34.9268V33.2822C24.8172 33.2869 24.7369 33.2897 24.6559 33.2897Z" fill="#EC824A"/>
</g>
<defs>
<clipPath id="clip0">
<rect width="36" height="36" fill="white"/>
</clipPath>
</defs>
</svg>
