<svg width="12" height="12" viewBox="0 0 12 12" fill="none" xmlns="http://www.w3.org/2000/svg">
<path d="M6.66294 6.00003L11.8627 0.800232C12.0458 0.617162 12.0458 0.320349 11.8627 0.137303C11.6796 -0.0457441 11.3828 -0.0457676 11.1998 0.137303L5.99999 5.3371L0.80023 0.137303C0.61716 -0.0457676 0.320349 -0.0457676 0.137302 0.137303C-0.045744 0.320373 -0.0457674 0.617185 0.137302 0.800232L5.33706 6L0.137302 11.1998C-0.0457674 11.3829 -0.0457674 11.6797 0.137302 11.8627C0.228825 11.9543 0.348802 12 0.468778 12C0.588754 12 0.708707 11.9543 0.800254 11.8627L5.99999 6.66296L11.1997 11.8627C11.2913 11.9543 11.4112 12 11.5312 12C11.6512 12 11.7712 11.9543 11.8627 11.8627C12.0458 11.6797 12.0458 11.3828 11.8627 11.1998L6.66294 6.00003Z" fill="#B9B9B9"/>
</svg>
