<svg width="35" height="35" viewBox="0 0 35 35" fill="none" xmlns="http://www.w3.org/2000/svg">
<path d="M17.5004 34.4535C17.3553 34.4535 17.2163 34.3958 17.1137 34.2933L11.645 28.8245C11.2524 28.4319 11.0318 27.8994 11.0318 27.3441C11.0318 26.7889 11.2524 26.2564 11.645 25.8637C12.0376 25.4711 12.5701 25.2505 13.1254 25.2505C13.6806 25.2505 14.2131 25.4711 14.6058 25.8637L15.3129 26.5708V19.6879H8.4299L9.13701 20.395C9.52964 20.7876 9.75021 21.3201 9.75021 21.8754C9.75021 22.4306 9.52964 22.9631 9.13701 23.3558C8.94261 23.5502 8.71181 23.7044 8.4578 23.8096C8.2038 23.9148 7.93156 23.969 7.65662 23.969C7.10137 23.969 6.56885 23.7484 6.17623 23.3558L0.707481 17.887C0.604958 17.7845 0.547363 17.6454 0.547363 17.5004C0.547363 17.3554 0.604958 17.2163 0.707481 17.1137L6.17623 11.645C6.56885 11.2524 7.10137 11.0318 7.65662 11.0318C8.21188 11.0318 8.74439 11.2524 9.13701 11.645C9.52964 12.0376 9.75021 12.5701 9.75021 13.1254C9.75021 13.6806 9.52964 14.2131 9.13701 14.6058L8.4299 15.3129H15.3129V8.4299L14.6058 9.13701C14.2131 9.52964 13.6806 9.75021 13.1254 9.75021C12.5701 9.75021 12.0376 9.52964 11.645 9.13701C11.2524 8.74439 11.0318 8.21188 11.0318 7.65662C11.0318 7.10137 11.2524 6.56885 11.645 6.17623L17.1137 0.707481C17.2163 0.604958 17.3554 0.547363 17.5004 0.547363C17.6454 0.547363 17.7845 0.604958 17.887 0.707481L23.3558 6.17623C23.7484 6.56885 23.969 7.10137 23.969 7.65662C23.969 8.21188 23.7484 8.74439 23.3558 9.13701C22.9631 9.52964 22.4306 9.75021 21.8754 9.75021C21.3201 9.75021 20.7876 9.52964 20.395 9.13701L19.6879 8.4299V15.3129H26.5708L25.8637 14.6058C25.4711 14.2131 25.2505 13.6806 25.2505 13.1254C25.2505 12.5701 25.4711 12.0376 25.8637 11.645C26.2564 11.2524 26.7889 11.0318 27.3441 11.0318C27.8994 11.0318 28.4319 11.2524 28.8245 11.645L34.2933 17.1137C34.3958 17.2163 34.4534 17.3554 34.4534 17.5004C34.4534 17.6454 34.3958 17.7845 34.2933 17.887L28.8245 23.3558C28.4319 23.7484 27.8994 23.969 27.3441 23.969C26.7889 23.969 26.2564 23.7484 25.8637 23.3558C25.4711 22.9631 25.2505 22.4306 25.2505 21.8754C25.2505 21.3201 25.4711 20.7876 25.8637 20.395L26.5708 19.6879H19.6879V26.5708L20.395 25.8637C20.7876 25.4711 21.3201 25.2505 21.8754 25.2505C22.4306 25.2505 22.9631 25.4711 23.3558 25.8637C23.7484 26.2564 23.969 26.7889 23.969 27.3441C23.969 27.8994 23.7484 28.4319 23.3558 28.8245L17.887 34.2933C17.7845 34.3958 17.6454 34.4535 17.5004 34.4535ZM13.1254 26.3444C12.9276 26.3443 12.7342 26.4029 12.5697 26.5128C12.4053 26.6226 12.2771 26.7788 12.2014 26.9615C12.1257 27.1442 12.1059 27.3453 12.1445 27.5393C12.1831 27.7333 12.2784 27.9114 12.4183 28.0512L17.5004 33.1333L22.5825 28.0512C22.7634 27.8624 22.8632 27.6101 22.8604 27.3486C22.8575 27.087 22.7524 26.837 22.5675 26.652C22.3825 26.4671 22.1325 26.3619 21.8709 26.3591C21.6094 26.3563 21.3571 26.4561 21.1683 26.637L19.5276 28.2776C19.4512 28.3541 19.3537 28.4062 19.2477 28.4273C19.1416 28.4483 19.0316 28.4375 18.9317 28.3961C18.8318 28.3548 18.7464 28.2847 18.6863 28.1948C18.6262 28.1049 18.5941 27.9991 18.5941 27.891V19.141C18.5941 18.996 18.6517 18.8569 18.7543 18.7543C18.8569 18.6517 18.996 18.5941 19.141 18.5941H27.891C27.9991 18.5941 28.1049 18.6262 28.1948 18.6863C28.2847 18.7464 28.3548 18.8318 28.3961 18.9317C28.4375 19.0316 28.4483 19.1416 28.4273 19.2477C28.4062 19.3537 28.3541 19.4512 28.2776 19.5276L26.637 21.1683C26.4561 21.3571 26.3563 21.6094 26.3591 21.8709C26.3619 22.1325 26.4671 22.3825 26.652 22.5675C26.837 22.7524 27.087 22.8575 27.3486 22.8604C27.6101 22.8632 27.8624 22.7634 28.0512 22.5825L33.1333 17.5004L28.0512 12.4183C27.8624 12.2373 27.6101 12.1376 27.3486 12.1404C27.087 12.1432 26.837 12.2483 26.652 12.4333C26.4671 12.6182 26.3619 12.8683 26.3591 13.1298C26.3563 13.3914 26.4561 13.6436 26.637 13.8325L28.2776 15.4731C28.3541 15.5496 28.4062 15.647 28.4273 15.7531C28.4483 15.8592 28.4375 15.9691 28.3961 16.069C28.3548 16.1689 28.2847 16.2543 28.1948 16.3144C28.1049 16.3745 27.9991 16.4066 27.891 16.4066H19.141C18.996 16.4066 18.8569 16.349 18.7543 16.2464C18.6517 16.1439 18.5941 16.0048 18.5941 15.8597V7.10975C18.5941 7.0016 18.6262 6.89589 18.6863 6.80598C18.7464 6.71607 18.8318 6.64599 18.9317 6.60461C19.0316 6.56323 19.1416 6.5524 19.2477 6.57349C19.3537 6.59458 19.4512 6.64665 19.5276 6.72311L21.1683 8.36373C21.3571 8.54467 21.6094 8.64442 21.8709 8.64161C22.1325 8.6388 22.3825 8.53365 22.5675 8.3487C22.7524 8.16375 22.8575 7.91372 22.8604 7.65217C22.8632 7.39063 22.7634 7.13839 22.5825 6.94951L17.5004 1.8674L12.4183 6.94951C12.2373 7.13839 12.1376 7.39063 12.1404 7.65217C12.1432 7.91372 12.2483 8.16375 12.4333 8.3487C12.6182 8.53365 12.8683 8.6388 13.1298 8.64161C13.3914 8.64442 13.6436 8.54467 13.8325 8.36373L15.4731 6.72311C15.5496 6.64665 15.647 6.59458 15.7531 6.57349C15.8592 6.5524 15.9691 6.56323 16.069 6.60461C16.1689 6.64599 16.2543 6.71607 16.3144 6.80598C16.3745 6.89589 16.4066 7.0016 16.4066 7.10975V15.8597C16.4066 16.0048 16.349 16.1439 16.2464 16.2464C16.1439 16.349 16.0048 16.4066 15.8597 16.4066H7.10975C7.0016 16.4066 6.89589 16.3745 6.80598 16.3144C6.71607 16.2543 6.64599 16.1689 6.60461 16.069C6.56323 15.9691 6.5524 15.8592 6.57349 15.7531C6.59458 15.647 6.64665 15.5496 6.72311 15.4731L8.36373 13.8325C8.54467 13.6436 8.64442 13.3914 8.64161 13.1298C8.6388 12.8683 8.53365 12.6182 8.3487 12.4333C8.16375 12.2483 7.91372 12.1432 7.65217 12.1404C7.39063 12.1376 7.13839 12.2373 6.94951 12.4183L1.8674 17.5004L6.94951 22.5825C7.13839 22.7634 7.39063 22.8632 7.65217 22.8604C7.91372 22.8575 8.16375 22.7524 8.3487 22.5675C8.53365 22.3825 8.6388 22.1325 8.64161 21.8709C8.64442 21.6094 8.54467 21.3571 8.36373 21.1683L6.72311 19.5276C6.64665 19.4512 6.59458 19.3537 6.57349 19.2477C6.5524 19.1416 6.56323 19.0316 6.60461 18.9317C6.64599 18.8318 6.71607 18.7464 6.80598 18.6863C6.89589 18.6262 7.0016 18.5941 7.10975 18.5941H15.8597C16.0048 18.5941 16.1439 18.6517 16.2464 18.7543C16.349 18.8569 16.4066 18.996 16.4066 19.141V27.891C16.4066 27.9991 16.3745 28.1049 16.3144 28.1948C16.2543 28.2847 16.1689 28.3548 16.069 28.3961C15.9691 28.4375 15.8592 28.4483 15.7531 28.4273C15.647 28.4062 15.5496 28.3541 15.4731 28.2776L13.8325 26.637C13.7397 26.5441 13.6294 26.4705 13.5081 26.4203C13.3867 26.3701 13.2567 26.3443 13.1254 26.3444Z" fill="white"/>
</svg>
