<svg width="9" height="9" viewBox="0 0 9 9" fill="none" xmlns="http://www.w3.org/2000/svg">
<path d="M8.54997 4.05H4.95003V0.449973C4.95003 0.201627 4.7484 0 4.49997 0C4.25163 0 4.05 0.201627 4.05 0.449973V4.05H0.449973C0.201627 4.05 0 4.25163 0 4.49997C0 4.7484 0.201627 4.95003 0.449973 4.95003H4.05V8.54997C4.05 8.7984 4.25163 9.00003 4.49997 9.00003C4.7484 9.00003 4.95003 8.7984 4.95003 8.54997V4.95003H8.54997C8.7984 4.95003 9.00003 4.7484 9.00003 4.49997C9.00003 4.25163 8.7984 4.05 8.54997 4.05Z" fill="#B9B9B9"/>
</svg>
