<svg width="28" height="36" viewBox="0 0 28 36" fill="none" xmlns="http://www.w3.org/2000/svg">
<path d="M14.0007 0C6.81163 0 0.962891 5.84873 0.962891 13.0378C0.962891 21.9596 12.6305 35.0573 13.1272 35.6105C13.5938 36.1302 14.4085 36.1293 14.8742 35.6105C15.371 35.0573 27.0386 21.9596 27.0386 13.0378C27.0384 5.84873 21.1898 0 14.0007 0ZM14.0007 19.5974C10.3837 19.5974 7.44113 16.6548 7.44113 13.0378C7.44113 9.42075 10.3838 6.47817 14.0007 6.47817C17.6177 6.47817 20.5602 9.42082 20.5602 13.0378C20.5602 16.6549 17.6177 19.5974 14.0007 19.5974Z" fill="#EC824A"/>
</svg>
