<svg id="Capa_1" enable-background="new 0 0 512 512" height="512" viewBox="0 0 512 512" width="512" xmlns="http://www.w3.org/2000/svg"><g><path d="m294.454 244.414c1.428 1.269 3.206 1.892 4.977 1.892 2.069 0 4.129-.852 5.611-2.521 13.245-14.916 20.54-34.101 20.54-54.018 0-44.902-36.531-81.434-81.434-81.434s-81.434 36.531-81.434 81.434c0 19.918 7.294 39.102 20.54 54.018 2.75 3.1 7.491 3.379 10.588.629 3.097-2.751 3.378-7.491.628-10.588-10.805-12.169-16.756-27.815-16.756-44.059 0-36.632 29.802-66.434 66.434-66.434s66.434 29.802 66.434 66.434c0 16.242-5.951 31.89-16.757 44.059-2.75 3.097-2.469 7.837.629 10.588z"/><path d="m283.923 202.126c.302.036.602.054.899.054 3.744 0 6.982-2.801 7.438-6.611.229-1.916.345-3.867.345-5.801 0-26.719-21.737-48.456-48.457-48.456-26.719 0-48.456 21.737-48.456 48.456 0 1.822.103 3.659.305 5.459.462 4.116 4.176 7.072 8.291 6.615 4.116-.463 7.078-4.175 6.616-8.291-.14-1.245-.211-2.519-.211-3.783 0-18.447 15.008-33.456 33.456-33.456s33.457 15.009 33.457 33.456c0 1.341-.08 2.693-.239 4.021-.493 4.113 2.443 7.846 6.556 8.337z"/><path d="m220.532 15h119.811c16.136 0 29.264 13.128 29.264 29.264v133.056c0 4.143 3.357 7.5 7.5 7.5s7.5-3.357 7.5-7.5v-133.056c-.001-24.408-19.857-44.264-44.264-44.264h-119.811c-4.142 0-7.5 3.357-7.5 7.5s3.358 7.5 7.5 7.5z"/><path d="m212.519 44.411h49.019c4.143 0 7.5-3.357 7.5-7.5s-3.357-7.5-7.5-7.5h-49.019c-4.142 0-7.5 3.357-7.5 7.5s3.357 7.5 7.5 7.5z"/><path d="m293.54 36.91c0-4.142-3.358-7.5-7.5-7.5s-7.5 3.358-7.5 7.5c0 4.143 3.358 7.5 7.5 7.5s7.5-3.358 7.5-7.5z"/><path d="m386.811 449.915h-4.491c.771-9.733 4.145-18.998 9.876-27.015 8.558-11.972 12.809-26.493 12.809-41.209v-54.81c0-12.946-8.604-23.92-20.397-27.522v-86.174c0-4.107-3.165-7.688-7.27-7.811-4.247-.127-7.73 3.278-7.73 7.497v86.006c-3.199.752-6.193 2.038-8.884 3.759-4.075-11.451-15.129-19.686-28.099-19.686-6.319 0-12.186 1.954-17.011 5.282-4.447-10.724-15.131-18.296-27.571-18.296-5.004 0-9.785 1.243-13.998 3.465v-53.508c0-16.217-13.358-29.41-29.779-29.41-16.42 0-29.779 13.193-29.779 29.41v76.422h-3.311c-19.29 0-34.928 15.638-34.928 34.928v21.527c0 4.107 3.164 7.688 7.269 7.811 4.247.128 7.731-3.277 7.731-7.497v-21.841c0-11.006 8.922-19.929 19.929-19.929h3.311v49.242c0 4.107 3.164 7.688 7.269 7.811 4.247.128 7.731-3.277 7.731-7.497v-140.975c0-7.945 6.63-14.41 14.779-14.41s14.779 6.465 14.779 14.41v110.652c0 4.107 3.165 7.688 7.27 7.811 4.247.127 7.73-3.278 7.73-7.497v-31.559c-.074-6.972 6.13-14.424 13.998-14.364 8.149 0 14.779 6.465 14.779 14.42.001 7.572.081 23.744.102 31.528.014 4.134 3.369 7.475 7.499 7.475h.026c4.138 0 7.489-3.362 7.475-7.5l-.064-18.78c.156-7.815 6.713-14.129 14.765-14.129 8.149 0 14.779 6.465 14.779 14.41v18.32c0 4.107 3.165 7.688 7.27 7.811 4.247.127 7.73-3.278 7.73-7.497-1.326-8.211 4.17-17.772 13.8-17.888 7.609 0 13.801 6.179 13.801 13.774v56.01c0 11.315-3.636 22.288-10.178 31.52-7.459 10.525-11.743 22.717-12.533 35.503h-125.447c-1.862-13.862-11.34-27.558-23.665-35.39-10.112-7.383-17.858-17.435-22.42-29.088-1.496-3.821-5.669-6.07-9.551-4.741-4.048 1.386-6.101 5.838-4.578 9.794 5.582 14.492 15.162 26.993 27.703 36.15 7.877 4.846 15.158 13.442 17.266 23.274h-3.791c-9.106 0-16.889 5.7-20.018 13.712h-54.841c-16.162 0-29.264-13.102-29.264-29.264v-390.1c0-16.162 13.102-29.264 29.264-29.264h38.307c4.107 0 7.688-3.165 7.811-7.27.127-4.247-3.278-7.73-7.497-7.73h-38.622c-24.446 0-44.264 19.818-44.264 44.264v390.1c0 24.446 19.818 44.264 44.264 44.264h53.359v11.874c0 11.874 9.626 21.5 21.5 21.5h86.874c4.107 0 7.688-3.165 7.811-7.27.127-4.247-3.278-7.73-7.497-7.73h-87.188c-3.59 0-6.5-2.91-6.5-6.5v-19.085c0-3.59 2.91-6.5 6.5-6.5h163.999c3.59 0 6.5 2.91 6.5 6.5v19.085c0 3.59-2.91 6.5-6.5 6.5h-41.497c-4.107 0-7.688 3.165-7.811 7.27-.127 4.247 3.278 7.73 7.497 7.73h41.811c11.874 0 21.5-9.626 21.5-21.5v-19.085c.001-11.874-9.625-21.5-21.499-21.5z"/></g></svg>