<!-- Generated by IcoMoon.io -->
<svg version="1.1" xmlns="http://www.w3.org/2000/svg" width="56" height="32" viewBox="0 0 56 32">
<title>visa</title>
<path fill="#f8f8f8" d="M55.813 30.297c0 0.943-0.828 1.703-1.856 1.703h-52.101c-1.028 0-1.857-0.76-1.857-1.703v-28.595c0-0.943 0.828-1.703 1.857-1.703h52.101c1.027 0 1.856 0.76 1.856 1.703v28.595z"></path>
<path fill="#434c9e" d="M25.686 20.811h-2.727l1.71-9.612h2.727l-1.709 9.612zM20.662 11.199l-2.59 6.611-0.315-1.424-0.913-4.32s-0.115-0.866-1.3-0.866h-4.29l-0.052 0.164s1.31 0.25 2.852 1.097l2.37 8.351h2.843l4.331-9.612h-2.937zM42.108 20.811h2.506l-2.182-9.612h-2.192c-1.017 0-1.258 0.722-1.258 0.722l-4.070 8.89h2.843l0.566-1.433h3.471l0.315 1.433zM39.108 17.415l1.436-3.599 0.808 3.599h-2.244zM35.137 13.508l0.388-2.059s-1.206-0.423-2.454-0.423c-1.353 0-4.572 0.548-4.572 3.185 0 2.483 3.775 2.512 3.775 3.82 0 1.299-3.388 1.067-4.499 0.24l-0.409 2.166s1.218 0.539 3.084 0.539c1.856 0 4.666-0.886 4.666-3.292 0-2.492-3.806-2.732-3.806-3.82 0-1.078 2.654-0.943 3.828-0.356z"></path>
<path fill="#faa634" d="M17.756 16.386l-0.912-4.32s-0.115-0.866-1.3-0.866h-4.29l-0.052 0.164s2.066 0.394 4.048 1.866c1.888 1.405 2.506 3.156 2.506 3.156z"></path>
</svg>
