<?xml version="1.0" encoding="utf-8"?><svg xmlns="http://www.w3.org/2000/svg" width="32" height="32" viewBox="0 0 32 32"><path d="M30.933 5.867h-1.067v-1.6a.533.533 0 00-.533-.533h-3.2a.533.533 0 00-.533.533v1.6h-1.067A.533.533 0 0024 6.4v8.533h-.533v-1.6a.533.533 0 00-.533-.533h-.533v-.533a.533.533 0 10-1.066 0v.533h-.533a.533.533 0 00-.533.533v1.6h-1.6V4.266a.533.533 0 00-.533-.533h-1.6v-3.2A.533.533 0 0016.003 0h-6.4a.533.533 0 00-.533.533v3.2h-1.6a.533.533 0 00-.533.533v13.867H5.87v-1.6A.533.533 0 005.337 16h-3.2a.533.533 0 00-.533.533v1.6h-.533a.533.533 0 00-.533.533v12.8c0 .295.239.533.533.533h29.867a.533.533 0 00.533-.533V6.399a.533.533 0 00-.533-.533zM15.467 6.4a.533.533 0 111.066 0v8.533h-1.067V6.4zm-2.133-3.733a.533.533 0 111.066 0v1.6a.533.533 0 11-1.066 0v-1.6zm0 3.733a.533.533 0 111.066 0v8.533h-1.067V6.4zM11.2 2.667a.533.533 0 111.066 0v1.6a.533.533 0 11-1.066 0v-1.6zM9.067 6.4a.533.533 0 111.066 0v11.733H9.066V6.4zM11.2 29.867H9.6a.533.533 0 110-1.066h1.6v1.067zm0-2.134H9.6a.533.533 0 110-1.066h1.6v1.067zm0-2.133H9.6a.533.533 0 110-1.066h1.6v1.067zm0-2.133H9.6a.533.533 0 110-1.066h1.6v1.067zm0-3.2H7.467a.533.533 0 00-.533.533v10.133H1.601V19.2h9.6v1.067zm0-4.8V6.4a.533.533 0 111.066 0v8.533h-.533a.533.533 0 00-.533.533zM24 30.933h-1.067V17.6a.533.533 0 10-1.066 0v13.333H20.8V17.6a.533.533 0 10-1.066 0v13.333h-1.067V17.6a.533.533 0 10-1.066 0v13.333h-1.067V17.6a.533.533 0 10-1.066 0v13.333h-1.067V17.6a.533.533 0 10-1.066 0v13.333h-1.067V16h11.733v14.933zm3.2-2.029a.533.533 0 11-1.066 0v-1.067a.533.533 0 111.066 0v1.067zm0-3.2a.533.533 0 11-1.066 0v-1.067a.533.533 0 111.066 0v1.067zm0-3.2a.533.533 0 11-1.066 0v-1.067a.533.533 0 111.066 0v1.067zm0-3.2a.533.533 0 11-1.066 0v-1.067a.533.533 0 111.066 0v1.067zm0-3.2a.533.533 0 11-1.066 0v-1.067a.533.533 0 111.066 0v1.067zm0-3.2a.533.533 0 11-1.066 0v-1.067a.533.533 0 111.066 0v1.067zm0-3.2a.533.533 0 11-1.066 0V8.637a.533.533 0 111.066 0v1.067zm2.134 19.2a.533.533 0 11-1.066 0v-1.067a.533.533 0 111.066 0v1.067zm0-3.2a.533.533 0 11-1.066 0v-1.067a.533.533 0 111.066 0v1.067zm0-3.2a.533.533 0 11-1.066 0v-1.067a.533.533 0 111.066 0v1.067zm0-3.2a.533.533 0 11-1.066 0v-1.067a.533.533 0 111.066 0v1.067zm0-3.2a.533.533 0 11-1.066 0v-1.067a.533.533 0 111.066 0v1.067zm0-3.2a.533.533 0 11-1.066 0v-1.067a.533.533 0 111.066 0v1.067zm0-3.2a.533.533 0 11-1.066 0V8.637a.533.533 0 111.066 0v1.067z"/></svg>