<?xml version="1.0" encoding="utf-8"?><svg xmlns="http://www.w3.org/2000/svg" width="32" height="32" viewBox="0 0 32 32"><path d="M14.649 6.309a3.154 3.154 0 100-6.308 3.154 3.154 0 100 6.308zm4.873 17.867c-.866 2.935-3.535 5.042-6.697 5.047h-.001a6.98 6.98 0 01-6.971-6.971 6.97 6.97 0 014.167-6.377v-2.96c-4.046 1.249-6.937 4.952-6.944 9.332v.001c.004 5.383 4.366 9.747 9.748 9.753h.001a9.757 9.757 0 008.821-5.609l.025-.06-1.102-2.165-1.047.009z"/><path d="M28.711 27.92l-4.224-8.304a1.852 1.852 0 00-1.649-1.013H17.427v-1.234h4.656a1.363 1.363 0 001.106-.59l.003-.005c.169-.218.274-.494.281-.794v-.002a1.389 1.389 0 00-1.39-1.387h-4.656v-4.183c0-1.152-.853-2.779-2.777-2.779a2.779 2.779 0 00-2.777 2.777v9.067a2.834 2.834 0 002.834 2.834h6.994l3.71 7.291a1.85 1.85 0 103.295-1.687l.005.01z"/></svg>