<?xml version="1.0" encoding="utf-8"?><svg xmlns="http://www.w3.org/2000/svg" width="42" height="32" viewBox="0 0 42 32"><path d="M38.169.062H3.678A3.685 3.685 0 000 3.742v24.517a3.685 3.685 0 003.678 3.68h34.491a3.687 3.687 0 003.678-3.68V3.742a3.685 3.685 0 00-3.678-3.68zm-.51 2.451L21.002 19.175 4.197 2.513h33.465zM2.452 27.751V4.236L14.26 15.943 2.452 27.751zm1.733 1.736L16 17.672l4.143 4.103a1.221 1.221 0 001.728-.005l4.037-4.037 11.754 11.756H4.185zm35.209-1.736L27.643 16 39.394 4.249v23.503z"/></svg>