<?xml version="1.0" encoding="utf-8"?><svg xmlns="http://www.w3.org/2000/svg" width="55" height="32" viewBox="0 0 55 32"><path fill="#f8f8f8" d="M54.913 29.963c0 .921-.82 1.673-1.824 1.673H2.192c-1.004 0-1.825-.752-1.825-1.673V2.036c0-.921.82-1.673 1.825-1.673h50.897c1.004 0 1.824.752 1.824 1.673v27.927z"/><path fill="#fbb230" d="M34.183 24.972l.503-.009.503-.028.492-.065.481-.076.472-.103.471-.112.451-.151.451-.159.429-.179.42-.198.41-.216.4-.235.389-.253.369-.264.348-.281.348-.302.318-.31.308-.329.297-.339.276-.347.246-.367.247-.375.204-.385.205-.404.175-.404.154-.423.133-.423.112-.433.082-.451.062-.441.041-.461.009-.46-.009-.461-.041-.46-.062-.442-.082-.441-.112-.433-.133-.422-.154-.424-.175-.404-.205-.395-.204-.385-.247-.376-.246-.367-.276-.348-.297-.338-.308-.329-.318-.31-.348-.292-.348-.282-.369-.272-.389-.245-.4-.235-.41-.216-.42-.198-.43-.178-.451-.16-.451-.14-.471-.122-.472-.103-.481-.076-.492-.057-.503-.038-.502-.009-.502.009-.492.038-.492.057-.481.076-.472.103-.471.122-.452.141-.441.159-.431.178-.42.198-.41.216-.4.235-.378.245-.37.272-.358.282-.337.291-.329.311-.297.329-.298.338-.265.348-.257.367-.235.376-.216.385-.194.395-.175.404-.153.423-.134.423-.113.433-.081.441-.062.442-.041.46-.01.461.01.46.041.461.062.441.081.451.113.433.133.423.153.422.175.405.194.404.216.385.235.375.257.367.266.347.297.339.297.329.329.311.337.301.358.281.37.264.378.253.4.235.41.216.42.198.431.179.441.159.451.151.471.112.473.103.48.076.493.065.491.029.502.009z"/><path fill="#eb2230" d="M21.097 24.972l.502-.009.492-.028.492-.065.481-.076.472-.103.471-.112.451-.151.44-.159.431-.179.42-.198.409-.216.4-.235.378-.253.371-.264.358-.281.337-.302.329-.31.297-.329.297-.339.266-.347.256-.367.236-.375.215-.385.195-.404.175-.404.153-.423.134-.423.113-.433.081-.451.062-.441.041-.461.01-.46-.01-.461-.041-.46-.062-.442-.081-.441-.113-.433-.134-.422-.153-.424-.175-.404-.195-.395-.215-.385-.236-.376-.256-.367-.266-.348-.297-.338-.298-.329-.328-.31-.337-.292-.359-.282-.369-.272-.379-.245-.4-.235-.409-.216-.42-.198-.431-.178-.44-.16-.451-.14-.471-.122-.473-.103-.48-.076-.493-.057-.491-.038-.502-.009-.502.009-.503.038-.492.057-.481.076-.471.103-.473.122-.451.141-.451.159-.429.178-.42.198-.41.216-.4.235-.389.245-.369.272-.348.282-.348.291-.318.311-.308.329-.297.338-.276.348-.246.367-.247.376-.204.385-.206.395-.175.404-.153.423-.135.423-.102.433-.092.441-.061.442-.041.46-.009.461.009.46.041.461.061.441.092.451.102.433.134.423.153.422.175.405.205.404.204.385.247.375.246.367.276.347.297.339.308.329.318.311.348.301.348.281.369.264.39.253.399.235.41.216.42.198.431.179.451.159.451.151.472.112.471.103.481.076.492.065.503.029.502.009z"/><path fill="#fbb230" d="M26.499 10.468h5.196v-.489H26.95l-.451.489zm-.781 1.081h5.975v-.489h-5.667l-.308.489zm-.581 1.081h6.559v-.489h-6.323l-.236.489zm-.403 1.081h6.959v-.479h-6.794l-.164.479zm.238 5.244h6.743v-.488h-6.906l.163.488zm.491 1.082h6.251v-.489h-6.497l.246.489zm.706 1.081h5.544v-.489h-5.882l.338.489zm.963 1.081h4.58v-.489H26.66l.471.489zm-2.633-7.407h7.193v-.48h-7.091l-.102.48zm4.387 3.083h2.747v-.489h-2.644l-.103.489zm.215-1.08h2.531v-.489h-2.428l-.103.489zm-4.787-.49h.717v.489h-.676l-.041-.489zm18.734 4.738c.256 0 .461.197.461.423 0 .236-.205.423-.461.423s-.461-.188-.461-.423c0-.225.204-.422.461-.422zm0 .075c.215 0 .389.16.389.347 0 .199-.174.358-.389.358-.205 0-.38-.16-.38-.358 0-.187.175-.347.38-.347z"/><path fill="#fbb230" d="M42.874 21.653v-.356h.163c.041 0 .071 0 .092.01a.126.126 0 01.04.028c.01.019.02.038.02.056 0 .028-.01.056-.02.065a.222.222 0 01-.081.037h-.001c.021.01.031.02.042.029.009.009.031.028.04.055l.051.075h-.091l-.063-.084c-.011-.028-.03-.036-.041-.047 0-.009-.01-.009-.02-.018h-.051v.149h-.081zm.081-.207h.052c.04 0 .061 0 .071-.009.009 0 .021 0 .021-.009.009-.009.009-.019.009-.028s0-.019-.009-.028c-.012-.01-.021-.01-.031-.019h-.113v.093z"/><path fill="#fff" d="M42.944 17.509c-.257 0-.46.188-.46.424 0 .234.204.422.46.422s.46-.188.46-.423-.204-.423-.46-.423zm0 .075c.215 0 .389.16.389.348 0 .197-.173.356-.389.356s-.389-.159-.389-.356c0-.188.173-.348.389-.348z"/><path fill="#fff" d="M42.769 18.109v-.347h.164l.022-.001c.025 0 .049.004.072.011h-.002c.01 0 .029.019.04.028a.118.118 0 01.02.055v.003a.08.08 0 01-.03.062c-.01.018-.041.028-.071.038.01.009.031.018.041.028s.02.028.04.056l.052.065h-.092l-.061-.075c-.02-.028-.031-.047-.041-.047-.009-.009-.009-.019-.02-.019h-.061v.14h-.072zm.072-.196h.061c.041 0 .061 0 .071-.01.01 0 .02-.009.02-.009.011-.009.011-.018.011-.028a.088.088 0 00-.011-.028c-.01-.009-.02-.019-.031-.019h-.122v.095zM36.356 18.176l.665-3.196h.83l.103.329c.153-.142.409-.329.922-.329l-.257.847c-.225 0-.575-.038-.86.582-.215.471-.318 1.251-.431 1.767h-.973zm-12.563-3.995h.921l-.205.846h.513l-.153.657h-.461l-.256 1.269c-.051.236 0 .471.512.376l-.102.705c-.553.385-1.661.103-1.487-.846l.718-3.008zm4.108 2.584c.102-.516.359-1.785-1.291-1.785-1.537 0-1.742 1.409-1.742 1.597-.051.188-.051 1.598 1.588 1.598.409 0 .984-.047 1.24-.14l.153-.658c-.153.047-.676.095-1.085.095-.359 0-.974 0-.871-.705h2.008zm-11.178 1.411l.82-3.855h-1.599l-1.127 2.351-.205-2.351h-1.486l-.82 3.855h.922l.616-2.773.256 2.772h.871l1.331-2.726-.563 2.726h.984zm1.075-3.102l-.153.705c.256 0 .871-.095 1.178-.095s.717-.047.564.423c-.256 0-1.947-.235-2.204 1.127-.143.903 1.025 1.232 1.743.8l.103.187h.871l.359-1.738c.378-1.57-1.271-1.599-2.46-1.411zm15.258.282c-.236-.131-.38-.131-.676-.131-.287 0-.964.263-1.056.967-.144.884.481 1.279 1.393 1.015l.247.753c-1.558.714-3.044-.396-2.553-2.125.4-1.306 2.286-2.095 3.229-1.015l-.584.535z"/><path fill="#fff" d="M41.183 15.356c-2.511-1.729-3.484 2.82-1.537 2.82.308 0 .616-.14.82-.235l.102.235h1.025l.82-4.042h-.974l-.256 1.223zm-7.39-.282l-.153.705c.255 0 .871-.095 1.177-.095s.666-.047.564.423c-.256 0-1.948-.235-2.204 1.127-.103.658.513.987.975.987.46 0 .614-.094.767-.188l.102.188h.873l.358-1.738c.39-1.57-1.26-1.599-2.46-1.411z"/><path fill="#eb2230" d="M25.895 16.155h1.178c.133-.855-.983-.686-1.178 0zm-6.661.61c-.154 0-.513-.093-.82.095s-.41.516-.051.611c.307.094.717-.095.82-.376l.052-.329z"/><path fill="#fbb230" d="M40.722 15.873c-.307-.377-.973-.094-1.178.611-.153.47.154.799.461.799.646 0 1.035-.968.717-1.41zm-5.441.892c-.153 0-.512-.093-.82.095s-.409.516-.051.611c.307.094.769-.095.82-.376l.051-.329z"/><path fill="#fff" d="M27.902 18.223l.052-.329.615-2.867h.82l.102.329c.154-.141.411-.329.924-.329l-.257.846c-.195 0-.605-.038-.913.714-.175.433-.276 1.166-.369 1.636h-.973zm-4.957-2.425h-.081l-.041-.009-.041-.009h-.041l-.041-.01a3.082 3.082 0 00-.53-.018h.007c-.471.036-.676.309-.276.516.317.169.564.141.778.329.461.394.225 1.156-.287 1.447l-.092.038-.102.038-.113.027-.102.029c-.493.075-1.159.056-1.641-.095l.133-.63c.389.075 1.025.235 1.322.048.338-.207.031-.452-.216-.555l-.122-.038-.122-.047c-.975-.405-.748-1.486.173-1.711a4.057 4.057 0 011.118-.047h.071c.092.009.175.018.256.036h.041l.031.01h.031l.02.009h.031l-.164.64z"/></svg>