<svg width="75" height="43" viewBox="0 0 75 43" fill="none" xmlns="http://www.w3.org/2000/svg"><path fill-rule="evenodd" clip-rule="evenodd" d="M75 40.712C75 41.979 73.887 43 72.505 43H2.494C1.114 43 0 41.979 0 40.712V2.289C0 1.02 1.113 0 2.494 0h70.011C73.887 0 75 1.021 75 2.289v38.423z" fill="#F8F8F8"/><path d="M17.612 15C16.168 15 15 16.076 15 17.403v10.194C15 28.924 16.168 30 17.612 30h11.081c1.443 0 2.61-1.076 2.61-2.403v-.104c-.048-.019-4.236-1.626-6.366-2.568-1.436 1.626-3.288 2.613-5.212 2.613-3.253 0-4.357-2.62-2.817-4.343.336-.376.907-.735 1.794-.936 1.387-.314 3.594.195 5.663.824.372-.631.685-1.326.919-2.065h-6.376v-.594h3.287v-1.066h-3.982v-.594h3.982v-1.52s0-.256.282-.256h1.607v1.776h3.936v.595h-3.936v1.065h3.213a11.55 11.55 0 01-1.36 3.161c.975.325 1.85.633 2.503.834 2.175.67 2.786.752 2.864.76v-7.775c0-1.328-1.168-2.404-2.611-2.404h-11.08zm1.788 8.127a6.02 6.02 0 00-.422.021c-.407.038-1.171.203-1.59.544-1.253 1.005-.503 2.843 2.034 2.843 1.474 0 2.947-.867 4.104-2.256-1.492-.67-2.777-1.166-4.126-1.152z" fill="#00A1E9"/><path d="M59.264 24.575l-.736 1.478-.746-1.478h-.73l1.136 2.043v1.425h.67v-1.425l.004-.008 1.13-2.035h-.728zm-5.386.894l.519 1.439H53.34l.537-1.439zm.679 1.876l.25.698h.7l-1.38-3.468h-.536l-1.377 3.468h.703l.26-.698h1.38zm-5.234-1.112h-.745v-1.186h.745c.374 0 .598.303.598.595 0 .287-.21.591-.598.591zm.038-1.658h-1.457v3.468h.674V26.71h.783c.727 0 1.235-.44 1.235-1.068 0-.628-.508-1.067-1.235-1.067zm-4.866 3.468h.675v-3.468h-.675v3.468zm-4.743-3.468v3.469h2.27v-.473h-1.596v-2.996h-.674zm-3.842.894l.519 1.439h-1.056l.537-1.439zm.679 1.876l.25.698h.7l-1.38-3.468h-.536l-1.376 3.468h.701l.261-.698h1.38zm4.747-9.55h-2.893v-.959h3.355v-.597h-3.355v-1.215h-1.495a.29.29 0 00-.296.284v.931H33.32v.598h3.332v.958H33.84v.597h5.6s-.311 1.12-1.846 2.325c-1.377-.963-1.837-1.73-1.837-1.73h-1.502c.607.973 1.471 1.754 2.401 2.373-.854.513-1.962 1.008-3.394 1.404v.715s2.21-.386 4.346-1.55a16.358 16.358 0 004.287 1.55v-.677c-1.375-.463-2.464-.972-3.32-1.463 1.24-.85 2.325-2.002 2.76-3.544zm9.396-2.651h-1.506v1.455h-3.711v.586h3.711v5.233a.251.251 0 01-.243.22h-.765v.605h1.951a.57.57 0 00.563-.542v-5.516h.611V16.6h-.61v-1.455zm-3.175 3.028a.34.34 0 00-.299-.176h-1.254l.977 2.847h1.485l-.909-2.67zm-3.706-3.097l-1.727 3.779h1.325v4.496h1.449v-5.964h-.525l1.09-2.311h-1.612zm16.801 8.07l-.529-1.655a.273.273 0 00-.261-.181h-1.403l.407 1.27h-1.65v-2.461h3.24v-.586h-3.24v-1.158h3.24v-.586h-8.083v.586h3.238v1.158h-3.238v.586h3.238v2.46h-3.238v.586h8.28l-.007-.02h.006zm-6.595-6.754h4.717v.864h1.685v-1.029a.432.432 0 00-.437-.42h-2.727V15h-1.763v.806h-3.16v1.45h1.685v-.865z" fill="#6A6A6A"/></svg>