<svg xmlns="http://www.w3.org/2000/svg" width="56" height="32" viewBox="0 0 56 32"><path fill="#f8f8f8" d="M51.628 0H2.791C1.395 0 0 1.28 0 2.56v25.6C0 30.72 1.395 32 4.186 32h47.442c2.791 0 4.186-1.28 4.186-3.84V3.84c0-2.56-1.395-3.84-4.186-3.84z"/><path fill="#357de9" d="M9.436 13.972l-.816-1.905-.811 1.905h1.628zm17.981-.759c-.164.096-.357.099-.589.099h-1.449v-1.061h1.468c.208 0 .424.009.565.086.156.07.252.218.252.422 0 .209-.092.377-.246.454.155-.077 0 0 0 0zm10.335.759l-.826-1.905-.82 1.905h1.646zm-19.266 2.062h-1.222l-.004-3.742-1.729 3.742h-1.047l-1.734-3.745v3.745h-2.425l-.459-1.066H7.383l-.461 1.066H5.627l2.136-4.778h1.771l2.028 4.523v-4.523h1.947l1.561 3.241 1.434-3.241h1.984v4.778zm4.873 0h-3.984v-4.778h3.984v.995h-2.791v.861h2.724v.979h-2.724v.954h2.791v.988zm5.617-3.491v.024c0 .562-.344 1.043-.832 1.245l-.009.003c.262.095.485.263.591.402.169.238.198.45.198.877v.938h-1.203l-.004-.602c0-.287.028-.701-.188-.93-.175-.168-.441-.205-.87-.205h-1.28v1.738h-1.193v-4.778h2.742c.61 0 1.06.016 1.444.229.378.214.604.525.604 1.057 0-.533 0 0 0 0zm1.908 3.491h-1.215v-4.778h1.215v4.778zm14.117 0h-1.689l-2.261-3.585v3.585h-2.429l-.464-1.066h-2.477l-.45 1.066h-1.396c-.58 0-1.313-.123-1.729-.528-.419-.406-.638-.956-.638-1.824 0-.708.13-1.356.643-1.868.386-.381.99-.557 1.811-.557h1.155v1.024h-1.131c-.435 0-.68.062-.917.283-.203.201-.342.581-.342 1.082 0 .512.106.881.327 1.122.184.189.516.246.831.246h.536l1.68-3.756h1.787l2.019 4.518v-4.518h1.816l2.096 3.326v-3.326h1.222v4.777zm-39.39.937h2.038l.459-1.06h1.028l.458 1.06h4.01v-.811l.357.815h2.082l.357-.826v.822h9.964l-.005-1.741h.192c.136.004.175.016.175.23v1.511h5.153v-.405c.415.213 1.063.405 1.913.405h2.169l.464-1.06h1.027l.455 1.06h4.177v-1.008l.633 1.008h3.349v-6.663h-3.313v.787l-.464-.787h-3.4v.787l-.426-.787h-4.592c-.769 0-1.444.103-1.991.389v-.389h-3.168v.389c-.346-.295-.82-.389-1.346-.389H15.789l-.778 1.721-.798-1.721h-3.646v.787l-.401-.787H7.057l-1.444 3.169v3.495zM48.03 20.49h-2.175c-.216 0-.36.007-.482.086-.127.077-.173.192-.173.343 0 .181.106.303.26.356.127.042.26.054.46.054l.646.016c.653.015 1.087.123 1.354.385.047.036.076.077.11.118v-1.36zm0 3.15c-.291.406-.856.61-1.62.61h-2.302v-1.024h2.294c.227 0 .386-.028.482-.118a.416.416 0 00.141-.312v-.012a.384.384 0 00-.146-.302l-.001-.001c-.086-.073-.212-.106-.42-.106-1.12-.036-2.517.034-2.517-1.479 0-.693.46-1.423 1.712-1.423h2.374v-.95h-2.206c-.667 0-1.15.153-1.493.39v-.39h-3.266c-.521 0-1.134.124-1.425.39v-.39h-5.829v.39c-.464-.32-1.246-.39-1.607-.39h-3.845v.39c-.366-.34-1.183-.39-1.68-.39h-4.304l-.984 1.02-.923-1.02h-6.428v6.667h6.308l1.014-1.037.956 1.037 3.888.004v-1.569h.381c.516.007 1.125-.013 1.662-.234v1.799h3.207v-1.738h.154c.198 0 .217.007.217.196v1.54h9.741c.619 0 1.265-.151 1.623-.426v.427h3.091c.642 0 1.27-.086 1.749-.307v-1.243zm-4.759-1.91c.233.23.357.521.357 1.012 0 1.028-.67 1.508-1.873 1.508h-2.324v-1.024h2.314c.225 0 .386-.028.487-.118a.412.412 0 00.141-.312v-.006a.404.404 0 00-.145-.309l-.001-.001c-.092-.073-.216-.106-.424-.106-1.116-.036-2.512.034-2.512-1.479 0-.693.454-1.423 1.704-1.423h2.391v1.017h-2.188c-.217 0-.357.007-.478.086-.13.077-.179.192-.179.344 0 .18.11.303.26.356.126.042.26.054.464.054l.642.016c.647.015 1.092.123 1.362.385-.27-.262 0 0 0 0zm-10.761-.295c-.159.091-.356.098-.588.098h-1.449V20.46h1.468c.213 0 .425.004.569.086.156.077.248.226.248.43s-.092.369-.248.458c.156-.089 0 0 0 0zm.72.595c.266.093.482.261.584.4.169.234.194.451.198.872v.947h-1.198v-.598c0-.288.03-.714-.191-.935-.175-.171-.441-.212-.876-.212h-1.274v1.745h-1.198v-4.778h2.753c.604 0 1.043.025 1.435.225.377.218.613.516.613 1.061v.026a1.34 1.34 0 01-.837 1.242l-.009.003c.315-.119 0 0 0 0zm1.507-2.558h3.98v.988h-2.793v.868h2.724v.975h-2.724v.951l2.792.004v.991h-3.98v-4.778zm-8.045 2.206H25.15v-1.217h1.555c.429 0 .729.168.729.586 0 .414-.285.631-.743.631zm-2.729 2.138l-1.831-1.947 1.831-1.884v3.831zm-4.729-.561h-2.931v-.952h2.618v-.975h-2.618v-.868h2.989l1.305 1.392-1.363 1.402zm9.481-2.209c0 1.328-1.034 1.602-2.076 1.602h-1.488v1.603h-2.317l-1.468-1.583-1.527 1.582h-4.723v-4.778h4.796l1.468 1.566 1.517-1.567h3.81c.947 0 2.011.251 2.011 1.574 0-1.323 0 0 0 0z"/></svg>