<svg width="75" height="43" viewBox="0 0 75 43" fill="none" xmlns="http://www.w3.org/2000/svg"><path d="M68.292 0H5.302C4.85 0 4.35.04 3.897.122a5.79 5.79 0 00-1.359.406c-.408.162-.816.447-1.132.73-.318.285-.634.65-.817 1.016-.226.365-.361.771-.454 1.218-.09.406-.09.853-.135 1.259v33.498c0 .407.045.853.135 1.26.093.405.228.811.454 1.217.228.366.499.731.817 1.015.316.285.724.569 1.132.731.409.203.86.325 1.359.406.453.081.952.081 1.405.122h64.396c.451 0 .95-.04 1.403-.122a5.781 5.781 0 001.36-.406c.41-.203.815-.447 1.133-.73.319-.285.634-.65.815-1.016.228-.365.363-.771.453-1.218.09-.406.09-.852.138-1.259V4.751a5.97 5.97 0 00-.138-1.259 4.388 4.388 0 00-.453-1.218c-.226-.366-.497-.731-.815-1.015-.318-.284-.724-.569-1.132-.731-.409-.203-.862-.325-1.36-.406C70.647.04 70.148.04 69.697 0h-1.406z" fill="#F8F8F8"/><path d="M24.816 14.55c.54-.659.927-1.536.81-2.413-.81.036-1.775.511-2.356 1.133-.502.548-.965 1.462-.85 2.303.927.11 1.815-.366 2.396-1.024zm.81 1.242c-1.312-.073-2.433.695-3.05.695-.62 0-1.585-.658-2.627-.658-1.352.036-2.588.73-3.282 1.9-1.39 2.303-.387 5.703 1.003 7.567.656.914 1.468 1.938 2.51 1.901 1.006-.037 1.392-.621 2.588-.621 1.198 0 1.546.621 2.627.584 1.08-.036 1.777-.913 2.432-1.864.773-1.06 1.083-2.083 1.083-2.12-.039-.036-2.125-.768-2.125-3.034-.038-1.9 1.623-2.815 1.7-2.851-.889-1.316-2.356-1.462-2.86-1.499zm10.387-1.504c2.582 0 4.36 1.818 4.36 4.42 0 2.636-1.813 4.454-4.43 4.454h-2.825v4.597H31.06V14.29h4.953zm-2.895 7.128h2.337c1.779 0 2.791-.998 2.791-2.673 0-1.71-1.012-2.673-2.79-2.673h-2.373v5.346h.035zm7.778 3.599c0-1.71 1.29-2.78 3.593-2.922l2.65-.143v-.748c0-1.105-.732-1.746-1.918-1.746-1.15 0-1.849.57-2.022 1.425h-1.885c.106-1.782 1.605-3.1 3.977-3.1 2.337 0 3.836 1.247 3.836 3.243v6.77h-1.883v-1.603h-.034c-.56 1.105-1.78 1.782-3.036 1.782-1.953 0-3.278-1.212-3.278-2.958zm6.242-.89v-.785l-2.37.143c-1.186.07-1.85.605-1.85 1.46 0 .856.699 1.426 1.744 1.426 1.396 0 2.477-.962 2.477-2.245zm3.734 7.305v-1.64c.139.036.488.036.627.036.906 0 1.394-.392 1.709-1.39 0-.035.175-.606.175-.606l-3.489-9.836h2.128l2.441 8.019h.035l2.441-8.019h2.093L55.44 28.365c-.837 2.388-1.78 3.136-3.769 3.136-.139-.036-.626-.036-.8-.071z" fill="#000"/></svg>