<svg width="200" height="60" viewBox="0 0 200 60" fill="none" xmlns="http://www.w3.org/2000/svg"><path d="M160.731-382.227c-51.506 521.473-578.366 532.98-614.21 533.129h312.046c154.683 0 305.597-48.418 421.086-140.25 120.849-96.015 194.463-228.569 206.774-371.808.335-3.81.503-7.547.503-11.283 0-77.41-68.674-142.641-157.781-145.48-87.015-2.615-161.467 58.133-168.418 135.692z" fill="url(#paint1_linear)"/><path d="M-266.029 150.902h187.126c139.307 0 275.22-48.418 379.229-140.25C409.163-85.363 475.46-217.917 486.547-361.156c.302-3.81.453-7.546.453-11.282 0-77.411-61.848-142.641-142.098-145.481 0 566.006-417.922 656.941-610.931 668.821z" fill="url(#paint2_radial)"/><defs><radialGradient id="paint2_radial" cx="0" cy="0" r="1" gradientUnits="userSpaceOnUse" gradientTransform="scale(835.115 827.328) rotate(-90 .004 -.56)"><stop stop-color="#fff" stop-opacity=".4"/><stop offset=".048" stop-color="#FCEAE8" stop-opacity=".442"/><stop offset=".16" stop-color="#F7BCB9" stop-opacity=".54"/><stop offset=".272" stop-color="#F29791" stop-opacity=".638"/><stop offset=".382" stop-color="#EF7A73" stop-opacity=".735"/><stop offset=".488" stop-color="#EC655D" stop-opacity=".828"/><stop offset=".591" stop-color="#EB584F" stop-opacity=".918"/><stop offset=".684" stop-color="#EA544B"/><stop offset="1" stop-color="#EA544B" stop-opacity=".2"/></radialGradient><linearGradient id="paint1_linear" x1="63.498" y1="150.917" x2="63.498" y2="-517.911" gradientUnits="userSpaceOnUse" gradientTransform="matrix(1.11037 0 0 1 -53.743 0)"><stop stop-color="#6F010E"/><stop offset=".007" stop-color="#740310"/><stop offset=".077" stop-color="#A21321"/><stop offset=".143" stop-color="#C7202E"/><stop offset=".205" stop-color="#E12938"/><stop offset=".261" stop-color="#F02F3E"/><stop offset=".304" stop-color="#F63140"/><stop offset=".342" stop-color="#F73E43"/><stop offset=".497" stop-color="#F96C4E"/><stop offset=".644" stop-color="#FB9057"/><stop offset=".781" stop-color="#FCAB5E"/><stop offset=".904" stop-color="#FDBA62"/><stop offset="1" stop-color="#FDC063"/></linearGradient></defs></svg>