<svg width="375" height="514" viewBox="0 0 375 514" fill="none" xmlns="http://www.w3.org/2000/svg"><path fill="#262626" d="M0 0h375v514H0z"/><mask id="mask0" maskUnits="userSpaceOnUse" x="0" y="0" width="375" height="514"><path fill="#262626" d="M0 0h375v514H0z"/></mask><g opacity=".1" mask="url(#mask0)"><path d="M352.419 13.39c-4.64 155.715-53.578 277.541-111.636 277.541H-24.243c-68.45 0-123.934 149.794-123.934 334.592h267.569c13.569-.171 213.483-13.383 233.027-612.133z" fill="url(#paint0_radial)"/><path d="M352.412 13.39c-19.543 598.75-219.457 611.962-233.058 612.133h118.404c58.694 0 115.957-55.593 159.779-161.033 45.855-110.244 73.788-262.441 78.459-426.906.127-4.376.191-8.665.191-12.955 0-88.881-26.058-163.779-59.869-167.039-33.018-3.003-61.268 66.747-63.906 155.8z" fill="url(#paint1_linear)"/><path d="M158.956 625.523h78.841c58.693 0 115.957-55.593 159.778-161.033 45.856-110.244 73.788-262.441 78.46-426.906.127-4.376.19-8.665.19-12.955 0-88.881-26.057-163.779-59.869-167.039 0 649.882-176.081 754.292-257.4 767.933z" fill="url(#paint2_radial)"/><path d="M278.122 459.428H-25.197c-34.479 0-67.782 34.06-93.617 95.831l-29.363 70.264H119.36c8.708-.085 93.586-5.576 158.762-166.095z" fill="url(#paint3_linear)"/><path d="M-5.309 625.523h123.934v-433.34c0-184.798-55.484-334.593-123.934-334.593v767.933z" fill="url(#paint4_radial)"/><path d="M20.717-63.051L-5.309-142.41v767.933h61.522V189.695c0-93.085-12.616-182.997-35.496-252.746z" fill="url(#paint5_linear)"/></g><defs><radialGradient id="paint0_radial" cx="0" cy="0" r="1" gradientUnits="userSpaceOnUse" gradientTransform="scale(363.187 980.525) rotate(-90 .125 .293)"><stop offset=".073" stop-color="#43C8EF"/><stop offset=".201" stop-color="#3EBAE3"/><stop offset=".443" stop-color="#2F94C4"/><stop offset=".773" stop-color="#195992"/><stop offset=".958" stop-color="#0B3474"/></radialGradient><radialGradient id="paint2_radial" cx="0" cy="0" r="1" gradientUnits="userSpaceOnUse" gradientTransform="matrix(0 -949.93 351.854 0 469.496 -75.88)"><stop stop-color="#fff" stop-opacity=".4"/><stop offset=".048" stop-color="#FCEAE8" stop-opacity=".442"/><stop offset=".16" stop-color="#F7BCB9" stop-opacity=".54"/><stop offset=".272" stop-color="#F29791" stop-opacity=".638"/><stop offset=".382" stop-color="#EF7A73" stop-opacity=".735"/><stop offset=".488" stop-color="#EC655D" stop-opacity=".828"/><stop offset=".591" stop-color="#EB584F" stop-opacity=".918"/><stop offset=".684" stop-color="#EA544B"/><stop offset="1" stop-color="#EA544B" stop-opacity=".2"/></radialGradient><radialGradient id="paint4_radial" cx="0" cy="0" r="1" gradientUnits="userSpaceOnUse" gradientTransform="matrix(0 -616.141 228.219 0 49.295 39.744)"><stop stop-color="#16C940"/><stop offset=".34" stop-color="#0D9733"/><stop offset=".756" stop-color="#045F24"/><stop offset=".958" stop-color="#00491E"/></radialGradient><linearGradient id="paint1_linear" x1="297.785" y1="625.541" x2="297.785" y2="-142.4" gradientUnits="userSpaceOnUse"><stop stop-color="#6F010E"/><stop offset=".007" stop-color="#740310"/><stop offset=".077" stop-color="#A21321"/><stop offset=".143" stop-color="#C7202E"/><stop offset=".205" stop-color="#E12938"/><stop offset=".261" stop-color="#F02F3E"/><stop offset=".304" stop-color="#F63140"/><stop offset=".342" stop-color="#F73E43"/><stop offset=".497" stop-color="#F96C4E"/><stop offset=".644" stop-color="#FB9057"/><stop offset=".781" stop-color="#FCAB5E"/><stop offset=".904" stop-color="#FDBA62"/><stop offset="1" stop-color="#FDC063"/></linearGradient><linearGradient id="paint3_linear" x1="-148.944" y1="542.495" x2="278.087" y2="542.495" gradientUnits="userSpaceOnUse"><stop stop-color="#fff" stop-opacity=".8"/><stop offset=".116" stop-color="#fff" stop-opacity=".713"/><stop offset="1" stop-color="#fff" stop-opacity=".05"/></linearGradient><linearGradient id="paint5_linear" x1="25.451" y1="625.541" x2="25.451" y2="-142.4" gradientUnits="userSpaceOnUse"><stop stop-color="#fff" stop-opacity=".1"/><stop offset="1" stop-color="#fff" stop-opacity=".6"/></linearGradient></defs></svg>