<svg width="75" height="43" viewBox="0 0 75 43" fill="none" xmlns="http://www.w3.org/2000/svg"><path fill-rule="evenodd" clip-rule="evenodd" d="M75 40.712C75 41.979 73.887 43 72.505 43H2.494C1.114 43 0 41.979 0 40.712V2.289C0 1.02 1.113 0 2.494 0h70.011C73.887 0 75 1.021 75 2.289v38.423z" fill="#F8F8F8"/><path fill-rule="evenodd" clip-rule="evenodd" d="M58.365 18.042L53.001 30.61h-1.625l2.004-4.374-3.522-8.139h1.735l2.547 6.256h.053l2.494-6.256h1.68v-.055h-.002zm-22.869 3.543v5.15h-1.625V14h4.227a3.99 3.99 0 012.764 1.107C41.62 15.773 42 16.77 42 17.82c0 1.052-.379 1.994-1.137 2.713-.76.72-1.68 1.108-2.764 1.108l-2.602-.056zm0-6.035v4.43h2.71c.595 0 1.193-.222 1.572-.665.868-.83.868-2.214.053-3.045l-.053-.055c-.433-.443-.977-.72-1.572-.665h-2.71zm10.242 2.215c1.194 0 2.114.332 2.819.997.705.664 1.03 1.55 1.03 2.657v5.315h-1.518v-1.218h-.053c-.65.997-1.573 1.495-2.657 1.495-.92 0-1.733-.277-2.383-.83-.598-.554-.977-1.33-.977-2.16 0-.886.326-1.605.977-2.16.65-.553 1.57-.774 2.655-.774.974 0 1.734.166 2.33.554v-.388c0-.554-.217-1.107-.65-1.44a2.332 2.332 0 00-1.573-.608c-.92 0-1.625.387-2.111 1.162l-1.41-.886c.866-1.162 2.005-1.716 3.523-1.716h-.002zm-2.059 6.312c0 .443.217.83.543 1.052.38.276.813.443 1.247.443.65 0 1.299-.277 1.787-.775.543-.499.813-1.108.813-1.772-.487-.388-1.192-.61-2.114-.61-.65 0-1.192.167-1.625.5-.434.276-.65.663-.65 1.162z" fill="#5F6368"/><path fill-rule="evenodd" clip-rule="evenodd" d="M29.05 20.478c0-.498-.055-.997-.11-1.495h-6.772v2.824h3.846c-.162.886-.65 1.716-1.408 2.215v1.827h2.33c1.354-1.273 2.114-3.156 2.114-5.37z" fill="#4285F4"/><path fill-rule="evenodd" clip-rule="evenodd" d="M22.167 27.62c1.951 0 3.577-.664 4.77-1.771l-2.33-1.827c-.65.443-1.463.72-2.44.72-1.842 0-3.467-1.274-4.01-3.046h-2.384v1.883c1.247 2.491 3.685 4.042 6.394 4.042z" fill="#34A853"/><path fill-rule="evenodd" clip-rule="evenodd" d="M18.155 21.696c-.324-.886-.324-1.883 0-2.824V16.99h-2.383c-1.03 2.048-1.03 4.485 0 6.589l2.383-1.883z" fill="#FBBC04"/><path fill-rule="evenodd" clip-rule="evenodd" d="M22.165 15.882c1.03 0 2.006.388 2.764 1.107l2.061-2.104c-1.301-1.218-3.036-1.937-4.77-1.882a7.09 7.09 0 00-6.396 4.042l2.385 1.882c.489-1.771 2.114-3.045 3.956-3.045z" fill="#EA4335"/></svg>