<svg width="54" height="52" viewBox="0 0 54 52" fill="none" xmlns="http://www.w3.org/2000/svg"><path d="M54 30.938a5 5 0 00-1.465-3.542 5.586 5.586 0 001.44-4.295C53.712 20.24 51.135 18 48.107 18H34.21c.687-2.09 1.79-5.922 1.79-9 0-4.88-4.147-9-6.75-9-2.335 0-4.007 1.316-4.077 1.37a1.126 1.126 0 00-.423.88v7.63l-6.482 14.037-.268.138v-.43c0-.621-.504-1.125-1.125-1.125H5.625A5.63 5.63 0 000 28.125v18a5.63 5.63 0 005.625 5.625h6.75a5.638 5.638 0 005.294-3.72c1.872.964 4.392 1.47 5.956 1.47h20.653c2.45 0 4.594-1.652 5.098-3.928a5.08 5.08 0 00-.405-3.382 5.042 5.042 0 002.253-6.75A5.042 5.042 0 0054 30.938zm-4.745 2.776a1.13 1.13 0 00-.94.763c-.138.416-.023.873.296 1.174.572.538.89 1.262.89 2.036a2.804 2.804 0 01-2.494 2.777 1.13 1.13 0 00-.94.763c-.138.416-.023.873.297 1.174.74.698 1.037 1.676.814 2.684-.277 1.256-1.496 2.165-2.9 2.165H23.625c-1.827 0-4.892-.857-5.953-1.922a1.125 1.125 0 00-1.922.797 3.38 3.38 0 01-3.375 3.375h-6.75a3.38 3.38 0 01-3.375-3.375v-18a3.38 3.38 0 013.375-3.375H15.75v1.125c0 .39.203.751.535.959a1.15 1.15 0 001.094.047l2.25-1.125c.227-.113.41-.302.517-.534l6.75-14.625c.068-.148.104-.31.104-.472V2.86c.468-.259 1.28-.61 2.25-.61 1.233 0 4.5 3.064 4.5 6.75 0 3.96-2.155 9.668-2.176 9.724-.13.345-.085.734.124 1.04.212.304.558.486.927.486h15.482c1.877 0 3.47 1.343 3.627 3.058a3.361 3.361 0 01-1.602 3.183 1.13 1.13 0 00.076 1.96 2.785 2.785 0 011.542 2.487 2.804 2.804 0 01-2.495 2.776z" fill="url(#paint0_radial)"/><defs><radialGradient id="paint0_radial" cx="0" cy="0" r="1" gradientUnits="userSpaceOnUse" gradientTransform="matrix(43.3261 0 0 95.2956 41.191 22.8)"><stop stop-color="#16C940"/><stop offset=".34" stop-color="#0D9733"/><stop offset=".756" stop-color="#045F24"/><stop offset=".958" stop-color="#00491E"/></radialGradient></defs></svg>