<svg width="41" height="54" viewBox="0 0 41 54" fill="none" xmlns="http://www.w3.org/2000/svg"><path d="M17.591 37.369l-.71 6.382a1.128 1.128 0 001.12 1.25h4.5a1.125 1.125 0 001.117-1.25l-.71-6.382a4.45 4.45 0 001.842-3.619c0-2.482-2.018-4.5-4.5-4.5a4.504 4.504 0 00-4.5 4.5 4.45 4.45 0 001.841 3.619zM20.25 31.5c1.24 0 2.25 1.01 2.25 2.25 0 .862-.49 1.635-1.279 2.017-.43.209-.68.664-.628 1.137l.65 5.846h-1.986l.65-5.846a1.126 1.126 0 00-.628-1.137A2.232 2.232 0 0118 33.75c0-1.24 1.01-2.25 2.25-2.25z" fill="url(#paint0_radial)"/><path d="M39.375 20.25H36v-4.5C36 7.065 28.935 0 20.25 0 11.565 0 4.5 7.065 4.5 15.75v4.5H1.125C.503 20.25 0 20.753 0 21.375V49.5C0 51.982 2.018 54 4.5 54H36c2.482 0 4.5-2.018 4.5-4.5V21.375c0-.622-.503-1.125-1.125-1.125zM6.75 15.75c0-7.444 6.056-13.5 13.5-13.5s13.5 6.056 13.5 13.5v4.5H31.5v-4.5c0-6.203-5.047-11.25-11.25-11.25S9 9.547 9 15.75v4.5H6.75v-4.5zm22.5 0v4.5h-18v-4.5c0-4.963 4.037-9 9-9 4.962 0 9 4.037 9 9zm9 33.75c0 1.24-1.01 2.25-2.25 2.25H4.5c-1.24 0-2.25-1.01-2.25-2.25v-27h36v27z" fill="url(#paint1_radial)"/><defs><radialGradient id="paint0_radial" cx="0" cy="0" r="1" gradientUnits="userSpaceOnUse" gradientTransform="matrix(7.22109 0 0 29.0032 22.615 36.19)"><stop stop-color="#16C940"/><stop offset=".34" stop-color="#0D9733"/><stop offset=".756" stop-color="#045F24"/><stop offset=".958" stop-color="#00491E"/></radialGradient><radialGradient id="paint1_radial" cx="0" cy="0" r="1" gradientUnits="userSpaceOnUse" gradientTransform="matrix(32.4946 0 0 99.4391 30.893 23.792)"><stop stop-color="#16C940"/><stop offset=".34" stop-color="#0D9733"/><stop offset=".756" stop-color="#045F24"/><stop offset=".958" stop-color="#00491E"/></radialGradient></defs></svg>