<svg width="41" height="70" viewBox="0 0 41 70" fill="none" xmlns="http://www.w3.org/2000/svg"><g filter="url(#filter0_d)"><path d="M30.079 49.981c-6.634-.445-11.824-5.135-11.824-10.7V13.879C18.255 7.318 11.873 2 4 2v25.646c.007 1.3.57 20.462 26.079 22.335z" fill="url(#paint0_radial)"/><path d="M30.079 49.981C4.57 48.108 4.007 28.947 4 27.643v11.349c0 5.626 2.368 11.114 6.86 15.314 4.697 4.395 11.181 7.073 18.188 7.52.186.013.37.019.552.019 3.786 0 6.977-2.498 7.116-5.739.128-3.164-2.843-5.872-6.637-6.125z" fill="url(#paint1_linear)"/><path d="M4 31.438v7.557c0 5.625 2.368 11.114 6.86 15.314 4.697 4.395 11.181 7.073 18.188 7.52.186.013.37.019.552.019 3.786 0 6.977-2.498 7.116-5.739C9.03 56.11 4.581 39.232 4 31.438z" fill="url(#paint2_radial)"/><path d="M11.076 42.86V13.787c0-3.304-1.45-6.496-4.083-8.973L4 2v25.643c.004.834.238 8.97 7.076 15.217z" fill="url(#paint3_linear)"/><path d="M4 15.694v11.879h18.462c7.873 0 14.254-5.318 14.254-11.88H4z" fill="url(#paint4_radial)"/><path d="M33.335 18.188l3.381-2.494H4v5.897h18.568c3.965 0 7.796-1.21 10.767-3.403z" fill="url(#paint5_linear)"/></g><defs><radialGradient id="paint0_radial" cx="0" cy="0" r="1" gradientUnits="userSpaceOnUse" gradientTransform="matrix(41.7733 0 0 34.8107 13.217 10.356)"><stop offset=".073" stop-color="#43C3EF"/><stop offset=".201" stop-color="#3EBAE3"/><stop offset=".443" stop-color="#2F94C4"/><stop offset=".773" stop-color="#195992"/><stop offset=".958" stop-color="#0B3474"/></radialGradient><radialGradient id="paint2_radial" cx="0" cy="0" r="1" gradientUnits="userSpaceOnUse" gradientTransform="matrix(40.4699 0 0 33.7245 33.882 61.203)"><stop stop-color="#fff" stop-opacity=".4"/><stop offset=".048" stop-color="#FCEAE8" stop-opacity=".442"/><stop offset=".16" stop-color="#F7BCB9" stop-opacity=".54"/><stop offset=".272" stop-color="#F29791" stop-opacity=".638"/><stop offset=".382" stop-color="#EF7A73" stop-opacity=".735"/><stop offset=".488" stop-color="#EC655D" stop-opacity=".828"/><stop offset=".591" stop-color="#EB584F" stop-opacity=".918"/><stop offset=".684" stop-color="#EA544B"/><stop offset="1" stop-color="#EA544B" stop-opacity=".2"/></radialGradient><radialGradient id="paint4_radial" cx="0" cy="0" r="1" gradientUnits="userSpaceOnUse" gradientTransform="matrix(26.2495 0 0 21.8743 28.956 20.927)"><stop stop-color="#16C940"/><stop offset=".34" stop-color="#0D9733"/><stop offset=".756" stop-color="#045F24"/><stop offset=".958" stop-color="#00491E"/></radialGradient><linearGradient id="paint1_linear" x1="3.999" y1="44.745" x2="36.716" y2="44.745" gradientUnits="userSpaceOnUse"><stop stop-color="#6F010E"/><stop offset=".007" stop-color="#740310"/><stop offset=".077" stop-color="#A21321"/><stop offset=".143" stop-color="#C7202E"/><stop offset=".205" stop-color="#E12938"/><stop offset=".261" stop-color="#F02F3E"/><stop offset=".304" stop-color="#F63140"/><stop offset=".342" stop-color="#F73E43"/><stop offset=".497" stop-color="#F96C4E"/><stop offset=".644" stop-color="#FB9057"/><stop offset=".781" stop-color="#FCAB5E"/><stop offset=".904" stop-color="#FDBA62"/><stop offset="1" stop-color="#FDC063"/></linearGradient><linearGradient id="paint3_linear" x1="7.537" y1="1.926" x2="7.537" y2="42.856" gradientUnits="userSpaceOnUse"><stop stop-color="#fff" stop-opacity=".8"/><stop offset=".116" stop-color="#fff" stop-opacity=".713"/><stop offset="1" stop-color="#fff" stop-opacity=".05"/></linearGradient><linearGradient id="paint5_linear" x1="3.999" y1="18.642" x2="36.716" y2="18.642" gradientUnits="userSpaceOnUse"><stop stop-color="#fff" stop-opacity=".1"/><stop offset="1" stop-color="#fff" stop-opacity=".6"/></linearGradient><filter id="filter0_d" x="-3" y="0" width="45" height="71" filterUnits="userSpaceOnUse" color-interpolation-filters="sRGB"><feFlood flood-opacity="0" result="BackgroundImageFix"/><feColorMatrix in="SourceAlpha" values="0 0 0 0 0 0 0 0 0 0 0 0 0 0 0 0 0 0 127 0" result="hardAlpha"/><feOffset dy="4"/><feGaussianBlur stdDeviation="2"/><feColorMatrix values="0 0 0 0 0 0 0 0 0 0 0 0 0 0 0 0 0 0 0.25 0"/><feBlend in2="BackgroundImageFix" result="effect1_dropShadow"/><feBlend in="SourceGraphic" in2="effect1_dropShadow" result="shape"/></filter></defs></svg>