<svg width="76" height="43" viewBox="0 0 76 43" fill="none" xmlns="http://www.w3.org/2000/svg">
<path fill-rule="evenodd" clip-rule="evenodd" d="M75.5762 40.7119C75.5762 41.9788 74.4628 43 73.0813 43H3.07016C1.6893 43 0.576172 41.9788 0.576172 40.7119V2.28893C0.576172 1.02123 1.6893 0 3.07016 0H73.0813C74.4628 0 75.5762 1.02123 75.5762 2.28893V40.7119Z" fill="#F8F8F8"/>
<path fill-rule="evenodd" clip-rule="evenodd" d="M46.6519 34.7295L47.3369 34.7155L48.0222 34.6604L48.6793 34.5792L49.3369 34.47L49.9942 34.3202L50.623 34.142L51.2518 33.9379L51.8536 33.7055L52.455 33.4465L53.0276 33.1601L53.5874 32.8458L54.1324 32.5045L54.6497 32.1361L55.1542 31.7539L55.6438 31.3313L56.1057 30.9078L56.5527 30.4435L56.9721 29.9799L57.3765 29.4885L57.7405 28.9701L58.0896 28.4376L58.4132 27.8919L58.7048 27.3326L58.9709 26.7591L59.2093 26.1585L59.4329 25.558L59.601 24.9303L59.7543 24.3029L59.8799 23.661L59.9501 23.0065L60.0055 22.3369L60.0331 21.6682L60.0055 20.9995L59.9501 20.3449L59.8799 19.6893L59.7543 19.0478L59.601 18.4202L59.4329 17.8066L59.2093 17.2061L58.9709 16.6194L58.7048 16.046L58.4132 15.4724L58.0896 14.9269L57.7405 14.4084L57.3765 13.8899L56.9721 13.3985L56.5527 12.9339L56.1057 12.4695L55.6438 12.0471L55.1542 11.6377L54.6497 11.2424L54.1324 10.887L53.5874 10.5457L53.0276 10.2325L52.455 9.94522L51.8536 9.68595L51.2518 9.45379L50.623 9.24962L49.9942 9.07239L49.3369 8.92225L48.6793 8.81223L48.0222 8.73095L47.3369 8.67618L46.6519 8.66211L45.9522 8.67618L45.2817 8.73095L44.6099 8.81223L43.9523 8.92225L43.3092 9.07239L42.6661 9.24962L42.0507 9.45379L41.4355 9.68595L40.8476 9.94522L40.2745 10.2325L39.7153 10.5457L39.17 10.887L38.652 11.2424L38.1492 11.6377L37.6599 12.0471L37.1984 12.4695L36.7505 12.9339L36.3318 13.3985L35.9399 13.8899L35.5616 14.4084L35.2272 14.9269L34.9042 15.4724L34.6118 16.046L34.345 16.6194L34.1071 17.2061L33.8835 17.8066L33.7154 18.4202L33.5625 19.0478L33.4499 19.6893L33.3656 20.3449L33.3103 20.9995L33.2969 21.6682L33.3103 22.3369L33.3656 23.0065L33.4499 23.661L33.5625 24.3029L33.7154 24.9303L33.8835 25.558L34.1071 26.1585L34.345 26.7591L34.6118 27.3326L34.9042 27.8919L35.2272 28.4376L35.5616 28.9701L35.9399 29.4885L36.3318 29.9799L36.7505 30.4435L37.1984 30.9078L37.6599 31.3313L38.1492 31.7539L38.652 32.1361L39.17 32.5045L39.7153 32.8458L40.2745 33.1601L40.8476 33.4465L41.4355 33.7055L42.0507 33.9379L42.6661 34.142L43.3092 34.3202L43.9523 34.47L44.6099 34.5792L45.2817 34.6604L45.9522 34.7155L46.6519 34.7295Z" fill="#EB2230"/>
<path fill-rule="evenodd" clip-rule="evenodd" d="M28.9344 34.7295L29.6183 34.7155L30.3044 34.6604L30.9617 34.5792L31.6193 34.47L32.2758 34.3202L32.9054 34.142L33.5343 33.9379L34.136 33.7055L34.7227 33.4465L35.2962 33.1601L35.8563 32.8458L36.4008 32.5045L36.9321 32.1361L37.4366 31.7539L37.9117 31.3313L38.3866 30.9078L38.8203 30.4435L39.2398 29.9799L39.6313 29.4885L40.0091 28.9701L40.3587 28.4376L40.6797 27.8919L40.9743 27.3326L41.2397 26.7591L41.4779 26.1585L41.6872 25.558L41.8552 24.9303L42.009 24.3029L42.1342 23.661L42.2181 23.0065L42.2602 22.3369L42.289 21.6682L42.2602 20.9995L42.2181 20.3449L42.1342 19.6893L42.009 19.0478L41.8552 18.4202L41.6872 17.8066L41.4779 17.2061L41.2397 16.6194L40.9743 16.046L40.6797 15.4724L40.3587 14.9269L40.0091 14.4084L39.6313 13.8899L39.2398 13.3985L38.8203 12.9339L38.3866 12.4695L37.9117 12.0471L37.4366 11.6377L36.9321 11.2424L36.4008 10.887L35.8563 10.5457L35.2962 10.2325L34.7227 9.94522L34.136 9.68595L33.5343 9.45379L32.9054 9.24962L32.2758 9.07239L31.6193 8.92225L30.9617 8.81223L30.3044 8.73095L29.6183 8.67618L28.9344 8.66211L28.2347 8.67618L27.5641 8.73095L26.8923 8.81223L26.2358 8.92225L25.5917 9.07239L24.9477 9.24962L24.3332 9.45379L23.718 9.68595L23.1302 9.94522L22.557 10.2325L21.9837 10.5457L21.4524 10.887L20.9211 11.2424L20.4174 11.6377L19.9274 12.0471L19.4665 12.4695L19.0329 12.9339L18.5987 13.3985L18.208 13.8899L17.8306 14.4084L17.4811 14.9269L17.1592 15.4724L16.8657 16.046L16.6 16.6194L16.3629 17.2061L16.1528 17.8066L15.9712 18.4202L15.8164 19.0478L15.7047 19.6893L15.6214 20.3449L15.565 20.9995L15.5508 21.6682L15.565 22.3369L15.6214 23.0065L15.7047 23.661L15.8164 24.3029L15.9712 24.9303L16.1528 25.558L16.3629 26.1585L16.6 26.7591L16.8657 27.3326L17.1592 27.8919L17.4811 28.4376L17.8306 28.9701L18.208 29.4885L18.5987 29.9799L19.0329 30.4435L19.4665 30.9078L19.9274 31.3313L20.4174 31.7539L20.9211 32.1361L21.4524 32.5045L21.9837 32.8458L22.557 33.1601L23.1302 33.4465L23.718 33.7055L24.3332 33.9379L24.9477 34.142L25.5917 34.3202L26.2358 34.47L26.8923 34.5792L27.5641 34.6604L28.2347 34.7155L28.9344 34.7295Z" fill="#0B84C4"/>
<path fill-rule="evenodd" clip-rule="evenodd" d="M36.1523 13.6171H42.9197V12.8936H36.7944L36.1523 13.6171Z" fill="#EB2230"/>
<path fill-rule="evenodd" clip-rule="evenodd" d="M35.0898 15.1593H42.9207V14.4355H35.5513L35.0898 15.1593Z" fill="#EB2230"/>
<path fill-rule="evenodd" clip-rule="evenodd" d="M34.2891 16.7286H42.9177V16.0049H34.6541L34.2891 16.7286Z" fill="#EB2230"/>
<path fill-rule="evenodd" clip-rule="evenodd" d="M33.7734 18.27H42.9192V17.5474H33.9969L33.7734 18.27Z" fill="#EB2230"/>
<path fill-rule="evenodd" clip-rule="evenodd" d="M33.4258 19.8264H42.9211V19.0889H33.5661L33.4258 19.8264Z" fill="#EB2230"/>
<path fill-rule="evenodd" clip-rule="evenodd" d="M33.3522 22.8156H42.9175V22.0918H33.2969L33.3522 22.8156Z" fill="#EB2230"/>
<path fill-rule="evenodd" clip-rule="evenodd" d="M33.5897 24.4535H42.917V23.7168H33.4492L33.5897 24.4535Z" fill="#EB2230"/>
<path fill-rule="evenodd" clip-rule="evenodd" d="M34.0412 25.7759H42.9201V25.0391H33.8164L34.0412 25.7759Z" fill="#EB2230"/>
<path fill-rule="evenodd" clip-rule="evenodd" d="M34.7132 27.3863H42.9215V26.6494H34.3633L34.7132 27.3863Z" fill="#EB2230"/>
<path fill-rule="evenodd" clip-rule="evenodd" d="M35.6751 29.0117H42.9185V28.2881H35.1719L35.6751 29.0117Z" fill="#EB2230"/>
<path fill-rule="evenodd" clip-rule="evenodd" d="M36.8646 30.5802H42.8492V29.8564H36.207L36.8646 30.5802Z" fill="#EB2230"/>
<path fill-rule="evenodd" clip-rule="evenodd" d="M57.8242 29.6801L57.8668 29.5571L57.937 29.4479L58.0222 29.3529L58.118 29.2839L58.2159 29.2158L58.3415 29.1887L58.4692 29.1748L58.5948 29.1887L58.7204 29.2158L58.8311 29.2839L58.9311 29.3529L59.0141 29.4479L59.0695 29.5571L59.112 29.6801H58.9715L58.9438 29.5982L58.9034 29.502L58.8311 29.4207L58.7629 29.3658L58.6799 29.3247L58.5799 29.2839H58.4692H58.3713L58.2584 29.3247L58.1754 29.3658L58.0903 29.4207L58.0349 29.502L57.9924 29.5982L57.9647 29.6801H57.8242Z" fill="#EB2230"/>
<path fill-rule="evenodd" clip-rule="evenodd" d="M58.248 29.6791V29.5156H58.4985L58.5537 29.5295H58.5961L58.6386 29.5427L58.681 29.5566L58.7065 29.5833L58.7214 29.6114L58.7341 29.6381V29.6791H58.6237V29.6522L58.6089 29.6381L58.5961 29.6243L58.5813 29.6114L58.5664 29.5976H58.5409L58.5261 29.5833H58.4985H58.3584V29.6791H58.248Z" fill="#EB2230"/>
<path fill-rule="evenodd" clip-rule="evenodd" d="M57.8242 29.7884V29.6797H57.9673L57.9521 29.6927V29.7884H57.8242Z" fill="#EB2230"/>
<path fill-rule="evenodd" clip-rule="evenodd" d="M58.248 29.7883V29.6797H58.3584V29.7614H58.4709H58.5112H58.5409H58.5664L58.5961 29.7474H58.6089L58.6237 29.7205V29.7068V29.6797H58.7341V29.7205V29.7474L58.7214 29.7745L58.7065 29.7883H58.248Z" fill="#EB2230"/>
<path fill-rule="evenodd" clip-rule="evenodd" d="M58.9877 29.7879L58.9727 29.6927V29.6797H59.1148L59.1299 29.7879H58.9877Z" fill="#EB2230"/>
<path fill-rule="evenodd" clip-rule="evenodd" d="M57.8253 29.7891L57.8125 29.8024L57.8253 29.9394L57.8678 30.0612L57.9381 30.1574L58.0232 30.2524L58.119 30.3216L58.217 30.3757L58.3447 30.4166L58.4703 30.4307L58.5959 30.4166L58.7215 30.3757L58.8322 30.3216L58.9322 30.2524L59.0152 30.1574L59.0706 30.0612L59.1131 29.9394L59.1281 29.8024V29.7891H58.9876V29.8024L58.9726 29.9252L58.945 30.0212L58.9045 30.1165L58.8322 30.1844L58.764 30.2524L58.681 30.2936L58.581 30.3345H58.4703H58.3724L58.2595 30.2936L58.1765 30.2524L58.0913 30.1844L58.036 30.1165L57.9934 30.0212L57.9509 29.9252V29.8024V29.7891H57.8253Z" fill="#EB2230"/>
<path fill-rule="evenodd" clip-rule="evenodd" d="M58.248 29.7891V30.0473H58.3584V29.8298H58.4709L58.6088 30.0473H58.7213L58.5537 29.8298H58.5961H58.6386L58.6661 29.816L58.6937 29.7891H58.7065H58.248Z" fill="#EB2230"/>
<path fill-rule="evenodd" clip-rule="evenodd" d="M43.7567 20.5764L43.6726 20.5633H43.5751L43.5055 20.5492L43.422 20.5363L43.3373 20.5223L43.2677 20.5082L43.1834 20.4951L43.0859 20.4812H43.0016L42.9045 20.4673L42.7917 20.4542H42.6806H42.5403H42.4007L42.2327 20.4673L42.0654 20.4812L41.9392 20.4951L41.8131 20.5223L41.7014 20.5633L41.6028 20.6042L41.5196 20.6454L41.4357 20.6994L41.3793 20.7545L41.324 20.8084L41.2818 20.8907L41.2531 20.9587L41.2397 21.0268V21.1087L41.2676 21.1908L41.2952 21.273L41.3372 21.3551L41.4078 21.4372L41.5341 21.5463L41.6735 21.6272L41.8551 21.7095L42.0367 21.7774L42.247 21.8325L42.4428 21.9007L42.6521 21.9826L42.8622 22.0647L43.0437 22.1597L43.2251 22.283L43.3792 22.4472L43.5197 22.6374L43.6172 22.8694L43.6868 23.1429L43.7013 23.4701L43.6868 23.8524L43.6304 24.1388L43.5617 24.398L43.4491 24.6302L43.3226 24.8351L43.1834 25.0127L43.0163 25.1625L42.8336 25.2987L42.6389 25.4217L42.4428 25.5169L42.2327 25.5849L42.0232 25.6539L41.7997 25.6943L41.5894 25.736L41.3793 25.7491L41.1701 25.7631L40.9742 25.7764H40.7086L40.4561 25.7631H40.2326H40.0233L39.842 25.7491L39.6736 25.736H39.5197L39.3802 25.7082L39.2398 25.6943L39.1146 25.6672L39.002 25.6539L38.8911 25.6261L38.7923 25.5849L38.6808 25.5581L38.5688 25.5169L38.457 25.4899L38.737 24.1388L38.7923 24.1527L38.8766 24.1797L38.9598 24.1939L39.0727 24.2207L39.1836 24.2477L39.3094 24.2758L39.4645 24.303L39.604 24.3296L39.7719 24.344L39.925 24.3708L40.1063 24.3849L40.2747 24.398L40.4561 24.4119H40.653H40.8344H41.0162L41.1977 24.3708L41.3372 24.3296L41.45 24.2616L41.5341 24.1797L41.6028 24.0976L41.645 24.0024L41.6871 23.9064L41.7156 23.8114L41.7288 23.7162V23.6202L41.7014 23.5381L41.6735 23.4701L41.6171 23.4019L41.5618 23.347L41.4919 23.293L41.4078 23.2377L41.3095 23.1978L41.2109 23.1429L41.1 23.1018L40.9883 23.0606L40.8765 23.0196L40.7505 22.9654L40.6243 22.9244L40.4982 22.8694L40.3733 22.8153L40.2468 22.7604L40.1351 22.6923L40.0091 22.6243L39.8982 22.5563L39.7856 22.4742L39.6881 22.3782L39.604 22.283L39.5197 22.1738L39.4358 22.0508L39.3802 21.9144L39.3249 21.7774L39.2959 21.6143L39.2687 21.4503V21.2588L39.2828 21.0547L39.2959 20.9316L39.3094 20.8084L39.3249 20.6994L39.3515 20.5903L39.3802 20.4812L39.4079 20.3721L39.4499 20.2769L39.492 20.1677L39.5333 20.0858L39.5897 19.9898L39.6459 19.9085L39.7015 19.8264L39.7719 19.7575L39.842 19.6764L39.9116 19.6074L39.9959 19.5534L40.0797 19.4852L40.1772 19.4302L40.2747 19.3761L40.3873 19.335L40.4982 19.28L40.6111 19.2392L40.736 19.2121L40.8623 19.1709L41.0027 19.144L41.1556 19.1169L41.2952 19.103L41.4632 19.0757L41.6314 19.0619H41.7997L41.9813 19.0479H42.1763H42.4007H42.6099L42.806 19.0619H42.9741L43.1278 19.0757L43.2677 19.0889L43.3935 19.103H43.5055L43.6038 19.1169L43.7013 19.13L43.7854 19.144L43.8539 19.1577H43.9106L43.967 19.1709L44.0223 19.185H44.0645L43.7567 20.5764Z" fill="white"/>
<path fill-rule="evenodd" clip-rule="evenodd" d="M45.1979 17.7109H46.96L46.6943 19.1994H47.7704L47.5333 20.5767L46.4144 20.5495L45.8409 23.9618L45.8267 24.03V24.098L45.8409 24.1531L45.8554 24.2071L45.882 24.2483L45.911 24.2892L45.9527 24.3302L45.9949 24.3574L46.0502 24.3853L46.1064 24.3983L46.163 24.4123L46.2184 24.4252L46.2882 24.4391H46.3578L46.4419 24.4534H46.5119H46.6524L46.7782 24.4391L46.8891 24.4252L46.9877 24.3983L47.0573 24.3853L47.1135 24.3574L47.1548 24.3443H47.1703L46.9877 25.5042L46.9455 25.5314L46.8891 25.5584L46.8472 25.5724L46.7916 25.5994L46.7497 25.6133L46.6943 25.6264L46.6377 25.6543L46.5824 25.6676L46.526 25.6815L46.4555 25.6946L46.3867 25.7085L46.3025 25.7227L46.2184 25.7364L46.1345 25.7495L46.0225 25.7634L45.9242 25.7767H45.4493L45.1979 25.7495L44.9744 25.7364L44.7775 25.6946L44.6104 25.6543L44.4564 25.5994L44.3447 25.5314L44.2329 25.4632L44.1486 25.3813L44.0933 25.2861L44.0369 25.1901L44.009 25.081L43.9958 24.9579L43.9805 24.8355L43.9958 24.6985L44.009 24.5624L44.0226 24.4123L45.1979 17.7109Z" fill="white"/>
<path fill-rule="evenodd" clip-rule="evenodd" d="M32.0247 24.4125L31.7724 25.7769H30.1919L30.2074 25.6407L30.234 25.5175L30.2483 25.3953L30.2628 25.2992L30.276 25.2042L30.2902 25.1223L30.3183 25.067L30.3326 25.04L30.2483 25.1352L30.1365 25.2313L30.0246 25.3265L29.8851 25.4084L29.7449 25.4905L29.5918 25.5726L29.4236 25.6407L29.2421 25.6948L29.0605 25.7497L28.8789 25.8048L28.6956 25.8318L28.5139 25.8588L28.3325 25.8727L28.1511 25.886L27.9693 25.8727L27.8012 25.8459L27.5777 25.7908L27.3827 25.7229L27.2002 25.6407L27.0463 25.5455L26.9069 25.4495L26.7807 25.3404L26.6823 25.2175L26.5848 25.0951L26.515 24.972L26.4597 24.8357L26.4035 24.6987L26.3613 24.5625L26.3471 24.4125L26.3192 24.2763V24.1393L26.3047 24.003L26.3336 23.7708L26.3613 23.5388L26.4175 23.3203L26.5007 23.1162L26.6123 22.925L26.7253 22.7468L26.8648 22.5697L27.0044 22.4197L27.1726 22.2835L27.3409 22.1465L27.5221 22.0372L27.7169 21.9422L27.914 21.8462L28.123 21.778L28.3325 21.7379L28.5428 21.6969H28.556H28.5847L28.6401 21.683H28.6956L28.7795 21.6688L28.8638 21.6558L28.9621 21.642H29.0605L29.1714 21.6279L29.2689 21.6148H29.3817L29.4935 21.6009L29.5918 21.5867H29.675H29.7591H29.8289H29.9128H29.9835H30.0527H30.1365H30.2074H30.276H30.3466H30.4167L30.4863 21.6009H30.5416H30.584H30.6402H30.6679H30.6964H30.7098L30.7245 21.5599L30.7654 21.4647L30.7807 21.3417V21.2327V21.1504L30.7654 21.0823L30.7387 21.0143L30.7098 20.9461L30.6679 20.8912L30.6259 20.837L30.584 20.7821L30.5284 20.7278L30.4731 20.6869L30.4167 20.659L30.3466 20.6179L30.2902 20.5909L30.2206 20.5638L30.1365 20.5497L30.0669 20.5368L29.9971 20.5229H29.8155H29.6186L29.4236 20.5368L29.2278 20.5497L29.0186 20.5638L28.8227 20.5769L28.6124 20.6048L28.4168 20.6179L28.235 20.6459L28.0534 20.673L27.8855 20.7L27.7315 20.7411L27.6053 20.768L27.4802 20.8091L27.3959 20.837L27.3262 20.8773L27.7735 19.4177L27.914 19.3626L28.0534 19.3077L28.1928 19.2676L28.347 19.2267L28.5007 19.1855L28.6543 19.1715L28.8227 19.1445L28.99 19.1306L29.1714 19.1174H29.354L29.5356 19.1035H29.7317H29.9275H30.1231L30.3466 19.1174H30.557L30.7387 19.1306L30.9335 19.1583L31.1302 19.1996L31.3254 19.2676L31.5213 19.3355L31.7169 19.4177L31.8987 19.5268L32.08 19.649L32.2348 19.7861L32.3878 19.9363L32.5139 20.0995L32.5979 20.2907L32.6678 20.4817L32.7099 20.7L32.7242 20.9322L32.682 21.1914L32.0247 24.4125Z" fill="white"/>
<path fill-rule="evenodd" clip-rule="evenodd" d="M30.5158 22.7881V22.7611L30.4871 22.734L30.4449 22.7201L30.3896 22.707L30.3053 22.6929H30.2348H30.1373H30.0401H29.9426L29.8297 22.707L29.7325 22.7201L29.6348 22.734L29.5364 22.7611L29.4379 22.7752L29.3691 22.7881L29.2982 22.8159L29.2565 22.829L29.2011 22.8432L29.1447 22.87L29.0613 22.8972L28.9908 22.9251L28.9065 22.966L28.8235 23.0072L28.7386 23.0612L28.6551 23.1163L28.5855 23.1843L28.5014 23.2524L28.4461 23.3204L28.3754 23.4025L28.3333 23.4977L28.3067 23.5938L28.2779 23.7029L28.2637 23.907L28.3067 24.071L28.3478 24.1945L28.4318 24.2895L28.5293 24.3577L28.6277 24.3986L28.7386 24.4256H28.838H29.033L29.2143 24.4125L29.3691 24.3716L29.5085 24.3446L29.6482 24.2895L29.7599 24.2485L29.8717 24.1804L29.9558 24.1253L30.0401 24.0573L30.1239 23.9762L30.1793 23.907L30.2348 23.839L30.2768 23.7709L30.3053 23.7029L30.3334 23.6347L30.3611 23.5667L30.3753 23.4707L30.403 23.3755L30.4175 23.2664L30.4449 23.1564L30.4596 23.0612L30.4739 22.966L30.5013 22.87L30.5158 22.7881Z" fill="#0B84C4"/>
<path fill-rule="evenodd" clip-rule="evenodd" d="M18.7844 25.7767H17.0645L18.5045 17.7109H21.497L21.7914 22.5014L23.8192 17.7109H26.9227L25.4686 25.7767H23.7631L24.8397 19.731H24.7693L22.2244 25.7767H20.2952L20.2811 25.5173L20.2388 24.8486L20.1826 23.8939L20.1134 22.8017L20.0572 21.6967L20.0008 20.7277L19.9588 20.0313L19.9452 19.731H19.9303H19.9167H19.9033H19.8748H19.8614H19.8469H19.8748L18.7844 25.7767Z" fill="white"/>
<path fill-rule="evenodd" clip-rule="evenodd" d="M47.4648 25.7762H49.2423L49.8567 22.2828L49.8845 22.1458L49.9131 22.0234L49.955 21.8864L49.9971 21.7642L50.0382 21.6413L50.1081 21.518L50.1787 21.4089L50.2628 21.2998L50.3603 21.2046L50.4721 21.1227L50.6115 21.0406L50.7656 20.9724L50.9338 20.9186L51.1285 20.8766L51.3531 20.8493L51.6043 20.8362H51.6188H51.6462L51.6886 20.8493H51.7161H51.744H51.7727L51.8004 20.8635L51.8144 20.8362L51.828 20.7543L51.8434 20.6452L51.8845 20.508L51.9262 20.3449L51.9685 20.1806L52.0384 20.0035L52.0937 19.8393L52.1501 19.7174L52.2065 19.6072L52.2619 19.4981L52.3174 19.389L52.3747 19.2939L52.4166 19.226L52.4432 19.1707L52.4579 19.1575H52.4432L52.43 19.1438H52.4013L52.3457 19.1299H52.304L52.2619 19.1167H52.2065H52.1644L51.9685 19.1299L51.8004 19.1438L51.633 19.1848L51.4783 19.226L51.3387 19.2668L51.2126 19.3348L51.0877 19.403L50.9891 19.471L50.8782 19.5532L50.7656 19.6352L50.6815 19.7304L50.5838 19.8393L50.4863 19.9485L50.4025 20.0576L50.305 20.1806L50.2207 20.3039L50.4301 19.1989L48.6403 19.1848L47.4648 25.7762Z" fill="white"/>
<path fill-rule="evenodd" clip-rule="evenodd" d="M57.5766 19.9216L57.6873 20.0309L57.7852 20.1398L57.8832 20.2629C58.7219 21.4091 58.6814 23.1017 57.9662 24.3028C57.3084 25.4078 55.9673 25.9813 54.6816 25.9672C52.2891 25.9543 51.059 23.5247 51.8276 21.2459L51.8981 21.0817C52.8058 19.0208 55.7843 18.3792 57.5766 19.9216Z" fill="white"/>
<path fill-rule="evenodd" clip-rule="evenodd" d="M57.8125 25.4492H58.3283V25.5039H58.133V25.9244H58.0226V25.5039H57.8125V25.4492Z" fill="white"/>
<path fill-rule="evenodd" clip-rule="evenodd" d="M58.4023 25.4492H58.5556L58.7365 25.8173L58.9196 25.4492H59.0878V25.9265H58.9622V25.5583L58.794 25.9265H58.6961L58.513 25.5583V25.9265H58.4023V25.4492Z" fill="white"/>
<path fill-rule="evenodd" clip-rule="evenodd" d="M56.0637 23.2784C56.3574 22.6369 56.5661 21.5999 56.1467 20.9724C55.8253 20.4949 55.1824 20.4537 54.6928 20.7402C53.9797 21.1636 53.686 22.1322 53.7562 22.965C53.8818 24.5755 55.5464 24.4383 56.0637 23.2784Z" fill="#EB2230"/>
<path fill-rule="evenodd" clip-rule="evenodd" d="M38.5695 22.8153C38.7789 21.7373 39.2692 19.0889 36.0661 19.0889C33.0453 19.0889 32.6538 22.0366 32.6538 22.4191C32.5561 22.8153 32.5561 25.7491 35.7592 25.7491C36.5696 25.7491 37.6741 25.6539 38.1633 25.4629L38.4709 24.0845C38.1633 24.1797 37.1705 24.2888 36.3593 24.2888C35.6608 24.2888 34.4577 24.2888 34.6546 22.8155H38.5695V22.8153Z" fill="white"/>
<path fill-rule="evenodd" clip-rule="evenodd" d="M34.6562 21.5463H36.9629C37.2285 19.7715 35.0192 20.1129 34.6562 21.5463Z" fill="#0B84C4"/>
</svg>
