<svg width="76" height="43" viewBox="0 0 76 43" fill="none" xmlns="http://www.w3.org/2000/svg"><path fill-rule="evenodd" clip-rule="evenodd" d="M75.576 40.712c0 1.267-1.113 2.288-2.495 2.288H3.071C1.688 43 .575 41.979.575 40.712V2.289C.576 1.02 1.69 0 3.07 0h70.011c1.382 0 2.495 1.021 2.495 2.289v38.423z" fill="#F8F8F8"/><path fill-rule="evenodd" clip-rule="evenodd" d="M46.652 34.73l.685-.014.685-.056.657-.08.658-.11.657-.15.629-.178.629-.204.602-.233.601-.258.573-.287.56-.314.544-.341.518-.369.504-.382.49-.423.462-.423.447-.465.42-.463.404-.492.363-.518.35-.532.323-.546.292-.56.266-.573.238-.6.224-.601.168-.628.153-.627.126-.642.07-.655.055-.67.028-.668-.028-.668-.055-.655-.07-.656-.126-.641-.153-.628-.168-.613-.224-.6-.238-.588-.266-.573-.292-.574-.323-.545-.35-.519-.364-.518-.404-.492-.42-.464-.446-.464-.462-.423-.49-.41-.504-.395-.518-.355-.545-.341-.56-.313-.572-.288-.601-.26-.602-.231-.629-.204-.629-.178-.657-.15-.658-.11-.657-.081-.685-.055-.685-.014-.7.014-.67.055-.672.081-.658.11-.643.15-.643.178-.615.204-.616.232-.587.26-.573.287-.56.313-.545.341-.518.355-.503.396-.49.41-.46.421-.448.465-.42.465-.391.49-.378.52-.335.518-.323.545-.292.574-.267.573-.238.587-.224.6-.168.614-.153.628-.112.641-.084.656-.056.655-.013.668.013.669.056.67.084.654.112.642.153.627.168.628.224.6.238.601.267.574.292.559.323.546.335.532.378.518.392.492.419.463.447.465.462.423.49.423.502.382.518.368.545.342.56.314.573.287.587.258.616.233.615.204.643.178.643.15.658.11.672.08.67.056.7.014z" fill="#EB2230"/><path fill-rule="evenodd" clip-rule="evenodd" d="M28.934 34.73l.684-.014.686-.056.658-.08.657-.11.657-.15.63-.178.628-.204.602-.233.587-.258.573-.287.56-.314.545-.341.531-.369.505-.382.475-.423.475-.423.433-.465.42-.463.391-.492.378-.518.35-.532.32-.546.295-.56.266-.573.238-.6.21-.601.167-.628.154-.627.125-.642.084-.655.042-.67.029-.668L42.26 21l-.042-.655-.084-.656-.125-.641-.154-.628-.168-.613-.21-.6-.237-.588-.266-.573-.294-.574-.321-.545-.35-.519-.378-.518-.391-.492-.42-.464-.433-.464-.475-.423-.475-.41-.505-.395-.531-.355-.545-.341-.56-.313-.573-.288-.587-.26-.602-.231-.629-.204-.63-.178-.656-.15-.657-.11-.658-.081-.686-.055-.684-.014-.7.014-.67.055-.672.081-.656.11-.644.15-.644.178-.615.204-.615.232-.588.26-.573.287-.573.313-.532.341-.53.355-.505.396-.49.41-.46.421-.434.465-.434.465-.391.49-.377.52-.35.518-.322.545-.293.574-.266.573-.237.587-.21.6-.182.614-.155.628-.111.641-.084.656-.056.655-.014.668.014.669.056.67.084.654.111.642.155.627.182.628.21.6.237.601.266.574.293.559.322.546.35.532.377.518.39.492.435.463.433.465.461.423.49.423.504.382.531.368.532.342.573.314.573.287.588.258.615.233.615.204.644.178.644.15.656.11.672.08.67.056.7.014z" fill="#0B84C4"/><path fill-rule="evenodd" clip-rule="evenodd" d="M36.152 13.617h6.768v-.723h-6.126l-.642.723zM35.09 15.16h7.83v-.725h-7.369l-.461.724zm-.8 1.569h8.628v-.724h-8.264l-.365.724zm-.517 1.541h9.146v-.723h-8.922l-.224.723zm-.347 1.556h9.495v-.737h-9.355l-.14.737zm-.074 2.99h9.566v-.724h-9.621l.055.724zm.238 1.637h9.327v-.736h-9.468l.14.736zm.451 1.323h8.88v-.737h-9.105l.225.737zm.672 1.61h8.209v-.737h-8.559l.35.737zm.962 1.626h7.244v-.724h-7.747l.503.724zm1.19 1.568h5.984v-.724h-6.642l.658.724zm20.959-.9l.043-.123.07-.11.085-.094.096-.07.098-.067.126-.027.127-.014.126.014.125.027.111.068.1.069.083.095.055.11.043.122h-.14l-.028-.082-.04-.096-.073-.081-.068-.055-.083-.041-.1-.041h-.21l-.113.04-.083.042-.085.055-.055.081-.043.096-.027.082h-.14z" fill="#EB2230"/><path fill-rule="evenodd" clip-rule="evenodd" d="M58.248 29.68v-.164h.25l.056.014h.042l.043.013.042.014.026.026.014.028.013.027v.041h-.11v-.027l-.015-.014-.013-.014-.015-.013-.015-.013h-.025l-.015-.015h-.168v.096h-.11zm-.424.108v-.108h.143l-.015.013v.095h-.128zm.424 0v-.108h.11v.081h.208l.03-.014h.013l.015-.026v-.041h.11v.067l-.013.027-.014.014h-.459zm.74 0l-.015-.095v-.013h.142l.015.108h-.142zm-1.163.002l-.013.012.013.137.043.122.07.096.085.095.096.07.098.054.128.04.125.015.126-.014.126-.041.11-.054.1-.07.083-.095.056-.096.042-.122.015-.137v-.013h-.14v.013l-.015.123-.028.096-.04.095-.073.068-.068.068-.083.042-.1.04h-.209l-.112-.04-.084-.042-.085-.068-.055-.068-.043-.095-.042-.096v-.136h-.126z" fill="#EB2230"/><path fill-rule="evenodd" clip-rule="evenodd" d="M58.248 29.79v.257h.11v-.217h.113l.138.217h.112l-.167-.217h.085l.027-.014.028-.027h.012-.458z" fill="#EB2230"/><path fill-rule="evenodd" clip-rule="evenodd" d="M43.757 20.576l-.084-.013h-.098l-.07-.014-.083-.013-.085-.014-.07-.014-.084-.013-.097-.014h-.084l-.098-.014-.112-.013H42.4l-.168.013-.168.014-.126.014-.126.027-.112.041-.098.041-.083.041-.084.054-.057.055-.055.054-.042.083-.029.068-.013.068v.082l.028.082.027.082.042.082.07.082.127.11.14.08.181.082.182.068.21.055.196.069.21.082.21.082.18.095.182.123.154.164.14.19.098.232.07.274.014.327-.014.382-.057.287-.068.259-.113.232-.126.205-.14.178-.167.15-.182.136-.195.123-.196.095-.21.068-.21.069-.223.04-.21.042-.21.013-.21.014-.196.013h-.265l-.253-.013h-.433l-.181-.014-.168-.013h-.154l-.14-.028-.14-.014-.125-.027-.113-.013-.11-.028-.1-.041-.111-.027-.112-.041-.112-.027.28-1.351.055.014.085.027.083.014.113.027.11.027.126.028.156.027.139.027.168.014.153.027.181.014.169.013.181.014h.56l.182-.041.14-.041.112-.068.084-.082.069-.082.042-.096.042-.096.029-.095.013-.095v-.096l-.028-.082-.028-.068-.056-.068-.055-.055-.07-.054-.084-.055-.099-.04-.098-.055-.111-.041-.112-.041-.111-.041-.127-.055-.126-.04-.126-.056-.125-.054-.126-.055-.112-.068-.126-.068-.11-.068-.113-.082-.098-.096-.084-.095-.084-.11-.084-.122-.056-.137-.055-.137-.03-.163-.026-.164v-.191l.014-.204.013-.123.013-.124.016-.109.026-.109.03-.109.027-.109.042-.095.042-.11.041-.081.057-.096.056-.081.056-.083.07-.069.07-.08.07-.07.084-.054.084-.068.097-.055.098-.054.112-.041.111-.055.113-.04.125-.028.126-.041.14-.027.154-.027.14-.014.167-.027.168-.014h.169l.181-.014h.629l.196.014h.168l.154.014.14.013.126.014h.111l.099.014.097.013.084.014.069.014h.057l.056.013.055.014h.043l-.308 1.391zm1.441-2.866h1.762l-.266 1.49h1.076l-.237 1.377-1.119-.028-.573 3.413-.014.068v.068l.014.055.014.054.027.041.029.041.042.041.042.027.055.028.056.013.057.014.055.013.07.014h.07l.084.014h.21l.126-.014.111-.014.099-.027.07-.013.056-.028.04-.013h.016l-.182 1.16-.042.027-.057.027-.042.014-.055.027-.042.014-.056.013-.056.028-.056.014-.056.014-.07.013-.07.014-.084.014-.084.013-.084.014-.111.013-.099.014h-.475l-.251-.027-.224-.014-.196-.041-.168-.04-.154-.056-.111-.068-.112-.068-.084-.082-.056-.095-.056-.096-.028-.109-.013-.123-.016-.122.016-.137.013-.137.014-.15 1.175-6.701zm-13.173 6.703l-.253 1.364h-1.58l.015-.136.027-.123.014-.123.015-.096.013-.095.014-.082.028-.055.015-.027-.085.095-.111.096-.112.095-.14.082-.14.082-.153.083-.168.068-.182.054-.181.055-.182.055-.183.027-.182.027-.181.014-.182.013-.182-.013-.168-.027-.223-.055-.195-.068-.183-.082-.154-.095-.14-.096-.125-.11-.099-.122-.097-.123-.07-.123-.055-.136-.056-.137-.043-.137-.014-.15-.028-.136v-.137l-.014-.136.029-.232.027-.232.056-.219.084-.204.111-.191.113-.178.14-.177.14-.15.168-.137.168-.137.181-.109.195-.095.197-.096.209-.068.21-.04.21-.041h.042l.055-.014h.056l.083-.014.085-.013.098-.014h.099l.11-.014.098-.013h.113l.111-.014.099-.014h.824l.07.014h.224l.014-.041.041-.095.016-.123v-.192l-.016-.068-.026-.068-.03-.068-.041-.055-.042-.054-.042-.055-.056-.054-.055-.041-.056-.028-.07-.041-.057-.027-.07-.027-.083-.014-.07-.013-.07-.014h-.378l-.195.014-.196.013-.21.014-.195.013-.21.028-.196.013-.182.028-.182.027-.168.027-.154.041-.126.027-.125.041-.084.028-.07.04.447-1.46.141-.054.14-.055.139-.04.154-.041.154-.041.153-.014.169-.027.167-.014.181-.014h.183l.182-.014h.587l.224.014h.21l.182.014.194.027.197.042.195.068.196.067.196.083.182.109.181.122.155.137.153.15.126.163.084.192.07.19.042.219.014.232-.042.26-.657 3.22z" fill="#fff"/><path fill-rule="evenodd" clip-rule="evenodd" d="M30.516 22.788v-.027l-.029-.027-.042-.014-.055-.013-.085-.014h-.362l-.113.014-.097.013-.098.014-.099.027-.098.014-.069.013-.07.028-.043.013-.055.014-.056.027-.084.027-.07.028-.084.041-.084.041-.084.054-.084.055-.07.068-.084.068-.055.068-.07.082-.043.096-.026.096-.03.109-.013.204.043.164.04.123.085.096.097.068.099.04.11.028h.296l.181-.013.155-.041.14-.027.14-.055.11-.041.113-.069.084-.055.084-.068.084-.08.055-.07.056-.068.042-.068.028-.068.028-.068.028-.068.014-.096.028-.096.015-.109.027-.11.015-.095.014-.095.027-.096.015-.082z" fill="#0B84C4"/><path fill-rule="evenodd" clip-rule="evenodd" d="M18.784 25.777h-1.72l1.44-8.066h2.993l.294 4.79 2.028-4.79h3.104l-1.454 8.066h-1.706l1.077-6.046h-.07l-2.546 6.046h-1.929l-.014-.26-.042-.668-.056-.955-.07-1.092-.056-1.105-.056-.97-.042-.696-.014-.3h-.098.028l-1.09 6.046zm28.681-.001h1.777l.615-3.493.028-.137.028-.123.042-.137.042-.122.041-.123.07-.123.07-.11.085-.108.097-.095.112-.082.14-.082.154-.069.168-.053.195-.042.224-.028.251-.013h.042l.043.013h.084l.027.014.014-.027.014-.082.015-.109.041-.137.042-.163.042-.164.07-.178.056-.164.056-.122.056-.11.056-.109.055-.109.058-.095.042-.068.026-.055.015-.014h-.015l-.013-.013h-.029l-.055-.014h-.042l-.042-.013h-.098l-.196.013-.168.014-.167.04-.155.042-.14.04-.125.069-.125.068-.099.068-.11.082-.113.082-.084.095-.098.11-.098.108-.083.11-.098.123-.084.123.21-1.105-1.79-.014-1.176 6.591zm10.112-5.854l.11.109.098.109.098.123c.839 1.146.798 2.839.083 4.04-.658 1.105-1.999 1.678-3.284 1.664-2.393-.013-3.623-2.442-2.854-4.721l.07-.164c.908-2.061 3.886-2.703 5.679-1.16zm.236 5.528h.515v.054h-.195v.42h-.11v-.42h-.21v-.055zm.589 0h.154l.18.367.184-.368h.168v.477h-.126v-.368l-.168.369h-.098l-.183-.369v.369h-.11v-.478z" fill="#fff"/><path fill-rule="evenodd" clip-rule="evenodd" d="M56.064 23.278c.293-.641.502-1.678.083-2.306-.322-.477-.965-.518-1.454-.232-.713.424-1.007 1.392-.937 2.225.126 1.61 1.79 1.473 2.308.313z" fill="#EB2230"/><path fill-rule="evenodd" clip-rule="evenodd" d="M38.57 22.815c.209-1.078.7-3.726-2.504-3.726-3.02 0-3.412 2.948-3.412 3.33-.098.396-.098 3.33 3.105 3.33.81 0 1.915-.095 2.404-.286l.308-1.379c-.308.096-1.3.205-2.112.205-.698 0-1.901 0-1.704-1.474h3.914z" fill="#fff"/><path fill-rule="evenodd" clip-rule="evenodd" d="M34.656 21.546h2.307c.265-1.774-1.944-1.433-2.307 0z" fill="#0B84C4"/></svg>