<svg version="1.1" id="Capa_1" xmlns="http://www.w3.org/2000/svg" xmlns:xlink="http://www.w3.org/1999/xlink" x="0" y="0" width="45.005" height="45.005" viewBox="0 0 45.005 45.005" xml:space="preserve"><path d="M45.002 18.555l-.504-1.662-.428-5.583a.137.137 0 00-.139-.128.142.142 0 00-.143.129l-.418 5.553-.377 1.249-.367-1.218-.426-5.584c-.008-.074-.066-.129-.141-.129s-.135.055-.141.128l-.424 5.554-.506 1.692a.145.145 0 00-.006.041v4.347l-2.824-2.446v-6.875a.145.145 0 00-.006-.041l-.504-1.663-.426-5.583a.138.138 0 00-.139-.129.143.143 0 00-.143.129l-.424 5.554-.506 1.692a.135.135 0 00-.006.041v5.011l-3.441-2.983v-7a.246.246 0 00-.004-.04l-.508-1.666-.422-5.583a.14.14 0 00-.139-.129.143.143 0 00-.143.129l-.417 5.555-.373 1.25-.365-1.221-.428-5.583c-.006-.072-.064-.129-.141-.129s-.137.057-.141.129l-.42 5.553-.51 1.695a.129.129 0 00-.006.04v3.515L22.59 7.002a.14.14 0 00-.184 0l-5.957 5.163V8.651a.129.129 0 00-.006-.04l-.503-1.665-.424-5.583a.138.138 0 00-.14-.129.14.14 0 00-.14.129l-.423 5.554-.374 1.25-.368-1.221-.426-5.583a.142.142 0 00-.142-.129.142.142 0 00-.14.129l-.418 5.553-.511 1.695a.168.168 0 00-.005.04v6.999l-3.441 2.983v-5.011a.109.109 0 00-.007-.04l-.5-1.664-.429-5.583a.14.14 0 00-.279 0l-.421 5.553-.508 1.692a.135.135 0 00-.006.041v6.874l-2.825 2.447v-4.347a.145.145 0 00-.006-.041l-.497-1.66-.428-5.584a.138.138 0 00-.14-.128.137.137 0 00-.139.129l-.421 5.553-.374 1.249-.368-1.219-.425-5.584a.14.14 0 00-.142-.129.14.14 0 00-.139.128l-.422 5.554-.508 1.692a.299.299 0 00-.004.041v25.036c0 .076.062.14.139.14h4.238v-3.96c0-.014.001-.024.004-.036.004-.011.32-1.138 1.67-1.138 1.349 0 1.667 1.128 1.67 1.138a.105.105 0 01.005.036v3.96h3.173v-3.96c0-.014.001-.024.004-.036.003-.01.32-1.138 1.668-1.138 1.353 0 1.668 1.128 1.671 1.138a.137.137 0 01.004.036v3.96h5.582v-7.687a.13.13 0 01.005-.037c.006-.018.509-1.812 2.666-1.812 2.159 0 2.663 1.795 2.669 1.812a.135.135 0 01.006.037v7.687h5.582v-3.96c0-.014 0-.024.004-.036.002-.01.316-1.138 1.668-1.138 1.35 0 1.668 1.127 1.672 1.138.002.012.004.022.004.036v3.96h3.84v-3.96c0-.014 0-.024.004-.036.006-.01.318-1.138 1.666-1.138 1.352 0 1.67 1.127 1.672 1.138a.073.073 0 01.008.036v3.96h3.57a.142.142 0 00.141-.14V18.596c.001-.013-.001-.027-.003-.041zM7.732 34.811a.14.14 0 01-.141.14H4.523a.14.14 0 01-.14-.14v-3.819a.15.15 0 01.004-.035c.004-.013.32-1.136 1.67-1.136 1.349 0 1.667 1.124 1.67 1.136a.114.114 0 01.005.035v3.819zm6.519 0c0 .078-.061.14-.139.14h-3.069a.139.139 0 01-.139-.14v-3.819a.15.15 0 01.004-.035c.003-.012.32-1.136 1.668-1.136 1.353 0 1.668 1.124 1.671 1.136a.15.15 0 01.004.035v3.819zm0-8.82a.141.141 0 01-.139.142h-3.069a.14.14 0 01-.139-.142v-3.818c0-.012.001-.024.004-.036.003-.011.321-1.137 1.668-1.137 1.353 0 1.668 1.127 1.671 1.138a.147.147 0 01.004.036v3.817zm10.259 4.252a.142.142 0 01-.143.142H20.64a.142.142 0 01-.141-.142v-4.64c0-.013.001-.024.004-.036.006-.016.382-1.363 1.999-1.363 1.621 0 1.996 1.351 2 1.363a.109.109 0 01.006.036l.002 4.64zm0-10.72a.14.14 0 01-.141.141h-3.727a.141.141 0 01-.141-.141v-4.639c0-.013.001-.024.004-.036.006-.015.382-1.364 1.999-1.364 1.621 0 1.996 1.35 2 1.364a.109.109 0 01.006.036v4.639zm9.597 15.288c0 .078-.061.14-.139.14h-3.07a.14.14 0 01-.139-.14v-3.819c0-.011.002-.022.004-.035.004-.012.318-1.136 1.67-1.136s1.668 1.123 1.67 1.136a.11.11 0 01.004.035v3.819zm0-8.82a.141.141 0 01-.139.142h-3.07a.14.14 0 01-.139-.142v-3.818c0-.012.002-.024.004-.036.005-.011.319-1.137 1.671-1.137s1.668 1.127 1.67 1.138c.004.012.004.024.004.036v3.817h-.001zm7.188 8.82a.14.14 0 01-.143.14h-3.064a.141.141 0 01-.141-.14v-3.819c0-.011 0-.022.004-.035.006-.012.318-1.136 1.666-1.136 1.352 0 1.668 1.123 1.672 1.136a.076.076 0 01.006.035v3.819z"/></svg>