<svg width="44" height="57" viewBox="0 0 44 57" fill="none" xmlns="http://www.w3.org/2000/svg"><path d="M43.44 11.44L22.203.126a1.055 1.055 0 00-1.005.005L.548 11.447a1.057 1.057 0 00-.548.927v14.782a30.606 30.606 0 0018.345 28.011l2.866 1.25c.268.116.573.117.841 0l3.23-1.394A30.546 30.546 0 0044 26.863v-14.49c0-.39-.215-.75-.56-.933zm-1.554 15.423a28.437 28.437 0 01-17.432 26.215l-.007.003-2.813 1.214-2.443-1.066A28.49 28.49 0 012.114 27.156V13L21.713 2.259l20.172 10.749v13.855z" fill="url(#paint0_radial)"/><path d="M13.912 26.47a1.057 1.057 0 10-1.608 1.373l5.585 6.54a1.057 1.057 0 001.471.134l13.007-10.582a1.057 1.057 0 10-1.335-1.64l-12.205 9.93-4.915-5.755z" fill="url(#paint1_radial)"/><defs><radialGradient id="paint0_radial" cx="0" cy="0" r="1" gradientUnits="userSpaceOnUse" gradientTransform="matrix(35.3028 0 0 104.051 33.563 24.895)"><stop stop-color="#16C940"/><stop offset=".34" stop-color="#0D9733"/><stop offset=".756" stop-color="#045F24"/><stop offset=".958" stop-color="#00491E"/></radialGradient><radialGradient id="paint1_radial" cx="0" cy="0" r="1" gradientUnits="userSpaceOnUse" gradientTransform="matrix(16.6135 0 0 23.3801 27.846 27.652)"><stop stop-color="#16C940"/><stop offset=".34" stop-color="#0D9733"/><stop offset=".756" stop-color="#045F24"/><stop offset=".958" stop-color="#00491E"/></radialGradient></defs></svg>