<svg width="59" height="59" viewBox="0 0 59 59" fill="none" xmlns="http://www.w3.org/2000/svg"><path d="M29.5 59C45.792 59 59 45.792 59 29.5S45.792 0 29.5 0 0 13.208 0 29.5 13.208 59 29.5 59z" fill="#32BA7C"/><path d="M21.962 42.808L37.13 57.977C49.694 54.627 59 43.18 59 29.5v-.837L47.088 17.682 21.962 42.808z" fill="#0AA06E"/><path d="M30.244 36.107c1.303 1.303 1.303 3.536 0 4.84l-2.699 2.698c-1.303 1.303-3.536 1.303-4.84 0L10.888 31.733c-1.303-1.303-1.303-3.536 0-4.839l2.699-2.699c1.303-1.302 3.536-1.302 4.84 0l11.818 11.912z" fill="#fff"/><path d="M40.573 15.541c1.303-1.303 3.537-1.303 4.84 0l2.698 2.699c1.303 1.303 1.303 3.536 0 4.839l-20.473 20.38c-1.303 1.303-3.536 1.303-4.84 0L20.1 40.76c-1.303-1.302-1.303-3.536 0-4.839l20.473-20.38z" fill="#fff"/></svg>