<svg xmlns="http://www.w3.org/2000/svg" width="98" height="32" viewBox="0 0 98 32"><path fill="#00a1e9" d="M5.572 0C2.491 0 0 2.295 0 5.126v21.747c0 2.831 2.492 5.126 5.572 5.126h23.639c3.078 0 5.568-2.295 5.568-5.126v-.222c-.102-.041-9.037-3.469-13.581-5.478-3.061 3.469-7.014 5.574-11.119 5.574-6.94 0-9.295-5.589-6.01-9.265.717-.802 1.937-1.568 3.827-1.997 2.959-.67 7.667.416 12.081 1.758a21.297 21.297 0 001.958-4.405H8.337v-1.267h7.012V9.297H6.852V8.03h8.495V4.787s0-.544.602-.544h3.428V8.03h8.397v1.267h-8.397v2.274h6.854c-.683 2.56-1.677 4.804-2.961 6.846l.06-.102c2.08.693 3.947 1.35 5.34 1.779 4.64 1.429 5.943 1.604 6.11 1.621V5.126C34.78 2.295 32.288 0 29.21 0H5.573zm3.815 17.338c-.299.004-.597.019-.9.045-.868.081-2.498.433-3.392 1.161-2.673 2.144-1.073 6.065 4.339 6.065 3.145 0 6.287-1.85 8.755-4.813-3.183-1.427-5.924-2.487-8.802-2.458z"/><path fill="#6a6a6a" d="M94.43 20.427l-1.57 3.153-1.591-3.153h-1.557l2.423 4.358v3.04h1.429v-3.04l.009-.017 2.411-4.341h-1.553zm-11.49 1.907l1.107 3.07h-2.255l1.146-3.07zm1.448 4.002l.533 1.489h1.493l-2.944-7.398h-1.143l-2.938 7.398h1.5l.555-1.489h2.944zm-11.166-2.372h-1.589v-2.53h1.589c.798 0 1.276.646 1.276 1.269 0 .612-.448 1.261-1.276 1.261zm.081-3.537h-3.108v7.398h1.438v-2.844h1.67c1.551 0 2.635-.939 2.635-2.278s-1.084-2.276-2.635-2.276zm-10.38 7.398h1.44v-7.398h-1.44v7.398zm-10.119-7.398v7.401h4.843v-1.009h-3.405v-6.391h-1.438zm-8.196 1.907l1.107 3.07h-2.253l1.146-3.07zm1.449 4.002l.533 1.489h1.493l-2.944-7.398h-1.143l-2.935 7.398h1.495l.557-1.489h2.944zM56.183 5.963h-6.172V3.917h7.157V2.646h-7.157V.052h-3.202a.62.62 0 00-.619.605v1.987h-7.108v1.274h7.108v2.048h-5.999v1.271h11.947s-.663 2.389-3.94 4.96c-2.935-2.054-3.917-3.691-3.917-3.691h-3.204c1.297 2.076 3.138 3.742 5.122 5.062-1.822 1.094-4.186 2.15-7.241 2.995v1.525s4.715-.823 9.271-3.307c4.563 2.464 9.146 3.307 9.146 3.307v-1.444c-2.933-.988-5.257-2.074-7.083-3.121 2.645-1.813 4.96-4.271 5.888-7.561zM76.226.307h-3.213v3.104h-7.917v1.25h7.917v11.164a.538.538 0 01-.518.469h-1.633v1.291h4.162a1.216 1.216 0 001.201-1.153V4.662h1.303V3.414h-1.301V.308zm-6.773 6.462a.726.726 0 00-.637-.378H66.14l2.084 6.074h3.168l-1.939-5.696zM61.549.16l-3.684 8.062h2.827v9.591h3.091V5.09h-1.12L64.988.16h-3.439zm35.842 17.216l-1.129-3.531a.583.583 0 00-.548-.386h-3.002l.868 2.709h-3.52v-5.25h6.912v-1.25H90.06v-2.47h6.912v-1.25H79.728v1.25h6.908v2.47h-6.908v1.25h6.908v5.248h-6.908v1.25h17.664l-.015-.043h.013zM83.322 2.965h10.063v1.843h3.595V2.615a.921.921 0 00-.921-.896H90.23V0h-3.761v1.719h-6.741v3.093h3.595V2.965z"/></svg>