<svg xmlns="http://www.w3.org/2000/svg" width="70" height="32" viewBox="0 0 70 32"><path d="M14.106 4.08c.864-1.054 1.483-2.458 1.296-3.861-1.296.058-2.842.818-3.77 1.813-.803.877-1.544 2.339-1.36 3.685 1.483.176 2.904-.586 3.834-1.638zm1.296 1.987c-2.099-.117-3.893 1.112-4.88 1.112-.992 0-2.536-1.053-4.203-1.053-2.163.058-4.141 1.168-5.251 3.04-2.224 3.685-.619 9.125 1.605 12.107 1.05 1.462 2.349 3.101 4.016 3.042 1.61-.058 2.227-.994 4.141-.994 1.917 0 2.474.994 4.203.936 1.728-.059 2.843-1.462 3.891-2.984 1.237-1.696 1.733-3.333 1.733-3.392-.062-.059-3.4-1.229-3.4-4.854-.062-3.04 2.597-4.504 2.72-4.562-1.422-2.106-3.77-2.339-4.576-2.398zm16.619-2.406c4.131 0 6.976 2.909 6.976 7.072 0 4.218-2.901 7.126-7.088 7.126h-4.52v7.355h-3.291V3.664h7.923zm-4.632 11.405h3.741c2.845 0 4.464-1.597 4.464-4.277 0-2.736-1.619-4.277-4.464-4.277h-3.795v8.554h.054zm12.445 5.758c0-2.736 2.064-4.448 5.749-4.675l4.24-.229v-1.197c0-1.768-1.171-2.794-3.069-2.794-1.84 0-2.958.912-3.237 2.28h-3.014c.17-2.851 2.568-4.96 6.363-4.96 3.739 0 6.138 1.995 6.138 5.189V25.27h-3.013v-2.565h-.054c-.896 1.768-2.848 2.851-4.858 2.851-3.125 0-5.245-1.939-5.245-4.733zm9.987-1.424v-1.256l-3.792.229c-1.898.112-2.96.968-2.96 2.336 0 1.37 1.118 2.282 2.79 2.282 2.234 0 3.963-1.539 3.963-3.592zm5.974 11.688v-2.624c.222.058.781.058 1.003.058 1.45 0 2.23-.627 2.734-2.224 0-.056.28-.97.28-.97L54.23 9.59h3.405l3.906 12.83h.056l3.906-12.83h3.349l-5.747 16.594c-1.339 3.821-2.848 5.018-6.03 5.018-.222-.058-1.002-.058-1.28-.114z"/></svg>