<svg xmlns="http://www.w3.org/2000/svg" width="53" height="32" viewBox="0 0 53 32"><path d="M26.677 21.248L6.725.875C6.203.333 5.471-.003 4.661-.003S3.119.334 2.598.875l-.001.001L.853 2.652A2.974 2.974 0 000 4.742v.023-.001c0 .8.304 1.547.853 2.107l23.755 24.267a2.858 2.858 0 002.05.864h.02-.001.014c.806 0 1.534-.333 2.055-.869l.001-.001L52.48 6.892a2.974 2.974 0 00.853-2.09V4.77c0-.814-.326-1.552-.854-2.091v.001L50.735.893C50.211.355 49.48.022 48.671.022s-1.54.334-2.063.871l-.001.001-19.931 20.357z"/></svg>