<svg xmlns="http://www.w3.org/2000/svg" width="15" height="32" viewBox="0 0 15 32"><path d="M14.245 15.502a2.991 2.991 0 00-1.522-2.596 1.982 1.982 0 001.522-1.901V11c0-.318-.08-.618-.222-.879l.005.01a7.097 7.097 0 00-3.125-4.103l-.031-.018H3.629a7.097 7.097 0 00-3.144 4.071l-.012.05a1.862 1.862 0 00-.217.873c0 .929.658 1.679 1.522 1.9A2.993 2.993 0 00.256 15.5c0 1.117.618 2.077 1.522 2.596a1.974 1.974 0 00-1.522 1.899v9.993a2 2 0 001.999 1.999h9.992a2 2 0 001.999-1.999v-9.99a1.97 1.97 0 00-1.509-1.9l-.013-.003a2.984 2.984 0 001.522-2.596zM10.247.013H4.25a1 1 0 00-.996.998V3.01a1 1 0 00.998 1.001h5.997a1 1 0 00.998-1.001V1.011a1.002 1.002 0 00-1.001-.998z"/></svg>