<svg xmlns="http://www.w3.org/2000/svg" width="32" height="32" viewBox="0 0 32 32"><path d="M16 6.463c6.115 0 11.658 3.346 15.75 8.778a1.265 1.265 0 01-.002 1.515l.002-.003c-4.092 5.44-9.635 8.785-15.75 8.785S4.342 22.192.25 16.76a1.265 1.265 0 01.002-1.515l-.002.003C4.344 9.808 9.885 6.463 16 6.463zm-.439 16.253a6.734 6.734 0 007.154-7.176l.001.02c-.234-3.368-2.909-6.042-6.256-6.274l-.021-.001a6.734 6.734 0 00-7.154 7.174l-.001-.02c.243 3.364 2.913 6.033 6.255 6.274l.022.001zm.203-3.102a3.618 3.618 0 003.85-3.86l.001.011a3.643 3.643 0 00-3.373-3.384l-.011-.001a3.618 3.618 0 00-3.848 3.86l-.001-.011a3.642 3.642 0 003.371 3.384l.012.001z"/></svg>