<svg xmlns="http://www.w3.org/2000/svg" width="30" height="32" viewBox="0 0 30 32"><path d="M9.906 20.333c1.026 0 1.858-.896 1.858-2s-.832-2-1.858-2c-1.026 0-1.856.896-1.856 2s.83 2 1.856 2z"/><path d="M27.588 14.95c.142-1.312.27-2.807.27-3.833C27.86 3.748 19.888 1 14.859 1c-3.262 0-5.614 1.883-6.407 2.615-2.475.155-6.594 1.851-6.594 7.502 0 1.042.13 2.53.27 3.835C.873 15.503.002 16.81.002 18.335c0 1.925 1.39 3.49 3.143 3.637 1.678 5.243 6.29 9.029 11.714 9.029s10.034-3.783 11.714-9.029c1.753-.146 3.143-1.714 3.143-3.639 0-1.522-.871-2.83-2.128-3.383zm-2.605 5.819l-.005.007v.005C23.707 25.522 19.657 29 14.859 29c-5.232 0-9.573-4.137-10.389-9.534l1.234-4.656c1.104-.377 3.575-1.445 4.658-3.701 1.664 1.696 5.394 3.776 13.701 3.886l1.186 4.464c-.069.443-.155.882-.27 1.31z"/><path d="M19.813 20.333c1.026 0 1.856-.896 1.856-2s-.83-2-1.856-2c-1.026 0-1.858.896-1.858 2s.832 2 1.858 2zm-2.503 2.946c-.616.65-1.486 1.055-2.45 1.055s-1.834-.405-2.449-1.053l-.001-.002a.883.883 0 00-1.314.026l-.001.001a1.054 1.054 0 00.023 1.416l-.001-.001a5.155 5.155 0 003.741 1.607 5.169 5.169 0 003.739-1.607 1.054 1.054 0 00.022-1.418l.001.001a.881.881 0 00-1.311-.026z"/></svg>