<svg xmlns="http://www.w3.org/2000/svg" width="55" height="32" viewBox="0 0 55 32"><path fill="#eb2230" d="M37.768 31.447l.812-.017.812-.065.779-.097.78-.129.779-.178.745-.211.745-.242.713-.275.711-.308.679-.339.664-.372.646-.404.614-.437.597-.453.581-.5.548-.503.53-.55.497-.55.48-.582.431-.615.414-.631.383-.647.346-.664.315-.679.282-.711.265-.711.199-.745.181-.743.149-.761.083-.775.065-.794.033-.793-.033-.792-.065-.776-.083-.776-.149-.761-.181-.744-.199-.727-.265-.711-.282-.696-.315-.68-.346-.679-.383-.647-.415-.614-.43-.615-.48-.582-.498-.551-.529-.55-.548-.501-.581-.486-.597-.467-.614-.422-.646-.404-.664-.371-.678-.341-.712-.307-.713-.275-.745-.242-.745-.21-.779-.178-.78-.13-.779-.097-.811-.064-.812-.017-.83.017-.794.065-.796.096-.78.13-.762.178-.762.211-.729.242-.73.275-.697.308-.679.34-.663.371-.646.404-.614.422-.596.468-.581.486-.545.5-.532.55-.495.551-.465.582-.448.615-.397.614-.383.647-.346.679-.316.68-.282.695-.265.711-.199.728-.18.744-.134.761-.1.776-.066.776-.015.792.015.794.066.793.1.775.133.761.181.743.2.744.264.711.282.712.316.68.346.664.383.646.397.631.448.615.465.582.495.55.531.55.548.503.581.5.595.453.614.437.646.404.664.372.678.34.697.307.73.275.729.242.762.211.762.178.78.13.796.095.794.066.83.017z"/><path fill="#0b84c4" d="M16.766 31.447l.811-.017.813-.065.78-.097.779-.129.779-.178.747-.211.744-.242.713-.275.696-.308.679-.339.664-.372.646-.404.629-.437.599-.453.563-.5.563-.503.513-.55.498-.55.463-.582.448-.615.415-.631.379-.647.35-.664.315-.679.282-.711.249-.711.198-.745.183-.743.148-.761.1-.775.05-.794.034-.793-.034-.792-.05-.776-.1-.776-.148-.761-.183-.744-.199-.727-.249-.711-.281-.696-.315-.68-.348-.679-.38-.647-.415-.614-.448-.615-.463-.582-.498-.551-.513-.55-.563-.501-.563-.486-.599-.467-.629-.422-.646-.404-.664-.371-.679-.341-.696-.307-.713-.275-.745-.242-.747-.21-.777-.178-.779-.13-.78-.097-.813-.065-.811-.017-.83.017-.794.065-.796.096-.777.13-.763.178-.763.211-.729.242-.729.275-.697.308-.679.34-.679.371-.631.404-.628.422-.599.468-.581.486-.545.5-.514.55-.514.551-.463.582-.447.615-.415.614-.382.647-.347.679-.315.68-.281.695-.249.711-.216.728-.184.744-.132.761-.1.776-.066.776-.017.792.017.794.066.793.1.775.132.761.184.743.216.744.249.711.281.712.315.68.347.664.382.646.415.631.447.615.462.582.516.55.514.55.545.503.581.5.597.453.629.437.631.404.679.372.679.34.697.307.729.275.729.242.763.211.763.178.777.13.796.095.794.066.83.017z"/><path fill="#eb2230" d="M25.321 6.425h8.021v-.858h-7.26l-.761.858zm-1.259 1.827h9.28v-.856h-8.734l-.546.857zm-.948 1.86H33.34v-.857h-9.794l-.433.857zm-.613 1.827h10.84v-.857H22.767l-.265.857zm-.411 1.845h11.253v-.875H22.256l-.166.873zm-.085 3.542h11.337v-.857H21.939l.065.857zm.279 1.941h11.054v-.873H22.117l.166.873zm.537 1.569h10.523v-.875h-10.79l.267.873zm.792 1.908h9.729v-.873H23.197l.415.872zm1.145 1.925h8.584v-.857h-9.18l.596.857zm1.408 1.86h7.092v-.858h-7.872l.78.858zm24.84-1.067l.051-.146.083-.13.101-.111.114-.083.116-.081.149-.032.151-.017.149.017.148.032.132.082.119.082.098.113.065.129.051.146h-.166l-.033-.097-.047-.114-.087-.097-.081-.065-.098-.047-.119-.049h-.249l-.134.047-.098.049-.101.065-.065.097-.051.114-.032.097h-.166z"/><path fill="#eb2230" d="M51.509 25.461v-.193h.296l.066.017h.05l.051.015.05.017.031.031.017.034.015.031v.049h-.13v-.032l-.018-.017-.015-.017-.018-.014-.018-.017h-.03l-.018-.018h-.199v.114h-.13zm-.503.129v-.129h.169l-.018.015v.114h-.152z"/><path fill="#eb2230" d="M51.509 25.59v-.129h.13v.097h.247l.036-.017h.015l.018-.032v-.049h.13v.081l-.015.032-.017.017h-.544zm.877-.001l-.018-.113v-.015h.168l.018.129h-.168zm-1.379.002l-.015.015.015.162.051.145.083.114.101.113.114.083.116.063.152.049.148.017.149-.017.149-.047.13-.065.119-.082.098-.113.066-.114.05-.145.018-.162v-.015h-.166v.015l-.018.146-.033.114-.047.113-.087.081-.081.081-.098.049-.119.049h-.248l-.133-.047-.1-.05-.101-.081-.065-.081-.051-.113-.05-.114v-.161h-.149z"/><path fill="#eb2230" d="M51.509 25.591v.306h.13v-.257h.134l.164.257h.133l-.198-.257h.101l.032-.017.033-.032h-.529z"/><path fill="#fff" d="M34.334 14.673l-.1-.017h-.116l-.083-.017-.098-.015-.101-.017-.083-.017-.1-.015-.115-.017h-.1l-.116-.017-.133-.015h-.465l-.199.015-.199.017-.149.017-.149.032-.133.049-.116.047-.098.05-.1.064-.068.065-.065.064-.05.097-.034.081-.015.082v.096l.033.097.032.098.05.097.083.097.151.129.166.095.215.098.216.081.249.065.232.081.498.194.213.113.216.147.183.194.166.225.116.275.083.325.017.388-.017.453-.068.339-.081.308-.134.275-.149.243-.166.21-.198.178-.216.161-.231.146-.232.114-.249.081-.249.082-.264.047-.249.05-.249.015-.481.032h-.314l-.3-.015h-.513l-.414-.032h-.183l-.166-.033-.166-.017-.148-.032-.134-.015-.13-.033-.119-.049-.132-.032-.133-.049-.133-.032.332-1.602.065.017.101.032.098.018.134.031.13.032.149.033.184.033.166.031.199.018.181.032.629.049h.664l.216-.049.166-.05.133-.081.1-.097.082-.097.05-.113.05-.114.034-.113.015-.113v-.114l-.033-.097-.032-.081-.068-.081-.065-.065-.083-.064-.1-.066-.117-.047-.116-.064-.132-.05-.133-.047-.132-.05-.151-.064-.149-.047-.149-.066-.148-.064-.149-.065-.133-.081-.149-.081-.13-.081-.134-.097-.116-.114-.1-.113-.1-.13-.1-.146-.066-.161-.065-.162-.036-.193-.031-.194v-.226l.017-.243.031-.292.019-.129.032-.129.033-.13.033-.128.05-.113.05-.13.049-.097.068-.114.066-.095.065-.098.083-.082.084-.095.083-.083.1-.064.1-.081.115-.065.116-.064.133-.049.132-.065.134-.049.148-.032.149-.049.166-.032.183-.032.166-.017.198-.033.199-.015h.2l.215-.017h.745l.232.017h.199l.183.015.166.017.148.017h.134l.116.017.115.015.1.017.082.015h.068l.066.017.065.017h.051l-.365 1.649zm1.71-3.396h2.088l-.315 1.765h1.275l-.281 1.632-1.326-.032-.679 4.044-.017.081v.081l.017.065.017.064.032.05.034.047.05.049.05.033.065.032.066.017.068.017.065.014.083.017h.083l.1.018h.249l.149-.018.132-.017.117-.031.083-.017.065-.032.05-.015h.018l-.216 1.375-.05.032-.068.032-.05.017-.065.032-.05.017-.066.015-.066.032-.133.033-.083.015-.083.017-.199.033-.098.015-.134.017-.116.015h-.563l-.297-.032-.265-.015-.233-.05-.198-.047-.183-.065-.132-.081-.133-.082-.1-.096-.133-.228-.033-.129-.015-.146-.019-.145.019-.162.015-.161.017-.178 1.393-7.944zm-15.615 7.942l-.3 1.618h-1.873l.018-.162.032-.146.017-.145.018-.114.015-.113.017-.097.033-.065.018-.032-.101.113-.132.114-.133.113-.332.194-.181.097-.199.081-.216.065-.216.064-.215.065-.433.064-.43.033-.216-.017-.199-.031-.264-.066-.231-.081-.217-.097-.183-.113-.166-.114-.148-.129-.117-.146-.115-.145-.083-.146-.065-.162-.068-.162-.05-.161-.017-.178-.033-.161v-.162l-.017-.161.034-.275.032-.275.066-.26.1-.242.132-.226.134-.212.166-.21.166-.178.199-.161.199-.162.215-.13.231-.111.233-.114.248-.081.249-.047.249-.049h.05l.065-.017h.066l.199-.033.116-.015h.116l.132-.017.116-.017h.134l.132-.015.117-.018h.977l.083.018h.265l.017-.049.049-.114.019-.146v-.226l-.019-.081-.031-.081-.036-.081-.049-.065-.05-.064-.05-.065-.066-.064-.065-.049-.066-.033-.083-.049-.068-.032-.083-.032-.1-.018-.083-.014-.082-.017h-.448l-.231.017-.232.014-.249.017-.231.017-.249.032-.232.017-.216.033-.216.032-.199.032-.181.047-.151.033-.148.047-.1.034-.083.047.53-1.73.167-.065.166-.065.165-.047.183-.047.183-.05.181-.017.2-.032.198-.017.215-.015h.217l.216-.017h.696l.265.017h.249l.216.015.23.033.233.049.463.161.232.097.216.13.215.145.184.162.181.178.149.193.1.226.083.226.05.26.017.275-.05.308-.779 3.816z"/><path fill="#0b84c4" d="M18.641 17.293v-.031l-.034-.032-.05-.017-.065-.015-.101-.017h-.429l-.134.017-.116.015-.115.017-.117.032-.116.017-.082.015-.083.033-.05.015-.066.017-.066.032-.1.032-.083.033-.101.047-.098.05-.1.064-.1.065-.083.081-.1.081-.065.081-.083.097-.051.113-.031.115-.036.129-.015.242.051.194.047.146.101.113.115.081.117.049.13.032h.351l.215-.015.184-.047.166-.033.166-.065.13-.047.134-.082.1-.065.1-.081.1-.096.065-.083.066-.079.05-.081.033-.081.033-.082.033-.081.017-.114.033-.113.017-.129.033-.13.018-.113.017-.113.032-.114.018-.097z"/><path fill="#fff" d="M4.736 20.836H2.697l1.707-9.56h3.547l.348 5.677 2.404-5.677h3.679l-1.723 9.56h-2.022l1.276-7.166h-.083l-3.019 7.166H6.526l-.017-.308-.05-.792-.066-1.132-.083-1.294L6.244 16l-.066-1.15-.05-.825-.017-.356h-.083l-1.292 7.166zm33.993-.001h2.106l.729-4.141.033-.161.033-.146.05-.162.05-.145.049-.146.083-.146.083-.13.101-.128.115-.114.133-.097.166-.097.183-.081.199-.064.231-.05.265-.032.297-.015h.05l.051.015h.1l.032.017.017-.032.017-.097.018-.13.049-.161.1-.389.083-.21.066-.194.066-.145.198-.389.069-.113.05-.081.031-.066.018-.015h-.018l-.015-.017h-.034l-.065-.015h-.05l-.05-.017h-.116l-.232.017-.199.015-.198.049-.184.05-.166.047-.148.082-.148.081-.117.081-.13.097-.134.097-.1.113-.116.129-.116.13-.098.128-.116.146-.1.147.249-1.31-2.121-.017-1.394 7.81zm11.984-6.938l.13.13.116.128.116.146c.994 1.358.946 3.365.098 4.788-.78 1.31-2.369 1.989-3.892 1.972-2.836-.015-4.294-2.894-3.383-5.594l.083-.196c1.076-2.443 4.606-3.204 6.731-1.375zm.28 6.551h.61v.065h-.231v.498h-.13v-.498h-.249v-.065zm.698 0h.183l.213.436.218-.436h.199v.565h-.149v-.436l-.199.436h-.116l-.217-.436v.436h-.13v-.565z"/><path fill="#eb2230" d="M48.922 17.876c.347-.761.595-1.99.098-2.733-.382-.567-1.144-.616-1.723-.276-.845.503-1.193 1.65-1.111 2.637.149 1.908 2.121 1.746 2.735.372z"/><path fill="#fff" d="M28.186 17.326c.248-1.278.83-4.416-2.968-4.416-3.579 0-4.044 3.493-4.044 3.947-.116.469-.116 3.947 3.68 3.947.96 0 2.27-.113 2.849-.34l.365-1.633c-.365.113-1.541.242-2.503.242-.827 0-2.253 0-2.02-1.746h4.64z"/><path fill="#0b84c4" d="M23.545 15.823h2.734c.315-2.104-2.304-1.7-2.734 0z"/></svg>