<svg xmlns="http://www.w3.org/2000/svg" width="32" height="32" viewBox="0 0 32 32"><path d="M22.449 15.513h-2.447v.007c-1.632 0-2.961-1.568-2.961-3.2s1.329-2.799 2.961-2.799v-2.4a5.362 5.362 0 00-.006 10.72h.006v-.01h2.447c1.674 0 3.151 1.184 3.151 3.289v2.08h2.402v-2.634c0-2.88-2.56-5.054-5.553-5.054zm5.548 9.287h-2.398v4.8h2.4v-4.8zM24 24.8H0v4.8h24v-4.8z"/><path d="M26.959 11.569a5.337 5.337 0 001.6-3.808A5.366 5.366 0 0023.201 2.4v2.4a2.964 2.964 0 01.007 5.92h-.007v2.4c3.591 0 6.4 2.919 6.4 6.513v3.569h2.4v-3.621a8.89 8.89 0 00-4.989-7.99l-.052-.023zM32 24.8h-2.4v4.8H32v-4.8z"/></svg>