<svg xmlns="http://www.w3.org/2000/svg" width="56" height="32" viewBox="0 0 56 32"><path fill="#f8f8f8" d="M55.813 30.297c0 .943-.828 1.703-1.856 1.703H1.856c-1.028 0-1.857-.76-1.857-1.703V1.702c0-.943.828-1.703 1.857-1.703h52.101c1.027 0 1.856.76 1.856 1.703v28.595z"/><path fill="#434c9e" d="M25.686 20.811h-2.727l1.71-9.612h2.727l-1.709 9.612zm-5.024-9.612l-2.59 6.611-.315-1.424-.913-4.32s-.115-.866-1.3-.866h-4.29l-.052.164s1.31.25 2.852 1.097l2.37 8.351h2.843l4.331-9.612h-2.937zm21.446 9.612h2.506l-2.182-9.612H40.24c-1.017 0-1.258.722-1.258.722l-4.07 8.89h2.843l.566-1.433h3.471l.315 1.433zm-3-3.396l1.436-3.599.808 3.599h-2.244zm-3.971-3.907l.388-2.059s-1.206-.423-2.454-.423c-1.353 0-4.572.548-4.572 3.185 0 2.483 3.775 2.512 3.775 3.82 0 1.299-3.388 1.067-4.499.24l-.409 2.166s1.218.539 3.084.539c1.856 0 4.666-.886 4.666-3.292 0-2.492-3.806-2.732-3.806-3.82 0-1.078 2.654-.943 3.828-.356z"/><path fill="#faa634" d="M17.756 16.386l-.912-4.32s-.115-.866-1.3-.866h-4.29l-.052.164s2.066.394 4.048 1.866c1.888 1.405 2.506 3.156 2.506 3.156z"/></svg>