<svg xmlns="http://www.w3.org/2000/svg" width="44" height="32" viewBox="0 0 44 32"><path d="M42.269 4.704c-1.19-1.963-2.485-2.325-5.12-2.462-2.633-.166-9.252-.235-14.989-.235-5.745 0-12.369.068-14.997.233-2.63.139-3.925.497-5.131 2.464C.803 6.667.172 10.044.172 15.991v.021c0 5.922.631 9.327 1.86 11.268 1.203 1.963 2.496 2.319 5.126 2.485 2.633.141 9.257.226 15.002.226 5.737 0 12.356-.085 14.991-.224 2.635-.166 3.93-.523 5.12-2.485 1.242-1.941 1.869-5.346 1.869-11.268v-.019c0-5.952-.627-9.329-1.869-11.292zM16.661 23.631V8.367L30.402 16l-13.739 7.631z"/></svg>