<!-- Generated by IcoMoon.io -->
<svg version="1.1" xmlns="http://www.w3.org/2000/svg" width="56" height="32" viewBox="0 0 56 32">
<title>american-express</title>
<path fill="#f8f8f8" d="M51.628 0h-48.837c-1.396 0-2.791 1.28-2.791 2.56v25.6c0 2.56 1.395 3.84 4.186 3.84h47.442c2.791 0 4.186-1.28 4.186-3.84v-24.32c0-2.56-1.395-3.84-4.186-3.84z"></path>
<path fill="#357de9" d="M9.436 13.972l-0.816-1.905-0.811 1.905h1.628zM27.417 13.213c-0.164 0.096-0.357 0.099-0.589 0.099h-1.449v-1.061h1.468c0.208 0 0.424 0.009 0.565 0.086 0.156 0.070 0.252 0.218 0.252 0.422 0 0.209-0.092 0.377-0.246 0.454 0.155-0.077 0 0 0 0zM37.752 13.972l-0.826-1.905-0.82 1.905h1.646zM18.486 16.034h-1.222l-0.004-3.742-1.729 3.742h-1.047l-1.734-3.745v3.745h-2.425l-0.459-1.066h-2.483l-0.461 1.066h-1.295l2.136-4.778h1.771l2.028 4.523v-4.523h1.947l1.561 3.241 1.434-3.241h1.984v4.778zM23.359 16.034h-3.984v-4.778h3.984v0.995h-2.791v0.861h2.724v0.979h-2.724v0.954h2.791v0.988zM28.976 12.543c0 0.007 0 0.016 0 0.024 0 0.562-0.344 1.043-0.832 1.245l-0.009 0.003c0.262 0.095 0.485 0.263 0.591 0.402 0.169 0.238 0.198 0.45 0.198 0.877v0.938h-1.203l-0.004-0.602c0-0.287 0.028-0.701-0.188-0.93-0.175-0.168-0.441-0.205-0.87-0.205h-1.28v1.738h-1.193v-4.778h2.742c0.61 0 1.060 0.016 1.444 0.229 0.378 0.214 0.604 0.525 0.604 1.057 0-0.533 0 0 0 0zM30.884 16.034h-1.215v-4.778h1.215v4.778zM45.001 16.034h-1.689l-2.261-3.585v3.585h-2.429l-0.464-1.066h-2.477l-0.45 1.066h-1.396c-0.58 0-1.313-0.123-1.729-0.528-0.419-0.406-0.638-0.956-0.638-1.824 0-0.708 0.13-1.356 0.643-1.868 0.386-0.381 0.99-0.557 1.811-0.557h1.155v1.024h-1.131c-0.435 0-0.68 0.062-0.917 0.283-0.203 0.201-0.342 0.581-0.342 1.082 0 0.512 0.106 0.881 0.327 1.122 0.184 0.189 0.516 0.246 0.831 0.246h0.536l1.68-3.756h1.787l2.019 4.518v-4.518h1.816l2.096 3.326v-3.326h1.222v4.777zM5.611 16.971h2.038l0.459-1.060h1.028l0.458 1.060h4.010v-0.811l0.357 0.815h2.082l0.357-0.826v0.822h9.964l-0.005-1.741h0.192c0.136 0.004 0.175 0.016 0.175 0.23v1.511h5.153v-0.405c0.415 0.213 1.063 0.405 1.913 0.405h2.169l0.464-1.060h1.027l0.455 1.060h4.177v-1.008l0.633 1.008h3.349v-6.663h-3.313v0.787l-0.464-0.787h-3.4v0.787l-0.426-0.787h-4.592c-0.769 0-1.444 0.103-1.991 0.389v-0.389h-3.168v0.389c-0.346-0.295-0.82-0.389-1.346-0.389h-11.577l-0.778 1.721-0.798-1.721h-3.646v0.787l-0.401-0.787h-3.109l-1.444 3.169v3.495zM48.030 20.49h-2.175c-0.216 0-0.36 0.007-0.482 0.086-0.127 0.077-0.173 0.192-0.173 0.343 0 0.181 0.106 0.303 0.26 0.356 0.127 0.042 0.26 0.054 0.46 0.054l0.646 0.016c0.653 0.015 1.087 0.123 1.354 0.385 0.047 0.036 0.076 0.077 0.11 0.118v-1.36zM48.030 23.64c-0.291 0.406-0.856 0.61-1.62 0.61h-2.302v-1.024h2.294c0.227 0 0.386-0.028 0.482-0.118 0.082-0.074 0.141-0.181 0.141-0.312 0-0.004 0-0.008 0-0.012 0-0.122-0.057-0.232-0.146-0.302l-0.001-0.001c-0.086-0.073-0.212-0.106-0.42-0.106-1.12-0.036-2.517 0.034-2.517-1.479 0-0.693 0.46-1.423 1.712-1.423h2.374v-0.95h-2.206c-0.667 0-1.15 0.153-1.493 0.39v-0.39h-3.266c-0.521 0-1.134 0.124-1.425 0.39v-0.39h-5.829v0.39c-0.464-0.32-1.246-0.39-1.607-0.39h-3.845v0.39c-0.366-0.34-1.183-0.39-1.68-0.39h-4.304l-0.984 1.020-0.923-1.020h-6.428v6.667h6.308l1.014-1.037 0.956 1.037 3.888 0.004v-1.569h0.381c0.516 0.007 1.125-0.013 1.662-0.234v1.799h3.207v-1.738h0.154c0.198 0 0.217 0.007 0.217 0.196v1.54h9.741c0.619 0 1.265-0.151 1.623-0.426v0.427h3.091c0.642 0 1.27-0.086 1.749-0.307v-1.243zM43.271 21.73c0.233 0.23 0.357 0.521 0.357 1.012 0 1.028-0.67 1.508-1.873 1.508h-2.324v-1.024h2.314c0.225 0 0.386-0.028 0.487-0.118 0.083-0.074 0.141-0.181 0.141-0.312 0-0.002 0-0.004 0-0.006 0-0.124-0.057-0.235-0.145-0.309l-0.001-0.001c-0.092-0.073-0.216-0.106-0.424-0.106-1.116-0.036-2.512 0.034-2.512-1.479 0-0.693 0.454-1.423 1.704-1.423h2.391v1.017h-2.188c-0.217 0-0.357 0.007-0.478 0.086-0.13 0.077-0.179 0.192-0.179 0.344 0 0.18 0.11 0.303 0.26 0.356 0.126 0.042 0.26 0.054 0.464 0.054l0.642 0.016c0.647 0.015 1.092 0.123 1.362 0.385-0.27-0.262 0 0 0 0zM32.51 21.435c-0.159 0.091-0.356 0.098-0.588 0.098h-1.449v-1.073h1.468c0.213 0 0.425 0.004 0.569 0.086 0.156 0.077 0.248 0.226 0.248 0.43s-0.092 0.369-0.248 0.458c0.156-0.089 0 0 0 0zM33.23 22.030c0.266 0.093 0.482 0.261 0.584 0.4 0.169 0.234 0.194 0.451 0.198 0.872v0.947h-1.198v-0.598c0-0.288 0.030-0.714-0.191-0.935-0.175-0.171-0.441-0.212-0.876-0.212h-1.274v1.745h-1.198v-4.778h2.753c0.604 0 1.043 0.025 1.435 0.225 0.377 0.218 0.613 0.516 0.613 1.061 0 0.008 0 0.017 0 0.026 0 0.562-0.346 1.043-0.837 1.242l-0.009 0.003c0.315-0.119 0 0 0 0zM34.737 19.472h3.98v0.988h-2.793v0.868h2.724v0.975h-2.724v0.951l2.792 0.004v0.991h-3.98v-4.778zM26.692 21.678h-1.542v-1.217h1.555c0.429 0 0.729 0.168 0.729 0.586 0 0.414-0.285 0.631-0.743 0.631zM23.963 23.816l-1.831-1.947 1.831-1.884v3.831zM19.234 23.255h-2.931v-0.952h2.618v-0.975h-2.618v-0.868h2.989l1.305 1.392-1.363 1.402zM28.715 21.046c0 1.328-1.034 1.602-2.076 1.602h-1.488v1.603h-2.317l-1.468-1.583-1.527 1.582h-4.723v-4.778h4.796l1.468 1.566 1.517-1.567h3.81c0.947 0 2.011 0.251 2.011 1.574 0-1.323 0 0 0 0z"></path>
</svg>
