<!-- Generated by IcoMoon.io -->
<svg version="1.1" xmlns="http://www.w3.org/2000/svg" width="70" height="32" viewBox="0 0 70 32">
<title>apple-pay</title>
<path d="M14.106 4.080c0.864-1.054 1.483-2.458 1.296-3.861-1.296 0.058-2.842 0.818-3.77 1.813-0.803 0.877-1.544 2.339-1.36 3.685 1.483 0.176 2.904-0.586 3.834-1.638zM15.402 6.067c-2.099-0.117-3.893 1.112-4.88 1.112-0.992 0-2.536-1.053-4.203-1.053-2.163 0.058-4.141 1.168-5.251 3.040-2.224 3.685-0.619 9.125 1.605 12.107 1.050 1.462 2.349 3.101 4.016 3.042 1.61-0.058 2.227-0.994 4.141-0.994 1.917 0 2.474 0.994 4.203 0.936 1.728-0.059 2.843-1.462 3.891-2.984 1.237-1.696 1.733-3.333 1.733-3.392-0.062-0.059-3.4-1.229-3.4-4.854-0.062-3.040 2.597-4.504 2.72-4.562-1.422-2.106-3.77-2.339-4.576-2.398zM32.021 3.661c4.131 0 6.976 2.909 6.976 7.072 0 4.218-2.901 7.126-7.088 7.126h-4.52v7.355h-3.291v-21.55h7.923zM27.389 15.066h3.741c2.845 0 4.464-1.597 4.464-4.277 0-2.736-1.619-4.277-4.464-4.277h-3.795v8.554h0.054zM39.834 20.824c0-2.736 2.064-4.448 5.749-4.675l4.24-0.229v-1.197c0-1.768-1.171-2.794-3.069-2.794-1.84 0-2.958 0.912-3.237 2.28h-3.014c0.17-2.851 2.568-4.96 6.363-4.96 3.739 0 6.138 1.995 6.138 5.189v10.832h-3.013v-2.565h-0.054c-0.896 1.768-2.848 2.851-4.858 2.851-3.125 0-5.245-1.939-5.245-4.733zM49.821 19.4v-1.256l-3.792 0.229c-1.898 0.112-2.96 0.968-2.96 2.336 0 1.37 1.118 2.282 2.79 2.282 2.234 0 3.963-1.539 3.963-3.592zM55.795 31.088v-2.624c0.222 0.058 0.781 0.058 1.003 0.058 1.45 0 2.23-0.627 2.734-2.224 0-0.056 0.28-0.97 0.28-0.97l-5.582-15.738h3.405l3.906 12.83h0.056l3.906-12.83h3.349l-5.747 16.594c-1.339 3.821-2.848 5.018-6.030 5.018-0.222-0.058-1.002-0.058-1.28-0.114z"></path>
</svg>
