<!-- Generated by IcoMoon.io -->
<svg version="1.1" xmlns="http://www.w3.org/2000/svg" width="76" height="32" viewBox="0 0 76 32">
<title>arrow</title>
<path d="M2.584 14.584c-0.363 0.362-0.588 0.863-0.588 1.416s0.225 1.054 0.588 1.416l12.728 12.728c0.362 0.362 0.863 0.587 1.416 0.587 1.106 0 2.003-0.897 2.003-2.003 0-0.553-0.224-1.054-0.587-1.416l-11.316-11.312 11.316-11.312c0.362-0.362 0.587-0.863 0.587-1.416 0-1.106-0.897-2.003-2.003-2.003-0.553 0-1.054 0.224-1.416 0.587l-12.728 12.728zM76 14h-72v4h72v-4z"></path>
</svg>
