<!-- Generated by IcoMoon.io -->
<svg version="1.1" xmlns="http://www.w3.org/2000/svg" width="16" height="32" viewBox="0 0 16 32">
<title>baggage</title>
<path d="M9.549 0.014h-3.098c-1.423 0.002-2.575 1.154-2.577 2.577v3.054h1.908v-3.053c0-0.369 0.3-0.668 0.668-0.668h3.098c0.368 0 0.668 0.3 0.668 0.668v3.053h1.909v-3.053c0-1.421-1.156-2.577-2.578-2.577zM13.917 7.552h-11.834c-0.994 0.001-1.8 0.807-1.801 1.801v16.542c0 0.993 0.808 1.801 1.801 1.801h11.834c0.994-0.002 1.799-0.807 1.8-1.801v-16.542c-0.001-0.994-0.806-1.799-1.8-1.801h-0zM2.083 29.605c-0.072 0-0.144-0.003-0.214-0.007v1.462c0.016 0.515 0.437 0.926 0.954 0.926s0.938-0.411 0.954-0.924l0-0.002v-1.455h-1.694zM13.916 29.605h-1.694v1.455c0.016 0.515 0.437 0.926 0.954 0.926s0.938-0.411 0.954-0.924l0-0.002v-1.462c-0.071 0.004-0.142 0.007-0.214 0.007z"></path>
</svg>
