<!-- Generated by IcoMoon.io -->
<svg version="1.1" xmlns="http://www.w3.org/2000/svg" width="32" height="32" viewBox="0 0 32 32">
<title>calendar</title>
<path d="M28.86 3.563v3.872c-0.002 1.745-1.417 3.159-3.162 3.159-0.002 0-0.004 0-0.006 0h-1.999c-1.751 0-3.189-1.41-3.189-3.159v-3.885h-9.009v3.885c0 1.749-1.438 3.159-3.187 3.159h-2.003c-0.001 0-0.002 0-0.004 0-1.745 0-3.16-1.414-3.162-3.158v-3.872c-1.546 0.052-2.779 1.314-2.786 2.866v22.685c0 1.587 1.286 2.886 2.869 2.886h25.555c1.581 0 2.869-1.303 2.869-2.886v-22.684c-0.006-1.553-1.24-2.815-2.781-2.867l-0.005-0zM27.932 27.703c0 0.685-0.555 1.24-1.24 1.24v0h-21.438c-0.685 0-1.24-0.555-1.24-1.24v-11.718c0-0.685 0.555-1.242 1.242-1.242h21.436c0.685 0 1.24 0.557 1.24 1.242v11.718z"></path>
<path d="M6.302 8.518h1.976c0.001 0 0.001 0 0.002 0 0.6 0 1.086-0.486 1.086-1.086 0 0 0 0 0 0v0-6.344c0-0.001 0-0.001 0-0.002 0-0.6-0.486-1.086-1.086-1.086-0.001 0-0.001 0-0.002 0h-1.976c-0.6 0-1.086 0.486-1.086 1.086v0 6.345c0 0.602 0.486 1.086 1.086 1.086zM23.667 8.518h1.976c0.001 0 0.001 0 0.002 0 0.6 0 1.086-0.486 1.086-1.086 0 0 0 0 0 0v0-6.344c0-0.001 0-0.001 0-0.002 0-0.6-0.486-1.086-1.086-1.086 0 0 0 0 0 0h-1.976c-0.001 0-0.001 0-0.002 0-0.6 0-1.086 0.486-1.086 1.086 0 0 0 0 0 0v0 6.345c0 0.602 0.488 1.086 1.086 1.086z"></path>
</svg>
