<!-- Generated by IcoMoon.io -->
<svg version="1.1" xmlns="http://www.w3.org/2000/svg" width="32" height="32" viewBox="0 0 32 32">
<title>car</title>
<path d="M7.5 17c-1.795 0-3.25 1.455-3.25 3.25s1.455 3.25 3.25 3.25v0c1.795 0 3.25-1.455 3.25-3.25s-1.455-3.25-3.25-3.25v0zM7.5 21.75c-0.828 0-1.5-0.672-1.5-1.5s0.672-1.5 1.5-1.5v0c0.828 0 1.5 0.672 1.5 1.5s-0.672 1.5-1.5 1.5v0zM25.5 17c-1.795 0-3.25 1.455-3.25 3.25s1.455 3.25 3.25 3.25v0c1.795 0 3.25-1.455 3.25-3.25s-1.455-3.25-3.25-3.25v0zM25.5 21.75c-0.828 0-1.5-0.672-1.5-1.5s0.672-1.5 1.5-1.5v0c0.828 0 1.5 0.672 1.5 1.5s-0.672 1.5-1.5 1.5v0z"></path>
<path d="M29.838 14.314l-5.838-1.064-4.97-4.124c-0.472-0.389-1.082-0.626-1.748-0.626h-7.32c-0.002 0-0.005 0-0.007 0-0.864 0-1.635 0.401-2.136 1.027l-0.004 0.005-3.174 3.718h-2.14c-1.242 0.001-2.249 1.008-2.25 2.25v2.75c0.002 1.518 1.232 2.748 2.75 2.75h0.572c-0.046-0.227-0.072-0.488-0.072-0.756 0-2.209 1.791-4 4-4s4 1.791 4 4c0 0.267-0.026 0.528-0.076 0.781l0.004-0.025h10.144c-0.045-0.224-0.070-0.481-0.070-0.745 0-2.208 1.79-3.998 3.998-3.998s3.998 1.79 3.998 3.998c0 0.263-0.025 0.521-0.074 0.77l0.004-0.025h0.072c1.242-0.001 2.249-1.008 2.25-2.25v-2.21c0-0.003 0-0.008 0-0.012 0-1.121-0.824-2.049-1.9-2.211l-0.012-0.002zM11.25 12.5c0 0.414-0.336 0.75-0.75 0.75v0h-3.298c-0.001 0-0.002 0-0.002 0-0.207 0-0.374-0.167-0.374-0.374 0-0.094 0.035-0.181 0.093-0.246l-0 0 2.18-2.556c0.138-0.16 0.341-0.26 0.568-0.26 0.001 0 0.003 0 0.004 0h0.83c0 0 0 0 0 0 0.413 0 0.749 0.335 0.75 0.748v1.938zM15 16h-1c-0.414 0-0.75-0.336-0.75-0.75s0.336-0.75 0.75-0.75v0h1c0.414 0 0.75 0.336 0.75 0.75s-0.336 0.75-0.75 0.75v0zM20.906 13.268l-7.158-0.016c-0.413-0.001-0.748-0.336-0.748-0.75 0 0 0 0 0 0v0-1.94c0-0.414 0.336-0.75 0.75-0.75v0h3.596c0.17 0 0.332 0.058 0.466 0.16l3.326 2.626c0.089 0.069 0.145 0.176 0.145 0.296 0 0.207-0.167 0.374-0.374 0.374-0.002 0-0.004 0-0.006-0h0z"></path>
</svg>
