<!-- Generated by IcoMoon.io -->
<svg version="1.1" xmlns="http://www.w3.org/2000/svg" width="37" height="32" viewBox="0 0 37 32">
<title>chat</title>
<path d="M33.815 9.538h-19.52c-1.784 0-3.232 1.448-3.232 3.229v10.771c0 1.779 1.448 3.227 3.229 3.227h16.925l3.989 3.995c0.195 0.195 0.465 0.316 0.763 0.316 0.595 0 1.077-0.482 1.077-1.077 0-0.003 0-0.005-0-0.008v0-17.227c0-1.781-1.451-3.229-3.232-3.229zM28.433 21.38h-8.757c-0.016 0.001-0.035 0.001-0.054 0.001-0.595 0-1.077-0.482-1.077-1.077s0.482-1.077 1.077-1.077c0.019 0 0.038 0 0.056 0.001l-0.003-0h8.757c0.016-0.001 0.035-0.001 0.054-0.001 0.595 0 1.077 0.482 1.077 1.077s-0.482 1.077-1.077 1.077c-0.019 0-0.038-0-0.056-0.001l0.003 0zM30.585 17.074h-13.064c-0.016 0.001-0.035 0.001-0.054 0.001-0.595 0-1.077-0.482-1.077-1.077s0.482-1.077 1.077-1.077c0.019 0 0.038 0 0.056 0.001l-0.003-0h13.064c0.594 0 1.076 0.482 1.076 1.076s-0.482 1.076-1.076 1.076v0z"></path>
<path d="M0.961 22.375c0.121 0.052 0.263 0.081 0.411 0.081 0.298 0 0.567-0.121 0.762-0.316v0l3.992-3.989h2.784v-5.387c0-2.968 2.413-5.384 5.381-5.384h11.987v-3.227c0-1.787-1.445-3.229-3.227-3.229h-19.525c-1.784 0-3.229 1.445-3.229 3.229v17.227c0 0.435 0.261 0.827 0.664 0.995z"></path>
</svg>
