<!-- Generated by IcoMoon.io -->
<svg version="1.1" xmlns="http://www.w3.org/2000/svg" width="32" height="32" viewBox="0 0 32 32">
<title>close</title>
<path d="M18.941 16.009l12.46-12.464c0.375-0.375 0.607-0.893 0.607-1.466 0-1.145-0.928-2.073-2.073-2.073-0.573 0-1.091 0.232-1.466 0.607l-12.46 12.464-12.46-12.46c-0.377-0.387-0.903-0.627-1.485-0.627-1.144 0-2.072 0.928-2.072 2.072 0 0.581 0.239 1.106 0.625 1.483l12.46 12.46-12.46 12.46c-0.375 0.375-0.607 0.893-0.607 1.466 0 1.145 0.928 2.073 2.073 2.073 0.573 0 1.091-0.232 1.466-0.607l12.46-12.456 12.46 12.46c0.375 0.376 0.893 0.609 1.466 0.609s1.091-0.233 1.466-0.609l0-0c0.375-0.375 0.608-0.893 0.608-1.466s-0.232-1.091-0.608-1.466l-12.46-12.46z"></path>
</svg>
