<!-- Generated by IcoMoon.io -->
<svg version="1.1" xmlns="http://www.w3.org/2000/svg" width="32" height="32" viewBox="0 0 32 32">
<title>disabled</title>
<path d="M14.649 6.309c1.742 0 3.154-1.412 3.154-3.154s-1.412-3.154-3.154-3.154v0c-1.742 0-3.154 1.412-3.154 3.154s1.412 3.154 3.154 3.154v0zM19.522 24.176c-0.866 2.935-3.535 5.042-6.697 5.047h-0.001c-3.848-0.005-6.966-3.123-6.971-6.971v-0c0-2.848 1.714-5.296 4.167-6.377v-2.96c-4.046 1.249-6.937 4.952-6.944 9.332v0.001c0.004 5.383 4.366 9.747 9.748 9.753h0.001c3.9-0.005 7.264-2.298 8.821-5.609l0.025-0.060-1.102-2.165-1.047 0.009z"></path>
<path d="M28.711 27.92l-4.224-8.304c-0.312-0.606-0.933-1.013-1.649-1.013-0 0-0.001 0-0.001 0h-5.41v-1.234h4.656c0.459-0.006 0.863-0.238 1.106-0.59l0.003-0.005c0.169-0.218 0.274-0.494 0.281-0.794l0-0.002c-0.001-0.767-0.623-1.387-1.39-1.387h-4.656v-4.183c0-1.152-0.853-2.779-2.777-2.779-1.531 0-2.777 1.243-2.777 2.777v9.067c0 1.566 1.269 2.834 2.834 2.834h6.994l3.71 7.291c0.308 0.618 0.936 1.036 1.662 1.036 1.023 0 1.851-0.829 1.851-1.851 0-0.315-0.079-0.612-0.218-0.872l0.005 0.010z"></path>
</svg>
