<!-- Generated by IcoMoon.io -->
<svg version="1.1" xmlns="http://www.w3.org/2000/svg" width="74" height="32" viewBox="0 0 74 32">
<title>google-pay</title>
<path fill="#5f6368" d="M73.564 9.664l-9.034 21.165h-2.737l3.375-7.367-5.932-13.708h2.922l4.29 10.538h0.089l4.2-10.538h2.829v-0.091h-0.003zM35.047 15.629v8.672h-2.737v-21.447h7.119c0.002 0 0.005 0 0.008 0 1.804 0 3.443 0.711 4.65 1.868l-0.002-0.002c1.277 1.118 1.915 2.796 1.915 4.569 0 1.772-0.638 3.357-1.915 4.569-1.28 1.213-2.829 1.864-4.655 1.864l-4.382-0.093zM35.047 5.465v7.459h4.564c1.004 0 2.009-0.372 2.648-1.118 1.462-1.4 1.462-3.731 0.089-5.13l-0.089-0.093c-0.729-0.746-1.644-1.213-2.648-1.118h-4.564zM52.297 9.194c2.011 0 3.56 0.559 4.748 1.679 1.187 1.118 1.735 2.611 1.735 4.475v8.953h-2.557v-2.051h-0.089c-1.095 1.677-2.649 2.518-4.475 2.518-1.549 0-2.917-0.467-4.013-1.4-1.007-0.933-1.645-2.238-1.645-3.638 0-1.491 0.549-2.703 1.645-3.636 1.095-0.931 2.644-1.305 4.472-1.305 1.642 0 2.92 0.28 3.924 0.933v-0.652c0-0.931-0.365-1.864-1.095-2.425-0.695-0.635-1.625-1.024-2.645-1.024-0.002 0-0.003 0-0.005 0h0c-1.549 0-2.737 0.652-3.555 1.959l-2.375-1.492c1.46-1.959 3.377-2.892 5.933-2.892h-0.003zM48.829 19.825c0 0.746 0.365 1.398 0.915 1.772 0.64 0.467 1.369 0.746 2.1 0.746 1.095 0 2.188-0.467 3.010-1.305 0.915-0.84 1.369-1.866 1.369-2.984-0.82-0.652-2.008-1.027-3.56-1.027-1.095 0-2.008 0.281-2.737 0.842-0.731 0.465-1.095 1.118-1.095 1.957z"></path>
<path fill="#4285f4" d="M24.191 13.767c0-0.84-0.093-1.679-0.185-2.518h-11.405v4.755h6.477c-0.273 1.492-1.095 2.892-2.371 3.731v3.077h3.924c2.28-2.144 3.56-5.315 3.56-9.044z"></path>
<path fill="#34a853" d="M12.598 25.795c3.288 0 6.024-1.12 8.034-2.984l-3.924-3.077c-1.095 0.746-2.464 1.213-4.109 1.213-3.102 0-5.839-2.146-6.754-5.128h-4.015v3.17c2.1 4.197 6.206 6.808 10.769 6.808z"></path>
<path fill="#fbbc04" d="M5.841 15.816c-0.546-1.492-0.546-3.17 0-4.755v-3.171h-4.013c-1.735 3.451-1.735 7.554 0 11.097l4.013-3.171z"></path>
<path fill="#ea4335" d="M12.595 6.026c1.735 0 3.379 0.652 4.655 1.864l3.471-3.544c-2.191-2.051-5.113-3.264-8.034-3.171-4.726 0.004-8.808 2.752-10.741 6.737l-0.031 0.071 4.017 3.171c0.824-2.984 3.56-5.13 6.663-5.13z"></path>
</svg>
