<!-- Generated by IcoMoon.io -->
<svg version="1.1" xmlns="http://www.w3.org/2000/svg" width="32" height="32" viewBox="0 0 32 32">
<title>instagram</title>
<path d="M31.219 9.699c-0.072-1.624-0.336-2.742-0.712-3.71-0.405-1.062-1.007-1.967-1.767-2.711l-0.001-0.001c-0.746-0.757-1.649-1.357-2.657-1.746l-0.051-0.017c-0.973-0.376-2.085-0.64-3.712-0.712-1.637-0.077-2.157-0.096-6.31-0.096s-4.672 0.019-6.304 0.091c-1.627 0.070-2.744 0.334-3.712 0.71-1.063 0.405-1.969 1.008-2.714 1.768l-0.001 0.001c-0.757 0.745-1.356 1.647-1.746 2.654l-0.018 0.051c-0.376 0.976-0.64 2.086-0.712 3.712-0.077 1.637-0.096 2.157-0.096 6.309 0 4.154 0.019 4.672 0.091 6.304 0.070 1.626 0.334 2.744 0.71 3.712 0.389 1.027 0.992 1.947 1.77 2.712 0.745 0.757 1.648 1.357 2.656 1.746l0.051 0.017c0.974 0.376 2.086 0.64 3.712 0.71 1.632 0.072 2.15 0.090 6.304 0.090 4.155 0 4.675-0.016 6.306-0.090 1.626-0.070 2.744-0.334 3.712-0.71 2.062-0.812 3.664-2.413 4.458-4.422l0.018-0.053c0.376-0.976 0.64-2.086 0.71-3.712 0.072-1.632 0.090-2.15 0.090-6.304 0-4.152-0.006-4.672-0.077-6.304zM28.464 22.189c-0.066 1.493-0.317 2.301-0.526 2.838-0.527 1.338-1.566 2.377-2.87 2.892l-0.034 0.012c-0.539 0.208-1.352 0.459-2.84 0.525-1.613 0.072-2.096 0.090-6.179 0.090-4.082 0-4.573-0.016-6.179-0.090-1.494-0.064-2.302-0.317-2.84-0.525-0.689-0.258-1.276-0.647-1.756-1.141l-0.001-0.001c-0.493-0.481-0.882-1.067-1.13-1.723l-0.011-0.033c-0.21-0.539-0.461-1.352-0.526-2.838-0.072-1.614-0.090-2.098-0.090-6.179s0.018-4.571 0.090-6.179c0.066-1.493 0.317-2.301 0.526-2.838 0.245-0.662 0.634-1.266 1.147-1.757 0.496-0.507 1.093-0.896 1.757-1.141 0.538-0.208 1.35-0.461 2.838-0.526 1.614-0.070 2.098-0.090 6.181-0.090 4.088 0 4.571 0.019 6.179 0.090 1.494 0.066 2.301 0.317 2.838 0.526 0.69 0.257 1.277 0.646 1.757 1.14l0.001 0.001c0.507 0.496 0.896 1.094 1.141 1.757 0.208 0.538 0.461 1.35 0.526 2.838 0.072 1.614 0.090 2.098 0.090 6.179 0 4.080-0.018 4.56-0.090 6.173z"></path>
<path d="M16.010 8.149c-4.34 0.001-7.857 3.518-7.859 7.857v0c0.089 4.273 3.574 7.702 7.859 7.702s7.77-3.43 7.859-7.694l0-0.008c0-4.338-3.52-7.858-7.859-7.858zM16.010 21.104c-2.816 0-5.098-2.283-5.098-5.098s2.283-5.098 5.098-5.098v0c2.816 0 5.098 2.283 5.098 5.098s-2.283 5.098-5.098 5.098v0zM26.010 7.835c-0 1.013-0.822 1.834-1.835 1.834s-1.835-0.822-1.835-1.835c0-0 0-0.001 0-0.001v0c0-1.014 0.822-1.835 1.835-1.835s1.835 0.822 1.835 1.835v0z"></path>
</svg>
