<!-- Generated by IcoMoon.io -->
<svg version="1.1" xmlns="http://www.w3.org/2000/svg" width="24" height="32" viewBox="0 0 24 32">
<title>lock</title>
<path d="M10.565 22.145l-0.421 3.782c-0.002 0.022-0.004 0.047-0.004 0.072 0 0.369 0.299 0.668 0.668 0.668h2.667c0.368-0 0.666-0.299 0.666-0.667 0-0.026-0.002-0.052-0.004-0.077l0 0.003-0.421-3.782c0.665-0.485 1.092-1.261 1.092-2.137 0-0.003 0-0.006 0-0.008v0c0-1.471-1.196-2.667-2.667-2.667-1.472 0.001-2.665 1.194-2.667 2.667v0c0 0.002 0 0.005 0 0.008 0 0.876 0.427 1.651 1.084 2.131l0.007 0.005zM12.141 18.667c0.735 0 1.333 0.599 1.333 1.333 0 0.511-0.29 0.969-0.758 1.195-0.255 0.124-0.403 0.393-0.372 0.674l0.385 3.464h-1.177l0.385-3.464c0.003-0.022 0.004-0.047 0.004-0.073 0-0.263-0.152-0.49-0.372-0.599l-0.004-0.002c-0.451-0.217-0.758-0.67-0.758-1.195v-0c0-0.735 0.599-1.333 1.333-1.333z"></path>
<path d="M23.474 12h-2v-2.667c0-5.147-4.187-9.333-9.333-9.333s-9.333 4.187-9.333 9.333v2.667h-2c-0.369 0-0.667 0.298-0.667 0.667v16.667c0 1.471 1.196 2.667 2.667 2.667h18.667c1.471 0 2.667-1.196 2.667-2.667v-16.667c0-0.369-0.298-0.667-0.667-0.667zM4.141 9.333c0-4.411 3.589-8 8-8s8 3.589 8 8v2.667h-1.333v-2.667c0-3.676-2.991-6.667-6.667-6.667s-6.667 2.991-6.667 6.667v2.667h-1.333v-2.667zM17.474 9.333v2.667h-10.667v-2.667c0-2.941 2.392-5.333 5.333-5.333s5.333 2.392 5.333 5.333zM22.807 29.333c0 0.735-0.599 1.333-1.333 1.333h-18.667c-0.735 0-1.333-0.599-1.333-1.333v-16h21.333v16z"></path>
</svg>
