<!-- Generated by IcoMoon.io -->
<svg version="1.1" xmlns="http://www.w3.org/2000/svg" width="55" height="32" viewBox="0 0 55 32">
<title>mastercard</title>
<path fill="#f8f8f8" d="M54.913 29.963c0 0.921-0.82 1.673-1.824 1.673h-50.897c-1.004 0-1.825-0.752-1.825-1.673v-27.927c0-0.921 0.82-1.673 1.825-1.673h50.897c1.004 0 1.824 0.752 1.824 1.673v27.927z"></path>
<path fill="#fbb230" d="M34.183 24.972l0.503-0.009 0.503-0.028 0.492-0.065 0.481-0.076 0.472-0.103 0.471-0.112 0.451-0.151 0.451-0.159 0.429-0.179 0.42-0.198 0.41-0.216 0.4-0.235 0.389-0.253 0.369-0.264 0.348-0.281 0.348-0.302 0.318-0.31 0.308-0.329 0.297-0.339 0.276-0.347 0.246-0.367 0.247-0.375 0.204-0.385 0.205-0.404 0.175-0.404 0.154-0.423 0.133-0.423 0.112-0.433 0.082-0.451 0.062-0.441 0.041-0.461 0.009-0.46-0.009-0.461-0.041-0.46-0.062-0.442-0.082-0.441-0.112-0.433-0.133-0.422-0.154-0.424-0.175-0.404-0.205-0.395-0.204-0.385-0.247-0.376-0.246-0.367-0.276-0.348-0.297-0.338-0.308-0.329-0.318-0.31-0.348-0.292-0.348-0.282-0.369-0.272-0.389-0.245-0.4-0.235-0.41-0.216-0.42-0.198-0.43-0.178-0.451-0.16-0.451-0.14-0.471-0.122-0.472-0.103-0.481-0.076-0.492-0.057-0.503-0.038-0.502-0.009-0.502 0.009-0.492 0.038-0.492 0.057-0.481 0.076-0.472 0.103-0.471 0.122-0.452 0.141-0.441 0.159-0.431 0.178-0.42 0.198-0.41 0.216-0.4 0.235-0.378 0.245-0.37 0.272-0.358 0.282-0.337 0.291-0.329 0.311-0.297 0.329-0.298 0.338-0.265 0.348-0.257 0.367-0.235 0.376-0.216 0.385-0.194 0.395-0.175 0.404-0.153 0.423-0.134 0.423-0.113 0.433-0.081 0.441-0.062 0.442-0.041 0.46-0.010 0.461 0.010 0.46 0.041 0.461 0.062 0.441 0.081 0.451 0.113 0.433 0.133 0.423 0.153 0.422 0.175 0.405 0.194 0.404 0.216 0.385 0.235 0.375 0.257 0.367 0.266 0.347 0.297 0.339 0.297 0.329 0.329 0.311 0.337 0.301 0.358 0.281 0.37 0.264 0.378 0.253 0.4 0.235 0.41 0.216 0.42 0.198 0.431 0.179 0.441 0.159 0.451 0.151 0.471 0.112 0.473 0.103 0.48 0.076 0.493 0.065 0.491 0.029 0.502 0.009z"></path>
<path fill="#eb2230" d="M21.097 24.972l0.502-0.009 0.492-0.028 0.492-0.065 0.481-0.076 0.472-0.103 0.471-0.112 0.451-0.151 0.44-0.159 0.431-0.179 0.42-0.198 0.409-0.216 0.4-0.235 0.378-0.253 0.371-0.264 0.358-0.281 0.337-0.302 0.329-0.31 0.297-0.329 0.297-0.339 0.266-0.347 0.256-0.367 0.236-0.375 0.215-0.385 0.195-0.404 0.175-0.404 0.153-0.423 0.134-0.423 0.113-0.433 0.081-0.451 0.062-0.441 0.041-0.461 0.010-0.46-0.010-0.461-0.041-0.46-0.062-0.442-0.081-0.441-0.113-0.433-0.134-0.422-0.153-0.424-0.175-0.404-0.195-0.395-0.215-0.385-0.236-0.376-0.256-0.367-0.266-0.348-0.297-0.338-0.298-0.329-0.328-0.31-0.337-0.292-0.359-0.282-0.369-0.272-0.379-0.245-0.4-0.235-0.409-0.216-0.42-0.198-0.431-0.178-0.44-0.16-0.451-0.14-0.471-0.122-0.473-0.103-0.48-0.076-0.493-0.057-0.491-0.038-0.502-0.009-0.502 0.009-0.503 0.038-0.492 0.057-0.481 0.076-0.471 0.103-0.473 0.122-0.451 0.141-0.451 0.159-0.429 0.178-0.42 0.198-0.41 0.216-0.4 0.235-0.389 0.245-0.369 0.272-0.348 0.282-0.348 0.291-0.318 0.311-0.308 0.329-0.297 0.338-0.276 0.348-0.246 0.367-0.247 0.376-0.204 0.385-0.206 0.395-0.175 0.404-0.153 0.423-0.135 0.423-0.102 0.433-0.092 0.441-0.061 0.442-0.041 0.46-0.009 0.461 0.009 0.46 0.041 0.461 0.061 0.441 0.092 0.451 0.102 0.433 0.134 0.423 0.153 0.422 0.175 0.405 0.205 0.404 0.204 0.385 0.247 0.375 0.246 0.367 0.276 0.347 0.297 0.339 0.308 0.329 0.318 0.311 0.348 0.301 0.348 0.281 0.369 0.264 0.39 0.253 0.399 0.235 0.41 0.216 0.42 0.198 0.431 0.179 0.451 0.159 0.451 0.151 0.472 0.112 0.471 0.103 0.481 0.076 0.492 0.065 0.503 0.029 0.502 0.009z"></path>
<path fill="#fbb230" d="M26.499 10.468h5.196v-0.489h-4.745l-0.451 0.489zM25.718 11.549h5.975v-0.489h-5.667l-0.308 0.489zM25.137 12.63h6.559v-0.489h-6.323l-0.236 0.489zM24.734 13.711h6.959v-0.479h-6.794l-0.164 0.479zM24.972 18.955h6.743v-0.488h-6.906l0.163 0.488zM25.463 20.037h6.251v-0.489h-6.497l0.246 0.489zM26.169 21.118h5.544v-0.489h-5.882l0.338 0.489zM27.132 22.199h4.58v-0.489h-5.052l0.471 0.489zM24.499 14.792h7.193v-0.48h-7.091l-0.102 0.48zM28.886 17.875h2.747v-0.489h-2.644l-0.103 0.489zM29.101 16.795h2.531v-0.489h-2.428l-0.103 0.489zM24.314 16.305h0.717v0.489h-0.676l-0.041-0.489zM43.048 21.043c0.256 0 0.461 0.197 0.461 0.423 0 0.236-0.205 0.423-0.461 0.423s-0.461-0.188-0.461-0.423c0-0.225 0.204-0.422 0.461-0.422zM43.048 21.118c0.215 0 0.389 0.16 0.389 0.347 0 0.199-0.174 0.358-0.389 0.358-0.205 0-0.38-0.16-0.38-0.358 0-0.187 0.175-0.347 0.38-0.347z"></path>
<path fill="#fbb230" d="M42.874 21.653v-0.356h0.163c0.041 0 0.071 0 0.092 0.010 0.015 0.007 0.029 0.016 0.040 0.028v0c0.010 0.019 0.020 0.038 0.020 0.056 0 0.028-0.010 0.056-0.020 0.065-0.023 0.017-0.051 0.030-0.081 0.037l-0.001 0c0.021 0.010 0.031 0.020 0.042 0.029 0.009 0.009 0.031 0.028 0.040 0.055l0.051 0.075h-0.091l-0.063-0.084c-0.011-0.028-0.030-0.036-0.041-0.047 0-0.009-0.010-0.009-0.020-0.018h-0.051v0.149h-0.081zM42.955 21.446h0.052c0.040 0 0.061 0 0.071-0.009 0.009 0 0.021 0 0.021-0.009 0.009-0.009 0.009-0.019 0.009-0.028s0-0.019-0.009-0.028c-0.012-0.010-0.021-0.010-0.031-0.019h-0.113v0.093z"></path>
<path fill="#fff" d="M42.944 17.509c-0.257 0-0.46 0.188-0.46 0.424 0 0.234 0.204 0.422 0.46 0.422s0.46-0.188 0.46-0.423-0.204-0.423-0.46-0.423zM42.944 17.584c0.215 0 0.389 0.16 0.389 0.348 0 0.197-0.173 0.356-0.389 0.356s-0.389-0.159-0.389-0.356c0-0.188 0.173-0.348 0.389-0.348z"></path>
<path fill="#fff" d="M42.769 18.109v-0.347h0.164c0.007-0.001 0.014-0.001 0.022-0.001 0.025 0 0.049 0.004 0.072 0.011l-0.002-0c0.010 0 0.029 0.019 0.040 0.028 0.011 0.016 0.018 0.035 0.020 0.055l0 0c0 0.001 0 0.002 0 0.003 0 0.025-0.012 0.048-0.030 0.062l-0 0c-0.010 0.018-0.041 0.028-0.071 0.038 0.010 0.009 0.031 0.018 0.041 0.028s0.020 0.028 0.040 0.056l0.052 0.065h-0.092l-0.061-0.075c-0.020-0.028-0.031-0.047-0.041-0.047-0.009-0.009-0.009-0.019-0.020-0.019h-0.061v0.14h-0.072zM42.841 17.913h0.061c0.041 0 0.061 0 0.071-0.010 0.010 0 0.020-0.009 0.020-0.009 0.011-0.009 0.011-0.018 0.011-0.028 0-0.009-0.011-0.028-0.011-0.028-0.010-0.009-0.020-0.019-0.031-0.019h-0.122v0.095z"></path>
<path fill="#fff" d="M36.356 18.176l0.665-3.196h0.83l0.103 0.329c0.153-0.142 0.409-0.329 0.922-0.329l-0.257 0.847c-0.225 0-0.575-0.038-0.86 0.582-0.215 0.471-0.318 1.251-0.431 1.767h-0.973zM23.793 14.181h0.921l-0.205 0.846h0.513l-0.153 0.657h-0.461l-0.256 1.269c-0.051 0.236 0 0.471 0.512 0.376l-0.102 0.705c-0.553 0.385-1.661 0.103-1.487-0.846l0.718-3.008zM27.901 16.765c0.102-0.516 0.359-1.785-1.291-1.785-1.537 0-1.742 1.409-1.742 1.597-0.051 0.188-0.051 1.598 1.588 1.598 0.409 0 0.984-0.047 1.24-0.14l0.153-0.658c-0.153 0.047-0.676 0.095-1.085 0.095-0.359 0-0.974 0-0.871-0.705h2.008zM16.723 18.176l0.82-3.855h-1.599l-1.127 2.351-0.205-2.351h-1.486l-0.82 3.855h0.922l0.616-2.773 0.256 2.772h0.871l1.331-2.726-0.563 2.726h0.984zM17.798 15.074l-0.153 0.705c0.256 0 0.871-0.095 1.178-0.095s0.717-0.047 0.564 0.423c-0.256 0-1.947-0.235-2.204 1.127-0.143 0.903 1.025 1.232 1.743 0.8l0.103 0.187h0.871l0.359-1.738c0.378-1.57-1.271-1.599-2.46-1.411zM33.056 15.356c-0.236-0.131-0.38-0.131-0.676-0.131-0.287 0-0.964 0.263-1.056 0.967-0.144 0.884 0.481 1.279 1.393 1.015l0.247 0.753c-1.558 0.714-3.044-0.396-2.553-2.125 0.4-1.306 2.286-2.095 3.229-1.015l-0.584 0.535z"></path>
<path fill="#fff" d="M41.183 15.356c-2.511-1.729-3.484 2.82-1.537 2.82 0.308 0 0.616-0.14 0.82-0.235l0.102 0.235h1.025l0.82-4.042h-0.974l-0.256 1.223zM33.793 15.074l-0.153 0.705c0.255 0 0.871-0.095 1.177-0.095s0.666-0.047 0.564 0.423c-0.256 0-1.948-0.235-2.204 1.127-0.103 0.658 0.513 0.987 0.975 0.987 0.46 0 0.614-0.094 0.767-0.188l0.102 0.188h0.873l0.358-1.738c0.39-1.57-1.26-1.599-2.46-1.411z"></path>
<path fill="#eb2230" d="M25.895 16.155h1.178c0.133-0.855-0.983-0.686-1.178 0zM19.234 16.765c-0.154 0-0.513-0.093-0.82 0.095s-0.41 0.516-0.051 0.611c0.307 0.094 0.717-0.095 0.82-0.376l0.052-0.329z"></path>
<path fill="#fbb230" d="M40.722 15.873c-0.307-0.377-0.973-0.094-1.178 0.611-0.153 0.47 0.154 0.799 0.461 0.799 0.646 0 1.035-0.968 0.717-1.41zM35.281 16.765c-0.153 0-0.512-0.093-0.82 0.095s-0.409 0.516-0.051 0.611c0.307 0.094 0.769-0.095 0.82-0.376l0.051-0.329z"></path>
<path fill="#fff" d="M27.902 18.223l0.052-0.329 0.615-2.867h0.82l0.102 0.329c0.154-0.141 0.411-0.329 0.924-0.329l-0.257 0.846c-0.195 0-0.605-0.038-0.913 0.714-0.175 0.433-0.276 1.166-0.369 1.636h-0.973zM22.945 15.798h-0.081l-0.041-0.009-0.041-0.009h-0.041l-0.041-0.010c-0.112-0.014-0.242-0.022-0.373-0.022-0.053 0-0.105 0.001-0.157 0.004l0.007-0c-0.471 0.036-0.676 0.309-0.276 0.516 0.317 0.169 0.564 0.141 0.778 0.329 0.461 0.394 0.225 1.156-0.287 1.447l-0.092 0.038-0.102 0.038-0.113 0.027-0.102 0.029c-0.493 0.075-1.159 0.056-1.641-0.095l0.133-0.63c0.389 0.075 1.025 0.235 1.322 0.048 0.338-0.207 0.031-0.452-0.216-0.555l-0.122-0.038-0.122-0.047c-0.975-0.405-0.748-1.486 0.173-1.711 0.369-0.075 0.738-0.075 1.118-0.047h0.071c0.092 0.009 0.175 0.018 0.256 0.036h0.041l0.031 0.010h0.031l0.020 0.009h0.031l-0.164 0.64z"></path>
</svg>
