<!-- Generated by IcoMoon.io -->
<svg version="1.1" xmlns="http://www.w3.org/2000/svg" width="32" height="32" viewBox="0 0 32 32">
<title>maximize</title>
<path d="M16 31.499c-0.138-0-0.263-0.056-0.353-0.146v0l-5-4.999c-0.366-0.349-0.594-0.841-0.594-1.386 0-1.057 0.857-1.915 1.915-1.915 0.545 0 1.036 0.228 1.385 0.593l0.001 0.001 0.647 0.646v-6.293h-6.293l0.646 0.646c0.346 0.346 0.56 0.825 0.56 1.353 0 1.057-0.857 1.914-1.914 1.914-0.528 0-1.007-0.214-1.353-0.561l-5.001-4.999c-0.090-0.090-0.146-0.215-0.146-0.353s0.056-0.263 0.146-0.353v0l5.001-5c0.342-0.322 0.804-0.52 1.312-0.52 1.057 0 1.915 0.857 1.915 1.915 0 0.508-0.198 0.97-0.521 1.313l0.001-0.001-0.646 0.647h6.293v-6.293l-0.646 0.646c-0.343 0.327-0.808 0.529-1.321 0.529-1.057 0-1.915-0.857-1.915-1.915 0-0.512 0.201-0.978 0.529-1.321l-0.001 0.001 5-5.001c0.090-0.090 0.215-0.146 0.353-0.146s0.263 0.056 0.353 0.146v0l5 5.001c0.327 0.343 0.528 0.808 0.528 1.32 0 1.057-0.857 1.915-1.915 1.915-0.513 0-0.978-0.201-1.322-0.529l0.001 0.001-0.646-0.646v6.293h6.293l-0.646-0.646c-0.327-0.343-0.529-0.808-0.529-1.321 0-1.057 0.857-1.915 1.915-1.915 0.512 0 0.978 0.201 1.321 0.529l-0.001-0.001 5.001 5c0.090 0.090 0.146 0.215 0.146 0.353s-0.056 0.263-0.146 0.353v0l-5.001 5c-0.349 0.366-0.841 0.594-1.386 0.594-1.057 0-1.915-0.857-1.915-1.915 0-0.545 0.228-1.037 0.593-1.386l0.001-0.001 0.646-0.646h-6.293v6.293l0.646-0.646c0.35-0.371 0.845-0.602 1.394-0.602 1.057 0 1.915 0.857 1.915 1.915 0 0.549-0.231 1.044-0.602 1.393l-0.001 0.001-4.999 5.001c-0.090 0.090-0.215 0.146-0.353 0.146-0 0-0 0-0 0h0zM12 24.085c-0.505 0-0.914 0.409-0.914 0.914 0 0.252 0.102 0.481 0.268 0.646l4.646 4.646 4.646-4.646c0.159-0.164 0.257-0.388 0.257-0.635 0-0.505-0.409-0.914-0.914-0.914-0.247 0-0.471 0.098-0.635 0.257l-1.499 1.499c-0.090 0.091-0.216 0.148-0.355 0.148-0.276 0-0.499-0.224-0.499-0.499 0-0.001 0-0.001 0-0.002v0-8c0-0.276 0.224-0.5 0.5-0.5v0h8c0 0 0 0 0 0 0.276 0 0.5 0.224 0.5 0.5 0 0.138-0.056 0.263-0.147 0.354l-1.5 1.499c-0.166 0.166-0.268 0.394-0.268 0.647 0 0.505 0.409 0.914 0.914 0.914 0.252 0 0.481-0.102 0.646-0.268v0l4.646-4.647-4.646-4.646c-0.165-0.165-0.394-0.268-0.646-0.268-0.505 0-0.914 0.409-0.914 0.914 0 0.253 0.102 0.481 0.268 0.647l1.499 1.499c0.091 0.091 0.147 0.216 0.147 0.354 0 0.276-0.224 0.5-0.5 0.5h-8c-0.276 0-0.5-0.224-0.5-0.5v0-8c0-0 0-0 0-0 0-0.276 0.224-0.5 0.5-0.5 0.138 0 0.263 0.056 0.354 0.147v0l1.499 1.499c0.164 0.159 0.389 0.257 0.636 0.257 0.505 0 0.914-0.409 0.914-0.914 0-0.247-0.098-0.471-0.256-0.635l0 0-4.647-4.647-4.646 4.647c-0.165 0.165-0.268 0.394-0.268 0.646 0 0.505 0.409 0.914 0.914 0.914 0.253 0 0.481-0.102 0.647-0.268l1.499-1.499c0.091-0.091 0.216-0.147 0.354-0.147 0.276 0 0.5 0.224 0.5 0.5v8c0 0.276-0.224 0.5-0.5 0.5h-8c-0 0-0 0-0 0-0.276 0-0.5-0.224-0.5-0.5 0-0.138 0.056-0.263 0.147-0.354v0l1.499-1.499c0.159-0.164 0.257-0.389 0.257-0.636 0-0.505-0.409-0.914-0.914-0.914-0.247 0-0.471 0.098-0.635 0.256l0-0-4.647 4.646 4.647 4.646c0.164 0.159 0.388 0.257 0.635 0.257 0.505 0 0.914-0.409 0.914-0.914 0-0.247-0.098-0.471-0.257-0.635l-1.499-1.499c-0.091-0.091-0.147-0.216-0.147-0.354 0-0.276 0.224-0.5 0.5-0.5h8c0.276 0 0.5 0.224 0.5 0.5v0 8c0 0 0 0 0 0 0 0.276-0.224 0.5-0.5 0.5-0.138 0-0.263-0.056-0.354-0.147l-1.499-1.5c-0.165-0.166-0.394-0.268-0.646-0.268-0.001 0-0.001 0-0.002 0h0z"></path>
</svg>
