<!-- Generated by IcoMoon.io -->
<svg version="1.1" xmlns="http://www.w3.org/2000/svg" width="32" height="32" viewBox="0 0 32 32">
<title>paw</title>
<path d="M23.665 18.188c-2.154-2.599-4.874-4.034-7.665-4.034-2.786 0-5.509 1.433-7.663 4.032-1.935 2.336-3.089 5.28-3.089 7.877 0 1.26 0.384 2.22 1.145 2.855 0.751 0.625 1.743 0.837 2.848 0.837 1.174 0 2.481-0.241 3.766-0.478 1.12-0.204 2.178-0.399 2.993-0.399 0.706 0 1.698 0.185 2.75 0.379 2.459 0.458 5.243 0.975 6.853-0.364 0.763-0.635 1.152-1.588 1.152-2.831 0-2.597-1.157-5.541-3.089-7.877zM23.884 4.071c-0.788-1.162-1.915-1.826-3.094-1.826-1.182 0-2.309 0.665-3.097 1.826-0.724 1.066-1.122 2.469-1.122 3.946s0.399 2.88 1.122 3.946c0.788 1.159 1.918 1.826 3.097 1.826s2.306-0.665 3.094-1.826c0.724-1.068 1.122-2.469 1.122-3.946s-0.399-2.88-1.122-3.946zM14.306 4.071c-0.788-1.162-1.915-1.826-3.094-1.826-1.182 0-2.306 0.665-3.094 1.826-0.724 1.066-1.122 2.469-1.122 3.946s0.399 2.88 1.122 3.946c0.788 1.159 1.915 1.826 3.094 1.826s2.306-0.665 3.094-1.826c0.724-1.068 1.122-2.469 1.122-3.946s-0.399-2.88-1.122-3.946zM31.813 13.135c-0.318-1.083-0.997-1.866-1.915-2.21-0.738-0.278-1.575-0.231-2.351 0.133-1.068 0.5-1.942 1.534-2.398 2.833-0.369 1.063-0.418 2.186-0.13 3.163 0.32 1.083 0.999 1.866 1.92 2.21 0.315 0.121 0.65 0.18 0.992 0.18 0.493-0.004 0.958-0.119 1.373-0.321l-0.019 0.008c1.071-0.5 1.945-1.534 2.398-2.833 0.372-1.063 0.418-2.186 0.13-3.163zM6.848 13.888c-0.453-1.3-1.329-2.334-2.395-2.831-0.389-0.197-0.849-0.312-1.335-0.312-0.364 0-0.714 0.065-1.037 0.183l0.021-0.007c-0.918 0.345-1.6 1.132-1.915 2.21-0.288 0.977-0.241 2.102 0.13 3.166 0.453 1.3 1.329 2.334 2.395 2.831 0.397 0.194 0.863 0.309 1.355 0.313h0.001c0.34 0 0.677-0.059 0.994-0.177 0.918-0.345 1.6-1.132 1.915-2.21 0.117-0.413 0.185-0.887 0.185-1.378 0-0.642-0.116-1.256-0.327-1.824l0.012 0.036z"></path>
</svg>
