<!-- Generated by IcoMoon.io -->
<svg version="1.1" xmlns="http://www.w3.org/2000/svg" width="36" height="32" viewBox="0 0 36 32">
<title>refresh</title>
<path d="M20.587 0.329c-8.638 0-15.663 7.034-15.663 15.671v0.051l-3.102-4.672c-0.185-0.243-0.474-0.398-0.799-0.398-0.553 0-1.001 0.448-1.001 1.001 0 0.185 0.050 0.359 0.138 0.508l-0.003-0.005 4.501 6.773c0.16 0.235 0.412 0.397 0.703 0.435l0.005 0.001c0.045 0.009 0.081 0.009 0.128 0.009 0 0 0 0 0.001 0 0.257 0 0.491-0.099 0.665-0.261l-0.001 0.001 6.255-5.632c0.203-0.184 0.33-0.449 0.33-0.744 0-0.258-0.098-0.494-0.258-0.672l0.001 0.001c-0.184-0.203-0.449-0.33-0.744-0.33-0.257 0-0.492 0.097-0.67 0.256l0.001-0.001-4.154 3.755v-0.075c0.005-7.546 6.119-13.663 13.663-13.673h0.001c7.549 0.007 13.666 6.124 13.675 13.672v0.001c-0.005 7.547-6.12 13.664-13.665 13.673h-0.001c-3.648 0-7.083-1.421-9.66-4.004-0.181-0.182-0.431-0.295-0.707-0.295s-0.527 0.113-0.707 0.294l-0 0c-0.181 0.18-0.293 0.43-0.293 0.706s0.112 0.526 0.293 0.706l0 0c2.818 2.836 6.721 4.591 11.034 4.591 0.014 0 0.027-0 0.040-0h-0.002c8.636 0 15.665-7.025 15.665-15.671s-7.031-15.671-15.671-15.671z"></path>
</svg>
