<!-- Generated by IcoMoon.io -->
<svg version="1.1" xmlns="http://www.w3.org/2000/svg" width="41" height="32" viewBox="0 0 41 32">
<title>users</title>
<path d="M0.334 30.835c0.137-2.718 0.032-5.328 0.455-7.861 0.542-3.246 3.063-5.216 6.386-5.28 4.402-0.080 8.809-0.098 13.216 0 3.915 0.094 6.537 2.912 6.574 6.821v6.315l-26.629 0.005zM7.205 7.676c0.060-2.716 1.752-5.021 4.132-5.98l0.044-0.016c0.712-0.288 1.538-0.455 2.404-0.455 1.857 0 3.533 0.77 4.728 2.008l0.002 0.002c1.143 1.184 1.847 2.798 1.847 4.576 0 3.641-2.951 6.592-6.592 6.592-0.025 0-0.050-0-0.075-0l0.004 0c-3.6-0.068-6.492-3.002-6.492-6.611 0-0.041 0-0.081 0.001-0.121l-0 0.006zM27.731 17.765c2.489 0 4.631-0.183 6.704 0.043 3.211 0.343 5.463 2.736 5.783 6.139 0.21 2.251 0.037 4.533 0.037 6.903h-9.867c-0.466-4.389 0.965-9.079-2.656-13.086zM33.55 7.578c0.002 0.057 0.003 0.123 0.003 0.19 0 2.419-1.301 4.535-3.241 5.686l-0.031 0.017c-0.95 0.564-2.094 0.897-3.317 0.897-1.261 0-2.44-0.355-3.441-0.97l0.029 0.016c-0.747-0.425-1.145-0.83-0.69-1.833 0.543-1.127 0.86-2.451 0.86-3.849s-0.317-2.722-0.884-3.904l0.023 0.054c-0.375-0.843-0.119-1.248 0.542-1.623 1.001-0.695 2.243-1.11 3.581-1.11 1.125 0 2.182 0.294 3.098 0.808l-0.032-0.016c2.088 1.045 3.497 3.167 3.497 5.619 0 0.006 0 0.012-0 0.018v-0.001z"></path>
</svg>
