<!-- Generated by IcoMoon.io -->
<svg version="1.1" xmlns="http://www.w3.org/2000/svg" width="31" height="32" viewBox="0 0 31 32">
<title>whatsapp</title>
<path d="M15.504 0.706h-0.005c-8.434 0-15.293 6.859-15.293 15.294 0 3.344 1.078 6.445 2.912 8.963l-1.907 5.682 5.878-1.878c2.357 1.584 5.26 2.528 8.383 2.528 0.011 0 0.021 0 0.032-0h-0.002c8.432 0 15.291-6.862 15.291-15.296 0-8.432-6.858-15.293-15.291-15.293zM24.403 22.302c-0.368 1.042-1.834 1.906-3.002 2.158-0.798 0.17-1.842 0.306-5.357-1.152-4.494-1.861-7.389-6.429-7.614-6.725-0.216-0.296-1.816-2.418-1.816-4.613s1.115-3.264 1.565-3.722c0.368-0.378 0.978-0.549 1.563-0.549 0.189 0 0.36 0.010 0.512 0.016 0.45 0.019 0.675 0.046 0.971 0.755 0.368 0.89 1.267 3.085 1.376 3.31 0.107 0.224 0.218 0.531 0.064 0.827-0.144 0.306-0.27 0.442-0.496 0.702-0.224 0.259-0.438 0.458-0.664 0.736-0.208 0.243-0.44 0.504-0.181 0.954 0.261 0.44 1.158 1.906 2.482 3.083 1.707 1.52 3.091 2.005 3.587 2.211 0.368 0.154 0.808 0.117 1.078-0.17 0.342-0.368 0.765-0.981 1.195-1.584 0.304-0.432 0.691-0.485 1.096-0.331 0.413 0.144 2.598 1.224 3.048 1.446 0.448 0.226 0.746 0.333 0.854 0.523 0.107 0.189 0.107 1.078-0.262 2.122z"></path>
</svg>
