<svg width="206" height="63" viewBox="0 0 206 63" fill="none" xmlns="http://www.w3.org/2000/svg">
<path d="M193.148 -382.227C182.136 -246.61 65.9834 -140.507 -71.8155 -140.507L-700.848 -140.507C-863.31 -140.507 -995 -10.0452 -995 150.902L-359.934 150.902C-327.728 150.753 146.762 139.246 193.148 -382.227Z" fill="url(#paint0_radial)"/>
<path d="M193.155 -382.227C146.769 139.246 -327.721 150.753 -360.002 150.902L-78.9735 150.902C60.3339 150.902 196.247 102.484 300.256 10.6523C409.093 -85.3632 475.39 -217.917 486.477 -361.156C486.779 -364.966 486.93 -368.703 486.93 -372.439C486.93 -449.849 425.082 -515.08 344.832 -517.919C266.467 -520.534 199.415 -459.786 193.155 -382.227Z" fill="url(#paint1_linear)"/>
<path d="M-266.029 150.902L-78.9032 150.902C60.4041 150.902 196.317 102.484 300.326 10.6523C409.163 -85.3632 475.46 -217.917 486.547 -361.156C486.849 -364.966 487 -368.702 487 -372.438C487 -449.849 425.152 -515.079 344.902 -517.919C344.902 48.0872 -73.0202 139.022 -266.029 150.902Z" fill="url(#paint2_radial)"/>
<path d="M16.8072 6.24385L-703.111 6.24388C-784.945 6.24389 -863.989 35.9078 -925.309 89.7064L-995 150.902L-361.744 150.902L-360.009 150.902C-339.343 150.828 -137.886 146.045 16.8072 6.24385Z" fill="url(#paint3_linear)"/>
<defs>
<radialGradient id="paint0_radial" cx="0" cy="0" r="1" gradientUnits="userSpaceOnUse" gradientTransform="translate(-788.071 -37.5325) rotate(-90) scale(853.975 862.013)">
<stop offset="0.0726" stop-color="#43C8EF"/>
<stop offset="0.2006" stop-color="#3EBAE3"/>
<stop offset="0.4434" stop-color="#2F94C4"/>
<stop offset="0.7727" stop-color="#195992"/>
<stop offset="0.9578" stop-color="#0B3474"/>
</radialGradient>
<linearGradient id="paint1_linear" x1="63.4979" y1="150.917" x2="63.4979" y2="-517.911" gradientUnits="userSpaceOnUse">
<stop stop-color="#6F010E"/>
<stop offset="0.00749512" stop-color="#740310"/>
<stop offset="0.077" stop-color="#A21321"/>
<stop offset="0.1434" stop-color="#C7202E"/>
<stop offset="0.2053" stop-color="#E12938"/>
<stop offset="0.2608" stop-color="#F02F3E"/>
<stop offset="0.3045" stop-color="#F63140"/>
<stop offset="0.3422" stop-color="#F73E43"/>
<stop offset="0.4966" stop-color="#F96C4E"/>
<stop offset="0.6442" stop-color="#FB9057"/>
<stop offset="0.7813" stop-color="#FCAB5E"/>
<stop offset="0.9039" stop-color="#FDBA62"/>
<stop offset="1" stop-color="#FDC063"/>
</linearGradient>
<radialGradient id="paint2_radial" cx="0" cy="0" r="1" gradientUnits="userSpaceOnUse" gradientTransform="translate(471.027 -459.975) rotate(-90) scale(827.328 835.115)">
<stop stop-color="white" stop-opacity="0.4"/>
<stop offset="0.0477" stop-color="#FCEAE8" stop-opacity="0.4418"/>
<stop offset="0.16" stop-color="#F7BCB9" stop-opacity="0.5402"/>
<stop offset="0.272" stop-color="#F29791" stop-opacity="0.6385"/>
<stop offset="0.3818" stop-color="#EF7A73" stop-opacity="0.7347"/>
<stop offset="0.4885" stop-color="#EC655D" stop-opacity="0.8282"/>
<stop offset="0.591" stop-color="#EB584F" stop-opacity="0.9181"/>
<stop offset="0.6844" stop-color="#EA544B"/>
<stop offset="1" stop-color="#EA544B" stop-opacity="0.2"/>
</radialGradient>
<linearGradient id="paint3_linear" x1="-996.821" y1="78.5895" x2="16.7235" y2="78.5895" gradientUnits="userSpaceOnUse">
<stop stop-color="white" stop-opacity="0.8"/>
<stop offset="0.1162" stop-color="white" stop-opacity="0.7129"/>
<stop offset="1" stop-color="white" stop-opacity="0.05"/>
</linearGradient>
</defs>
</svg>
