<svg width="1440" height="725" viewBox="0 0 1440 725" fill="none" xmlns="http://www.w3.org/2000/svg">
<rect width="1440" height="725" fill="#262626"/>
<mask id="mask0" mask-type="alpha" maskUnits="userSpaceOnUse" x="0" y="0" width="1440" height="725">
<rect width="1440" height="725" fill="#262626"/>
</mask>
<g mask="url(#mask0)">
<g opacity="0.1">
<path d="M1353.29 18.8881C1335.47 238.524 1147.55 410.36 924.606 410.36L-93.096 410.361C-355.941 410.361 -569 621.647 -569 882.306L458.465 882.306C510.57 882.064 1278.24 863.428 1353.29 18.8881Z" fill="url(#paint0_radial)"/>
<path d="M1353.26 18.8882C1278.22 863.428 510.546 882.064 458.319 882.306L912.99 882.306C1138.37 882.306 1358.27 803.89 1526.54 655.167C1702.63 499.667 1809.89 284.993 1827.82 53.0134C1828.31 46.8419 1828.56 40.7913 1828.56 34.7407C1828.56 -90.6273 1728.5 -196.27 1598.66 -200.869C1471.87 -205.104 1363.39 -106.722 1353.26 18.8882Z" fill="url(#paint1_linear)"/>
<path d="M610.391 882.306L913.139 882.306C1138.52 882.306 1358.41 803.89 1526.69 655.167C1702.77 499.667 1810.03 284.993 1827.97 53.0134C1828.46 46.8419 1828.7 40.7913 1828.7 34.7407C1828.7 -90.6273 1728.64 -196.27 1598.81 -200.869C1598.81 715.794 922.657 863.065 610.391 882.306Z" fill="url(#paint2_radial)"/>
<path d="M1067.99 648.027L-96.7567 648.027C-229.156 648.027 -357.04 696.069 -456.247 783.197L-569 882.306L455.536 882.306L458.343 882.306C491.778 882.185 817.711 874.44 1067.99 648.027Z" fill="url(#paint3_linear)"/>
<path d="M-20.3848 882.306L455.519 882.306L455.519 271.076C455.519 10.4175 242.461 -200.869 -20.3848 -200.869L-20.3848 882.306Z" fill="url(#paint4_radial)"/>
<path d="M79.5551 -88.9329L-20.3848 -200.869L-20.3848 882.306L215.859 882.306L215.859 267.567C215.859 136.27 167.414 9.44945 79.5551 -88.9329Z" fill="url(#paint5_linear)"/>
</g>
</g>
<defs>
<radialGradient id="paint0_radial" cx="0" cy="0" r="1" gradientUnits="userSpaceOnUse" gradientTransform="translate(-234.212 577.13) rotate(-90) scale(1383.04 1394.64)">
<stop offset="0.0726" stop-color="#43C8EF"/>
<stop offset="0.2006" stop-color="#3EBAE3"/>
<stop offset="0.4434" stop-color="#2F94C4"/>
<stop offset="0.7727" stop-color="#195992"/>
<stop offset="0.9578" stop-color="#0B3474"/>
</radialGradient>
<linearGradient id="paint1_linear" x1="1143.49" y1="882.33" x2="1143.49" y2="-200.855" gradientUnits="userSpaceOnUse">
<stop stop-color="#6F010E"/>
<stop offset="0.00749512" stop-color="#740310"/>
<stop offset="0.077" stop-color="#A21321"/>
<stop offset="0.1434" stop-color="#C7202E"/>
<stop offset="0.2053" stop-color="#E12938"/>
<stop offset="0.2608" stop-color="#F02F3E"/>
<stop offset="0.3045" stop-color="#F63140"/>
<stop offset="0.3422" stop-color="#F73E43"/>
<stop offset="0.4966" stop-color="#F96C4E"/>
<stop offset="0.6442" stop-color="#FB9057"/>
<stop offset="0.7813" stop-color="#FCAB5E"/>
<stop offset="0.9039" stop-color="#FDBA62"/>
<stop offset="1" stop-color="#FDC063"/>
</linearGradient>
<radialGradient id="paint2_radial" cx="0" cy="0" r="1" gradientUnits="userSpaceOnUse" gradientTransform="translate(1802.86 -107.027) rotate(-90) scale(1339.88 1351.12)">
<stop stop-color="white" stop-opacity="0.4"/>
<stop offset="0.0477" stop-color="#FCEAE8" stop-opacity="0.4418"/>
<stop offset="0.16" stop-color="#F7BCB9" stop-opacity="0.5402"/>
<stop offset="0.272" stop-color="#F29791" stop-opacity="0.6385"/>
<stop offset="0.3818" stop-color="#EF7A73" stop-opacity="0.7347"/>
<stop offset="0.4885" stop-color="#EC655D" stop-opacity="0.8282"/>
<stop offset="0.591" stop-color="#EB584F" stop-opacity="0.9181"/>
<stop offset="0.6844" stop-color="#EA544B"/>
<stop offset="1" stop-color="#EA544B" stop-opacity="0.2"/>
</radialGradient>
<linearGradient id="paint3_linear" x1="-571.947" y1="765.193" x2="1067.85" y2="765.193" gradientUnits="userSpaceOnUse">
<stop stop-color="white" stop-opacity="0.8"/>
<stop offset="0.1162" stop-color="white" stop-opacity="0.7129"/>
<stop offset="1" stop-color="white" stop-opacity="0.05"/>
</linearGradient>
<radialGradient id="paint4_radial" cx="0" cy="0" r="1" gradientUnits="userSpaceOnUse" gradientTransform="translate(189.295 56.0606) rotate(-90) scale(869.07 876.36)">
<stop stop-color="#16C940"/>
<stop offset="0.3403" stop-color="#0D9733"/>
<stop offset="0.7565" stop-color="#045F24"/>
<stop offset="0.9578" stop-color="#00491E"/>
</radialGradient>
<linearGradient id="paint5_linear" x1="97.7334" y1="882.33" x2="97.7334" y2="-200.855" gradientUnits="userSpaceOnUse">
<stop stop-color="white" stop-opacity="0.1"/>
<stop offset="1" stop-color="white" stop-opacity="0.6"/>
</linearGradient>
</defs>
</svg>
