<svg width="41" height="70" viewBox="0 0 41 70" fill="none" xmlns="http://www.w3.org/2000/svg">
<g filter="url(#filter0_d)">
<path d="M30.0787 49.981C23.4448 49.5363 18.2547 44.8457 18.2547 39.281V13.8787C18.2547 7.31802 11.873 2 4 2V27.6459C4.00731 28.9465 4.57019 48.1078 30.0787 49.981Z" fill="url(#paint0_radial)"/>
<path d="M30.0787 49.9812C4.57019 48.108 4.00731 28.9467 4 27.6431V38.9918C4 44.6175 6.36847 50.1061 10.8605 54.3063C15.5572 58.7014 22.0413 61.3787 29.048 61.8265C29.2344 61.8386 29.4172 61.8447 29.5999 61.8447C33.3865 61.8447 36.5774 59.3471 36.7163 56.1064C36.8442 52.9418 33.8727 50.234 30.0787 49.9812Z" fill="url(#paint1_linear)"/>
<path d="M4 31.438V38.9947C4 44.6203 6.36847 50.1089 10.8605 54.3091C15.5572 58.7043 22.0413 61.3816 29.048 61.8293C29.2344 61.8415 29.4172 61.8476 29.5999 61.8476C33.3865 61.8476 36.5774 59.35 36.7163 56.1092C9.02934 56.1092 4.58115 39.2323 4 31.438Z" fill="url(#paint2_radial)"/>
<path d="M11.0762 42.8599V13.7874C11.0762 10.4826 9.62511 7.29061 6.99348 4.81435L4 2V27.5728V27.6429C4.00366 28.4774 4.23758 36.6128 11.0762 42.8599Z" fill="url(#paint3_linear)"/>
<path d="M4 15.6938V27.5726H22.4616C30.3346 27.5726 36.7163 22.2546 36.7163 15.6938H4Z" fill="url(#paint4_radial)"/>
<path d="M33.3354 18.1884L36.7163 15.6938H4V21.5906H22.5676C26.5333 21.5906 30.3638 20.3814 33.3354 18.1884Z" fill="url(#paint5_linear)"/>
</g>
<defs>
<filter id="filter0_d" x="-3" y="0" width="45" height="71" filterUnits="userSpaceOnUse" color-interpolation-filters="sRGB">
<feFlood flood-opacity="0" result="BackgroundImageFix"/>
<feColorMatrix in="SourceAlpha" type="matrix" values="0 0 0 0 0 0 0 0 0 0 0 0 0 0 0 0 0 0 127 0" result="hardAlpha"/>
<feOffset dy="4"/>
<feGaussianBlur stdDeviation="2"/>
<feColorMatrix type="matrix" values="0 0 0 0 0 0 0 0 0 0 0 0 0 0 0 0 0 0 0.25 0"/>
<feBlend mode="normal" in2="BackgroundImageFix" result="effect1_dropShadow"/>
<feBlend mode="normal" in="SourceGraphic" in2="effect1_dropShadow" result="shape"/>
</filter>
<radialGradient id="paint0_radial" cx="0" cy="0" r="1" gradientUnits="userSpaceOnUse" gradientTransform="translate(13.2175 10.3564) scale(41.7733 34.8107)">
<stop offset="0.0726" stop-color="#43C3EF"/>
<stop offset="0.2006" stop-color="#3EBAE3"/>
<stop offset="0.4434" stop-color="#2F94C4"/>
<stop offset="0.7727" stop-color="#195992"/>
<stop offset="0.9578" stop-color="#0B3474"/>
</radialGradient>
<linearGradient id="paint1_linear" x1="3.99927" y1="44.7453" x2="36.7159" y2="44.7453" gradientUnits="userSpaceOnUse">
<stop stop-color="#6F010E"/>
<stop offset="0.00749512" stop-color="#740310"/>
<stop offset="0.077" stop-color="#A21321"/>
<stop offset="0.1434" stop-color="#C7202E"/>
<stop offset="0.2053" stop-color="#E12938"/>
<stop offset="0.2608" stop-color="#F02F3E"/>
<stop offset="0.3045" stop-color="#F63140"/>
<stop offset="0.3422" stop-color="#F73E43"/>
<stop offset="0.4966" stop-color="#F96C4E"/>
<stop offset="0.6442" stop-color="#FB9057"/>
<stop offset="0.7813" stop-color="#FCAB5E"/>
<stop offset="0.9039" stop-color="#FDBA62"/>
<stop offset="1" stop-color="#FDC063"/>
</linearGradient>
<radialGradient id="paint2_radial" cx="0" cy="0" r="1" gradientUnits="userSpaceOnUse" gradientTransform="translate(33.8819 61.2026) scale(40.4699 33.7245)">
<stop stop-color="white" stop-opacity="0.4"/>
<stop offset="0.0477" stop-color="#FCEAE8" stop-opacity="0.4418"/>
<stop offset="0.16" stop-color="#F7BCB9" stop-opacity="0.5402"/>
<stop offset="0.272" stop-color="#F29791" stop-opacity="0.6385"/>
<stop offset="0.3818" stop-color="#EF7A73" stop-opacity="0.7347"/>
<stop offset="0.4885" stop-color="#EC655D" stop-opacity="0.8282"/>
<stop offset="0.591" stop-color="#EB584F" stop-opacity="0.9181"/>
<stop offset="0.6844" stop-color="#EA544B"/>
<stop offset="1" stop-color="#EA544B" stop-opacity="0.2"/>
</radialGradient>
<linearGradient id="paint3_linear" x1="7.53728" y1="1.92644" x2="7.53728" y2="42.8565" gradientUnits="userSpaceOnUse">
<stop stop-color="white" stop-opacity="0.8"/>
<stop offset="0.1162" stop-color="white" stop-opacity="0.7129"/>
<stop offset="1" stop-color="white" stop-opacity="0.05"/>
</linearGradient>
<radialGradient id="paint4_radial" cx="0" cy="0" r="1" gradientUnits="userSpaceOnUse" gradientTransform="translate(28.956 20.9275) scale(26.2495 21.8743)">
<stop stop-color="#16C940"/>
<stop offset="0.3403" stop-color="#0D9733"/>
<stop offset="0.7565" stop-color="#045F24"/>
<stop offset="0.9578" stop-color="#00491E"/>
</radialGradient>
<linearGradient id="paint5_linear" x1="3.99927" y1="18.6421" x2="36.7159" y2="18.6421" gradientUnits="userSpaceOnUse">
<stop stop-color="white" stop-opacity="0.1"/>
<stop offset="1" stop-color="white" stop-opacity="0.6"/>
</linearGradient>
</defs>
</svg>
