<?xml version="1.0" encoding="utf-8"?><svg xmlns="http://www.w3.org/2000/svg" width="32" height="32" viewBox="0 0 32 32"><path d="M19.501 22.606h-1.738c-.256 0-.464.21-.464.469s.208.469.464.469h1.738c.256 0 .464-.21.464-.469s-.208-.469-.465-.469z"/><path d="M29.727 17.587l-2.528-.985L25.91 15.3a.46.46 0 00-.297-.136h-.001v-1.036a4.843 4.843 0 001.21-2.385l.005-.03a1.33 1.33 0 00.326-.026c.618-.128 1.066-.706 1.066-1.376v-.342-.003c0-.388-.156-.739-.409-.994.41-2.251.072-4.086-.981-5.314-1.019-1.188-2.66-1.756-4.746-1.642-1.927.105-3.171 1.001-3.566 1.328a2.43 2.43 0 00-.966.334l.011-.006c-.516.313-1.13.969-1.13 2.321 0 1.18.187 2.164.322 2.723a1.391 1.391 0 00-.756 1.258v.336c0 .67.448 1.248 1.066 1.376.108.022.217.031.326.026a4.85 4.85 0 001.217 2.418l-.003-.003v1.035a.455.455 0 00-.298.136L17.017 16.6l-2.528.985a3.043 3.043 0 00-.631.335l.01-.007a.47.47 0 00-.122.653l-.001-.002a.464.464 0 00.646.123l-.002.001c.135-.092.281-.17.433-.229l2.346-.914 1.794 2.717c.241.363.647.599 1.109.599h.002c.231 0 .455-.062.653-.175l-.385 8.817-.001.022c0 .257.208.466.464.467a.466.466 0 00.463-.448l.357-8.184h.964l.357 8.184c.01.25.215.448.466.448h.02-.001a.468.468 0 00.444-.466l-.001-.024v.001l-.385-8.817a1.299 1.299 0 00.792.168h-.006c.41-.042.761-.265.974-.588l.003-.005 1.794-2.717 2.346.914c.332.132.612.332.833.585l.002.003-1.605 1.62a3.083 3.083 0 00-.899 2.181v.012-.001 6.665c0 .259.208.469.464.469s.464-.21.464-.469v-6.665c0-.578.223-1.121.628-1.529l1.408-1.422c.057.21.083.43.074.655l-.359 8.942v.021c0 .257.208.466.464.467a.467.467 0 00.464-.45l.36-8.942a3.1 3.1 0 00-1.963-3.017zm-11.43-6.066a.906.906 0 00-.94-.744.443.443 0 01-.108-.007c-.185-.038-.324-.235-.324-.457v-.337c0-.218.144-.414.327-.446a.403.403 0 01.398.154.647.647 0 00.89.141 3.41 3.41 0 00.755-.742l.006-.009a.47.47 0 00-.094-.655l-.001-.001a.462.462 0 00-.649.095l-.001.001a2.541 2.541 0 01-.359.392l-.003.002a1.313 1.313 0 00-.494-.269l-.009-.002a10.593 10.593 0 01-.332-2.641v-.001c0-.718.219-1.222.652-1.499.337-.216.694-.225.694-.225a.465.465 0 00.32-.129c.011-.011 1.153-1.08 3.107-1.187 1.789-.098 3.17.358 3.994 1.319.83.968 1.107 2.454.807 4.315l-.06-.001c-.119 0-.235.01-.348.03l.012-.002-.436-1.058a.463.463 0 00-.549-.272l.003-.001c-.043.011-4.33 1.109-6.128-1.151a.461.461 0 00-.653-.071l.001-.001a.473.473 0 00-.071.66l-.001-.001c1.836 2.308 5.478 1.806 6.69 1.561l.337.818a.763.763 0 00.887.455l-.005.001a.984.984 0 01.348-.026c.188.038.329.227.329.44v.342c0 .223-.139.419-.324.458a.402.402 0 01-.08.008l-.029-.001h.001a.906.906 0 00-.94.744c-.338 1.856-1.94 3.204-3.81 3.204s-3.473-1.348-3.81-3.204zm2.059 8.286a.396.396 0 01-.284.12l-.044-.002h.002a.4.4 0 01-.296-.178l-.001-.002-1.807-2.737.727-.734 2.774 2.451-1.071 1.082zm1.31.619l.028-.644.413-.417.413.417.028.644h-.882zm.441-2.347l-2.576-2.276v-.897a4.71 4.71 0 002.573.756h.005c.956 0 1.846-.282 2.592-.768l-.018.011v.897l-2.576 2.276zm2.373 1.666a.398.398 0 01-.339.182.396.396 0 01-.284-.12l-1.072-1.082 2.774-2.451.727.734-1.807 2.737z"/><path d="M14.722 20.044l-2.267-.999-1.239-1.251a.46.46 0 00-.297-.136h-.001v-.738a4.852 4.852 0 002.078-3.121l.005-.03.057.001c.11 0 .216-.013.318-.039l-.009.002c.594-.142 1.025-.717 1.025-1.367v-.342-.007c0-.472-.233-.889-.591-1.143l-.004-.003c.106-.425.161-.861.161-1.298 0-1.942-1.039-3.653-2.607-4.635-.017-1.621-1.387-2.934-3.069-2.934s-3.053 1.314-3.07 2.934c-1.567.982-2.607 2.693-2.607 4.635 0 .437.054.871.16 1.295a1.402 1.402 0 00-.594 1.162v.337c0 .65.431 1.225 1.025 1.367.122.029.245.041.366.035a4.862 4.862 0 002.066 3.141l.017.011v.738a.457.457 0 00-.298.136l-1.239 1.251-2.267.999a3.123 3.123 0 00-1.839 2.972l.274 6.531c.01.25.215.449.466.449H.76.759a.467.467 0 00.445-.467l-.001-.022v.001l-.274-6.531a2.167 2.167 0 01.299-1.191l-.006.01 1.218 1.477c.372.449.597 1.031.597 1.665v4.59c0 .259.208.469.465.469s.464-.21.464-.469v-4.59c0-.826-.288-1.631-.812-2.266l-1.295-1.569c.11-.077.227-.145.352-.2l1.975-.871 1.396 2.288c.16.26.443.431.765.431a.889.889 0 00.584-.218l-.001.001.885-.762v7.755c0 .259.208.469.465.469s.464-.21.464-.469v-7.755l.885.762a.886.886 0 00.728.205l-.005.001c.266-.044.49-.2.623-.416l.002-.004 1.396-2.288 1.976.871c.125.055.242.123.352.199l-1.295 1.57a3.547 3.547 0 00-.812 2.265v4.59c0 .259.208.469.464.469s.464-.21.464-.469v-4.59c0-.634.226-1.216.601-1.67l-.004.004 1.218-1.476a2.153 2.153 0 01.294 1.185v-.004l-.274 6.531-.001.022c0 .257.208.466.464.467a.467.467 0 00.464-.449l.274-6.531a3.12 3.12 0 00-1.839-2.972zM8.282 2.942c.988 0 1.821.636 2.067 1.498a5.678 5.678 0 00-2.06-.378h-.008a5.8 5.8 0 00-2.067.378c.246-.862 1.08-1.498 2.067-1.498zm-3.81 10.633a.906.906 0 00-.94-.744.419.419 0 01-.121-.01c-.177-.042-.311-.238-.311-.454v-.337c0-.218.144-.413.328-.446a.4.4 0 01.397.154.647.647 0 00.89.141 3.39 3.39 0 00.751-.738.472.472 0 00-.092-.656.46.46 0 00-.649.092l-.001.001c-.106.142-.224.27-.354.385a1.315 1.315 0 00-.694-.311l-.007-.001a4.291 4.291 0 01-.134-1.077C3.535 7.052 5.665 5 8.283 5s4.748 2.052 4.748 4.574c0 .362-.045.723-.134 1.075-.122.01-.246.03-.361.06l-.349-.29a.882.882 0 00-.568-.206l-.054.002h.002c-.682.041-4.177.134-5.97-2.033a.46.46 0 00-.654-.058l.001-.001a.47.47 0 00-.058.66c.884 1.069 2.182 1.791 3.855 2.148 1.282.273 2.421.246 2.867.221l.545.452a.46.46 0 00.528.043c.079-.043.342-.085.458-.062.188.038.329.227.329.44v.342c0 .217-.134.412-.311.454a.397.397 0 01-.094.011l-.028-.001h.001a.906.906 0 00-.94.744c-.338 1.856-1.94 3.204-3.81 3.204s-3.473-1.348-3.81-3.204zm1.885 8.223L4.961 19.51l.715-.722 1.922 1.941-1.241 1.07zm1.925-1.705l-1.708-1.724v-.97c.507.201 1.094.318 1.708.318s1.201-.117 1.74-.329l-.032.011v.97l-1.708 1.724zm1.925 1.705l-1.241-1.069 1.922-1.941.715.722-1.396 2.288z"/><path d="M6.545 24.673H5.242c-.256 0-.464.21-.464.469s.208.469.465.469h1.303c.256 0 .464-.21.464-.469s-.208-.469-.465-.469z"/></svg>