<?xml version="1.0" encoding="utf-8"?><svg xmlns="http://www.w3.org/2000/svg" width="24" height="32" viewBox="0 0 24 32"><path d="M10.565 22.145l-.421 3.782a.668.668 0 00.664.74h2.667a.667.667 0 00.662-.744v.003l-.421-3.782a2.637 2.637 0 001.092-2.137v-.008a2.67 2.67 0 00-2.667-2.667 2.67 2.67 0 00-2.667 2.667v.008c0 .876.427 1.651 1.084 2.131l.007.005zm1.576-3.478c.735 0 1.333.599 1.333 1.333 0 .511-.29.969-.758 1.195a.667.667 0 00-.372.674l.385 3.464h-1.177l.385-3.464a.668.668 0 00-.368-.672l-.004-.002A1.325 1.325 0 0110.807 20c0-.735.599-1.333 1.333-1.333z"/><path d="M23.474 12h-2V9.333C21.474 4.186 17.287 0 12.141 0S2.808 4.187 2.808 9.333V12h-2a.666.666 0 00-.667.667v16.667a2.67 2.67 0 002.667 2.667h18.667a2.67 2.67 0 002.667-2.667V12.667a.666.666 0 00-.667-.667zM4.141 9.333c0-4.411 3.589-8 8-8s8 3.589 8 8V12h-1.333V9.333c0-3.676-2.991-6.667-6.667-6.667S5.474 5.657 5.474 9.333V12H4.141V9.333zm13.333 0V12H6.807V9.333C6.807 6.392 9.199 4 12.14 4s5.333 2.392 5.333 5.333zm5.333 20c0 .735-.599 1.333-1.333 1.333H2.807a1.335 1.335 0 01-1.333-1.333v-16h21.333v16z"/></svg>