<?xml version="1.0" encoding="iso-8859-1"?><svg xmlns="http://www.w3.org/2000/svg" viewBox="0 0 512 512" width="512" height="512"><path d="M439.669 481.888L238.293 375.264c-5.248-2.784-11.648-2.4-16.608.96L67.701 482.848a15.987 15.987 0 00-6.144 17.952c2.048 6.624 8.256 11.2 15.232 11.2h355.36c7.328 0 13.76-4.992 15.52-12.16 1.792-7.136-1.536-14.528-8-17.952zM507.061 451.488l-47.36-213.216c-1.152-5.216-4.832-9.472-9.792-11.424a16.023 16.023 0 00-14.944 1.728L280.949 335.2c-4.608 3.2-7.2 8.544-6.848 14.08a15.917 15.917 0 008.48 13.184l201.344 106.624c2.368 1.248 4.928 1.888 7.488 1.888 3.424 0 6.848-1.088 9.696-3.296a16.016 16.016 0 005.952-16.192zM395.637 203.232A16.037 16.037 0 00380.341 192H234.293c-26.56 48.096-65.856 94.08-82.016 112.064C143.189 314.176 130.165 320 116.565 320s-26.624-5.824-35.712-15.936c-6.24-6.944-15.904-18.048-26.976-31.808l-38.72 174.272a16.055 16.055 0 006.688 16.736c2.688 1.824 5.824 2.72 8.928 2.72 3.2 0 6.368-.928 9.12-2.848L389.429 221.12c5.792-3.936 8.256-11.2 6.208-17.888z"/><path d="M116.565 0c-61.76 0-112 50.24-112 112 0 57.472 89.856 159.264 100.096 170.688 3.04 3.36 7.36 5.312 11.904 5.312s8.864-1.952 11.904-5.312C138.709 271.264 228.565 169.472 228.565 112c0-61.76-50.24-112-112-112zm0 160c-26.496 0-48-21.504-48-48s21.504-48 48-48 48 21.504 48 48-21.504 48-48 48z"/></svg>