<?xml version="1.0" encoding="utf-8"?><svg xmlns="http://www.w3.org/2000/svg" width="32" height="32" viewBox="0 0 32 32"><path d="M16 31.499a.498.498 0 01-.353-.146l-5-4.999a1.915 1.915 0 112.706-2.708l.001.001.647.646V18H7.708l.646.646a1.914 1.914 0 01-2.707 2.706L.646 16.353a.498.498 0 010-.706l5.001-5a1.915 1.915 0 012.706 2.708l.001-.001-.646.647h6.293V7.708l-.646.646a1.915 1.915 0 01-2.707-2.707l-.001.001 5-5.001a.498.498 0 01.706 0l5 5.001a1.915 1.915 0 01-2.709 2.706l.001.001-.646-.646v6.293h6.293l-.646-.646a1.915 1.915 0 012.707-2.707l-.001-.001 5.001 5a.498.498 0 010 .706l-5.001 5a1.915 1.915 0 11-2.708-2.707l.001-.001.646-.646h-6.293v6.293l.646-.646a1.915 1.915 0 112.707 2.706l-.001.001-4.999 5.001a.498.498 0 01-.353.146zm-4-7.414a.914.914 0 00-.646 1.56L16 30.291l4.646-4.646a.914.914 0 00-1.292-1.292l-1.499 1.499a.499.499 0 01-.854-.351v-8.002a.5.5 0 01.5-.5h8a.5.5 0 01.353.854l-1.5 1.499a.914.914 0 101.292 1.293l4.646-4.647-4.646-4.646a.912.912 0 00-1.56.646.91.91 0 00.268.647l1.499 1.499a.499.499 0 01-.353.854h-8a.5.5 0 01-.5-.5v-8a.5.5 0 01.854-.353l1.499 1.499a.914.914 0 001.294-1.292L16 1.705l-4.646 4.647A.912.912 0 0012 7.912a.91.91 0 00.647-.268l1.499-1.499a.499.499 0 01.854.353v8a.5.5 0 01-.5.5h-8a.5.5 0 01-.353-.854l1.499-1.499a.914.914 0 00-1.292-1.294l-4.647 4.646 4.647 4.646a.914.914 0 001.292-1.292l-1.499-1.499a.499.499 0 01.353-.854h8a.5.5 0 01.5.5v8a.5.5 0 01-.854.353l-1.499-1.5a.908.908 0 00-.646-.268h-.002z"/></svg>