<?xml version="1.0" encoding="utf-8"?><svg xmlns="http://www.w3.org/2000/svg" width="38" height="32" viewBox="0 0 38 32"><path d="M33.691 5.92c1.762.39 2.938 1.318 3.409 2.914.09.312.141.67.141 1.041v.051-.003c.006 6.038.006 12.08 0 18.118v.035c0 .539-.117 1.05-.328 1.509l.009-.023c-.213.48-.531.918-.93 1.291-.402.366-.879.66-1.405.855a4.531 4.531 0 01-1.612.291h-.047.002H4.653c-2.554 0-4.4-1.696-4.4-4.043V7.146L.252 7c0-1.259.262-2.458.735-3.543l-.022.057C1.874 1.473 3.552.285 5.917.108c2.032-.15 4.091-.099 6.128-.105 5.72-.006 11.44-.006 17.161 0 2.647 0 4.475 1.675 4.481 4.097v1.819zm-2.848-.057V4.185c0-1.08-.534-1.567-1.705-1.567H10.912c-1.351 0-2.698-.018-4.046.012-2.191.045-3.661 1.393-3.571 3.232h27.551zm-1.756 10.465h-.035c-.646 0-1.251.18-1.766.492l.015-.009a3.038 3.038 0 00-1.184 1.293l-.008.018a2.681 2.681 0 00-.252 1.143c0 .197.021.388.061.573l-.003-.018c.12.57.42 1.098.87 1.513a3.273 3.273 0 001.633.81c.621.12 1.267.06 1.855-.156a3.182 3.182 0 001.441-1.08c.337-.45.541-1.015.546-1.628v-.001a2.814 2.814 0 00-.922-2.075l-.002-.002a3.335 3.335 0 00-2.251-.87z"/></svg>