<?xml version="1.0" encoding="utf-8"?><svg xmlns="http://www.w3.org/2000/svg" width="32" height="32" viewBox="0 0 32 32"><path d="M28.308 30.215H16.662a1.768 1.768 0 01-.147.509l.005-.011c-.293.43-.617.834-.932 1.246-.315-.409-.635-.812-.94-1.227-.196-.258-.304-.647-.558-.786a2.359 2.359 0 01-1.316-2.239v.006-17.552c0-1.669.805-2.407 2.5-2.411 4.782-.018 9.563-.018 14.343 0 1.653 0 2.498.8 2.498 2.418.018 5.849.018 11.698 0 17.55.028.494-.112.983-.395 1.39-.699.752-1.543 1.296-1.748 2.492-.107.606-1.189.498-1.468-.176a5.273 5.273 0 01-.195-1.196v-.012zm-9.914-11.207v-7.342c0-.661-.05-1.344-.889-1.344s-.999.613-.999 1.28v14.681c0 .654.091 1.342.949 1.316.859-.023.939-.697.939-1.374v-7.218zm9.991-.094v-7.097c0-.724.043-1.54-1.001-1.495s-.873.843-.873 1.493v14.293c0 .679 0 1.451.928 1.456.93.005.944-.747.944-1.445v-7.205zM3.987 30.112c.011.407-.044.812-.165 1.2-.171.284-.555.649-.805.619-.249-.03-.864-.418-.869-.658 0-.887-.583-1.211-1.157-1.705a2.568 2.568 0 01-.789-1.707v-.007a371.095 371.095 0 01.004-12.007l-.004.309a1.99 1.99 0 011.235-2.026l.013-.005c.265-.107.549-.155.836-.142 2.821-.053 5.648 0 8.644 0v12.599c0 1.138.165 2.272.267 3.559l-7.209-.03zm1.777-7.973v-4.356c0-.663-.121-1.401-.949-1.257a1.57 1.57 0 00-.874 1.188l-.001.008a165.161 165.161 0 00.005 8.807l-.005-.221c0 .423.56.836.859 1.255.32-.398.88-.777.914-1.195.124-1.387.052-2.802.052-4.213v-.018zM26.527 5.808h-1.89V2.972c0-.688-.284-.997-.958-.997h-.124c-3.2-.19-3.2-.19-3.291 2.99 0 .244-.046.498-.076.793h-1.822c.32-1.746-.734-3.714 1.044-5.189.825-.683 4.996-.786 5.92-.119 1.961 1.44.917 3.499 1.198 5.358zM11.162 8.269l-.34 1.79c-1.499-.315-2.311.229-1.867 1.948H7.236c-.775-2.681.668-4.107 3.925-3.739z"/></svg>