<?xml version="1.0" encoding="utf-8"?><svg xmlns="http://www.w3.org/2000/svg" width="29" height="32" viewBox="0 0 29 32"><path d="M14.502 0C9.931 0 6.193 3.737 6.193 8.309s3.737 8.309 8.309 8.309c4.571 0 8.309-3.737 8.309-8.309S19.074 0 14.502 0zm14.261 23.257a7.685 7.685 0 00-.853-1.548l.016.024c-1.613-2.396-4.151-4.063-7.092-4.492l-.056-.007a1.529 1.529 0 00-1.057.255l.005-.003a8.677 8.677 0 01-5.193 1.71h-.036.002a8.749 8.749 0 01-5.225-1.705 1.351 1.351 0 00-1.06-.253l.008-.001a10.274 10.274 0 00-7.124 4.461l-.023.037a8.761 8.761 0 00-.834 1.525.766.766 0 00.038.691l-.002-.004c.29.507.654 1.017.981 1.451.507.69 1.051 1.305 1.669 1.886.507.51 1.088.981 1.669 1.451a16.317 16.317 0 009.83 3.264h.042-.002.035c3.707 0 7.127-1.227 9.877-3.297l-.042.03a15.621 15.621 0 001.669-1.451 16.76 16.76 0 002.607-3.264l.042-.073c.181-.217.217-.471.107-.69z"/></svg>