<?xml version="1.0" encoding="utf-8"?><svg xmlns="http://www.w3.org/2000/svg" width="32" height="32" viewBox="0 0 32 32"><path d="M28.86 3.563v3.872a3.162 3.162 0 01-3.162 3.159h-2.005c-1.751 0-3.189-1.41-3.189-3.159V3.55h-9.009v3.885c0 1.749-1.438 3.159-3.187 3.159H6.301a3.162 3.162 0 01-3.162-3.158V3.564A2.88 2.88 0 00.353 6.43v22.685c0 1.587 1.286 2.886 2.869 2.886h25.555c1.581 0 2.869-1.303 2.869-2.886V6.431a2.88 2.88 0 00-2.781-2.867h-.005zm-.928 24.14a1.24 1.24 0 01-1.24 1.24H5.254a1.24 1.24 0 01-1.24-1.24V15.985c0-.685.555-1.242 1.242-1.242h21.436c.685 0 1.24.557 1.24 1.242v11.718z"/><path d="M6.302 8.518H8.28c.6 0 1.086-.486 1.086-1.086V1.088v-.002C9.366.486 8.88 0 8.28 0H6.302c-.6 0-1.086.486-1.086 1.086v6.345c0 .602.486 1.086 1.086 1.086zm17.365 0h1.978c.6 0 1.086-.486 1.086-1.086V1.088v-.002c0-.6-.486-1.086-1.086-1.086h-1.978c-.6 0-1.086.486-1.086 1.086v6.345c0 .602.488 1.086 1.086 1.086z"/></svg>