<?xml version="1.0" encoding="utf-8"?><svg xmlns="http://www.w3.org/2000/svg" width="32" height="32" viewBox="0 0 32 32"><path d="M7.5 17a3.25 3.25 0 100 6.5 3.25 3.25 0 100-6.5zm0 4.75a1.5 1.5 0 010-3 1.5 1.5 0 010 3zm18-4.75a3.25 3.25 0 100 6.5 3.25 3.25 0 100-6.5zm0 4.75a1.5 1.5 0 010-3 1.5 1.5 0 010 3z"/><path d="M29.838 14.314L24 13.25l-4.97-4.124a2.742 2.742 0 00-1.748-.626H9.955a2.73 2.73 0 00-2.136 1.027l-.004.005-3.174 3.718h-2.14a2.252 2.252 0 00-2.25 2.25v2.75A2.754 2.754 0 003.001 21h.572a4 4 0 117.852.025l.004-.025h10.144a3.998 3.998 0 117.852.025l.004-.025h.072a2.252 2.252 0 002.25-2.25v-2.21-.012a2.236 2.236 0 00-1.9-2.211l-.012-.002zM11.25 12.5a.75.75 0 01-.75.75H7.2a.373.373 0 01-.281-.62l2.18-2.556a.747.747 0 01.568-.26h.834a.75.75 0 01.75.748V12.5zM15 16h-1a.75.75 0 010-1.5h1a.75.75 0 010 1.5zm5.906-2.732l-7.158-.016a.75.75 0 01-.748-.75v-1.94a.75.75 0 01.75-.75h3.596c.17 0 .332.058.466.16l3.326 2.626a.373.373 0 01-.229.67h-.006z"/></svg>