<?xml version="1.0" encoding="utf-8"?><svg xmlns="http://www.w3.org/2000/svg" width="27" height="32" viewBox="0 0 27 32"><path d="M10.069 17.261c-2.561-2.955-3.268-6.429-3.757-9.987a2.505 2.505 0 00-.475-1.055l.004.006c-1.292-1.809-1.166-3.311.791-4.391A15.527 15.527 0 0111.371.225l.093-.013A12.917 12.917 0 0113.829 0c2.136 0 4.155.504 5.944 1.398l-.077-.035c2.296 1.11 3.22 3.184 1.359 5.054-.435.434-.344 1.399-.477 2.122-.562 3.124-1.287 6.182-3.624 8.709 2.102.832 3.992 1.616 5.913 2.322 1.54.567 2.681 1.61 2.953 3.166.477 2.75.719 5.548.954 8.335 0 .278-.658.88-1.015.88-8.148.048-16.308.03-24.449.048-.852 0-1.208-.356-1.142-1.17.266-2.539.447-5.09.87-7.605a4.657 4.657 0 011.12-2.365l-.004.005a4.678 4.678 0 012.179-1.383l.033-.008c1.848-.633 3.648-1.405 5.702-2.214zM1.07 30.752h24.927c-.356-2.527-.604-4.915-1.081-7.237a3.92 3.92 0 00-1.441-2.327l-.009-.007a29.963 29.963 0 00-4.192-1.937l-.217-.071-5.291 10.855-.532-.06-5.436-10.657-2.561.965c-1.504.603-2.881 1.339-3.165 3.106-.375 2.394-.659 4.812-1.002 7.369zM13.512 7.919c2.102-.639 4.18-1.061 6.04-1.906s1.812-2.267.103-3.432c-2.779-1.906-9.483-1.906-12.316 0-1.685 1.128-1.745 2.611.097 3.437s3.98 1.26 6.076 1.9zm-5.334 3.354c.55 2.183 1.341 4.143 3.117 5.536.606.496 1.388.797 2.241.797s1.635-.301 2.247-.802l-.006.005c1.776-1.399 2.488-3.389 3.093-5.494-1.581.346-3.398.545-5.26.545-1.924 0-3.798-.212-5.601-.613l.171.032v-.006zM7.484 7.43c.139 1.924 1.208 3.112 3.02 3.19 2.005.085 4.022.085 6.04 0 1.812-.072 2.851-1.206 3.056-3.226-1.807.744-3.905 1.176-6.104 1.176-2.164 0-4.231-.419-6.123-1.179l.11.039zm10.661 11.115H14.57c-.743 0-1.559.175-2.211-.073-1.299-.501-2.296 0-3.473.603l2.416 4.771.471-.073c.03-.603.109-1.206.085-1.767-.06-2.219.024-2.334 1.703-2.334s1.721.181 1.594 2.376c-.006.515.016 1.031.066 1.544l.441.036 2.483-5.084zm-4.651 4.378c-1.667 2.37-1.637 3.124.103 4.782 1.558-2.497 1.558-2.665-.103-4.782z"/><path d="M18.855 21.512a5.025 5.025 0 011.817-.333c.597 0 1.171.102 1.704.29l-.036-.011v.671h-3.467l-.018-.617z"/></svg>