<?xml version="1.0" encoding="utf-8"?><svg xmlns="http://www.w3.org/2000/svg" width="25" height="32" viewBox="0 0 25 32"><path d="M20.625 4.687C20.625 2.019 16.997 0 12.184 0S3.748 2.016 3.748 4.687a.94.94 0 00.938.938h15.001a.934.934 0 00.935-.935zM10.144 26.538l.758-1.009-1.098-.906.34 1.915zM13.278 32l.507-2.934-1.595-2.129-1.6 2.129.512 2.934h2.178zm1.294-7.377l-1.095.906.756 1.009.34-1.915zm-7.357-3.872l-.502.084C2.887 21.455.001 24.734 0 28.687V32h9.194L7.215 20.751zm17.162 7.938v-.001a7.953 7.953 0 00-6.669-7.848l-.046-.006-.502-.084-1.979 11.249h9.196v-3.311zm-9.083-8.15a6.141 6.141 0 01-1.231.148h-3.749a6.07 6.07 0 01-1.231-.148l.217 1.236 2.887 2.385 2.887-2.388.222-1.231zm-4.98-1.725h3.749a4.694 4.694 0 004.687-4.689v-2.457a3.67 3.67 0 01-1.875.522H7.5a3.689 3.689 0 01-1.876-.522v2.462a4.692 4.692 0 004.687 4.687zm-2.814-8.5h9.374a1.877 1.877 0 001.876-1.876V7.5H5.625v.935c0 1.036.839 1.876 1.876 1.876z"/></svg>