<?xml version="1.0" encoding="utf-8"?><svg xmlns="http://www.w3.org/2000/svg" width="74" height="32" viewBox="0 0 74 32"><path fill="#5f6368" d="M73.564 9.664L64.53 30.829h-2.737l3.375-7.367-5.932-13.708h2.922l4.29 10.538h.089l4.2-10.538h2.829v-.091h-.003zm-38.517 5.965v8.672H32.31V2.854h7.127a6.7 6.7 0 014.65 1.868l-.002-.002C45.362 5.838 46 7.516 46 9.289c0 1.772-.638 3.357-1.915 4.569-1.28 1.213-2.829 1.864-4.655 1.864l-4.382-.093zm0-10.164v7.459h4.564c1.004 0 2.009-.372 2.648-1.118 1.462-1.4 1.462-3.731.089-5.13l-.089-.093c-.729-.746-1.644-1.213-2.648-1.118h-4.564zm17.25 3.729c2.011 0 3.56.559 4.748 1.679 1.187 1.118 1.735 2.611 1.735 4.475v8.953h-2.557V22.25h-.089c-1.095 1.677-2.649 2.518-4.475 2.518-1.549 0-2.917-.467-4.013-1.4-1.007-.933-1.645-2.238-1.645-3.638 0-1.491.549-2.703 1.645-3.636 1.095-.931 2.644-1.305 4.472-1.305 1.642 0 2.92.28 3.924.933v-.652c0-.931-.365-1.864-1.095-2.425a3.911 3.911 0 00-2.645-1.024h-.005c-1.549 0-2.737.652-3.555 1.959l-2.375-1.492c1.46-1.959 3.377-2.892 5.933-2.892h-.003zm-3.468 10.631c0 .746.365 1.398.915 1.772.64.467 1.369.746 2.1.746 1.095 0 2.188-.467 3.01-1.305.915-.84 1.369-1.866 1.369-2.984-.82-.652-2.008-1.027-3.56-1.027-1.095 0-2.008.281-2.737.842-.731.465-1.095 1.118-1.095 1.957z"/><path fill="#4285f4" d="M24.191 13.767c0-.84-.093-1.679-.185-2.518H12.601v4.755h6.477c-.273 1.492-1.095 2.892-2.371 3.731v3.077h3.924c2.28-2.144 3.56-5.315 3.56-9.044z"/><path fill="#34a853" d="M12.598 25.795c3.288 0 6.024-1.12 8.034-2.984l-3.924-3.077c-1.095.746-2.464 1.213-4.109 1.213-3.102 0-5.839-2.146-6.754-5.128H1.83v3.17c2.1 4.197 6.206 6.808 10.769 6.808z"/><path fill="#fbbc04" d="M5.841 15.816c-.546-1.492-.546-3.17 0-4.755V7.89H1.828c-1.735 3.451-1.735 7.554 0 11.097l4.013-3.171z"/><path fill="#ea4335" d="M12.595 6.026c1.735 0 3.379.652 4.655 1.864l3.471-3.544c-2.191-2.051-5.113-3.264-8.034-3.171A11.942 11.942 0 001.946 7.912l-.031.071 4.017 3.171c.824-2.984 3.56-5.13 6.663-5.13z"/></svg>