<?xml version="1.0" encoding="utf-8"?><svg width="15" height="13" fill="none" xmlns="http://www.w3.org/2000/svg" viewBox="0 0 15 13"><path d="M2.235 2.59l1.363-1.357c.157-.156.314-.309.469-.47C4.26.569 4.272.31 4.1.13c-.173-.179-.444-.176-.644.024C2.608 1 1.762 1.847.916 2.694c-.202.204-.203.453 0 .656.846.849 1.692 1.696 2.54 2.542.2.199.467.207.644.024.177-.182.16-.441-.042-.644-.566-.568-1.133-1.135-1.7-1.701a.624.624 0 00-.102-.069l.022-.037c.043 0 .086-.008.129-.008l11.634-.002c.068.003.136 0 .202-.011a.432.432 0 00-.079-.853c-.2-.008-.4 0-.601 0H2.235z" fill="#03ACD1"/><path d="M13.066 8.64H1.32c-.352 0-.555.16-.555.435 0 .276.204.432.56.432h11.792c-.324.32-.616.607-.905.896-.31.308-.618.617-.925.925-.2.202-.21.467-.03.646.18.178.442.164.644-.038.84-.84 1.678-1.68 2.517-2.522.221-.221.22-.465-.003-.688l-2.507-2.51c-.21-.209-.473-.225-.655-.04-.183.186-.163.445.048.657l1.69 1.69c.032.027.065.05.1.072l-.025.044z" fill="#FF0002"/></svg>