<?xml version="1.0" encoding="utf-8"?><svg xmlns="http://www.w3.org/2000/svg" width="37" height="32" viewBox="0 0 37 32"><path d="M5.079 7.486l3.358-3.34c.384-.384.773-.761 1.154-1.157.475-.48.505-1.118.079-1.558C9.247.99 8.577.998 8.085 1.49l-6.25 6.252c-.497.502-.5 1.115 0 1.615 2.08 2.09 4.165 4.175 6.252 6.257.492.49 1.147.51 1.583.059.436-.448.394-1.086-.103-1.585a2065.182 2065.182 0 00-4.185-4.187 1.531 1.531 0 00-.243-.166l-.008-.004.057-.091c.106 0 .209-.02.315-.02l28.64-.005c.165.007.332 0 .497-.027a1.065 1.065 0 00-.195-2.1h-.002c-.49-.02-.985 0-1.477 0H5.077zM31.742 22.378H2.829c-.866 0-1.366.394-1.366 1.071 0 .679.502 1.063 1.378 1.063h29.026c-.798.788-1.516 1.494-2.228 2.206-.763.758-1.521 1.519-2.277 2.277-.492.497-.517 1.15-.074 1.59.443.438 1.088.404 1.585-.094 2.068-2.068 4.13-4.135 6.196-6.208.544-.544.542-1.145-.007-1.694l-6.171-6.178c-.517-.514-1.164-.554-1.612-.098-.45.458-.401 1.095.118 1.617l4.16 4.16c.079.066.16.123.246.177l-.062.108z"/></svg>