<?xml version="1.0" encoding="utf-8"?><svg xmlns="http://www.w3.org/2000/svg" width="32" height="32" viewBox="0 0 32 32"><path d="M23.665 18.188c-2.154-2.599-4.874-4.034-7.665-4.034-2.786 0-5.509 1.433-7.663 4.032-1.935 2.336-3.089 5.28-3.089 7.877 0 1.26.384 2.22 1.145 2.855.751.625 1.743.837 2.848.837 1.174 0 2.481-.241 3.766-.478 1.12-.204 2.178-.399 2.993-.399.706 0 1.698.185 2.75.379 2.459.458 5.243.975 6.853-.364.763-.635 1.152-1.588 1.152-2.831 0-2.597-1.157-5.541-3.089-7.877zm.219-14.117c-.788-1.162-1.915-1.826-3.094-1.826-1.182 0-2.309.665-3.097 1.826-.724 1.066-1.122 2.469-1.122 3.946s.399 2.88 1.122 3.946c.788 1.159 1.918 1.826 3.097 1.826s2.306-.665 3.094-1.826c.724-1.068 1.122-2.469 1.122-3.946s-.399-2.88-1.122-3.946zm-9.578 0c-.788-1.162-1.915-1.826-3.094-1.826-1.182 0-2.306.665-3.094 1.826-.724 1.066-1.122 2.469-1.122 3.946s.399 2.88 1.122 3.946c.788 1.159 1.915 1.826 3.094 1.826s2.306-.665 3.094-1.826c.724-1.068 1.122-2.469 1.122-3.946s-.399-2.88-1.122-3.946zm17.507 9.064c-.318-1.083-.997-1.866-1.915-2.21-.738-.278-1.575-.231-2.351.133-1.068.5-1.942 1.534-2.398 2.833-.369 1.063-.418 2.186-.13 3.163.32 1.083.999 1.866 1.92 2.21.315.121.65.18.992.18a3.186 3.186 0 001.373-.321l-.019.008c1.071-.5 1.945-1.534 2.398-2.833.372-1.063.418-2.186.13-3.163zm-24.965.753c-.453-1.3-1.329-2.334-2.395-2.831a3.02 3.02 0 00-2.372-.129l.021-.007c-.918.345-1.6 1.132-1.915 2.21-.288.977-.241 2.102.13 3.166.453 1.3 1.329 2.334 2.395 2.831.397.194.863.309 1.355.313h.001c.34 0 .677-.059.994-.177.918-.345 1.6-1.132 1.915-2.21a5.226 5.226 0 00-.142-3.202l.012.036z"/></svg>