<?xml version="1.0" encoding="utf-8"?><svg xmlns="http://www.w3.org/2000/svg" width="32" height="32" viewBox="0 0 32 32"><path d="M23 32a8.927 8.927 0 01-3.122-.566l.061.02c-4.628-1.72-8.58-4.291-11.844-7.55A32.624 32.624 0 01.619 12.285l-.074-.225a8.685 8.685 0 01-.546-3.062c0-.455.034-.901.1-1.337l-.006.049a9.085 9.085 0 014.619-6.62l.047-.024A8.8 8.8 0 018.985 0h.042-.002a1 1 0 01.976.783l.001.007 1.57 7.326a.994.994 0 01-.272.916l-2.68 2.68c2.587 5.062 6.603 9.08 11.516 11.599l.148.069 2.682-2.682a.994.994 0 01.923-.271l-.007-.001 7.326 1.57c.455.1.79.5.79.978a8.92 8.92 0 01-1.066 4.266c-1.355 2.469-3.757 4.219-6.593 4.659l-.051.007A8.59 8.59 0 0123 32h-.004zM8.226 2.044c-2 .22-3.776 1.268-4.954 2.95a6.834 6.834 0 00-1.276 3.994c0 .858.157 1.68.443 2.437l-.016-.047c3.134 8.488 9.709 15.062 17.986 18.128l.21.068a6.76 6.76 0 002.39.428 6.86 6.86 0 004.015-1.29l-.021.014a6.933 6.933 0 002.947-4.923l.003-.031-5.96-1.276-2.8 2.8a.996.996 0 01-1.138.197l.006.003c-5.984-2.862-10.698-7.576-13.486-13.39l-.074-.17a.994.994 0 01.2-1.132l2.8-2.8-1.276-5.96z"/></svg>