<?xml version="1.0" encoding="utf-8"?><svg xmlns="http://www.w3.org/2000/svg" width="160" height="32" viewBox="0 0 160 32"><path d="M40 18.896V0h6.696v18.66c0 4.384 2.516 7.4 7.304 7.4 4.792 0 7.256-3.016 7.256-7.4V0H68v18.852C68 26.676 63.44 32 54 32s-14-5.372-14-13.104zm44 8.18l3.924-5.016c2.4 2.28 6.12 4.18 10.816 4.18 3.98 0 5.916-1.672 5.916-3.44 0-5.48-19.588-1.716-19.588-13.372 0-5.156 4.9-9.428 12.904-9.428 5.412 0 9.896 1.484 13.264 4.32L107.2 9.148c-2.748-2.32-6.424-3.388-9.892-3.388-3.112 0-4.844 1.252-4.844 3.112 0 4.92 19.532 1.624 19.532 13.188C112 27.728 107.56 32 98.384 32c-6.528 0-11.22-2-14.384-4.924zM128 16c0-9.32 6.748-16 15.98-16C153.252 0 160 6.68 160 16s-6.748 16-16.02 16C134.748 32 128 25.32 128 16zm25.296 0c0-5.796-3.672-10.156-9.32-10.156-5.644 0-9.272 4.36-9.272 10.16 0 5.748 3.628 10.152 9.276 10.152 5.644 0 9.316-4.4 9.316-10.156zM17.332 19.812c3.2-.816 6.492-3.84 6.492-9.5C23.824 4.364 20.04 0 13.864 0H0v5.996h12.936c2.532 0 4.44 1.628 4.44 4.32 0 2.68-1.912 4.316-4.44 4.316H0v17.364h6.308V20.628h4.624L16.76 32H24l-6.668-12.188z"/></svg>